<svg version="1.1" viewBox="0.0 0.0 960.0 540.0" fill="none" stroke="none" stroke-linecap="square" stroke-miterlimit="10" xmlns:xlink="http://www.w3.org/1999/xlink" xmlns="http://www.w3.org/2000/svg"><clipPath id="gcf7ebf2055_3_175.0"><path d="m0 0l960.0 0l0 540.0l-960.0 0l0 -540.0z" clip-rule="nonzero"/></clipPath><g clip-path="url(#gcf7ebf2055_3_175.0)"><path fill="#000000" fill-opacity="0.0" d="m0 0l960.0 0l0 540.0l-960.0 0z" fill-rule="evenodd"/><path fill="#999999" d="m0.002624672 62.005062l0 0c0 -3.7506485 3.0405025 -6.791153 6.791153 -6.791153l277.15784 0c1.801117 0 3.528473 0.71549606 4.802063 1.9890862c1.2735901 1.2735863 1.9890747 3.0009422 1.9890747 4.802067l0 59.33108c0 3.7506485 -3.0404968 6.7911606 -6.7911377 6.7911606l-277.15784 0c-3.7506502 0 -6.791153 -3.040512 -6.791153 -6.7911606z" fill-rule="evenodd"/><path fill="#ec3d3d" d="m301.8183 62.005062l0 0c0 -3.7506485 3.0404968 -6.791153 6.7911377 -6.791153l200.59094 0c1.801117 0 3.5285034 0.71549606 4.802063 1.9890862c1.2735596 1.2735863 1.9890747 3.0009422 1.9890747 4.802067l0 59.33108c0 3.7506485 -3.0404663 6.7911606 -6.7911377 6.7911606l-200.59094 0l0 0c-3.7506409 0 -6.7911377 -3.040512 -6.7911377 -6.7911606z" fill-rule="evenodd"/><path fill="#ec3d3d" d="m523.8212 62.005062l0 0c0 -3.7506485 3.0404663 -6.791153 6.7911377 -6.791153l200.59094 0c1.8010864 0 3.5284424 0.71549606 4.802063 1.9890862c1.2735596 1.2735863 1.9890747 3.0009422 1.9890747 4.802067l0 59.33108c0 3.7506485 -3.0405273 6.7911606 -6.7911377 6.7911606l-200.59094 0l0 0c-3.7506714 0 -6.7911377 -3.040512 -6.7911377 -6.7911606z" fill-rule="evenodd"/><path fill="#ec3d3d" d="m745.8241 62.005062l0 0c0 -3.7506485 3.0405273 -6.791153 6.7911377 -6.791153l200.59094 0c1.8011475 0 3.5285034 0.71549606 4.802063 1.9890862c1.2736206 1.2735863 1.9890747 3.0009422 1.9890747 4.802067l0 59.33108c0 3.7506485 -3.0404663 6.7911606 -6.7911377 6.7911606l-200.59094 0l0 0c-3.7506104 0 -6.7911377 -3.040512 -6.7911377 -6.7911606z" fill-rule="evenodd"/><path fill="#efefef" d="m0.002969029 143.71709l0 0c0 -4.1362457 3.35309 -7.489334 7.489336 -7.489334l275.76147 0c1.9862976 0 3.8912354 0.7890625 5.2957764 2.193573c1.4045105 1.4045258 2.193573 3.3094788 2.193573 5.295761l0 65.430786c0 4.1362457 -3.3530884 7.489334 -7.4893494 7.489334l-275.76147 0c-4.136246 0 -7.489336 -3.3530884 -7.489336 -7.489334z" fill-rule="evenodd"/><path fill="#000000" d="m20.854166 183.35248l0 -13.265625l3.734375 0q1.734375 0 3.0625 0.765625q1.328125 0.765625 2.046875 2.1875q0.734375 1.40625 0.734375 3.234375l0 0.84375q0 1.875 -0.71875 3.296875q-0.71875 1.40625 -2.0625 2.171875q-1.34375 0.75 -3.140625 0.765625l-3.65625 0zm1.734375 -11.828125l0 10.390625l1.84375 0q2.03125 0 3.15625 -1.25q1.125 -1.25 1.125 -3.578125l0 -0.78125q0 -2.25 -1.0625 -3.5q-1.0625 -1.265625 -3.015625 -1.28125l-2.046875 0zm14.312181 12.015625q-2.0 0 -3.265625 -1.3125q-1.25 -1.328125 -1.25 -3.53125l0 -0.3125q0 -1.46875 0.5625 -2.609375q0.5625 -1.15625 1.5625 -1.796875q1.015625 -0.65625 2.1875 -0.65625q1.921875 0 2.984375 1.265625q1.0625 1.265625 1.0625 3.625l0 0.6875l-6.671875 0q0.03125 1.46875 0.84375 2.375q0.828125 0.890625 2.078125 0.890625q0.890625 0 1.515625 -0.359375q0.625 -0.375 1.078125 -0.96875l1.03125 0.796875q-1.234375 1.90625 -3.71875 1.90625zm-0.203125 -8.84375q-1.015625 0 -1.71875 0.75q-0.6875 0.734375 -0.84375 2.078125l4.9375 0l0 -0.125q-0.078125 -1.28125 -0.703125 -1.984375q-0.609375 -0.71875 -1.671875 -0.71875zm9.961929 7.46875q0.890625 0 1.5625 -0.546875q0.6875 -0.546875 0.75 -1.375l1.59375 0q-0.046875 0.84375 -0.578125 1.609375q-0.53125 0.765625 -1.4375 1.234375q-0.890625 0.453125 -1.890625 0.453125q-2.015625 0 -3.203125 -1.34375q-1.1875 -1.34375 -1.1875 -3.6875l0 -0.28125q0 -1.4375 0.515625 -2.546875q0.53125 -1.125 1.515625 -1.734375q1.0 -0.625 2.34375 -0.625q1.65625 0 2.75 1.0q1.109375 0.984375 1.171875 2.5625l-1.59375 0q-0.0625 -0.953125 -0.71875 -1.5625q-0.65625 -0.625 -1.609375 -0.625q-1.28125 0 -2.0 0.921875q-0.703125 0.921875 -0.703125 2.671875l0 0.328125q0 1.703125 0.703125 2.625q0.703125 0.921875 2.015625 0.921875zm9.890381 1.375q-2.0 0 -3.265625 -1.3125q-1.25 -1.328125 -1.25 -3.53125l0 -0.3125q0 -1.46875 0.5625 -2.609375q0.5625 -1.15625 1.5625 -1.796875q1.015625 -0.65625 2.1875 -0.65625q1.921875 0 2.984375 1.265625q1.0625 1.265625 1.0625 3.625l0 0.6875l-6.671875 0q0.03125 1.46875 0.84375 2.375q0.828125 0.890625 2.078125 0.890625q0.890625 0 1.515625 -0.359375q0.625 -0.375 1.078125 -0.96875l1.03125 0.796875q-1.234375 1.90625 -3.71875 1.90625zm-0.203125 -8.84375q-1.015625 0 -1.71875 0.75q-0.6875 0.734375 -0.84375 2.078125l4.9375 0l0 -0.125q-0.078125 -1.28125 -0.703125 -1.984375q-0.609375 -0.71875 -1.671875 -0.71875zm7.6025543 -1.203125l0.046875 1.234375q1.1249962 -1.40625 2.9531212 -1.40625q3.125 0 3.15625 3.515625l0 6.515625l-1.6875 0l0 -6.515625q-0.015625 -1.078125 -0.5 -1.578125q-0.46875 -0.515625 -1.484375 -0.515625q-0.8125 0 -1.4375 0.4375q-0.609375 0.4375 -0.96875 1.15625l0 7.015625l-1.6718712 0l0 -9.859375l1.59375 0zm10.981228 -2.390625l0 2.390625l1.84375 0l0 1.3125l-1.84375 0l0 6.109375q0 0.59375 0.234375 0.890625q0.25 0.296875 0.84375 0.296875q0.296875 0 0.8125 -0.109375l0 1.359375q-0.671875 0.1875 -1.296875 0.1875q-1.125 0 -1.703125 -0.6875q-0.578125 -0.6875 -0.578125 -1.9375l0 -6.109375l-1.796875 0l0 -1.3125l1.796875 0l0 -2.390625l1.6875 0zm8.578629 3.90625q-0.390625 -0.0625 -0.84375 -0.0625q-1.65625 0 -2.25 1.40625l0 7.0l-1.671875 0l0 -9.859375l1.640625 0l0.015625 1.140625q0.828125 -1.3125 2.359375 -1.3125q0.484375 0 0.75 0.125l0 1.5625zm7.260803 8.34375q-0.140625 -0.296875 -0.234375 -1.03125q-1.171875 1.21875 -2.8125 1.21875q-1.453125 0 -2.390625 -0.828125q-0.921875 -0.828125 -0.921875 -2.09375q0 -1.53125 1.15625 -2.375q1.171875 -0.859375 3.296875 -0.859375l1.640625 0l0 -0.78125q0 -0.890625 -0.53125 -1.40625q-0.515625 -0.53125 -1.546875 -0.53125q-0.90625 0 -1.515625 0.46875q-0.609375 0.453125 -0.609375 1.09375l-1.703125 0q0 -0.734375 0.515625 -1.421875q0.53125 -0.6875 1.421875 -1.078125q0.90625 -0.40625 1.984375 -0.40625q1.703125 0 2.671875 0.859375q0.96875 0.84375 1.0 2.328125l0 4.53125q0 1.359375 0.34375 2.171875l0 0.140625l-1.765625 0zm-2.796875 -1.28125q0.796875 0 1.5 -0.40625q0.71875 -0.421875 1.03125 -1.078125l0 -2.015625l-1.3125 0q-3.109375 0 -3.109375 1.8125q0 0.796875 0.53125 1.25q0.53125 0.4375 1.359375 0.4375zm8.694855 1.28125l-1.6875 0l0 -14.0l1.6875 0l0 14.0zm4.52742 0l-1.6875 0l0 -9.859375l1.6875 0l0 9.859375zm-1.828125 -12.46875q0 -0.40625 0.25 -0.6875q0.25 -0.296875 0.734375 -0.296875q0.5 0 0.75 0.296875q0.265625 0.28125 0.265625 0.6875q0 0.40625 -0.265625 0.6875q-0.25 0.265625 -0.75 0.265625q-0.484375 0 -0.734375 -0.265625q-0.25 -0.28125 -0.25 -0.6875zm6.105545 11.09375l5.765625 0l0 1.375l-7.828125 0l0 -1.234375l5.4375 -7.234375l-5.34375 0l0 -1.390625l7.46875 0l0 1.203125l-5.5 7.28125zm11.600311 1.5625q-2.0 0 -3.265625 -1.3125q-1.25 -1.328125 -1.25 -3.53125l0 -0.3125q0 -1.46875 0.5625 -2.609375q0.5625 -1.15625 1.5625 -1.796875q1.015625 -0.65625 2.1875 -0.65625q1.921875 0 2.984375 1.265625q1.0625 1.265625 1.0625 3.625l0 0.6875l-6.671875 0q0.03125 1.46875 0.84375 2.375q0.828125 0.890625 2.078125 0.890625q0.890625 0 1.515625 -0.359375q0.625 -0.375 1.078125 -0.96875l1.03125 0.796875q-1.234375 1.90625 -3.71875 1.90625zm-0.203125 -8.84375q-1.015625 0 -1.71875 0.75q-0.6875 0.734375 -0.84375 2.078125l4.9375 0l0 -0.125q-0.078125 -1.28125 -0.703125 -1.984375q-0.609375 -0.71875 -1.671875 -0.71875zm5.5869293 3.640625q0 -2.265625 1.078125 -3.640625q1.078125 -1.375 2.8125 -1.375q1.7343826 0 2.7500076 1.171875l0 -5.140625l1.6874847 0l0 14.0l-1.5468597 0l-0.09375 -1.0625q-1.0 1.25 -2.8125076 1.25q-1.703125 0 -2.796875 -1.40625q-1.078125 -1.40625 -1.078125 -3.65625l0 -0.140625zm1.6875 0.203125q0 1.671875 0.6875 2.625q0.703125 0.9375 1.921875 0.9375q1.6093826 0 2.3437576 -1.4375l0 -4.53125q-0.765625 -1.390625 -2.3281326 -1.390625q-1.234375 0 -1.9375 0.953125q-0.6875 0.953125 -0.6875 2.84375zm19.952477 4.8125q-0.140625 -0.296875 -0.234375 -1.03125q-1.171875 1.21875 -2.8125 1.21875q-1.453125 0 -2.390625 -0.828125q-0.921875 -0.828125 -0.921875 -2.09375q0 -1.53125 1.15625 -2.375q1.171875 -0.859375 3.296875 -0.859375l1.640625 0l0 -0.78125q0 -0.890625 -0.53125 -1.40625q-0.515625 -0.53125 -1.546875 -0.53125q-0.90625 0 -1.515625 0.46875q-0.609375 0.453125 -0.609375 1.09375l-1.703125 0q0 -0.734375 0.515625 -1.421875q0.53125 -0.6875 1.421875 -1.078125q0.90625 -0.40625 1.984375 -0.40625q1.703125 0 2.671875 0.859375q0.96875 0.84375 1.0 2.328125l0 4.53125q0 1.359375 0.34375 2.171875l0 0.140625l-1.765625 0zm-2.796875 -1.28125q0.796875 0 1.5 -0.40625q0.71875 -0.421875 1.03125 -1.078125l0 -2.015625l-1.3125 0q-3.109375 0 -3.109375 1.8125q0 0.796875 0.53125 1.25q0.53125 0.4375 1.359375 0.4375zm8.46048 -8.578125l0.046875 1.234375q1.125 -1.40625 2.953125 -1.40625q3.125 0 3.15625 3.515625l0 6.515625l-1.6875 0l0 -6.515625q-0.015625 -1.078125 -0.5 -1.578125q-0.46875 -0.515625 -1.484375 -0.515625q-0.8125 0 -1.4375 0.4375q-0.609375 0.4375 -0.96875 1.15625l0 7.015625l-1.671875 0l0 -9.859375l1.59375 0zm8.278107 4.84375q0 -2.265625 1.078125 -3.640625q1.078125 -1.375 2.8125 -1.375q1.734375 0 2.75 1.171875l0 -5.140625l1.6875 0l0 14.0l-1.546875 0l-0.09375 -1.0625q-1.0 1.25 -2.8125 1.25q-1.703125 0 -2.796875 -1.40625q-1.078125 -1.40625 -1.078125 -3.65625l0 -0.140625zm1.6875 0.203125q0 1.671875 0.6875 2.625q0.703125 0.9375 1.921875 0.9375q1.609375 0 2.34375 -1.4375l0 -4.53125q-0.765625 -1.390625 -2.328125 -1.390625q-1.234375 0 -1.9375 0.953125q-0.6875 0.953125 -0.6875 2.84375zm22.931671 -7.015625l-4.265625 0l0 11.828125l-1.734375 0l0 -11.828125l-4.25 0l0 -1.4375l10.25 0l0 1.4375zm5.7919617 3.484375q-0.390625 -0.0625 -0.84375 -0.0625q-1.65625 0 -2.25 1.40625l0 7.0l-1.671875 0l0 -9.859375l1.640625 0l0.015625 1.140625q0.828125 -1.3125 2.359375 -1.3125q0.484375 0 0.75 0.125l0 1.5625zm7.260803 8.34375q-0.140625 -0.296875 -0.234375 -1.03125q-1.171875 1.21875 -2.8125 1.21875q-1.453125 0 -2.390625 -0.828125q-0.921875 -0.828125 -0.921875 -2.09375q0 -1.53125 1.15625 -2.375q1.171875 -0.859375 3.296875 -0.859375l1.640625 0l0 -0.78125q0 -0.890625 -0.53125 -1.40625q-0.515625 -0.53125 -1.546875 -0.53125q-0.90625 0 -1.515625 0.46875q-0.609375 0.453125 -0.609375 1.09375l-1.703125 0q0 -0.734375 0.515625 -1.421875q0.53125 -0.6875 1.421875 -1.078125q0.90625 -0.40625 1.984375 -0.40625q1.703125 0 2.671875 0.859375q0.96875 0.84375 1.0 2.328125l0 4.53125q0 1.359375 0.34375 2.171875l0 0.140625l-1.765625 0zm-2.796875 -1.28125q0.796875 0 1.5 -0.40625q0.71875 -0.421875 1.03125 -1.078125l0 -2.015625l-1.3125 0q-3.109375 0 -3.109375 1.8125q0 0.796875 0.53125 1.25q0.53125 0.4375 1.359375 0.4375zm8.46048 -8.578125l0.046875 1.234375q1.125 -1.40625 2.953125 -1.40625q3.125 0 3.15625 3.515625l0 6.515625l-1.6875 0l0 -6.515625q-0.015625 -1.078125 -0.5 -1.578125q-0.46875 -0.515625 -1.484375 -0.515625q-0.8125 0 -1.4375 0.4375q-0.609375 0.4375 -0.96875 1.15625l0 7.015625l-1.671875 0l0 -9.859375l1.59375 0zm14.434357 7.25q0 -0.6875 -0.515625 -1.0625q-0.515625 -0.375 -1.796875 -0.640625q-1.28125 -0.28125 -2.03125 -0.65625q-0.75 -0.390625 -1.109375 -0.921875q-0.359375 -0.53125 -0.359375 -1.265625q0 -1.203125 1.015625 -2.03125q1.03125 -0.84375 2.625 -0.84375q1.671875 0 2.71875 0.859375q1.046875 0.859375 1.046875 2.21875l-1.6875 0q0 -0.703125 -0.59375 -1.203125q-0.59375 -0.5 -1.484375 -0.5q-0.921875 0 -1.4375 0.40625q-0.515625 0.390625 -0.515625 1.046875q0 0.609375 0.484375 0.921875q0.484375 0.3125 1.734375 0.59375q1.265625 0.28125 2.046875 0.671875q0.78125 0.390625 1.15625 0.9375q0.390625 0.546875 0.390625 1.34375q0 1.328125 -1.0625 2.125q-1.046875 0.796875 -2.734375 0.796875q-1.1875 0 -2.109375 -0.421875q-0.90625 -0.421875 -1.421875 -1.171875q-0.515625 -0.75 -0.515625 -1.625l1.6875 0q0.046875 0.84375 0.671875 1.34375q0.640625 0.5 1.6875 0.5q0.953125 0 1.53125 -0.390625q0.578125 -0.390625 0.578125 -1.03125zm12.197754 -2.203125q0 2.25 -1.03125 3.625q-1.015625 1.375 -2.78125 1.375q-1.796875 0 -2.828125 -1.140625l0 4.75l-1.671875 0l0 -13.65625l1.53125 0l0.078125 1.09375q1.03125 -1.265625 2.859375 -1.265625q1.78125 0 2.8125 1.34375q1.03125 1.328125 1.03125 3.71875l0 0.15625zm-1.671875 -0.203125q0 -1.65625 -0.71875 -2.625q-0.703125 -0.96875 -1.953125 -0.96875q-1.53125 0 -2.296875 1.359375l0 4.703125q0.765625 1.359375 2.328125 1.359375q1.203125 0 1.921875 -0.953125q0.71875 -0.96875 0.71875 -2.875zm9.904297 5.015625q-0.140625 -0.296875 -0.234375 -1.03125q-1.171875 1.21875 -2.8125 1.21875q-1.453125 0 -2.390625 -0.828125q-0.921875 -0.828125 -0.921875 -2.09375q0 -1.53125 1.15625 -2.375q1.171875 -0.859375 3.296875 -0.859375l1.640625 0l0 -0.78125q0 -0.890625 -0.53125 -1.40625q-0.515625 -0.53125 -1.546875 -0.53125q-0.90625 0 -1.515625 0.46875q-0.609375 0.453125 -0.609375 1.09375l-1.703125 0q0 -0.734375 0.515625 -1.421875q0.53125 -0.6875 1.421875 -1.078125q0.90625 -0.40625 1.984375 -0.40625q1.703125 0 2.671875 0.859375q0.96875 0.84375 1.0 2.328125l0 4.53125q0 1.359375 0.34375 2.171875l0 0.140625l-1.765625 0zm-2.796875 -1.28125q0.796875 0 1.5 -0.40625q0.71875 -0.421875 1.03125 -1.078125l0 -2.015625l-1.3125 0q-3.109375 0 -3.109375 1.8125q0 0.796875 0.53125 1.25q0.53125 0.4375 1.359375 0.4375zm11.632355 -7.0625q-0.390625 -0.0625 -0.84375 -0.0625q-1.65625 0 -2.25 1.40625l0 7.0l-1.671875 0l0 -9.859375l1.640625 0l0.015625 1.140625q0.828125 -1.3125 2.359375 -1.3125q0.484375 0 0.75 0.125l0 1.5625zm5.4522095 8.53125q-2.0 0 -3.265625 -1.3125q-1.25 -1.328125 -1.25 -3.53125l0 -0.3125q0 -1.46875 0.5625 -2.609375q0.5625 -1.15625 1.5625 -1.796875q1.015625 -0.65625 2.1875 -0.65625q1.921875 0 2.984375 1.265625q1.0625 1.265625 1.0625 3.625l0 0.6875l-6.671875 0q0.03125 1.46875 0.84375 2.375q0.828125 0.890625 2.078125 0.890625q0.890625 0 1.515625 -0.359375q0.625 -0.375 1.078125 -0.96875l1.03125 0.796875q-1.234375 1.90625 -3.71875 1.90625zm-0.203125 -8.84375q-1.015625 0 -1.71875 0.75q-0.6875 0.734375 -0.84375 2.078125l4.9375 0l0 -0.125q-0.078125 -1.28125 -0.703125 -1.984375q-0.609375 -0.71875 -1.671875 -0.71875zm7.602585 -1.203125l0.046875 1.234375q1.125 -1.40625 2.953125 -1.40625q3.125 0 3.15625 3.515625l0 6.515625l-1.6875 0l0 -6.515625q-0.015625 -1.078125 -0.5 -1.578125q-0.46875 -0.515625 -1.484375 -0.515625q-0.8125 0 -1.4375 0.4375q-0.609375 0.4375 -0.96875 1.15625l0 7.015625l-1.671875 0l0 -9.859375l1.59375 0zm10.981232 -2.390625l0 2.390625l1.84375 0l0 1.3125l-1.84375 0l0 6.109375q0 0.59375 0.234375 0.890625q0.25 0.296875 0.84375 0.296875q0.296875 0 0.8125 -0.109375l0 1.359375q-0.671875 0.1875 -1.296875 0.1875q-1.125 0 -1.703125 -0.6875q-0.578125 -0.6875 -0.578125 -1.9375l0 -6.109375l-1.796875 0l0 -1.3125l1.796875 0l0 -2.390625l1.6875 0z" fill-rule="nonzero"/><path fill="#efefef" d="m0.002969029 233.22583l0 0c0 -4.136261 3.35309 -7.4893494 7.489336 -7.4893494l275.76147 0c1.9862976 0 3.8912354 0.7890625 5.2957764 2.1935883c1.4045105 1.4045105 2.193573 3.3094635 2.193573 5.295761l0 65.430756c0 4.136261 -3.3530884 7.4893494 -7.4893494 7.4893494l-275.76147 0c-4.136246 0 -7.489336 -3.3530884 -7.489336 -7.4893494z" fill-rule="evenodd"/><path fill="#000000" d="m65.856865 271.12683q-0.671875 0.953125 -1.8749962 1.4375q-1.203125 0.484375 -2.8125 0.484375q-1.625 0 -2.890625 -0.765625q-1.25 -0.765625 -1.9375 -2.15625q-0.6875 -1.40625 -0.703125 -3.265625l0 -1.15625q0 -2.984375 1.390625 -4.640625q1.40625 -1.65625 3.9375 -1.65625q2.078125 0 3.3437462 1.0625q1.265625 1.0625 1.546875 3.015625l-1.75 0q-0.4843712 -2.625 -3.1249962 -2.625q-1.765625 0 -2.671875 1.234375q-0.90625 1.234375 -0.90625 3.5625l0 1.09375q0 2.234375 1.015625 3.546875q1.015625 1.3125 2.765625 1.3125q0.984375 0 1.71875 -0.21875q0.734375 -0.21875 1.2187462 -0.734375l0 -2.984375l-3.0781212 0l0 -1.421875l4.812496 0l0 4.875zm8.738998 0.765625q-0.984375 1.15625 -2.890625 1.15625q-1.578125 0 -2.40625 -0.921875q-0.8125 -0.921875 -0.828125 -2.703125l0 -6.421875l1.6875 0l0 6.375q0 2.234375 1.828125 2.234375q1.921875 0 2.5625 -1.4375l0 -7.171875l1.6875 0l0 9.859375l-1.609375 0l-0.03125 -0.96875zm10.284622 0.96875q-0.140625 -0.296875 -0.234375 -1.03125q-1.171875 1.21875 -2.8125 1.21875q-1.453125 0 -2.390625 -0.828125q-0.921875 -0.828125 -0.921875 -2.09375q0 -1.53125 1.15625 -2.375q1.171875 -0.859375 3.296875 -0.859375l1.640625 0l0 -0.78125q0 -0.890625 -0.53125 -1.40625q-0.515625 -0.53125 -1.546875 -0.53125q-0.90625 0 -1.515625 0.46875q-0.609375 0.453125 -0.609375 1.09375l-1.703125 0q0 -0.734375 0.515625 -1.421875q0.53125 -0.6875 1.421875 -1.078125q0.90625 -0.40625 1.984375 -0.40625q1.703125 0 2.671875 0.859375q0.96875 0.84375 1.0 2.328125l0 4.53125q0 1.359375 0.34375 2.171875l0 0.140625l-1.765625 0zm-2.796875 -1.28125q0.796875 0 1.5 -0.40625q0.71875 -0.421875 1.03125 -1.078125l0 -2.015625l-1.3125 0q-3.109375 0 -3.109375 1.8125q0 0.796875 0.53125 1.25q0.53125 0.4375 1.359375 0.4375zm11.632355 -7.0625q-0.390625 -0.0625 -0.84375 -0.0625q-1.65625 0 -2.25 1.40625l0 7.0l-1.671875 0l0 -9.859375l1.640625 0l0.015625 1.140625q0.828125 -1.3125 2.359375 -1.3125q0.484375 0 0.75 0.125l0 1.5625zm7.260803 8.34375q-0.140625 -0.296875 -0.234375 -1.03125q-1.171875 1.21875 -2.8125 1.21875q-1.453125 0 -2.390625 -0.828125q-0.921875 -0.828125 -0.921875 -2.09375q0 -1.53125 1.15625 -2.375q1.171875 -0.859375 3.296875 -0.859375l1.640625 0l0 -0.78125q0 -0.890625 -0.53125 -1.40625q-0.515625 -0.53125 -1.546875 -0.53125q-0.90625 0 -1.515625 0.46875q-0.609375 0.453125 -0.609375 1.09375l-1.703125 0q0 -0.734375 0.515625 -1.421875q0.53125 -0.6875 1.421875 -1.078125q0.90625 -0.40625 1.984375 -0.40625q1.703125 0 2.671875 0.859375q0.96875 0.84375 1.0 2.328125l0 4.53125q0 1.359375 0.34375 2.171875l0 0.140625l-1.765625 0zm-2.796875 -1.28125q0.796875 0 1.5 -0.40625q0.71875 -0.421875 1.03125 -1.078125l0 -2.015625l-1.3125 0q-3.109375 0 -3.109375 1.8125q0 0.796875 0.53125 1.25q0.53125 0.4375 1.359375 0.4375zm8.46048 -8.578125l0.046875 1.234375q1.125 -1.40625 2.953125 -1.40625q3.125 0 3.15625 3.515625l0 6.515625l-1.6875 0l0 -6.515625q-0.015625 -1.078125 -0.5 -1.578125q-0.46875 -0.515625 -1.484375 -0.515625q-0.8125 0 -1.4375 0.4375q-0.609375 0.4375 -0.96875 1.15625l0 7.015625l-1.671875 0l0 -9.859375l1.59375 0zm10.981232 -2.390625l0 2.390625l1.84375 0l0 1.3125l-1.84375 0l0 6.109375q0 0.59375 0.234375 0.890625q0.25 0.296875 0.84375 0.296875q0.296875 0 0.8125 -0.109375l0 1.359375q-0.671875 0.1875 -1.296875 0.1875q-1.125 0 -1.703125 -0.6875q-0.578125 -0.6875 -0.578125 -1.9375l0 -6.109375l-1.796875 0l0 -1.3125l1.796875 0l0 -2.390625l1.6875 0zm7.8911285 12.4375q-2.0 0 -3.265625 -1.3125q-1.25 -1.328125 -1.25 -3.53125l0 -0.3125q0 -1.46875 0.5625 -2.609375q0.5625 -1.15625 1.5625 -1.796875q1.015625 -0.65625 2.1875 -0.65625q1.921875 0 2.9843826 1.265625q1.0625 1.265625 1.0625 3.625l0 0.6875l-6.6718826 0q0.03125 1.46875 0.84375 2.375q0.828125 0.890625 2.078125 0.890625q0.890625 0 1.515625 -0.359375q0.625 -0.375 1.0781326 -0.96875l1.03125 0.796875q-1.2343826 1.90625 -3.7187576 1.90625zm-0.203125 -8.84375q-1.015625 0 -1.71875 0.75q-0.6875 0.734375 -0.84375 2.078125l4.9375 0l0 -0.125q-0.078125 -1.28125 -0.703125 -1.984375q-0.609375 -0.71875 -1.671875 -0.71875zm10.086922 8.84375q-2.0 0 -3.265625 -1.3125q-1.25 -1.328125 -1.25 -3.53125l0 -0.3125q0 -1.46875 0.5625 -2.609375q0.5625 -1.15625 1.5625 -1.796875q1.015625 -0.65625 2.1875 -0.65625q1.921875 0 2.984375 1.265625q1.0625 1.265625 1.0625 3.625l0 0.6875l-6.671875 0q0.03125 1.46875 0.84375 2.375q0.828125 0.890625 2.078125 0.890625q0.890625 0 1.515625 -0.359375q0.625 -0.375 1.078125 -0.96875l1.03125 0.796875q-1.234375 1.90625 -3.71875 1.90625zm-0.203125 -8.84375q-1.015625 0 -1.71875 0.75q-0.6875 0.734375 -0.84375 2.078125l4.9375 0l0 -0.125q-0.078125 -1.28125 -0.703125 -1.984375q-0.609375 -0.71875 -1.671875 -0.71875zm5.5869446 3.640625q0 -2.265625 1.078125 -3.640625q1.078125 -1.375 2.8125 -1.375q1.734375 0 2.75 1.171875l0 -5.140625l1.6875 0l0 14.0l-1.546875 0l-0.09375 -1.0625q-1.0 1.25 -2.8125 1.25q-1.703125 0 -2.796875 -1.40625q-1.078125 -1.40625 -1.078125 -3.65625l0 -0.140625zm1.6875 0.203125q0 1.671875 0.6875 2.625q0.703125 0.9375 1.921875 0.9375q1.609375 0 2.34375 -1.4375l0 -4.53125q-0.765625 -1.390625 -2.328125 -1.390625q-1.234375 0 -1.9375 0.953125q-0.6875 0.953125 -0.6875 2.84375zm21.62436 -1.3125l-5.75 0l0 4.6875l6.6875 0l0 1.4375l-8.421875 0l0 -13.265625l8.328125 0l0 1.4375l-6.59375 0l0 4.265625l5.75 0l0 1.4375zm6.1503296 -0.140625l2.1875 -3.59375l1.96875 0l-3.21875 4.875l3.328125 4.984375l-1.953125 0l-2.28125 -3.6875l-2.28125 3.6875l-1.953125 0l3.328125 -4.984375l-3.234375 -4.875l1.953125 0l2.15625 3.59375zm9.845093 6.453125q-2.0 0 -3.265625 -1.3125q-1.25 -1.328125 -1.25 -3.53125l0 -0.3125q0 -1.46875 0.5625 -2.609375q0.5625 -1.15625 1.5625 -1.796875q1.015625 -0.65625 2.1875 -0.65625q1.921875 0 2.984375 1.265625q1.0625 1.265625 1.0625 3.625l0 0.6875l-6.671875 0q0.03125 1.46875 0.84375 2.375q0.828125 0.890625 2.078125 0.890625q0.890625 0 1.515625 -0.359375q0.625 -0.375 1.078125 -0.96875l1.03125 0.796875q-1.234375 1.90625 -3.71875 1.90625zm-0.203125 -8.84375q-1.015625 0 -1.71875 0.75q-0.6875 0.734375 -0.84375 2.078125l4.9375 0l0 -0.125q-0.078125 -1.28125 -0.703125 -1.984375q-0.609375 -0.71875 -1.671875 -0.71875zm9.961914 7.46875q0.890625 0 1.5625 -0.546875q0.6875 -0.546875 0.75 -1.375l1.59375 0q-0.046875 0.84375 -0.578125 1.609375q-0.53125 0.765625 -1.4375 1.234375q-0.890625 0.453125 -1.890625 0.453125q-2.015625 0 -3.203125 -1.34375q-1.1875 -1.34375 -1.1875 -3.6875l0 -0.28125q0 -1.4375 0.515625 -2.546875q0.53125 -1.125 1.515625 -1.734375q1.0 -0.625 2.34375 -0.625q1.65625 0 2.75 1.0q1.109375 0.984375 1.171875 2.5625l-1.59375 0q-0.0625 -0.953125 -0.71875 -1.5625q-0.65625 -0.625 -1.609375 -0.625q-1.28125 0 -2.0 0.921875q-0.703125 0.921875 -0.703125 2.671875l0 0.328125q0 1.703125 0.703125 2.625q0.703125 0.921875 2.015625 0.921875zm11.890381 0.21875q-0.984375 1.15625 -2.890625 1.15625q-1.578125 0 -2.40625 -0.921875q-0.8125 -0.921875 -0.828125 -2.703125l0 -6.421875l1.6875 0l0 6.375q0 2.234375 1.828125 2.234375q1.921875 0 2.5625 -1.4375l0 -7.171875l1.6875 0l0 9.859375l-1.609375 0l-0.03125 -0.96875zm6.4877625 -11.28125l0 2.390625l1.84375 0l0 1.3125l-1.84375 0l0 6.109375q0 0.59375 0.234375 0.890625q0.25 0.296875 0.84375 0.296875q0.296875 0 0.8125 -0.109375l0 1.359375q-0.671875 0.1875 -1.296875 0.1875q-1.125 0 -1.703125 -0.6875q-0.578125 -0.6875 -0.578125 -1.9375l0 -6.109375l-1.796875 0l0 -1.3125l1.796875 0l0 -2.390625l1.6875 0zm5.6411133 12.25l-1.6875 0l0 -9.859375l1.6875 0l0 9.859375zm-1.828125 -12.46875q0 -0.40625 0.25 -0.6875q0.25 -0.296875 0.734375 -0.296875q0.5 0 0.75 0.296875q0.265625 0.28125 0.265625 0.6875q0 0.40625 -0.265625 0.6875q-0.25 0.265625 -0.75 0.265625q-0.484375 0 -0.734375 -0.265625q-0.25 -0.28125 -0.25 -0.6875zm4.0743103 7.453125q0 -1.453125 0.5625 -2.609375q0.578125 -1.15625 1.59375 -1.78125q1.015625 -0.625 2.3125 -0.625q2.015625 0 3.25 1.390625q1.25 1.390625 1.25 3.703125l0 0.125q0 1.4375 -0.546875 2.578125q-0.546875 1.140625 -1.578125 1.78125q-1.015625 0.640625 -2.359375 0.640625q-2.0 0 -3.25 -1.390625q-1.234375 -1.40625 -1.234375 -3.703125l0 -0.109375zm1.6875 0.203125q0 1.640625 0.765625 2.640625q0.765625 0.984375 2.03125 0.984375q1.296875 0 2.046875 -1.0q0.75 -1.015625 0.75 -2.828125q0 -1.625 -0.765625 -2.625q-0.765625 -1.015625 -2.046875 -1.015625q-1.25 0 -2.015625 1.0q-0.765625 0.984375 -0.765625 2.84375zm10.999268 -5.046875l0.046875 1.234375q1.125 -1.40625 2.953125 -1.40625q3.125 0 3.15625 3.515625l0 6.515625l-1.6875 0l0 -6.515625q-0.015625 -1.078125 -0.5 -1.578125q-0.46875 -0.515625 -1.484375 -0.515625q-0.8125 0 -1.4375 0.4375q-0.609375 0.4375 -0.96875 1.15625l0 7.015625l-1.671875 0l0 -9.859375l1.59375 0z" fill-rule="nonzero"/><path fill="#efefef" d="m0.002969029 322.35812l0 0c0 -4.1362305 3.35309 -7.489319 7.489336 -7.489319l275.76147 0c1.9862976 0 3.8912354 0.7890625 5.2957764 2.193573c1.4045105 1.4045105 2.193573 3.3094788 2.193573 5.295746l0 65.430786c0 4.136261 -3.3530884 7.4893494 -7.4893494 7.4893494l-275.76147 0c-4.136246 0 -7.489336 -3.3530884 -7.489336 -7.4893494z" fill-rule="evenodd"/><path fill="#000000" d="m88.34987 356.63416l-3.125 0l0 5.359375l-1.75 0l0 -13.265625l4.390625 0q2.234375 0 3.4375 1.03125q1.21875 1.015625 1.21875 2.953125q0 1.25 -0.671875 2.171875q-0.671875 0.921875 -1.859375 1.375l3.109375 5.625l0 0.109375l-1.875 0l-2.875 -5.359375zm-3.125 -1.4375l2.6875 0q1.3125 0 2.078125 -0.671875q0.765625 -0.671875 0.765625 -1.8125q0 -1.21875 -0.734375 -1.875q-0.734375 -0.65625 -2.109375 -0.671875l-2.6875 0l0 5.03125zm13.565201 6.984375q-2.0 0 -3.265625 -1.3125q-1.25 -1.328125 -1.25 -3.53125l0 -0.3125q0 -1.46875 0.5625 -2.609375q0.5625 -1.15625 1.5625 -1.796875q1.015625 -0.65625 2.1875 -0.65625q1.921875 0 2.984375 1.265625q1.0625 1.265625 1.0625 3.625l0 0.6875l-6.671875 0q0.03125 1.46875 0.84375 2.375q0.828125 0.890625 2.078125 0.890625q0.890625 0 1.515625 -0.359375q0.625 -0.375 1.078125 -0.96875l1.03125 0.796875q-1.234375 1.90625 -3.71875 1.90625zm-0.203125 -8.84375q-1.015625 0 -1.71875 0.75q-0.6875 0.734375 -0.84375 2.078125l4.9375 0l0 -0.125q-0.078125 -1.28125 -0.703125 -1.984375q-0.609375 -0.71875 -1.671875 -0.71875zm11.743179 6.046875q0 -0.6875 -0.515625 -1.0625q-0.515625 -0.375 -1.796875 -0.640625q-1.28125 -0.28125 -2.03125 -0.65625q-0.75 -0.390625 -1.109375 -0.921875q-0.359375 -0.53125 -0.359375 -1.265625q0 -1.203125 1.015625 -2.03125q1.03125 -0.84375 2.625 -0.84375q1.671875 0 2.71875 0.859375q1.046875 0.859375 1.046875 2.21875l-1.6875 0q0 -0.703125 -0.59375 -1.203125q-0.59375 -0.5 -1.484375 -0.5q-0.921875 0 -1.4375 0.40625q-0.515625 0.390625 -0.515625 1.046875q0 0.609375 0.484375 0.921875q0.484375 0.3125 1.734375 0.59375q1.265625 0.28125 2.046875 0.671875q0.78125 0.390625 1.15625 0.9375q0.390625 0.546875 0.390625 1.34375q0 1.328125 -1.0625 2.125q-1.046875 0.796875 -2.734375 0.796875q-1.1875 0 -2.109375 -0.421875q-0.90625 -0.421875 -1.421875 -1.171875q-0.515625 -0.75 -0.515625 -1.625l1.6875 0q0.046875 0.84375 0.671875 1.34375q0.640625 0.5 1.6875 0.5q0.953125 0 1.53125 -0.390625q0.578125 -0.390625 0.578125 -1.03125zm9.963379 1.640625q-0.984375 1.15625 -2.890625 1.15625q-1.578125 0 -2.40625 -0.921875q-0.8125 -0.921875 -0.828125 -2.703125l0 -6.421875l1.6875 0l0 6.375q0 2.234375 1.828125 2.234375q1.921875 0 2.5625 -1.4375l0 -7.171875l1.6875 0l0 9.859375l-1.609375 0l-0.03125 -0.96875zm6.034622 0.96875l-1.6875 0l0 -14.0l1.6875 0l0 14.0zm4.980545 -12.25l0 2.390625l1.84375 0l0 1.3125l-1.84375 0l0 6.109375q0 0.59375 0.234375 0.890625q0.25 0.296875 0.84375 0.296875q0.296875 0 0.8125 -0.109375l0 1.359375q-0.671875 0.1875 -1.296875 0.1875q-1.125 0 -1.703125 -0.6875q-0.578125 -0.6875 -0.578125 -1.9375l0 -6.109375l-1.796875 0l0 -1.3125l1.796875 0l0 -2.390625l1.6875 0zm18.884644 6.046875q0 1.953125 -0.65625 3.40625q-0.640625 1.453125 -1.84375 2.21875q-1.203125 0.765625 -2.8125 0.765625q-1.5625 0 -2.78125 -0.765625q-1.203125 -0.78125 -1.875 -2.203125q-0.671875 -1.421875 -0.6875 -3.296875l0 -0.96875q0 -1.90625 0.65625 -3.375q0.671875 -1.46875 1.890625 -2.25q1.21875 -0.78125 2.78125 -0.78125q1.59375 0 2.8125 0.78125q1.21875 0.765625 1.859375 2.234375q0.65625 1.453125 0.65625 3.390625l0 0.84375zm-1.734375 -0.859375q0 -2.359375 -0.953125 -3.609375q-0.9375 -1.265625 -2.640625 -1.265625q-1.65625 0 -2.609375 1.265625q-0.953125 1.25 -0.984375 3.5l0 0.96875q0 2.28125 0.953125 3.59375q0.96875 1.3125 2.65625 1.3125q1.6875 0 2.609375 -1.234375q0.9375 -1.234375 0.96875 -3.546875l0 -0.984375zm8.873047 -1.28125q-0.390625 -0.0625 -0.84375 -0.0625q-1.65625 0 -2.25 1.40625l0 7.0l-1.671875 0l0 -9.859375l1.640625 0l0.015625 1.140625q0.828125 -1.3125 2.359375 -1.3125q0.484375 0 0.75 0.125l0 1.5625zm3.3753815 8.34375l-1.6875 0l0 -9.859375l1.6875 0l0 9.859375zm-1.828125 -12.46875q0 -0.40625 0.25 -0.6875q0.25 -0.296875 0.734375 -0.296875q0.5 0 0.75 0.296875q0.265625 0.28125 0.265625 0.6875q0 0.40625 -0.265625 0.6875q-0.25 0.265625 -0.75 0.265625q-0.484375 0 -0.734375 -0.265625q-0.25 -0.28125 -0.25 -0.6875zm8.605545 12.65625q-2.0 0 -3.265625 -1.3125q-1.25 -1.328125 -1.25 -3.53125l0 -0.3125q0 -1.46875 0.5625 -2.609375q0.5625 -1.15625 1.5625 -1.796875q1.015625 -0.65625 2.1875 -0.65625q1.921875 0 2.984375 1.265625q1.0625 1.265625 1.0625 3.625l0 0.6875l-6.671875 0q0.03125 1.46875 0.84375 2.375q0.828125 0.890625 2.078125 0.890625q0.890625 0 1.515625 -0.359375q0.625 -0.375 1.078125 -0.96875l1.03125 0.796875q-1.234375 1.90625 -3.71875 1.90625zm-0.203125 -8.84375q-1.015625 0 -1.71875 0.75q-0.6875 0.734375 -0.84375 2.078125l4.9375 0l0 -0.125q-0.078125 -1.28125 -0.703125 -1.984375q-0.609375 -0.71875 -1.671875 -0.71875zm7.6025543 -1.203125l0.046875 1.234375q1.125 -1.40625 2.953125 -1.40625q3.125 0 3.15625 3.515625l0 6.515625l-1.6875 0l0 -6.515625q-0.015625 -1.078125 -0.5 -1.578125q-0.46875 -0.515625 -1.484375 -0.515625q-0.8125 0 -1.4375 0.4375q-0.609375 0.4375 -0.96875 1.15625l0 7.015625l-1.671875 0l0 -9.859375l1.59375 0zm10.981232 -2.390625l0 2.390625l1.84375 0l0 1.3125l-1.84375 0l0 6.109375q0 0.59375 0.234375 0.890625q0.25 0.296875 0.84375 0.296875q0.296875 0 0.8125 -0.109375l0 1.359375q-0.671875 0.1875 -1.296875 0.1875q-1.125 0 -1.703125 -0.6875q-0.578125 -0.6875 -0.578125 -1.9375l0 -6.109375l-1.796875 0l0 -1.3125l1.796875 0l0 -2.390625l1.6875 0zm7.8911285 12.4375q-2.0 0 -3.265625 -1.3125q-1.25 -1.328125 -1.25 -3.53125l0 -0.3125q0 -1.46875 0.5625 -2.609375q0.5625 -1.15625 1.5625 -1.796875q1.015625 -0.65625 2.1875 -0.65625q1.921875 0 2.984375 1.265625q1.0625 1.265625 1.0625 3.625l0 0.6875l-6.671875 0q0.03125 1.46875 0.84375 2.375q0.828125 0.890625 2.078125 0.890625q0.890625 0 1.515625 -0.359375q0.625 -0.375 1.078125 -0.96875l1.03125 0.796875q-1.234375 1.90625 -3.71875 1.90625zm-0.203125 -8.84375q-1.015625 0 -1.71875 0.75q-0.6875 0.734375 -0.84375 2.078125l4.9375 0l0 -0.125q-0.078125 -1.28125 -0.703125 -1.984375q-0.609375 -0.71875 -1.671875 -0.71875zm5.5869293 3.640625q0 -2.265625 1.078125 -3.640625q1.078125 -1.375 2.8125 -1.375q1.734375 0 2.75 1.171875l0 -5.140625l1.6875 0l0 14.0l-1.546875 0l-0.09375 -1.0625q-1.0 1.25 -2.8125 1.25q-1.703125 0 -2.796875 -1.40625q-1.078125 -1.40625 -1.078125 -3.65625l0 -0.140625zm1.6875 0.203125q0 1.671875 0.6875 2.625q0.703125 0.9375 1.921875 0.9375q1.609375 0 2.34375 -1.4375l0 -4.53125q-0.765625 -1.390625 -2.328125 -1.390625q-1.234375 0 -1.9375 0.953125q-0.6875 0.953125 -0.6875 2.84375z" fill-rule="nonzero"/><path fill="#efefef" d="m0.002969029 411.86688l0 0c0 -4.1362305 3.35309 -7.489319 7.489336 -7.489319l275.76147 0c1.9862976 0 3.8912354 0.789032 5.2957764 2.193573c1.4045105 1.4045105 2.193573 3.3094482 2.193573 5.295746l0 65.430786c0 4.136261 -3.3530884 7.4893494 -7.4893494 7.4893494l-275.76147 0c-4.136246 0 -7.489336 -3.3530884 -7.489336 -7.4893494z" fill-rule="evenodd"/><path fill="#000000" d="m74.804596 449.17416l3.78125 -10.9375l1.921875 0l-4.921875 13.265625l-1.546875 0l-4.921875 -13.265625l1.90625 0l3.78125 10.9375zm10.890503 2.515625q-2.0 0 -3.265625 -1.3125q-1.25 -1.328125 -1.25 -3.53125l0 -0.3125q0 -1.46875 0.5625 -2.609375q0.5625 -1.15625 1.5625 -1.796875q1.015625 -0.65625 2.1875 -0.65625q1.921875 0 2.984375 1.265625q1.0625 1.265625 1.0625 3.625l0 0.6875l-6.671875 0q0.03125 1.46875 0.84375 2.375q0.828125 0.890625 2.078125 0.890625q0.890625 0 1.515625 -0.359375q0.625 -0.375 1.078125 -0.96875l1.03125 0.796875q-1.234375 1.90625 -3.71875 1.90625zm-0.203125 -8.84375q-1.015625 0 -1.71875 0.75q-0.6875 0.734375 -0.84375 2.078125l4.9375 0l0 -0.125q-0.078125 -1.28125 -0.703125 -1.984375q-0.609375 -0.71875 -1.671875 -0.71875zm10.774429 0.3125q-0.390625 -0.0625 -0.84375 -0.0625q-1.65625 0 -2.25 1.40625l0 7.0l-1.671875 0l0 -9.859375l1.640625 0l0.015625 1.140625q0.828125 -1.3125 2.359375 -1.3125q0.484375 0 0.75 0.125l0 1.5625zm7.2816315 5.734375q0 -0.6875 -0.515625 -1.0625q-0.515625 -0.375 -1.796875 -0.640625q-1.28125 -0.28125 -2.03125 -0.65625q-0.75 -0.390625 -1.109375 -0.921875q-0.359375 -0.53125 -0.359375 -1.265625q0 -1.203125 1.015625 -2.03125q1.03125 -0.84375 2.625 -0.84375q1.671875 0 2.71875 0.859375q1.046875 0.859375 1.046875 2.21875l-1.6875 0q0 -0.703125 -0.59375 -1.203125q-0.59375 -0.5 -1.484375 -0.5q-0.921875 0 -1.4375 0.40625q-0.515625 0.390625 -0.515625 1.046875q0 0.609375 0.484375 0.921875q0.484375 0.3125 1.734375 0.59375q1.265625 0.28125 2.046875 0.671875q0.78125 0.390625 1.15625 0.9375q0.390625 0.546875 0.390625 1.34375q0 1.328125 -1.0625 2.125q-1.046875 0.796875 -2.734375 0.796875q-1.1875 0 -2.109375 -0.421875q-0.90625 -0.421875 -1.421875 -1.171875q-0.515625 -0.75 -0.515625 -1.625l1.6875 0q0.046875 0.84375 0.671875 1.34375q0.640625 0.5 1.6875 0.5q0.953125 0 1.53125 -0.390625q0.578125 -0.390625 0.578125 -1.03125zm9.963379 2.609375q-0.140625 -0.296875 -0.234375 -1.03125q-1.171875 1.21875 -2.8125 1.21875q-1.453125 0 -2.390625 -0.828125q-0.921875 -0.828125 -0.921875 -2.09375q0 -1.53125 1.15625 -2.375q1.171875 -0.859375 3.296875 -0.859375l1.640625 0l0 -0.78125q0 -0.890625 -0.53125 -1.40625q-0.515625 -0.53125 -1.546875 -0.53125q-0.90625 0 -1.515625 0.46875q-0.609375 0.453125 -0.609375 1.09375l-1.703125 0q0 -0.734375 0.515625 -1.421875q0.53125 -0.6875 1.421875 -1.078125q0.90625 -0.40625 1.984375 -0.40625q1.703125 0 2.671875 0.859375q0.96875 0.84375 1.0 2.328125l0 4.53125q0 1.359375 0.34375 2.171875l0 0.140625l-1.765625 0zm-2.796875 -1.28125q0.796875 0 1.5 -0.40625q0.71875 -0.421875 1.03125 -1.078125l0 -2.015625l-1.3125 0q-3.109375 0 -3.109375 1.8125q0 0.796875 0.53125 1.25q0.53125 0.4375 1.359375 0.4375zm9.14798 -10.96875l0 2.390625l1.84375 0l0 1.3125l-1.84375 0l0 6.109375q0 0.59375 0.234375 0.890625q0.25 0.296875 0.84375 0.296875q0.296875 0 0.8125 -0.109375l0 1.359375q-0.671875 0.1875 -1.296875 0.1875q-1.125 0 -1.703125 -0.6875q-0.578125 -0.6875 -0.578125 -1.9375l0 -6.109375l-1.796875 0l0 -1.3125l1.796875 0l0 -2.390625l1.6875 0zm5.6411285 12.25l-1.6875 0l0 -9.859375l1.6875 0l0 9.859375zm-1.828125 -12.46875q0 -0.40625 0.25 -0.6875q0.25 -0.296875 0.734375 -0.296875q0.5 0 0.75 0.296875q0.265625 0.28125 0.265625 0.6875q0 0.40625 -0.265625 0.6875q-0.25 0.265625 -0.75 0.265625q-0.484375 0 -0.734375 -0.265625q-0.25 -0.28125 -0.25 -0.6875zm6.355545 12.46875l-1.6875 0l0 -14.0l1.6875 0l0 14.0zm6.77742 0.1875q-2.0 0 -3.265625 -1.3125q-1.25 -1.328125 -1.25 -3.53125l0 -0.3125q0 -1.46875 0.5625 -2.609375q0.5625 -1.15625 1.5625 -1.796875q1.015625 -0.65625 2.1875 -0.65625q1.921875 0 2.984375 1.265625q1.0625 1.265625 1.0625 3.625l0 0.6875l-6.671875 0q0.03125 1.46875 0.84375 2.375q0.828125 0.890625 2.078125 0.890625q0.890625 0 1.515625 -0.359375q0.625 -0.375 1.078125 -0.96875l1.03125 0.796875q-1.234375 1.90625 -3.71875 1.90625zm-0.203125 -8.84375q-1.015625 0 -1.71875 0.75q-0.6875 0.734375 -0.84375 2.078125l4.9375 0l0 -0.125q-0.078125 -1.28125 -0.703125 -1.984375q-0.609375 -0.71875 -1.671875 -0.71875zm14.799194 2.75q-2.25 -0.65625 -3.28125 -1.59375q-1.03125 -0.9375 -1.03125 -2.328125q0 -1.5625 1.25 -2.59375q1.265625 -1.03125 3.265625 -1.03125q1.359375 0 2.4375 0.53125q1.078125 0.53125 1.65625 1.46875q0.59375 0.921875 0.59375 2.03125l-1.765625 0q0 -1.203125 -0.765625 -1.890625q-0.765625 -0.6875 -2.15625 -0.6875q-1.296875 0 -2.015625 0.5625q-0.71875 0.5625 -0.71875 1.578125q0 0.8125 0.6875 1.375q0.6875 0.5625 2.328125 1.03125q1.65625 0.453125 2.59375 1.015625q0.9375 0.5625 1.375 1.3125q0.453125 0.75 0.453125 1.75q0 1.609375 -1.25 2.59375q-1.25 0.96875 -3.359375 0.96875q-1.375 0 -2.5625 -0.515625q-1.171875 -0.53125 -1.8125 -1.4375q-0.640625 -0.921875 -0.640625 -2.078125l1.75 0q0 1.203125 0.890625 1.90625q0.890625 0.6875 2.375 0.6875q1.375 0 2.109375 -0.5625q0.75 -0.5625 0.75 -1.53125q0 -0.984375 -0.6875 -1.515625q-0.6875 -0.53125 -2.46875 -1.046875zm9.177414 -6.34375l0 2.390625l1.84375 0l0 1.3125l-1.84375 0l0 6.109375q0 0.59375 0.234375 0.890625q0.25 0.296875 0.84375 0.296875q0.296875 0 0.8125 -0.109375l0 1.359375q-0.671875 0.1875 -1.296875 0.1875q-1.125 0 -1.703125 -0.6875q-0.578125 -0.6875 -0.578125 -1.9375l0 -6.109375l-1.796875 0l0 -1.3125l1.796875 0l0 -2.390625l1.6875 0zm8.578629 3.90625q-0.390625 -0.0625 -0.84375 -0.0625q-1.65625 0 -2.25 1.40625l0 7.0l-1.671875 0l0 -9.859375l1.640625 0l0.015625 1.140625q0.828125 -1.3125 2.359375 -1.3125q0.484375 0 0.75 0.125l0 1.5625zm7.6253815 7.375q-0.984375 1.15625 -2.890625 1.15625q-1.578125 0 -2.40625 -0.921875q-0.8125 -0.921875 -0.828125 -2.703125l0 -6.421875l1.6875 0l0 6.375q0 2.234375 1.828125 2.234375q1.921875 0 2.5625 -1.4375l0 -7.171875l1.6875 0l0 9.859375l-1.609375 0l-0.03125 -0.96875zm8.159622 -0.21875q0.890625 0 1.5625 -0.546875q0.6875 -0.546875 0.75 -1.375l1.59375 0q-0.046875 0.84375 -0.578125 1.609375q-0.53125 0.765625 -1.4375 1.234375q-0.890625 0.453125 -1.890625 0.453125q-2.015625 0 -3.203125 -1.34375q-1.1875 -1.34375 -1.1875 -3.6875l0 -0.28125q0 -1.4375 0.515625 -2.546875q0.53125 -1.125 1.515625 -1.734375q1.0 -0.625 2.34375 -0.625q1.65625 0 2.75 1.0q1.109375 0.984375 1.171875 2.5625l-1.59375 0q-0.0625 -0.953125 -0.71875 -1.5625q-0.65625 -0.625 -1.609375 -0.625q-1.28125 0 -2.0 0.921875q-0.703125 0.921875 -0.703125 2.671875l0 0.328125q0 1.703125 0.703125 2.625q0.703125 0.921875 2.015625 0.921875zm8.093506 -11.0625l0 2.390625l1.84375 0l0 1.3125l-1.84375 0l0 6.109375q0 0.59375 0.234375 0.890625q0.25 0.296875 0.84375 0.296875q0.296875 0 0.8125 -0.109375l0 1.359375q-0.671875 0.1875 -1.296875 0.1875q-1.125 0 -1.703125 -0.6875q-0.578125 -0.6875 -0.578125 -1.9375l0 -6.109375l-1.796875 0l0 -1.3125l1.796875 0l0 -2.390625l1.6875 0zm9.891129 11.28125q-0.984375 1.15625 -2.890625 1.15625q-1.578125 0 -2.40625 -0.921875q-0.8125 -0.921875 -0.828125 -2.703125l0 -6.421875l1.6875 0l0 6.375q0 2.234375 1.828125 2.234375q1.921875 0 2.5625 -1.4375l0 -7.171875l1.6875 0l0 9.859375l-1.609375 0l-0.03125 -0.96875zm8.972122 -7.375q-0.390625 -0.0625 -0.84375 -0.0625q-1.65625 0 -2.25 1.40625l0 7.0l-1.671875 0l0 -9.859375l1.640625 0l0.015625 1.140625q0.828125 -1.3125 2.359375 -1.3125q0.484375 0 0.75 0.125l0 1.5625zm5.4522095 8.53125q-2.0 0 -3.265625 -1.3125q-1.25 -1.328125 -1.25 -3.53125l0 -0.3125q0 -1.46875 0.5625 -2.609375q0.5625 -1.15625 1.5625 -1.796875q1.015625 -0.65625 2.1875 -0.65625q1.921875 0 2.984375 1.265625q1.0625 1.265625 1.0625 3.625l0 0.6875l-6.671875 0q0.03125 1.46875 0.84375 2.375q0.828125 0.890625 2.078125 0.890625q0.890625 0 1.515625 -0.359375q0.625 -0.375 1.078125 -0.96875l1.03125 0.796875q-1.234375 1.90625 -3.71875 1.90625zm-0.203125 -8.84375q-1.015625 0 -1.71875 0.75q-0.6875 0.734375 -0.84375 2.078125l4.9375 0l0 -0.125q-0.078125 -1.28125 -0.703125 -1.984375q-0.609375 -0.71875 -1.671875 -0.71875z" fill-rule="nonzero"/><path fill="#efefef" d="m301.81863 143.71709l0 0c0 -4.1362457 3.3530884 -7.489334 7.4893494 -7.489334l199.19455 0c1.9862976 0 3.8912659 0.7890625 5.295746 2.193573c1.404541 1.4045258 2.1936035 3.3094788 2.1936035 5.295761l0 65.430786c0 4.1362457 -3.3530884 7.489334 -7.4893494 7.489334l-199.19455 0c-4.136261 0 -7.4893494 -3.3530884 -7.4893494 -7.489334z" fill-rule="evenodd"/><path fill="#efefef" d="m301.81863 233.22583l0 0c0 -4.136261 3.3530884 -7.4893494 7.4893494 -7.4893494l199.19455 0c1.9862976 0 3.8912659 0.7890625 5.295746 2.1935883c1.404541 1.4045105 2.1936035 3.3094635 2.1936035 5.295761l0 65.430756c0 4.136261 -3.3530884 7.4893494 -7.4893494 7.4893494l-199.19455 0c-4.136261 0 -7.4893494 -3.3530884 -7.4893494 -7.4893494z" fill-rule="evenodd"/><path fill="#efefef" d="m301.81863 322.35812l0 0c0 -4.1362305 3.3530884 -7.489319 7.4893494 -7.489319l199.19455 0c1.9862976 0 3.8912659 0.7890625 5.295746 2.193573c1.404541 1.4045105 2.1936035 3.3094788 2.1936035 5.295746l0 65.430786c0 4.136261 -3.3530884 7.4893494 -7.4893494 7.4893494l-199.19455 0c-4.136261 0 -7.4893494 -3.3530884 -7.4893494 -7.4893494z" fill-rule="evenodd"/><path fill="#efefef" d="m301.81863 411.86688l0 0c0 -4.1362305 3.3530884 -7.489319 7.4893494 -7.489319l199.19455 0c1.9862976 0 3.8912659 0.789032 5.295746 2.193573c1.404541 1.4045105 2.1936035 3.3094482 2.1936035 5.295746l0 65.430786c0 4.136261 -3.3530884 7.4893494 -7.4893494 7.4893494l-199.19455 0c-4.136261 0 -7.4893494 -3.3530884 -7.4893494 -7.4893494z" fill-rule="evenodd"/><path fill="#efefef" d="m523.82153 143.71709l0 0c0 -4.1362457 3.3530884 -7.489334 7.489319 -7.489334l199.19458 0c1.9863281 0 3.8912354 0.7890625 5.2957764 2.193573c1.404541 1.4045258 2.1935425 3.3094788 2.1935425 5.295761l0 65.430786c0 4.1362457 -3.3530884 7.489334 -7.489319 7.489334l-199.19458 0c-4.1362305 0 -7.489319 -3.3530884 -7.489319 -7.489334z" fill-rule="evenodd"/><path fill="#efefef" d="m523.82153 233.22583l0 0c0 -4.136261 3.3530884 -7.4893494 7.489319 -7.4893494l199.19458 0c1.9863281 0 3.8912354 0.7890625 5.2957764 2.1935883c1.404541 1.4045105 2.1935425 3.3094635 2.1935425 5.295761l0 65.430756c0 4.136261 -3.3530884 7.4893494 -7.489319 7.4893494l-199.19458 0c-4.1362305 0 -7.489319 -3.3530884 -7.489319 -7.4893494z" fill-rule="evenodd"/><path fill="#efefef" d="m523.82153 322.35812l0 0c0 -4.1362305 3.3530884 -7.489319 7.489319 -7.489319l199.19458 0c1.9863281 0 3.8912354 0.7890625 5.2957764 2.193573c1.404541 1.4045105 2.1935425 3.3094788 2.1935425 5.295746l0 65.430786c0 4.136261 -3.3530884 7.4893494 -7.489319 7.4893494l-199.19458 0c-4.1362305 0 -7.489319 -3.3530884 -7.489319 -7.4893494z" fill-rule="evenodd"/><path fill="#efefef" d="m523.82153 411.86688l0 0c0 -4.1362305 3.3530884 -7.489319 7.489319 -7.489319l199.19458 0c1.9863281 0 3.8912354 0.789032 5.2957764 2.193573c1.404541 1.4045105 2.1935425 3.3094482 2.1935425 5.295746l0 65.430786c0 4.136261 -3.3530884 7.4893494 -7.489319 7.4893494l-199.19458 0c-4.1362305 0 -7.489319 -3.3530884 -7.489319 -7.4893494z" fill-rule="evenodd"/><path fill="#efefef" d="m745.82446 143.71709l0 0c0 -4.1362457 3.3530884 -7.489334 7.489319 -7.489334l199.19458 0c1.9862671 0 3.8912354 0.7890625 5.2957153 2.193573c1.404541 1.4045258 2.1936035 3.3094788 2.1936035 5.295761l0 65.430786c0 4.1362457 -3.3530884 7.489334 -7.489319 7.489334l-199.19458 0c-4.1362305 0 -7.489319 -3.3530884 -7.489319 -7.489334z" fill-rule="evenodd"/><path fill="#efefef" d="m745.82446 233.22583l0 0c0 -4.136261 3.3530884 -7.4893494 7.489319 -7.4893494l199.19458 0c1.9862671 0 3.8912354 0.7890625 5.2957153 2.1935883c1.404541 1.4045105 2.1936035 3.3094635 2.1936035 5.295761l0 65.430756c0 4.136261 -3.3530884 7.4893494 -7.489319 7.4893494l-199.19458 0c-4.1362305 0 -7.489319 -3.3530884 -7.489319 -7.4893494z" fill-rule="evenodd"/><path fill="#efefef" d="m745.82446 322.35812l0 0c0 -4.1362305 3.3530884 -7.489319 7.489319 -7.489319l199.19458 0c1.9862671 0 3.8912354 0.7890625 5.2957153 2.193573c1.404541 1.4045105 2.1936035 3.3094788 2.1936035 5.295746l0 65.430786c0 4.136261 -3.3530884 7.4893494 -7.489319 7.4893494l-199.19458 0c-4.1362305 0 -7.489319 -3.3530884 -7.489319 -7.4893494z" fill-rule="evenodd"/><path fill="#efefef" d="m745.82446 411.86688l0 0c0 -4.1362305 3.3530884 -7.489319 7.489319 -7.489319l199.19458 0c1.9862671 0 3.8912354 0.789032 5.2957153 2.193573c1.404541 1.4045105 2.1936035 3.3094482 2.1936035 5.295746l0 65.430786c0 4.136261 -3.3530884 7.4893494 -7.489319 7.4893494l-199.19458 0c-4.1362305 0 -7.489319 -3.3530884 -7.489319 -7.4893494z" fill-rule="evenodd"/><path fill="#000000" fill-opacity="0.0" d="m32.002094 76.17293l226.74016 0l0 30.992126l-226.74016 0z" fill-rule="evenodd"/><path fill="#ffffff" d="m107.6336 99.14899l0 -14.734375l7.125 0l-0.296875 2.015625l-4.125 0l0 4.5l3.59375 0l0 2.03125l-3.59375 0l0 6.1875l-2.703125 0zm15.907776 -14.734375l-0.28125 2.015625l-4.328125 0l0 4.234375l3.78125 0l0 2.0l-3.78125 0l0 4.4375l4.609375 0l0 2.046875l-7.3125 0l0 -14.734375l7.3125 0zm8.532005 14.734375l-0.71875 -3.453125l-3.7968826 0l-0.703125 3.453125l-2.71875 0l3.71875 -14.734375l3.2812576 0l3.6875 14.734375l-2.75 0zm-4.0937576 -5.5l2.9687576 0l-1.5 -7.171875l-1.4687576 7.171875zm15.09597 -9.234375l-0.296875 2.125l-3.03125 0l0 12.609375l-2.703125 0l0 -12.609375l-3.15625 0l0 -2.125l9.1875 0zm10.415665 10.59375q0 1.9375 -1.203125 3.1875q-1.203125 1.25 -3.453125 1.25q-2.28125 0 -3.484375 -1.21875q-1.1875 -1.234375 -1.1875 -3.21875l0 -10.59375l2.71875 0l0 10.46875q0 1.234375 0.46875 1.84375q0.46875 0.609375 1.484375 0.609375q1.0 0 1.46875 -0.609375q0.46875 -0.609375 0.46875 -1.84375l0 -10.46875l2.71875 0l0 10.59375zm8.953247 4.140625l-2.59375 -5.953125l-0.265625 0l-1.046875 0l0 5.953125l-2.703125 0l0 -14.734375l3.46875 0q5.34375 0 5.34375 4.328125q0 1.34375 -0.609375 2.375q-0.59375 1.03125 -1.78125 1.5625l3.109375 6.46875l-2.921875 0zm-3.0 -7.90625q1.25 0 1.8125 -0.59375q0.5625 -0.609375 0.5625 -1.90625q0 -1.21875 -0.59375 -1.78125q-0.578125 -0.5625 -1.921875 -0.5625l-0.765625 0l0 4.84375l0.90625 0zm14.601837 -6.828125l-0.28125 2.015625l-4.328125 0l0 4.234375l3.78125 0l0 2.0l-3.78125 0l0 4.4375l4.609375 0l0 2.046875l-7.3125 0l0 -14.734375l7.3125 0zm5.4436646 -0.296875q1.28125 0 2.25 0.453125q0.984375 0.4375 1.8125 1.328125l-1.25 1.453125q-0.65625 -0.59375 -1.296875 -0.890625q-0.625 -0.296875 -1.328125 -0.296875q-0.8125 0 -1.28125 0.5q-0.46875 0.5 -0.46875 1.3125q0 0.8125 0.484375 1.328125q0.5 0.5 1.921875 1.0625q1.84375 0.734375 2.703125 1.75q0.859375 1.0 0.859375 2.828125q0 1.265625 -0.578125 2.296875q-0.5625 1.03125 -1.640625 1.625q-1.078125 0.59375 -2.515625 0.59375q-1.46875 0 -2.5625 -0.515625q-1.078125 -0.515625 -1.96875 -1.484375l1.359375 -1.484375q0.765625 0.671875 1.46875 1.046875q0.703125 0.359375 1.53125 0.359375q0.984375 0 1.53125 -0.609375q0.546875 -0.609375 0.546875 -1.65625q0 -0.921875 -0.484375 -1.5q-0.484375 -0.59375 -1.78125 -1.078125q-1.953125 -0.796875 -2.828125 -1.8125q-0.859375 -1.03125 -0.859375 -2.5625q0 -1.171875 0.5625 -2.078125q0.5625 -0.921875 1.5625 -1.4375q1.015625 -0.53125 2.25 -0.53125z" fill-rule="nonzero"/><path fill="#000000" fill-opacity="0.0" d="m322.86304 76.1727l172.81891 0l0 30.992126l-172.81891 0z" fill-rule="evenodd"/><path fill="#ffffff" d="m374.7066 71.41438l-0.296875 2.125l-3.03125 0l0 12.609375l-2.703125 0l0 -12.609375l-3.15625 0l0 -2.125l9.1875 0zm5.5725403 3.171875q0.484375 0 0.875 0.15625l-0.421875 2.515625q-0.4375 -0.109375 -0.796875 -0.109375q-0.8125 0 -1.28125 0.703125q-0.46875 0.703125 -0.71875 2.09375l0 6.203125l-2.625 0l0 -11.28125l2.28125 0l0.1875 1.953125q0.796875 -2.234375 2.5 -2.234375zm8.717987 8.828125q0 0.5625 0.140625 0.828125q0.15625 0.265625 0.5 0.4375l-0.53125 1.75q-0.875 -0.109375 -1.40625 -0.46875q-0.515625 -0.359375 -0.765625 -1.109375q-0.984375 1.609375 -2.75 1.609375q-1.40625 0 -2.25 -0.9375q-0.828125 -0.953125 -0.828125 -2.53125q0 -1.828125 1.140625 -2.78125q1.140625 -0.96875 3.3125 -0.96875l0.875 0l0 -0.796875q0 -1.0625 -0.375 -1.5q-0.359375 -0.4375 -1.203125 -0.4375q-1.0 0 -2.484375 0.5625l-0.609375 -1.71875q0.859375 -0.375 1.765625 -0.578125q0.921875 -0.203125 1.765625 -0.203125q3.703125 0 3.703125 3.75l0 5.09375zm-4.109375 1.15625q1.015625 0 1.546875 -1.40625l0 -2.375l-0.609375 0q-1.09375 0 -1.59375 0.5q-0.5 0.484375 -0.5 1.515625q0 0.875 0.296875 1.328125q0.296875 0.4375 0.859375 0.4375zm14.729889 -14.21875l0 15.796875l-2.328125 0l-0.125 -1.296875q-1.0 1.609375 -2.578125 1.609375q-1.75 0 -2.6875 -1.5625q-0.921875 -1.5625 -0.921875 -4.375q0 -1.796875 0.484375 -3.140625q0.484375 -1.359375 1.328125 -2.078125q0.859375 -0.734375 1.96875 -0.734375q1.359375 0 2.234375 1.125l0 -5.625l2.625 0.28125zm-4.28125 14.140625q0.484375 0 0.875 -0.34375q0.40625 -0.34375 0.78125 -0.984375l0 -5.484375q-0.671875 -1.15625 -1.546875 -1.15625q-1.734375 0 -1.734375 3.96875q0 2.15625 0.421875 3.078125q0.4375 0.921875 1.203125 0.921875zm9.344421 -9.625l0 11.28125l-2.625 0l0 -11.28125l2.625 0zm-1.328125 -5.625q0.703125 0 1.140625 0.453125q0.4375 0.4375 0.4375 1.140625q0 0.6875 -0.4375 1.140625q-0.4375 0.4375 -1.140625 0.4375q-0.703125 0 -1.140625 -0.4375q-0.4375 -0.453125 -0.4375 -1.140625q0 -0.703125 0.4375 -1.140625q0.4375 -0.453125 1.140625 -0.453125zm9.429779 16.390625q-1.046875 0.828125 -2.453125 0.828125q-1.46875 0 -2.25 -0.828125q-0.765625 -0.84375 -0.765625 -2.296875l0 -6.578125l-1.3125 0l0 -1.890625l1.3125 0l0 -2.5l2.625 -0.3125l0 2.8125l2.140625 0l-0.265625 1.890625l-1.875 0l0 6.578125q0 1.015625 0.875 1.015625q0.28125 0 0.484375 -0.0625q0.21875 -0.078125 0.5625 -0.28125l0.921875 1.625zm3.7141724 -10.765625l0 11.28125l-2.625 0l0 -11.28125l2.625 0zm-1.328125 -5.625q0.703125 0 1.140625 0.453125q0.4375 0.4375 0.4375 1.140625q0 0.6875 -0.4375 1.140625q-0.4375 0.4375 -1.140625 0.4375q-0.703125 0 -1.140625 -0.4375q-0.4375 -0.453125 -0.4375 -1.140625q0 -0.703125 0.4375 -1.140625q0.4375 -0.453125 1.140625 -0.453125zm7.757904 5.328125q2.140625 0 3.3125 1.5q1.1875 1.484375 1.1875 4.421875q0 2.8125 -1.1875 4.390625q-1.1875 1.578125 -3.3125 1.578125q-2.109375 0 -3.3125 -1.53125q-1.1875 -1.546875 -1.1875 -4.4375q0 -2.859375 1.1875 -4.390625q1.203125 -1.53125 3.3125 -1.53125zm0 1.984375q-0.90625 0 -1.34375 0.90625q-0.421875 0.90625 -0.421875 3.03125q0 2.15625 0.421875 3.0625q0.4375 0.90625 1.34375 0.90625q0.921875 0 1.34375 -0.90625q0.4375 -0.90625 0.4375 -3.0625q0 -2.15625 -0.4375 -3.046875q-0.421875 -0.890625 -1.34375 -0.890625zm11.716461 -1.984375q1.21875 0 1.921875 0.875q0.703125 0.875 0.703125 2.34375l0 8.359375l-2.625 0l0 -8.0625q0 -0.8125 -0.234375 -1.15625q-0.21875 -0.359375 -0.640625 -0.359375q-0.890625 0 -1.765625 1.6875l0 7.890625l-2.625 0l0 -11.28125l2.28125 0l0.1875 1.46875q0.578125 -0.890625 1.21875 -1.328125q0.65625 -0.4375 1.578125 -0.4375zm12.19635 8.84375q0 0.5625 0.140625 0.828125q0.15625 0.265625 0.5 0.4375l-0.53125 1.75q-0.875 -0.109375 -1.40625 -0.46875q-0.515625 -0.359375 -0.765625 -1.109375q-0.984375 1.609375 -2.75 1.609375q-1.40625 0 -2.25 -0.9375q-0.828125 -0.953125 -0.828125 -2.53125q0 -1.828125 1.140625 -2.78125q1.140625 -0.96875 3.3125 -0.96875l0.875 0l0 -0.796875q0 -1.0625 -0.375 -1.5q-0.359375 -0.4375 -1.203125 -0.4375q-1.0 0 -2.484375 0.5625l-0.609375 -1.71875q0.859375 -0.375 1.765625 -0.578125q0.921875 -0.203125 1.765625 -0.203125q3.703125 0 3.703125 3.75l0 5.09375zm-4.109375 1.15625q1.015625 0 1.546875 -1.40625l0 -2.375l-0.609375 0q-1.09375 0 -1.59375 0.5q-0.5 0.484375 -0.5 1.515625q0 0.875 0.296875 1.328125q0.296875 0.4375 0.859375 0.4375zm8.766541 1.890625q-1.1562195 0 -1.8280945 -0.703125q-0.671875 -0.71875 -0.671875 -1.90625l0 -13.5l2.6249695 -0.28125l0 13.671875q0 0.265625 0.125 0.4375q0.125 0.171875 0.390625 0.171875q0.140625 0 0.28125 -0.03125q0.140625 -0.046875 0.1875 -0.046875l0.5 1.796875q-0.71875 0.390625 -1.609375 0.390625z" fill-rule="nonzero"/><path fill="#ffffff" d="m363.80392 97.11751q2.609375 0 4.015625 1.90625q1.40625 1.890625 1.40625 5.75q0 3.8125 -1.40625 5.75q-1.40625 1.9375 -4.015625 1.9375q-2.578125 0 -4.0 -1.90625q-1.40625 -1.921875 -1.40625 -5.765625q0 -3.796875 1.40625 -5.734375q1.421875 -1.9375 4.0 -1.9375zm0 2.046875q-1.296875 0 -1.921875 1.296875q-0.625 1.296875 -0.625 4.328125q0 3.046875 0.640625 4.328125q0.640625 1.265625 1.90625 1.265625q1.328125 0 1.953125 -1.25q0.640625 -1.265625 0.640625 -4.359375q0 -3.03125 -0.640625 -4.3125q-0.640625 -1.296875 -1.953125 -1.296875zm12.358948 1.421875q0.484375 0 0.875 0.15625l-0.421875 2.515625q-0.4375 -0.109375 -0.796875 -0.109375q-0.8125 0 -1.28125 0.703125q-0.46875 0.703125 -0.71875 2.09375l0 6.203125l-2.625 0l0 -11.28125l2.28125 0l0.1875 1.953125q0.796875 -2.234375 2.5 -2.234375zm10.190063 0.859375q-0.453125 0.203125 -1.078125 0.296875q-0.625 0.078125 -1.5625 0.078125q0.890625 0.4375 1.328125 1.15625q0.4375 0.703125 0.4375 1.75q0 1.703125 -1.046875 2.75q-1.046875 1.046875 -2.828125 1.046875q-0.53125 0 -1.09375 -0.171875q-0.375 0.328125 -0.375 0.875q0 0.421875 0.234375 0.640625q0.234375 0.21875 0.875 0.21875l1.1875 0q1.703125 0 2.703125 0.890625q1.015625 0.875 1.015625 2.234375q0 1.625 -1.25 2.59375q-1.25 0.96875 -3.5625 0.96875q-2.421875 0 -3.390625 -0.890625q-0.96875 -0.890625 -0.96875 -2.625l2.3125 0q0 0.921875 0.421875 1.296875q0.4375 0.390625 1.65625 0.390625q1.171875 0 1.65625 -0.40625q0.5 -0.40625 0.5 -1.15625q0 -0.71875 -0.40625 -1.0625q-0.40625 -0.34375 -1.265625 -0.34375l-0.8125 0q-1.609375 0 -2.359375 -0.578125q-0.75 -0.578125 -0.75 -1.578125q0 -0.578125 0.3125 -1.09375q0.3125 -0.53125 0.84375 -0.921875q-0.875 -0.5625 -1.28125 -1.328125q-0.40625 -0.765625 -0.40625 -1.875q0 -1.859375 1.109375 -2.9375q1.109375 -1.078125 2.984375 -1.078125q1.390625 0 2.296875 -0.296875q0.90625 -0.296875 1.90625 -0.875l0.65625 2.03125zm-4.859375 0.890625q-0.75 0 -1.140625 0.53125q-0.375 0.53125 -0.375 1.6875q0 1.09375 0.375 1.6875q0.390625 0.578125 1.125 0.578125q0.734375 0 1.09375 -0.515625q0.375 -0.53125 0.375 -1.765625q0 -1.15625 -0.359375 -1.671875q-0.34375 -0.53125 -1.09375 -0.53125zm12.79306 7.078125q0 0.5625 0.140625 0.828125q0.15625 0.265625 0.5 0.4375l-0.53125 1.75q-0.875 -0.109375 -1.40625 -0.46875q-0.515625 -0.359375 -0.765625 -1.109375q-0.984375 1.609375 -2.75 1.609375q-1.40625 0 -2.25 -0.9375q-0.828125 -0.953125 -0.828125 -2.53125q0 -1.828125 1.140625 -2.78125q1.140625 -0.96875 3.3125 -0.96875l0.875 0l0 -0.796875q0 -1.0625 -0.375 -1.5q-0.359375 -0.4375 -1.203125 -0.4375q-1.0 0 -2.484375 0.5625l-0.609375 -1.71875q0.859375 -0.375 1.765625 -0.578125q0.921875 -0.203125 1.765625 -0.203125q3.703125 0 3.703125 3.75l0 5.09375zm-4.109375 1.15625q1.015625 0 1.546875 -1.40625l0 -2.375l-0.609375 0q-1.09375 0 -1.59375 0.5q-0.5 0.484375 -0.5 1.515625q0 0.875 0.296875 1.328125q0.296875 0.4375 0.859375 0.4375zm11.854889 -10.0q1.21875 0 1.921875 0.875q0.703125 0.875 0.703125 2.34375l0 8.359375l-2.625 0l0 -8.0625q0 -0.8125 -0.234375 -1.15625q-0.21875 -0.359375 -0.640625 -0.359375q-0.890625 0 -1.765625 1.6875l0 7.890625l-2.625 0l0 -11.28125l2.28125 0l0.1875 1.46875q0.578125 -0.890625 1.21875 -1.328125q0.65625 -0.4375 1.578125 -0.4375zm7.618225 0.296875l0 11.28125l-2.625 0l0 -11.28125l2.625 0zm-1.328125 -5.625q0.703125 0 1.140625 0.453125q0.4375 0.4375 0.4375 1.140625q0 0.6875 -0.4375 1.140625q-0.4375 0.4375 -1.140625 0.4375q-0.703125 0 -1.140625 -0.4375q-0.4375 -0.453125 -0.4375 -1.140625q0 -0.703125 0.4375 -1.140625q0.4375 -0.453125 1.140625 -0.453125zm10.132904 5.625l0 1.890625l-4.5 7.328125l4.578125 0l-0.234375 2.0625l-7.15625 0l0 -1.890625l4.5 -7.328125l-4.125 0l0 -2.0625l6.9375 0zm8.655548 8.546875q0 0.5625 0.140625 0.828125q0.15625 0.265625 0.5 0.4375l-0.53125 1.75q-0.875 -0.109375 -1.40625 -0.46875q-0.515625 -0.359375 -0.765625 -1.109375q-0.984375 1.609375 -2.75 1.609375q-1.40625 0 -2.25 -0.9375q-0.828125 -0.953125 -0.828125 -2.53125q0 -1.828125 1.140625 -2.78125q1.140625 -0.96875 3.3125 -0.96875l0.875 0l0 -0.796875q0 -1.0625 -0.375 -1.5q-0.359375 -0.4375 -1.203125 -0.4375q-1.0 0 -2.484375 0.5625l-0.609375 -1.71875q0.859375 -0.375 1.765625 -0.578125q0.921875 -0.203125 1.765625 -0.203125q3.703125 0 3.703125 3.75l0 5.09375zm-4.109375 1.15625q1.015625 0 1.546875 -1.40625l0 -2.375l-0.609375 0q-1.09375 0 -1.59375 0.5q-0.5 0.484375 -0.5 1.515625q0 0.875 0.296875 1.328125q0.296875 0.4375 0.859375 0.4375zm12.261139 1.0625q-1.046875 0.828125 -2.453125 0.828125q-1.46875 0 -2.25 -0.828125q-0.765625 -0.84375 -0.765625 -2.296875l0 -6.578125l-1.3125 0l0 -1.890625l1.3125 0l0 -2.5l2.625 -0.3125l0 2.8125l2.140625 0l-0.265625 1.890625l-1.875 0l0 6.578125q0 1.015625 0.875 1.015625q0.28125 0 0.484375 -0.0625q0.21875 -0.078125 0.5625 -0.28125l0.921875 1.625zm3.7141724 -10.765625l0 11.28125l-2.625 0l0 -11.28125l2.625 0zm-1.328125 -5.625q0.703125 0 1.140625 0.453125q0.4375 0.4375 0.4375 1.140625q0 0.6875 -0.4375 1.140625q-0.4375 0.4375 -1.140625 0.4375q-0.703125 0 -1.140625 -0.4375q-0.4375 -0.453125 -0.4375 -1.140625q0 -0.703125 0.4375 -1.140625q0.4375 -0.453125 1.140625 -0.453125zm7.757904 5.328125q2.140625 0 3.3125 1.5q1.1875 1.484375 1.1875 4.421875q0 2.8125 -1.1875 4.390625q-1.1875 1.578125 -3.3125 1.578125q-2.109375 0 -3.3125 -1.53125q-1.1875 -1.546875 -1.1875 -4.4375q0 -2.859375 1.1875 -4.390625q1.203125 -1.53125 3.3125 -1.53125zm0 1.984375q-0.90625 0 -1.34375 0.90625q-0.421875 0.90625 -0.421875 3.03125q0 2.15625 0.421875 3.0625q0.4375 0.90625 1.34375 0.90625q0.921875 0 1.34375 -0.90625q0.4375 -0.90625 0.4375 -3.0625q0 -2.15625 -0.4375 -3.046875q-0.421875 -0.890625 -1.34375 -0.890625zm11.716431 -1.984375q1.21875 0 1.921875 0.875q0.703125 0.875 0.703125 2.34375l0 8.359375l-2.625 0l0 -8.0625q0 -0.8125 -0.234375 -1.15625q-0.21875 -0.359375 -0.640625 -0.359375q-0.890625 0 -1.765625 1.6875l0 7.890625l-2.625 0l0 -11.28125l2.28125 0l0.1875 1.46875q0.578125 -0.890625 1.21875 -1.328125q0.65625 -0.4375 1.578125 -0.4375z" fill-rule="nonzero"/><path fill="#000000" fill-opacity="0.0" d="m557.7536 76.17293l146.2992 0l0 30.992126l-146.2992 0z" fill-rule="evenodd"/><path fill="#ffffff" d="m618.4352 84.41461q1.859375 0 3.203125 0.5625q1.359375 0.5625 2.203125 2.171875q0.84375 1.609375 0.84375 4.5625q0 4.15625 -1.65625 5.796875q-1.65625 1.640625 -4.3125 1.640625l-3.5625 0l0 -14.734375l3.28125 0zm-0.578125 2.015625l0 10.6875l1.0 0q0.96875 0 1.609375 -0.4375q0.65625 -0.453125 1.03125 -1.640625q0.375 -1.203125 0.375 -3.328125q0 -2.1875 -0.40625 -3.328125q-0.390625 -1.15625 -1.046875 -1.546875q-0.640625 -0.40625 -1.578125 -0.40625l-0.984375 0zm15.252808 12.71875l-0.71875 -3.453125l-3.796875 0l-0.703125 3.453125l-2.71875 0l3.71875 -14.734375l3.28125 0l3.6875 14.734375l-2.75 0zm-4.09375 -5.5l2.96875 0l-1.5 -7.171875l-1.46875 7.171875zm12.746155 -9.53125q2.609375 0 4.015625 1.90625q1.40625 1.890625 1.40625 5.75q0 3.8125 -1.40625 5.75q-1.40625 1.9375 -4.015625 1.9375q-2.578125 0 -4.0 -1.90625q-1.40625 -1.921875 -1.40625 -5.765625q0 -3.796875 1.40625 -5.734375q1.421875 -1.9375 4.0 -1.9375zm0 2.046875q-1.296875 0 -1.921875 1.296875q-0.625 1.296875 -0.625 4.328125q0 3.046875 0.640625 4.328125q0.640625 1.265625 1.90625 1.265625q1.328125 0 1.953125 -1.25q0.640625 -1.265625 0.640625 -4.359375q0 -3.03125 -0.640625 -4.3125q-0.640625 -1.296875 -1.953125 -1.296875z" fill-rule="nonzero"/><path fill="#000000" fill-opacity="0.0" d="m779.3746 76.17293l147.05511 0l0 30.992126l-147.05511 0z" fill-rule="evenodd"/><path fill="#ffffff" d="m840.306 84.41461q1.859375 0 3.203125 0.5625q1.359375 0.5625 2.203125 2.171875q0.84375 1.609375 0.84375 4.5625q0 4.15625 -1.65625 5.796875q-1.65625 1.640625 -4.3125 1.640625l-3.5625 0l0 -14.734375l3.28125 0zm-0.578125 2.015625l0 10.6875l1.0 0q0.96875 0 1.609375 -0.4375q0.65625 -0.453125 1.03125 -1.640625q0.375 -1.203125 0.375 -3.328125q0 -2.1875 -0.40625 -3.328125q-0.390625 -1.15625 -1.046875 -1.546875q-0.640625 -0.40625 -1.578125 -0.40625l-0.984375 0zm12.231812 -2.015625q2.65625 0 4.046875 1.1875q1.40625 1.171875 1.40625 3.484375q0 2.453125 -1.375 3.671875q-1.375 1.203125 -3.890625 1.203125l-0.859375 0l0 5.1875l-2.703125 0l0 -14.734375l3.375 0zm0.03125 7.53125q1.390625 0 2.0 -0.640625q0.625 -0.640625 0.625 -2.203125q0 -1.40625 -0.625 -2.046875q-0.609375 -0.640625 -1.96875 -0.640625l-0.734375 0l0 5.53125l0.703125 0zm11.898193 -7.828125q2.609375 0 4.015625 1.90625q1.40625 1.890625 1.40625 5.75q0 3.8125 -1.40625 5.75q-1.40625 1.9375 -4.015625 1.9375q-2.578125 0 -4.0 -1.90625q-1.40625 -1.921875 -1.40625 -5.765625q0 -3.796875 1.40625 -5.734375q1.421875 -1.9375 4.0 -1.9375zm0 2.046875q-1.296875 0 -1.921875 1.296875q-0.625 1.296875 -0.625 4.328125q0 3.046875 0.640625 4.328125q0.640625 1.265625 1.90625 1.265625q1.328125 0 1.953125 -1.25q0.640625 -1.265625 0.640625 -4.359375q0 -3.03125 -0.640625 -4.3125q-0.640625 -1.296875 -1.953125 -1.296875z" fill-rule="nonzero"/><path fill="#ffbe2e" d="m401.60678 378.94992l-15.33551 -18.427338l0 0c-1.9169312 -2.3160706 -1.9169312 -6.048767 0 -8.353607l0 0c1.9169312 -2.3160706 5.030792 -2.3160706 6.9477234 0l8.425201 10.118744l22.937805 -27.264374l0 0c1.9262695 -2.30484 5.0401306 -2.2823486 6.9477234 0.04498291l0 0c1.9075928 2.31604 1.8888855 6.0599976 -0.03741455 8.353577l-29.885529 35.528015" fill-rule="evenodd"/><path fill="#ffbe2e" d="m623.68994 199.34798l-15.33551 -18.427353l0 0c-1.9169312 -2.3160706 -1.9169312 -6.048767 0 -8.353592l0 0c1.9169922 -2.3160553 5.0308228 -2.3160553 6.947754 0l8.425171 10.118744l22.937805 -27.264389l0 0c1.9263306 -2.3048096 5.040161 -2.2823334 6.947754 0.04498291l0 0c1.9075928 2.3160706 1.888855 6.0599976 -0.03741455 8.353577l-29.88556 35.52803" fill-rule="evenodd"/><path fill="#ec3d3d" d="m618.06305 334.43707c1.2572632 0 2.515625 0.5711975 3.4746094 1.713501l9.454407 11.3125l9.454346 -11.3125c1.9086914 -2.2846375 5.0336304 -2.2846375 6.9422607 0c1.9086914 2.2845764 1.9086914 6.013855 0 8.309662l-9.453125 11.311066l9.453125 11.311066c1.9086914 2.2846375 1.9086914 6.0250854 0 8.309662c-1.9086304 2.284668 -5.0335693 2.284668 -6.9422607 0l-9.454346 -11.3125l-9.454407 11.3125c-1.9179688 2.284668 -5.0335693 2.284668 -6.9421997 0c-1.9086914 -2.2845764 -1.9086914 -6.0250244 0 -8.309662l9.453125 -11.311066l-9.453125 -11.311066c-1.9086914 -2.295807 -1.9086914 -6.0250854 0 -8.309662c0.9543457 -1.1423035 2.2103882 -1.713501 3.4675903 -1.713501z" fill-rule="evenodd"/><path fill="#ffbe2e" d="m844.5805 375.0513l-15.335449 -18.427368l0 0c-1.9169922 -2.3160706 -1.9169922 -6.0487366 0 -8.353577l0 0c1.9169312 -2.3160706 5.0307617 -2.3160706 6.947693 0l8.425171 10.118744l22.937805 -27.264374l0 0c1.9263306 -2.30484 5.040161 -2.2823486 6.947754 0.044952393l0 0c1.9075928 2.3160706 1.888855 6.0599976 -0.03741455 8.353607l-29.88556 35.528015" fill-rule="evenodd"/><path fill="#ffbe2e" d="m844.5805 468.4771l-15.335449 -18.427338l0 0c-1.9169922 -2.3160706 -1.9169922 -6.048767 0 -8.353577l0 0c1.9169312 -2.3160706 5.0307617 -2.3160706 6.947693 0l8.425171 10.118744l22.937805 -27.264404l0 0c1.9263306 -2.3048096 5.040161 -2.282318 6.947754 0.04498291l0 0c1.9075928 2.3160706 1.888855 6.0599976 -0.03741455 8.353577l-29.88556 35.528015" fill-rule="evenodd"/><path fill="#ffbe2e" d="m844.5805 199.63173l-15.335449 -18.427353l0 0c-1.9169922 -2.3160706 -1.9169922 -6.048752 0 -8.353577l0 0c1.9169312 -2.3160706 5.0307617 -2.3160706 6.947693 0l8.425171 10.118744l22.937805 -27.264389l0 0c1.9263306 -2.3048248 5.040161 -2.2823334 6.947754 0.04496765l0 0c1.9075928 2.3160706 1.888855 6.060013 -0.03741455 8.353592l-29.88556 35.528015" fill-rule="evenodd"/><path fill="#ec3d3d" d="m393.21826 153.93222c1.2572021 0 2.5155945 0.57121277 3.4746094 1.713501l9.454376 11.312515l9.454346 -11.312515c1.9086609 -2.2846375 5.0336304 -2.2846375 6.9422913 0c1.9086609 2.2845917 1.9086609 6.0138702 0 8.309692l-9.453125 11.31105l9.453125 11.31105c1.9086609 2.2846527 1.9086609 6.0251007 0 8.309692c-1.9086609 2.2846375 -5.0336304 2.2846375 -6.9422913 0l-9.454346 -11.312515l-9.454376 11.312515c-1.9179993 2.2846375 -5.0335693 2.2846375 -6.94223 0c-1.9086609 -2.2845917 -1.9086609 -6.0250397 0 -8.309692l9.453125 -11.31105l-9.453125 -11.31105c-1.9086609 -2.2958221 -1.9086609 -6.0251007 0 -8.309692c0.9543152 -1.1422882 2.2103882 -1.713501 3.4676208 -1.713501z" fill-rule="evenodd"/><path fill="#ffbe2e" d="m623.84143 292.28955l-15.33551 -18.427338l0 0c-1.9169312 -2.3160706 -1.9169312 -6.048767 0 -8.353577l0 0c1.9169312 -2.3160706 5.0308228 -2.3160706 6.947754 0l8.425171 10.118744l22.937805 -27.264389l0 0c1.9262695 -2.3048248 5.040161 -2.2823486 6.947693 0.04496765l0 0c1.9075928 2.3160706 1.888916 6.0599976 -0.037353516 8.353577l-29.88556 35.528015" fill-rule="evenodd"/><path fill="#ec3d3d" d="m393.21826 247.82573c1.2572021 0 2.5155945 0.57121277 3.4746094 1.713501l9.454376 11.312515l9.454346 -11.312515c1.9086609 -2.2846527 5.0336304 -2.2846527 6.9422913 0c1.9086609 2.2845764 1.9086609 6.013855 0 8.309677l-9.453125 11.311066l9.453125 11.311035c1.9086609 2.284668 1.9086609 6.025116 0 8.309692c-1.9086609 2.2846375 -5.0336304 2.2846375 -6.9422913 0l-9.454346 -11.3125l-9.454376 11.3125c-1.9179993 2.2846375 -5.0335693 2.2846375 -6.94223 0c-1.9086609 -2.2845764 -1.9086609 -6.0250244 0 -8.309692l9.453125 -11.311035l-9.453125 -11.311066c-1.9086609 -2.2958221 -1.9086609 -6.0251007 0 -8.309677c0.9543152 -1.1422882 2.2103882 -1.713501 3.4676208 -1.713501z" fill-rule="evenodd"/><path fill="#ffbe2e" d="m844.5805 292.2908l-15.335449 -18.427368l0 0c-1.9169922 -2.3160706 -1.9169922 -6.048767 0 -8.353577l0 0c1.9169312 -2.3160706 5.0307617 -2.3160706 6.947693 0l8.425171 10.118744l22.937805 -27.264389l0 0c1.9263306 -2.3048248 5.040161 -2.2823334 6.947754 0.04496765l0 0c1.9075928 2.3160706 1.888855 6.060013 -0.03741455 8.353577l-29.88556 35.528046" fill-rule="evenodd"/><path fill="#ffbe2e" d="m398.84122 465.8412l-15.33551 -18.427338l0 0c-1.9169312 -2.3160706 -1.9169312 -6.048767 0 -8.353607l0 0c1.9169312 -2.31604 5.030792 -2.31604 6.9477234 0l8.425171 10.118744l22.937805 -27.264374l0 0c1.9263 -2.3048096 5.040161 -2.2823486 6.947754 0.04498291l0 0c1.9075928 2.3160706 1.8888855 6.0599976 -0.03741455 8.353577l-29.885529 35.528015" fill-rule="evenodd"/><path fill="#ec3d3d" d="m618.06305 420.5619c1.2572632 0 2.515625 0.5711975 3.4746094 1.713501l9.454407 11.3125l9.454346 -11.3125c1.9086914 -2.2846375 5.0336304 -2.2846375 6.9422607 0c1.9086914 2.2845764 1.9086914 6.013855 0 8.309692l-9.453125 11.311035l9.453125 11.311066c1.9086914 2.2846375 1.9086914 6.0250854 0 8.309662c-1.9086304 2.284668 -5.0335693 2.284668 -6.9422607 0l-9.454346 -11.3125l-9.454407 11.3125c-1.9179688 2.284668 -5.0335693 2.284668 -6.9421997 0c-1.9086914 -2.2845764 -1.9086914 -6.0250244 0 -8.309662l9.453125 -11.311066l-9.453125 -11.311035c-1.9086914 -2.2958374 -1.9086914 -6.025116 0 -8.309692c0.9543457 -1.1423035 2.2103882 -1.713501 3.4675903 -1.713501z" fill-rule="evenodd"/></g></svg>