<svg version="1.1" viewBox="0.0 0.0 960.0 540.0" fill="none" stroke="none" stroke-linecap="square" stroke-miterlimit="10" xmlns:xlink="http://www.w3.org/1999/xlink" xmlns="http://www.w3.org/2000/svg"><clipPath id="gd2cba382ed_0_1.0"><path d="m0 0l960.0 0l0 540.0l-960.0 0l0 -540.0z" clip-rule="nonzero"/></clipPath><g clip-path="url(#gd2cba382ed_0_1.0)"><path fill="#000000" fill-opacity="0.0" d="m0 0l960.0 0l0 540.0l-960.0 0z" fill-rule="evenodd"/><path fill="#999999" d="m19.136496 61.73644l0 0c0 -3.6015968 2.91967 -6.521267 6.521267 -6.521267l266.10706 0c1.7295532 0 3.3882751 0.6870575 4.6112366 1.9100342c1.2229614 1.2229729 1.9100342 2.8816833 1.9100342 4.6112328l0 56.973217c0 3.601593 -2.9196777 6.521263 -6.5212708 6.521263l-266.10706 0c-3.6015968 0 -6.521267 -2.91967 -6.521267 -6.521263z" fill-rule="evenodd"/><path fill="#ec3d3d" d="m308.92014 61.73644l0 0c0 -3.6015968 2.9196777 -6.521267 6.5212708 -6.521267l192.59528 0c1.7295532 0 3.3882446 0.6870575 4.611206 1.9100342c1.2230225 1.2229729 1.9100342 2.8816833 1.9100342 4.6112328l0 56.973217c0 3.601593 -2.9196472 6.521263 -6.52124 6.521263l-192.59528 0l0 0c-3.601593 0 -6.5212708 -2.91967 -6.5212708 -6.521263z" fill-rule="evenodd"/><path fill="#ec3d3d" d="m522.0728 61.73644l0 0c0 -3.6015968 2.9196777 -6.521267 6.52124 -6.521267l192.59528 0c1.7295532 0 3.3882446 0.6870575 4.611206 1.9100342c1.2230225 1.2229729 1.9100342 2.8816833 1.9100342 4.6112328l0 56.973217c0 3.601593 -2.9196167 6.521263 -6.52124 6.521263l-192.59528 0l0 0c-3.6015625 0 -6.52124 -2.91967 -6.52124 -6.521263z" fill-rule="evenodd"/><path fill="#ec3d3d" d="m735.22546 61.73644l0 0c0 -3.6015968 2.9196777 -6.521267 6.52124 -6.521267l192.59528 0c1.7295532 0 3.3882446 0.6870575 4.611267 1.9100342c1.2229614 1.2229729 1.9100342 2.8816833 1.9100342 4.6112328l0 56.973217c0 3.601593 -2.9196777 6.521263 -6.5213013 6.521263l-192.59528 0l0 0c-3.6015625 0 -6.52124 -2.91967 -6.52124 -6.521263z" fill-rule="evenodd"/><path fill="#ffffff" d="m19.136826 140.18915l0 0c0 -3.970993 3.2191238 -7.1901245 7.190115 -7.1901245l264.76938 0c1.9069519 0 3.7357788 0.75753784 5.0841675 2.1059418c1.3484192 1.3484039 2.105957 3.177246 2.105957 5.0841827l0 62.81662c0 3.970993 -3.2191162 7.1901093 -7.1901245 7.1901093l-264.76938 0c-3.9709911 0 -7.190115 -3.2191162 -7.190115 -7.1901093z" fill-rule="evenodd"/><path fill="#000000" d="m34.19274 178.51746l0 -13.265625l3.734375 0q1.734375 0 3.0625 0.765625q1.328125 0.765625 2.046875 2.1875q0.734375 1.40625 0.734375 3.234375l0 0.84375q0 1.875 -0.71875 3.296875q-0.71875 1.40625 -2.0625 2.171875q-1.34375 0.75 -3.140625 0.765625l-3.65625 0zm1.734375 -11.828125l0 10.390625l1.84375 0q2.03125 0 3.15625 -1.25q1.125 -1.25 1.125 -3.578125l0 -0.78125q0 -2.25 -1.0625 -3.5q-1.0625 -1.265625 -3.015625 -1.28125l-2.046875 0zm14.31218 12.015625q-2.0 0 -3.265625 -1.3125q-1.25 -1.328125 -1.25 -3.53125l0 -0.3125q0 -1.46875 0.5625 -2.609375q0.5625 -1.15625 1.5625 -1.796875q1.015625 -0.65625 2.1875 -0.65625q1.921875 0 2.984375 1.265625q1.0625 1.265625 1.0625 3.625l0 0.6875l-6.671875 0q0.03125 1.46875 0.84375 2.375q0.828125 0.890625 2.078125 0.890625q0.890625 0 1.515625 -0.359375q0.625 -0.375 1.078125 -0.96875l1.03125 0.796875q-1.234375 1.90625 -3.71875 1.90625zm-0.203125 -8.84375q-1.015625 0 -1.71875 0.75q-0.6875 0.734375 -0.84375 2.078125l4.9375 0l0 -0.125q-0.078125 -1.28125 -0.703125 -1.984375q-0.609375 -0.71875 -1.671875 -0.71875zm9.961929 7.46875q0.890625 0 1.5625 -0.546875q0.6875 -0.546875 0.75 -1.375l1.59375 0q-0.046875 0.84375 -0.578125 1.609375q-0.53125 0.765625 -1.4375 1.234375q-0.890625 0.453125 -1.890625 0.453125q-2.015625 0 -3.203125 -1.34375q-1.1875 -1.34375 -1.1875 -3.6875l0 -0.28125q0 -1.4375 0.515625 -2.546875q0.53125 -1.125 1.515625 -1.734375q1.0 -0.625 2.34375 -0.625q1.65625 0 2.75 1.0q1.109375 0.984375 1.171875 2.5625l-1.59375 0q-0.0625 -0.953125 -0.71875 -1.5625q-0.65625 -0.625 -1.609375 -0.625q-1.28125 0 -2.0 0.921875q-0.703125 0.921875 -0.703125 2.671875l0 0.328125q0 1.703125 0.703125 2.625q0.703125 0.921875 2.015625 0.921875zm9.890381 1.375q-2.0 0 -3.265625 -1.3125q-1.25 -1.328125 -1.25 -3.53125l0 -0.3125q0 -1.46875 0.5625 -2.609375q0.5625 -1.15625 1.5625 -1.796875q1.015625 -0.65625 2.1875 -0.65625q1.921875 0 2.984375 1.265625q1.0625 1.265625 1.0625 3.625l0 0.6875l-6.671875 0q0.03125 1.46875 0.84375 2.375q0.828125 0.890625 2.078125 0.890625q0.890625 0 1.515625 -0.359375q0.625 -0.375 1.078125 -0.96875l1.03125 0.796875q-1.234375 1.90625 -3.71875 1.90625zm-0.203125 -8.84375q-1.015625 0 -1.71875 0.75q-0.6875 0.734375 -0.84375 2.078125l4.9375 0l0 -0.125q-0.078125 -1.28125 -0.703125 -1.984375q-0.609375 -0.71875 -1.671875 -0.71875zm7.6025543 -1.203125l0.046875 1.234375q1.125 -1.40625 2.953125 -1.40625q3.125 0 3.15625 3.515625l0 6.515625l-1.6875 0l0 -6.515625q-0.015625 -1.078125 -0.5 -1.578125q-0.46875 -0.515625 -1.484375 -0.515625q-0.8125 0 -1.4375 0.4375q-0.609375 0.4375 -0.96875 1.15625l0 7.015625l-1.671875 0l0 -9.859375l1.59375 0zm10.981232 -2.390625l0 2.390625l1.84375 0l0 1.3125l-1.84375 0l0 6.109375q0 0.59375 0.234375 0.890625q0.25 0.296875 0.84375 0.296875q0.296875 0 0.8125 -0.109375l0 1.359375q-0.671875 0.1875 -1.296875 0.1875q-1.125 0 -1.703125 -0.6875q-0.578125 -0.6875 -0.578125 -1.9375l0 -6.109375l-1.796875 0l0 -1.3125l1.796875 0l0 -2.390625l1.6875 0zm8.578629 3.90625q-0.390625 -0.0625 -0.84375 -0.0625q-1.65625 0 -2.25 1.40625l0 7.0l-1.671875 0l0 -9.859375l1.640625 0l0.015625 1.140625q0.828125 -1.3125 2.359375 -1.3125q0.484375 0 0.75 0.125l0 1.5625zm7.260803 8.34375q-0.140625 -0.296875 -0.234375 -1.03125q-1.171875 1.21875 -2.8125 1.21875q-1.453125 0 -2.390625 -0.828125q-0.921875 -0.828125 -0.921875 -2.09375q0 -1.53125 1.15625 -2.375q1.171875 -0.859375 3.296875 -0.859375l1.640625 0l0 -0.78125q0 -0.890625 -0.53125 -1.40625q-0.515625 -0.53125 -1.546875 -0.53125q-0.90625 0 -1.515625 0.46875q-0.609375 0.453125 -0.609375 1.09375l-1.703125 0q0 -0.734375 0.515625 -1.421875q0.53125 -0.6875 1.421875 -1.078125q0.90625 -0.40625 1.984375 -0.40625q1.703125 0 2.671875 0.859375q0.96875 0.84375 1.0 2.328125l0 4.53125q0 1.359375 0.34375 2.171875l0 0.140625l-1.765625 0zm-2.796875 -1.28125q0.796875 0 1.5 -0.40625q0.71875 -0.421875 1.03125 -1.078125l0 -2.015625l-1.3125 0q-3.109375 0 -3.109375 1.8125q0 0.796875 0.53125 1.25q0.53125 0.4375 1.359375 0.4375zm8.694855 1.28125l-1.6875 0l0 -14.0l1.6875 0l0 14.0zm4.52742 0l-1.6875 0l0 -9.859375l1.6875 0l0 9.859375zm-1.828125 -12.46875q0 -0.40625 0.25 -0.6875q0.25 -0.296875 0.734375 -0.296875q0.5 0 0.75 0.296875q0.265625 0.28125 0.265625 0.6875q0 0.40625 -0.265625 0.6875q-0.25 0.265625 -0.75 0.265625q-0.484375 0 -0.734375 -0.265625q-0.25 -0.28125 -0.25 -0.6875zm6.105545 11.09375l5.765625 0l0 1.375l-7.828125 0l0 -1.234375l5.4375 -7.234375l-5.34375 0l0 -1.390625l7.46875 0l0 1.203125l-5.5 7.28125zm11.600319 1.5625q-2.0 0 -3.2656326 -1.3125q-1.25 -1.328125 -1.25 -3.53125l0 -0.3125q0 -1.46875 0.5625 -2.609375q0.5625 -1.15625 1.5625076 -1.796875q1.015625 -0.65625 2.1875 -0.65625q1.921875 0 2.984375 1.265625q1.0625 1.265625 1.0625 3.625l0 0.6875l-6.6718826 0q0.03125 1.46875 0.8437576 2.375q0.828125 0.890625 2.078125 0.890625q0.890625 0 1.515625 -0.359375q0.625 -0.375 1.078125 -0.96875l1.03125 0.796875q-1.234375 1.90625 -3.71875 1.90625zm-0.203125 -8.84375q-1.015625 0 -1.71875 0.75q-0.6875076 0.734375 -0.8437576 2.078125l4.9375076 0l0 -0.125q-0.078125 -1.28125 -0.703125 -1.984375q-0.609375 -0.71875 -1.671875 -0.71875zm5.5869293 3.640625q0 -2.265625 1.078125 -3.640625q1.078125 -1.375 2.8125 -1.375q1.734375 0 2.75 1.171875l0 -5.140625l1.6875 0l0 14.0l-1.546875 0l-0.09375 -1.0625q-1.0 1.25 -2.8125 1.25q-1.703125 0 -2.796875 -1.40625q-1.078125 -1.40625 -1.078125 -3.65625l0 -0.140625zm1.6875 0.203125q0 1.671875 0.6875 2.625q0.703125 0.9375 1.921875 0.9375q1.609375 0 2.34375 -1.4375l0 -4.53125q-0.765625 -1.390625 -2.328125 -1.390625q-1.234375 0 -1.9375 0.953125q-0.6875 0.953125 -0.6875 2.84375zm19.952469 4.8125q-0.140625 -0.296875 -0.234375 -1.03125q-1.171875 1.21875 -2.8125 1.21875q-1.453125 0 -2.390625 -0.828125q-0.921875 -0.828125 -0.921875 -2.09375q0 -1.53125 1.15625 -2.375q1.171875 -0.859375 3.296875 -0.859375l1.640625 0l0 -0.78125q0 -0.890625 -0.53125 -1.40625q-0.515625 -0.53125 -1.546875 -0.53125q-0.90625 0 -1.515625 0.46875q-0.609375 0.453125 -0.609375 1.09375l-1.703125 0q0 -0.734375 0.515625 -1.421875q0.53125 -0.6875 1.421875 -1.078125q0.90625 -0.40625 1.984375 -0.40625q1.703125 0 2.671875 0.859375q0.96875 0.84375 1.0 2.328125l0 4.53125q0 1.359375 0.34375 2.171875l0 0.140625l-1.765625 0zm-2.796875 -1.28125q0.796875 0 1.5 -0.40625q0.71875 -0.421875 1.03125 -1.078125l0 -2.015625l-1.3125 0q-3.109375 0 -3.109375 1.8125q0 0.796875 0.53125 1.25q0.53125 0.4375 1.359375 0.4375zm8.46048 -8.578125l0.046875 1.234375q1.125 -1.40625 2.953125 -1.40625q3.125 0 3.15625 3.515625l0 6.515625l-1.6875 0l0 -6.515625q-0.015625 -1.078125 -0.5 -1.578125q-0.46875 -0.515625 -1.484375 -0.515625q-0.8125 0 -1.4375 0.4375q-0.609375 0.4375 -0.96875 1.15625l0 7.015625l-1.671875 0l0 -9.859375l1.59375 0zm8.278107 4.84375q0 -2.265625 1.078125 -3.640625q1.078125 -1.375 2.8125 -1.375q1.734375 0 2.75 1.171875l0 -5.140625l1.6875 0l0 14.0l-1.546875 0l-0.09375 -1.0625q-1.0 1.25 -2.8125 1.25q-1.703125 0 -2.796875 -1.40625q-1.078125 -1.40625 -1.078125 -3.65625l0 -0.140625zm1.6875 0.203125q0 1.671875 0.6875 2.625q0.703125 0.9375 1.921875 0.9375q1.609375 0 2.34375 -1.4375l0 -4.53125q-0.765625 -1.390625 -2.328125 -1.390625q-1.234375 0 -1.9375 0.953125q-0.6875 0.953125 -0.6875 2.84375zm22.931671 -7.015625l-4.265625 0l0 11.828125l-1.734375 0l0 -11.828125l-4.25 0l0 -1.4375l10.25 0l0 1.4375zm5.7919617 3.484375q-0.390625 -0.0625 -0.84375 -0.0625q-1.65625 0 -2.25 1.40625l0 7.0l-1.671875 0l0 -9.859375l1.640625 0l0.015625 1.140625q0.828125 -1.3125 2.359375 -1.3125q0.484375 0 0.75 0.125l0 1.5625zm7.260803 8.34375q-0.140625 -0.296875 -0.234375 -1.03125q-1.171875 1.21875 -2.8125 1.21875q-1.453125 0 -2.390625 -0.828125q-0.921875 -0.828125 -0.921875 -2.09375q0 -1.53125 1.15625 -2.375q1.171875 -0.859375 3.296875 -0.859375l1.640625 0l0 -0.78125q0 -0.890625 -0.53125 -1.40625q-0.515625 -0.53125 -1.546875 -0.53125q-0.90625 0 -1.515625 0.46875q-0.609375 0.453125 -0.609375 1.09375l-1.703125 0q0 -0.734375 0.515625 -1.421875q0.53125 -0.6875 1.421875 -1.078125q0.90625 -0.40625 1.984375 -0.40625q1.703125 0 2.671875 0.859375q0.96875 0.84375 1.0 2.328125l0 4.53125q0 1.359375 0.34375 2.171875l0 0.140625l-1.765625 0zm-2.796875 -1.28125q0.796875 0 1.5 -0.40625q0.71875 -0.421875 1.03125 -1.078125l0 -2.015625l-1.3125 0q-3.109375 0 -3.109375 1.8125q0 0.796875 0.53125 1.25q0.53125 0.4375 1.359375 0.4375zm8.46048 -8.578125l0.046875 1.234375q1.125 -1.40625 2.953125 -1.40625q3.125 0 3.15625 3.515625l0 6.515625l-1.6875 0l0 -6.515625q-0.015625 -1.078125 -0.5 -1.578125q-0.46875 -0.515625 -1.484375 -0.515625q-0.8125 0 -1.4375 0.4375q-0.609375 0.4375 -0.96875 1.15625l0 7.015625l-1.671875 0l0 -9.859375l1.59375 0zm14.434357 7.25q0 -0.6875 -0.515625 -1.0625q-0.515625 -0.375 -1.796875 -0.640625q-1.28125 -0.28125 -2.03125 -0.65625q-0.75 -0.390625 -1.109375 -0.921875q-0.359375 -0.53125 -0.359375 -1.265625q0 -1.203125 1.015625 -2.03125q1.03125 -0.84375 2.625 -0.84375q1.671875 0 2.71875 0.859375q1.046875 0.859375 1.046875 2.21875l-1.6875 0q0 -0.703125 -0.59375 -1.203125q-0.59375 -0.5 -1.484375 -0.5q-0.921875 0 -1.4375 0.40625q-0.515625 0.390625 -0.515625 1.046875q0 0.609375 0.484375 0.921875q0.484375 0.3125 1.734375 0.59375q1.265625 0.28125 2.046875 0.671875q0.78125 0.390625 1.15625 0.9375q0.390625 0.546875 0.390625 1.34375q0 1.328125 -1.0625 2.125q-1.046875 0.796875 -2.734375 0.796875q-1.1875 0 -2.109375 -0.421875q-0.90625 -0.421875 -1.421875 -1.171875q-0.515625 -0.75 -0.515625 -1.625l1.6875 0q0.046875 0.84375 0.671875 1.34375q0.640625 0.5 1.6875 0.5q0.953125 0 1.53125 -0.390625q0.578125 -0.390625 0.578125 -1.03125zm12.197754 -2.203125q0 2.25 -1.03125 3.625q-1.015625 1.375 -2.78125 1.375q-1.796875 0 -2.828125 -1.140625l0 4.75l-1.671875 0l0 -13.65625l1.53125 0l0.078125 1.09375q1.03125 -1.265625 2.859375 -1.265625q1.78125 0 2.8125 1.34375q1.03125 1.328125 1.03125 3.71875l0 0.15625zm-1.671875 -0.203125q0 -1.65625 -0.71875 -2.625q-0.703125 -0.96875 -1.953125 -0.96875q-1.53125 0 -2.296875 1.359375l0 4.703125q0.765625 1.359375 2.328125 1.359375q1.203125 0 1.921875 -0.953125q0.71875 -0.96875 0.71875 -2.875zm9.904297 5.015625q-0.140625 -0.296875 -0.234375 -1.03125q-1.171875 1.21875 -2.8125 1.21875q-1.453125 0 -2.390625 -0.828125q-0.921875 -0.828125 -0.921875 -2.09375q0 -1.53125 1.15625 -2.375q1.171875 -0.859375 3.296875 -0.859375l1.640625 0l0 -0.78125q0 -0.890625 -0.53125 -1.40625q-0.515625 -0.53125 -1.546875 -0.53125q-0.90625 0 -1.515625 0.46875q-0.609375 0.453125 -0.609375 1.09375l-1.703125 0q0 -0.734375 0.515625 -1.421875q0.53125 -0.6875 1.421875 -1.078125q0.90625 -0.40625 1.984375 -0.40625q1.703125 0 2.671875 0.859375q0.96875 0.84375 1.0 2.328125l0 4.53125q0 1.359375 0.34375 2.171875l0 0.140625l-1.765625 0zm-2.796875 -1.28125q0.796875 0 1.5 -0.40625q0.71875 -0.421875 1.03125 -1.078125l0 -2.015625l-1.3125 0q-3.109375 0 -3.109375 1.8125q0 0.796875 0.53125 1.25q0.53125 0.4375 1.359375 0.4375zm11.632355 -7.0625q-0.390625 -0.0625 -0.84375 -0.0625q-1.65625 0 -2.25 1.40625l0 7.0l-1.671875 0l0 -9.859375l1.640625 0l0.015625 1.140625q0.828125 -1.3125 2.359375 -1.3125q0.484375 0 0.75 0.125l0 1.5625zm5.4522095 8.53125q-2.0 0 -3.265625 -1.3125q-1.25 -1.328125 -1.25 -3.53125l0 -0.3125q0 -1.46875 0.5625 -2.609375q0.5625 -1.15625 1.5625 -1.796875q1.015625 -0.65625 2.1875 -0.65625q1.921875 0 2.984375 1.265625q1.0625 1.265625 1.0625 3.625l0 0.6875l-6.671875 0q0.03125 1.46875 0.84375 2.375q0.828125 0.890625 2.078125 0.890625q0.890625 0 1.515625 -0.359375q0.625 -0.375 1.078125 -0.96875l1.03125 0.796875q-1.234375 1.90625 -3.71875 1.90625zm-0.203125 -8.84375q-1.015625 0 -1.71875 0.75q-0.6875 0.734375 -0.84375 2.078125l4.9375 0l0 -0.125q-0.078125 -1.28125 -0.703125 -1.984375q-0.609375 -0.71875 -1.671875 -0.71875zm7.6025696 -1.203125l0.046875 1.234375q1.125 -1.40625 2.953125 -1.40625q3.125 0 3.15625 3.515625l0 6.515625l-1.6875 0l0 -6.515625q-0.015625 -1.078125 -0.5 -1.578125q-0.46875 -0.515625 -1.484375 -0.515625q-0.8125 0 -1.4375 0.4375q-0.609375 0.4375 -0.96875 1.15625l0 7.015625l-1.671875 0l0 -9.859375l1.59375 0zm10.981232 -2.390625l0 2.390625l1.84375 0l0 1.3125l-1.84375 0l0 6.109375q0 0.59375 0.234375 0.890625q0.25 0.296875 0.84375 0.296875q0.296875 0 0.8125 -0.109375l0 1.359375q-0.671875 0.1875 -1.296875 0.1875q-1.125 0 -1.703125 -0.6875q-0.578125 -0.6875 -0.578125 -1.9375l0 -6.109375l-1.796875 0l0 -1.3125l1.796875 0l0 -2.390625l1.6875 0z" fill-rule="nonzero"/><path fill="#ffffff" d="m19.136826 226.1292l0 0c0 -3.970993 3.2191238 -7.1901093 7.190115 -7.1901093l264.76938 0c1.9069519 0 3.7357788 0.7575226 5.0841675 2.1059265c1.3484192 1.3484192 2.105957 3.177246 2.105957 5.0841827l0 62.816635c0 3.9709778 -3.2191162 7.190094 -7.1901245 7.190094l-264.76938 0c-3.9709911 0 -7.190115 -3.2191162 -7.190115 -7.190094z" fill-rule="evenodd"/><path fill="#000000" d="m79.19544 262.72314q-0.671875 0.953125 -1.875 1.4375q-1.203125 0.484375 -2.8125 0.484375q-1.625 0 -2.890625 -0.765625q-1.25 -0.765625 -1.9375 -2.15625q-0.6875 -1.40625 -0.703125 -3.265625l0 -1.15625q0 -2.9843903 1.390625 -4.6406403q1.40625 -1.65625 3.9375 -1.65625q2.078125 0 3.34375 1.0625q1.265625 1.0625 1.546875 3.015625l-1.75 0q-0.484375 -2.625 -3.125 -2.625q-1.765625 0 -2.671875 1.234375q-0.90625 1.234375 -0.90625 3.5625153l0 1.09375q0 2.234375 1.015625 3.546875q1.015625 1.3125 2.765625 1.3125q0.984375 0 1.71875 -0.21875q0.734375 -0.21875 1.21875 -0.734375l0 -2.984375l-3.078125 0l0 -1.421875l4.8125 0l0 4.875zm8.738998 0.765625q-0.984375 1.15625 -2.890625 1.15625q-1.578125 0 -2.40625 -0.921875q-0.8125 -0.921875 -0.828125 -2.703125l0 -6.4218903l1.6875 0l0 6.3750153q0 2.234375 1.828125 2.234375q1.921875 0 2.5625 -1.4375l0 -7.1718903l1.6875 0l0 9.85939l-1.609375 0l-0.03125 -0.96875zm10.284622 0.96875q-0.140625 -0.296875 -0.234375 -1.03125q-1.171875 1.21875 -2.8125 1.21875q-1.453125 0 -2.390625 -0.828125q-0.921875 -0.828125 -0.921875 -2.09375q0 -1.53125 1.15625 -2.375q1.171875 -0.859375 3.296875 -0.859375l1.640625 0l0 -0.78125q0 -0.890625 -0.53125 -1.40625q-0.515625 -0.53126526 -1.546875 -0.53126526q-0.90625 0 -1.515625 0.46876526q-0.609375 0.453125 -0.609375 1.09375l-1.703125 0q0 -0.734375 0.515625 -1.4218903q0.53125 -0.6875 1.421875 -1.078125q0.90625 -0.40625 1.984375 -0.40625q1.703125 0 2.671875 0.859375q0.96875 0.84376526 1.0 2.3281403l0 4.53125q0 1.359375 0.34375 2.171875l0 0.140625l-1.765625 0zm-2.796875 -1.28125q0.796875 0 1.5 -0.40625q0.71875 -0.421875 1.03125 -1.078125l0 -2.015625l-1.3125 0q-3.109375 0 -3.109375 1.8125q0 0.796875 0.53125 1.25q0.53125 0.4375 1.359375 0.4375zm11.632355 -7.0625q-0.390625 -0.0625 -0.84375 -0.0625q-1.65625 0 -2.25 1.40625l0 7.0l-1.671875 0l0 -9.85939l1.640625 0l0.015625 1.140625q0.828125 -1.3125 2.359375 -1.3125q0.484375 0 0.75 0.125l0 1.5625153zm7.260803 8.34375q-0.140625 -0.296875 -0.234375 -1.03125q-1.171875 1.21875 -2.8125 1.21875q-1.453125 0 -2.390625 -0.828125q-0.921875 -0.828125 -0.921875 -2.09375q0 -1.53125 1.15625 -2.375q1.171875 -0.859375 3.296875 -0.859375l1.640625 0l0 -0.78125q0 -0.890625 -0.53125 -1.40625q-0.515625 -0.53126526 -1.546875 -0.53126526q-0.90625 0 -1.515625 0.46876526q-0.609375 0.453125 -0.609375 1.09375l-1.703125 0q0 -0.734375 0.515625 -1.4218903q0.53125 -0.6875 1.421875 -1.078125q0.90625 -0.40625 1.984375 -0.40625q1.703125 0 2.671875 0.859375q0.96875 0.84376526 1.0 2.3281403l0 4.53125q0 1.359375 0.34375 2.171875l0 0.140625l-1.765625 0zm-2.796875 -1.28125q0.796875 0 1.5 -0.40625q0.71875 -0.421875 1.03125 -1.078125l0 -2.015625l-1.3125 0q-3.109375 0 -3.109375 1.8125q0 0.796875 0.53125 1.25q0.53125 0.4375 1.359375 0.4375zm8.46048 -8.57814l0.046875 1.234375q1.125 -1.40625 2.953125 -1.40625q3.125 0 3.15625 3.5156403l0 6.515625l-1.6875 0l0 -6.515625q-0.015625 -1.078125 -0.5 -1.578125q-0.46875 -0.51564026 -1.484375 -0.51564026q-0.8125 0 -1.4375 0.43751526q-0.609375 0.4375 -0.96875 1.15625l0 7.015625l-1.671875 0l0 -9.85939l1.59375 0zm10.981239 -2.390625l0 2.390625l1.84375 0l0 1.3125l-1.84375 0l0 6.1093903q0 0.59375 0.234375 0.890625q0.25 0.296875 0.84375 0.296875q0.296875 0 0.8125 -0.109375l0 1.359375q-0.671875 0.1875 -1.296875 0.1875q-1.125 0 -1.703125 -0.6875q-0.578125 -0.6875 -0.578125 -1.9375l0 -6.1093903l-1.7968826 0l0 -1.3125l1.7968826 0l0 -2.390625l1.6875 0zm7.8911285 12.437515q-2.0 0 -3.265625 -1.3125q-1.25 -1.328125 -1.25 -3.53125l0 -0.3125q0 -1.46875 0.5625 -2.609375q0.5625 -1.1562653 1.5625 -1.7968903q1.015625 -0.65625 2.1875 -0.65625q1.921875 0 2.984375 1.265625q1.0625 1.2656403 1.0625 3.6250153l0 0.6875l-6.671875 0q0.03125 1.46875 0.84375 2.375q0.828125 0.890625 2.078125 0.890625q0.890625 0 1.515625 -0.359375q0.625 -0.375 1.078125 -0.96875l1.03125 0.796875q-1.234375 1.90625 -3.71875 1.90625zm-0.203125 -8.843765q-1.015625 0 -1.71875 0.75001526q-0.6875 0.734375 -0.84375 2.078125l4.9375 0l0 -0.125q-0.078125 -1.28125 -0.703125 -1.984375q-0.609375 -0.71876526 -1.671875 -0.71876526zm10.086929 8.843765q-2.0 0 -3.265625 -1.3125q-1.25 -1.328125 -1.25 -3.53125l0 -0.3125q0 -1.46875 0.5625 -2.609375q0.5625 -1.1562653 1.5625 -1.7968903q1.015625 -0.65625 2.1875 -0.65625q1.9218597 0 2.9843597 1.265625q1.0625 1.2656403 1.0625 3.6250153l0 0.6875l-6.6718597 0q0.03125 1.46875 0.84375 2.375q0.828125 0.890625 2.078125 0.890625q0.89060974 0 1.5156097 -0.359375q0.625 -0.375 1.078125 -0.96875l1.03125 0.796875q-1.234375 1.90625 -3.7187347 1.90625zm-0.203125 -8.843765q-1.015625 0 -1.71875 0.75001526q-0.6875 0.734375 -0.84375 2.078125l4.9374847 0l0 -0.125q-0.078125 -1.28125 -0.703125 -1.984375q-0.609375 -0.71876526 -1.6718597 -0.71876526zm5.5869293 3.6406403q0 -2.265625 1.078125 -3.6406403q1.078125 -1.375 2.8125 -1.375q1.734375 0 2.75 1.171875l0 -5.140625l1.6875 0l0 14.000015l-1.546875 0l-0.09375 -1.0625q-1.0 1.25 -2.8125 1.25q-1.703125 0 -2.796875 -1.40625q-1.078125 -1.40625 -1.078125 -3.65625l0 -0.140625zm1.6875 0.203125q0 1.671875 0.6875 2.625q0.703125 0.9375 1.921875 0.9375q1.609375 0 2.34375 -1.4375l0 -4.53125q-0.765625 -1.3906403 -2.328125 -1.3906403q-1.234375 0 -1.9375 0.95314026q-0.6875 0.953125 -0.6875 2.84375zm21.62436 -1.3125l-5.75 0l0 4.6875l6.6875 0l0 1.4375l-8.421875 0l0 -13.26564l8.328125 0l0 1.4375l-6.59375 0l0 4.2656403l5.75 0l0 1.4375zm6.1503296 -0.140625l2.1875 -3.5937653l1.96875 0l-3.21875 4.8750153l3.328125 4.984375l-1.953125 0l-2.28125 -3.6875l-2.28125 3.6875l-1.953125 0l3.328125 -4.984375l-3.234375 -4.8750153l1.953125 0l2.15625 3.5937653zm9.845093 6.453125q-2.0 0 -3.265625 -1.3125q-1.25 -1.328125 -1.25 -3.53125l0 -0.3125q0 -1.46875 0.5625 -2.609375q0.5625 -1.1562653 1.5625 -1.7968903q1.015625 -0.65625 2.1875 -0.65625q1.921875 0 2.984375 1.265625q1.0625 1.2656403 1.0625 3.6250153l0 0.6875l-6.671875 0q0.03125 1.46875 0.84375 2.375q0.828125 0.890625 2.078125 0.890625q0.890625 0 1.515625 -0.359375q0.625 -0.375 1.078125 -0.96875l1.03125 0.796875q-1.234375 1.90625 -3.71875 1.90625zm-0.203125 -8.843765q-1.015625 0 -1.71875 0.75001526q-0.6875 0.734375 -0.84375 2.078125l4.9375 0l0 -0.125q-0.078125 -1.28125 -0.703125 -1.984375q-0.609375 -0.71876526 -1.671875 -0.71876526zm9.961914 7.4687653q0.890625 0 1.5625 -0.546875q0.6875 -0.546875 0.75 -1.375l1.59375 0q-0.046875 0.84375 -0.578125 1.609375q-0.53125 0.765625 -1.4375 1.234375q-0.890625 0.453125 -1.890625 0.453125q-2.015625 0 -3.203125 -1.34375q-1.1875 -1.34375 -1.1875 -3.6875l0 -0.28125q0 -1.4375 0.515625 -2.546875q0.53125 -1.1250153 1.515625 -1.7343903q1.0 -0.625 2.34375 -0.625q1.65625 0 2.75 1.0q1.109375 0.98439026 1.171875 2.5625153l-1.59375 0q-0.0625 -0.953125 -0.71875 -1.5625q-0.65625 -0.62501526 -1.609375 -0.62501526q-1.28125 0 -2.0 0.92189026q-0.703125 0.921875 -0.703125 2.671875l0 0.328125q0 1.703125 0.703125 2.625q0.703125 0.921875 2.015625 0.921875zm11.890381 0.21875q-0.984375 1.15625 -2.890625 1.15625q-1.578125 0 -2.40625 -0.921875q-0.8125 -0.921875 -0.828125 -2.703125l0 -6.4218903l1.6875 0l0 6.3750153q0 2.234375 1.828125 2.234375q1.921875 0 2.5625 -1.4375l0 -7.1718903l1.6875 0l0 9.85939l-1.609375 0l-0.03125 -0.96875zm6.4877625 -11.281265l0 2.390625l1.84375 0l0 1.3125l-1.84375 0l0 6.1093903q0 0.59375 0.234375 0.890625q0.25 0.296875 0.84375 0.296875q0.296875 0 0.8125 -0.109375l0 1.359375q-0.671875 0.1875 -1.296875 0.1875q-1.125 0 -1.703125 -0.6875q-0.578125 -0.6875 -0.578125 -1.9375l0 -6.1093903l-1.796875 0l0 -1.3125l1.796875 0l0 -2.390625l1.6875 0zm5.6411133 12.250015l-1.6875 0l0 -9.85939l1.6875 0l0 9.85939zm-1.828125 -12.468765q0 -0.40625 0.25 -0.6875q0.25 -0.296875 0.734375 -0.296875q0.5 0 0.75 0.296875q0.265625 0.28125 0.265625 0.6875q0 0.40625 -0.265625 0.6875q-0.25 0.265625 -0.75 0.265625q-0.484375 0 -0.734375 -0.265625q-0.25 -0.28125 -0.25 -0.6875zm4.0743103 7.4531403q0 -1.453125 0.5625 -2.609375q0.578125 -1.1562653 1.59375 -1.7812653q1.015625 -0.625 2.3125 -0.625q2.015625 0 3.25 1.390625q1.25 1.3906403 1.25 3.7031403l0 0.125q0 1.4375 -0.546875 2.578125q-0.546875 1.140625 -1.578125 1.78125q-1.015625 0.640625 -2.359375 0.640625q-2.0 0 -3.25 -1.390625q-1.234375 -1.40625 -1.234375 -3.703125l0 -0.109375zm1.6875 0.203125q0 1.640625 0.765625 2.640625q0.765625 0.984375 2.03125 0.984375q1.296875 0 2.046875 -1.0q0.75 -1.015625 0.75 -2.828125q0 -1.625 -0.765625 -2.625q-0.765625 -1.0156403 -2.046875 -1.0156403q-1.25 0 -2.015625 1.0000153q-0.765625 0.984375 -0.765625 2.84375zm10.999268 -5.0468903l0.046875 1.234375q1.125 -1.40625 2.953125 -1.40625q3.125 0 3.15625 3.5156403l0 6.515625l-1.6875 0l0 -6.515625q-0.015625 -1.078125 -0.5 -1.578125q-0.46875 -0.51564026 -1.484375 -0.51564026q-0.8125 0 -1.4375 0.43751526q-0.609375 0.4375 -0.96875 1.15625l0 7.015625l-1.671875 0l0 -9.85939l1.59375 0z" fill-rule="nonzero"/><path fill="#ffffff" d="m19.136826 311.70786l0 0c0 -3.9710083 3.2191238 -7.1901245 7.190115 -7.1901245l264.76938 0c1.9069519 0 3.7357788 0.75753784 5.0841675 2.1059265c1.3484192 1.3484192 2.105957 3.177246 2.105957 5.084198l0 62.81662c0 3.9709778 -3.2191162 7.190094 -7.1901245 7.190094l-264.76938 0c-3.9709911 0 -7.190115 -3.2191162 -7.190115 -7.190094z" fill-rule="evenodd"/><path fill="#000000" d="m101.688446 344.6768l-3.125 0l0 5.359375l-1.75 0l0 -13.265625l4.390625 0q2.234375 0 3.4375 1.03125q1.21875 1.015625 1.21875 2.953125q0 1.25 -0.671875 2.171875q-0.671875 0.921875 -1.859375 1.375l3.109375 5.625l0 0.109375l-1.875 0l-2.875 -5.359375zm-3.125 -1.4375l2.6875 0q1.3125 0 2.078125 -0.671875q0.765625 -0.671875 0.765625 -1.8125q0 -1.21875 -0.734375 -1.875q-0.734375 -0.65625 -2.109375 -0.671875l-2.6875 0l0 5.03125zm13.565201 6.984375q-2.0 0 -3.265625 -1.3125q-1.25 -1.328125 -1.25 -3.53125l0 -0.3125q0 -1.46875 0.5625 -2.609375q0.5625 -1.15625 1.5625 -1.796875q1.015625 -0.65625 2.1875 -0.65625q1.921875 0 2.984375 1.265625q1.0625 1.265625 1.0625 3.625l0 0.6875l-6.671875 0q0.03125 1.46875 0.84375 2.375q0.828125 0.890625 2.078125 0.890625q0.890625 0 1.515625 -0.359375q0.625 -0.375 1.078125 -0.96875l1.03125 0.796875q-1.234375 1.90625 -3.71875 1.90625zm-0.203125 -8.84375q-1.015625 0 -1.71875 0.75q-0.6875 0.734375 -0.84375 2.078125l4.9375 0l0 -0.125q-0.078125 -1.28125 -0.703125 -1.984375q-0.609375 -0.71875 -1.671875 -0.71875zm11.743179 6.046875q0 -0.6875 -0.515625 -1.0625q-0.515625 -0.375 -1.796875 -0.640625q-1.28125 -0.28125 -2.03125 -0.65625q-0.75 -0.390625 -1.109375 -0.921875q-0.359375 -0.53125 -0.359375 -1.265625q0 -1.203125 1.015625 -2.03125q1.03125 -0.84375 2.625 -0.84375q1.671875 0 2.71875 0.859375q1.046875 0.859375 1.046875 2.21875l-1.6875 0q0 -0.703125 -0.59375 -1.203125q-0.59375 -0.5 -1.484375 -0.5q-0.921875 0 -1.4375 0.40625q-0.515625 0.390625 -0.515625 1.046875q0 0.609375 0.484375 0.921875q0.484375 0.3125 1.734375 0.59375q1.265625 0.28125 2.046875 0.671875q0.78125 0.390625 1.15625 0.9375q0.390625 0.546875 0.390625 1.34375q0 1.328125 -1.0625 2.125q-1.046875 0.796875 -2.734375 0.796875q-1.1875 0 -2.109375 -0.421875q-0.90625 -0.421875 -1.421875 -1.171875q-0.515625 -0.75 -0.515625 -1.625l1.6875 0q0.046875 0.84375 0.671875 1.34375q0.640625 0.5 1.6875 0.5q0.953125 0 1.53125 -0.390625q0.578125 -0.390625 0.578125 -1.03125zm9.963379 1.640625q-0.984375 1.15625 -2.890625 1.15625q-1.578125 0 -2.40625 -0.921875q-0.8125 -0.921875 -0.828125 -2.703125l0 -6.421875l1.6875 0l0 6.375q0 2.234375 1.828125 2.234375q1.921875 0 2.5625 -1.4375l0 -7.171875l1.6875 0l0 9.859375l-1.609375 0l-0.03125 -0.96875zm6.034622 0.96875l-1.6875 0l0 -14.0l1.6875 0l0 14.0zm4.980545 -12.25l0 2.390625l1.84375 0l0 1.3125l-1.84375 0l0 6.109375q0 0.59375 0.234375 0.890625q0.25 0.296875 0.84375 0.296875q0.296875 0 0.8125 -0.109375l0 1.359375q-0.671875 0.1875 -1.296875 0.1875q-1.125 0 -1.703125 -0.6875q-0.578125 -0.6875 -0.578125 -1.9375l0 -6.109375l-1.796875 0l0 -1.3125l1.796875 0l0 -2.390625l1.6875 0zm18.884644 6.046875q0 1.953125 -0.65625 3.40625q-0.640625 1.453125 -1.84375 2.21875q-1.203125 0.765625 -2.8125 0.765625q-1.5625 0 -2.78125 -0.765625q-1.203125 -0.78125 -1.875 -2.203125q-0.671875 -1.421875 -0.6875 -3.296875l0 -0.96875q0 -1.90625 0.65625 -3.375q0.671875 -1.46875 1.890625 -2.25q1.21875 -0.78125 2.78125 -0.78125q1.59375 0 2.8125 0.78125q1.21875 0.765625 1.859375 2.234375q0.65625 1.453125 0.65625 3.390625l0 0.84375zm-1.734375 -0.859375q0 -2.359375 -0.953125 -3.609375q-0.9375 -1.265625 -2.640625 -1.265625q-1.65625 0 -2.609375 1.265625q-0.953125 1.25 -0.984375 3.5l0 0.96875q0 2.28125 0.953125 3.59375q0.96875 1.3125 2.65625 1.3125q1.6875 0 2.609375 -1.234375q0.9375 -1.234375 0.96875 -3.546875l0 -0.984375zm8.873047 -1.28125q-0.390625 -0.0625 -0.84375 -0.0625q-1.65625 0 -2.25 1.40625l0 7.0l-1.671875 0l0 -9.859375l1.640625 0l0.015625 1.140625q0.828125 -1.3125 2.359375 -1.3125q0.484375 0 0.75 0.125l0 1.5625zm3.3753815 8.34375l-1.6875 0l0 -9.859375l1.6875 0l0 9.859375zm-1.828125 -12.46875q0 -0.40625 0.25 -0.6875q0.25 -0.296875 0.734375 -0.296875q0.5 0 0.75 0.296875q0.265625 0.28125 0.265625 0.6875q0 0.40625 -0.265625 0.6875q-0.25 0.265625 -0.75 0.265625q-0.484375 0 -0.734375 -0.265625q-0.25 -0.28125 -0.25 -0.6875zm8.605545 12.65625q-2.0 0 -3.265625 -1.3125q-1.25 -1.328125 -1.25 -3.53125l0 -0.3125q0 -1.46875 0.5625 -2.609375q0.5625 -1.15625 1.5625 -1.796875q1.015625 -0.65625 2.1875 -0.65625q1.921875 0 2.984375 1.265625q1.0625 1.265625 1.0625 3.625l0 0.6875l-6.671875 0q0.03125 1.46875 0.84375 2.375q0.828125 0.890625 2.078125 0.890625q0.890625 0 1.515625 -0.359375q0.625 -0.375 1.078125 -0.96875l1.03125 0.796875q-1.234375 1.90625 -3.71875 1.90625zm-0.203125 -8.84375q-1.015625 0 -1.71875 0.75q-0.6875 0.734375 -0.84375 2.078125l4.9375 0l0 -0.125q-0.078125 -1.28125 -0.703125 -1.984375q-0.609375 -0.71875 -1.671875 -0.71875zm7.6025543 -1.203125l0.046875 1.234375q1.125 -1.40625 2.953125 -1.40625q3.125 0 3.15625 3.515625l0 6.515625l-1.6875 0l0 -6.515625q-0.015625 -1.078125 -0.5 -1.578125q-0.46875 -0.515625 -1.484375 -0.515625q-0.8125 0 -1.4375 0.4375q-0.609375 0.4375 -0.96875 1.15625l0 7.015625l-1.671875 0l0 -9.859375l1.59375 0zm10.981232 -2.390625l0 2.390625l1.84375 0l0 1.3125l-1.84375 0l0 6.109375q0 0.59375 0.234375 0.890625q0.25 0.296875 0.84375 0.296875q0.296875 0 0.8125 -0.109375l0 1.359375q-0.671875 0.1875 -1.296875 0.1875q-1.125 0 -1.703125 -0.6875q-0.578125 -0.6875 -0.578125 -1.9375l0 -6.109375l-1.796875 0l0 -1.3125l1.796875 0l0 -2.390625l1.6875 0zm7.8911285 12.4375q-2.0 0 -3.265625 -1.3125q-1.25 -1.328125 -1.25 -3.53125l0 -0.3125q0 -1.46875 0.5625 -2.609375q0.5625 -1.15625 1.5625 -1.796875q1.015625 -0.65625 2.1875 -0.65625q1.921875 0 2.984375 1.265625q1.0625 1.265625 1.0625 3.625l0 0.6875l-6.671875 0q0.03125 1.46875 0.84375 2.375q0.828125 0.890625 2.078125 0.890625q0.890625 0 1.515625 -0.359375q0.625 -0.375 1.078125 -0.96875l1.03125 0.796875q-1.234375 1.90625 -3.71875 1.90625zm-0.203125 -8.84375q-1.015625 0 -1.71875 0.75q-0.6875 0.734375 -0.84375 2.078125l4.9375 0l0 -0.125q-0.078125 -1.28125 -0.703125 -1.984375q-0.609375 -0.71875 -1.671875 -0.71875zm5.5869293 3.640625q0 -2.265625 1.078125 -3.640625q1.078125 -1.375 2.8125 -1.375q1.734375 0 2.75 1.171875l0 -5.140625l1.6875 0l0 14.0l-1.546875 0l-0.09375 -1.0625q-1.0 1.25 -2.8125 1.25q-1.703125 0 -2.796875 -1.40625q-1.078125 -1.40625 -1.078125 -3.65625l0 -0.140625zm1.6875 0.203125q0 1.671875 0.6875 2.625q0.703125 0.9375 1.921875 0.9375q1.609375 0 2.34375 -1.4375l0 -4.53125q-0.765625 -1.390625 -2.328125 -1.390625q-1.234375 0 -1.9375 0.953125q-0.6875 0.953125 -0.6875 2.84375z" fill-rule="nonzero"/><path fill="#ffffff" d="m19.136826 397.64792l0 0c0 -3.9709778 3.2191238 -7.1901245 7.190115 -7.1901245l264.76938 0c1.9069519 0 3.7357788 0.75753784 5.0841675 2.105957c1.3484192 1.3483887 2.105957 3.177246 2.105957 5.0841675l0 62.81662c0 3.9710083 -3.2191162 7.1901245 -7.1901245 7.1901245l-264.76938 0c-3.9709911 0 -7.190115 -3.2191162 -7.190115 -7.1901245z" fill-rule="evenodd"/><path fill="#000000" d="m88.14317 433.6481l3.78125 -10.9375l1.921875 0l-4.921875 13.265625l-1.546875 0l-4.921875 -13.265625l1.90625 0l3.78125 10.9375zm10.890503 2.515625q-2.0 0 -3.265625 -1.3125q-1.25 -1.328125 -1.25 -3.53125l0 -0.3125q0 -1.46875 0.5625 -2.609375q0.5625 -1.15625 1.5625 -1.796875q1.015625 -0.65625 2.1875 -0.65625q1.921875 0 2.984375 1.265625q1.0625 1.265625 1.0625 3.625l0 0.6875l-6.671875 0q0.03125 1.46875 0.84375 2.375q0.828125 0.890625 2.078125 0.890625q0.890625 0 1.515625 -0.359375q0.625 -0.375 1.078125 -0.96875l1.03125 0.796875q-1.234375 1.90625 -3.71875 1.90625zm-0.203125 -8.84375q-1.015625 0 -1.71875 0.75q-0.6875 0.734375 -0.84375 2.078125l4.9375 0l0 -0.125q-0.078125 -1.28125 -0.703125 -1.984375q-0.609375 -0.71875 -1.671875 -0.71875zm10.774429 0.3125q-0.390625 -0.0625 -0.84375 -0.0625q-1.65625 0 -2.25 1.40625l0 7.0l-1.671875 0l0 -9.859375l1.640625 0l0.015625 1.140625q0.828125 -1.3125 2.359375 -1.3125q0.484375 0 0.75 0.125l0 1.5625zm7.2816315 5.734375q0 -0.6875 -0.515625 -1.0625q-0.515625 -0.375 -1.796875 -0.640625q-1.28125 -0.28125 -2.03125 -0.65625q-0.75 -0.390625 -1.109375 -0.921875q-0.359375 -0.53125 -0.359375 -1.265625q0 -1.203125 1.015625 -2.03125q1.03125 -0.84375 2.625 -0.84375q1.671875 0 2.71875 0.859375q1.046875 0.859375 1.046875 2.21875l-1.6875 0q0 -0.703125 -0.59375 -1.203125q-0.59375 -0.5 -1.484375 -0.5q-0.921875 0 -1.4375 0.40625q-0.515625 0.390625 -0.515625 1.046875q0 0.609375 0.484375 0.921875q0.484375 0.3125 1.734375 0.59375q1.265625 0.28125 2.046875 0.671875q0.78125 0.390625 1.15625 0.9375q0.390625 0.546875 0.390625 1.34375q0 1.328125 -1.0625 2.125q-1.046875 0.796875 -2.734375 0.796875q-1.1875 0 -2.109375 -0.421875q-0.90625 -0.421875 -1.421875 -1.171875q-0.515625 -0.75 -0.515625 -1.625l1.6875 0q0.046875 0.84375 0.671875 1.34375q0.640625 0.5 1.6875 0.5q0.953125 0 1.53125 -0.390625q0.578125 -0.390625 0.578125 -1.03125zm9.963379 2.609375q-0.140625 -0.296875 -0.234375 -1.03125q-1.171875 1.21875 -2.8125 1.21875q-1.453125 0 -2.390625 -0.828125q-0.921875 -0.828125 -0.921875 -2.09375q0 -1.53125 1.15625 -2.375q1.171875 -0.859375 3.296875 -0.859375l1.640625 0l0 -0.78125q0 -0.890625 -0.53125 -1.40625q-0.515625 -0.53125 -1.546875 -0.53125q-0.90625 0 -1.515625 0.46875q-0.609375 0.453125 -0.609375 1.09375l-1.703125 0q0 -0.734375 0.515625 -1.421875q0.53125 -0.6875 1.421875 -1.078125q0.90625 -0.40625 1.984375 -0.40625q1.703125 0 2.671875 0.859375q0.96875 0.84375 1.0 2.328125l0 4.53125q0 1.359375 0.34375 2.171875l0 0.140625l-1.765625 0zm-2.796875 -1.28125q0.796875 0 1.5 -0.40625q0.71875 -0.421875 1.03125 -1.078125l0 -2.015625l-1.3125 0q-3.109375 0 -3.109375 1.8125q0 0.796875 0.53125 1.25q0.53125 0.4375 1.359375 0.4375zm9.14798 -10.96875l0 2.390625l1.84375 0l0 1.3125l-1.84375 0l0 6.109375q0 0.59375 0.234375 0.890625q0.25 0.296875 0.84375 0.296875q0.296875 0 0.8125 -0.109375l0 1.359375q-0.671875 0.1875 -1.296875 0.1875q-1.125 0 -1.703125 -0.6875q-0.578125 -0.6875 -0.578125 -1.9375l0 -6.109375l-1.796875 0l0 -1.3125l1.796875 0l0 -2.390625l1.6875 0zm5.6411285 12.25l-1.6875 0l0 -9.859375l1.6875 0l0 9.859375zm-1.828125 -12.46875q0 -0.40625 0.25 -0.6875q0.25 -0.296875 0.734375 -0.296875q0.5 0 0.75 0.296875q0.265625 0.28125 0.265625 0.6875q0 0.40625 -0.265625 0.6875q-0.25 0.265625 -0.75 0.265625q-0.484375 0 -0.734375 -0.265625q-0.25 -0.28125 -0.25 -0.6875zm6.355545 12.46875l-1.6875 0l0 -14.0l1.6875 0l0 14.0zm6.77742 0.1875q-2.0 0 -3.265625 -1.3125q-1.25 -1.328125 -1.25 -3.53125l0 -0.3125q0 -1.46875 0.5625 -2.609375q0.5625 -1.15625 1.5625 -1.796875q1.015625 -0.65625 2.1875 -0.65625q1.921875 0 2.984375 1.265625q1.0625 1.265625 1.0625 3.625l0 0.6875l-6.671875 0q0.03125 1.46875 0.84375 2.375q0.828125 0.890625 2.078125 0.890625q0.890625 0 1.515625 -0.359375q0.625 -0.375 1.078125 -0.96875l1.03125 0.796875q-1.234375 1.90625 -3.71875 1.90625zm-0.203125 -8.84375q-1.015625 0 -1.71875 0.75q-0.6875 0.734375 -0.84375 2.078125l4.9375 0l0 -0.125q-0.078125 -1.28125 -0.703125 -1.984375q-0.609375 -0.71875 -1.671875 -0.71875zm14.799194 2.75q-2.25 -0.65625 -3.28125 -1.59375q-1.03125 -0.9375 -1.03125 -2.328125q0 -1.5625 1.25 -2.59375q1.265625 -1.03125 3.265625 -1.03125q1.359375 0 2.4375 0.53125q1.078125 0.53125 1.65625 1.46875q0.59375 0.921875 0.59375 2.03125l-1.765625 0q0 -1.203125 -0.765625 -1.890625q-0.765625 -0.6875 -2.15625 -0.6875q-1.296875 0 -2.015625 0.5625q-0.71875 0.5625 -0.71875 1.578125q0 0.8125 0.6875 1.375q0.6875 0.5625 2.328125 1.03125q1.65625 0.453125 2.59375 1.015625q0.9375 0.5625 1.375 1.3125q0.453125 0.75 0.453125 1.75q0 1.609375 -1.25 2.59375q-1.25 0.96875 -3.359375 0.96875q-1.375 0 -2.5625 -0.515625q-1.171875 -0.53125 -1.8125 -1.4375q-0.640625 -0.921875 -0.640625 -2.078125l1.75 0q0 1.203125 0.890625 1.90625q0.890625 0.6875 2.375 0.6875q1.375 0 2.109375 -0.5625q0.75 -0.5625 0.75 -1.53125q0 -0.984375 -0.6875 -1.515625q-0.6875 -0.53125 -2.46875 -1.046875zm9.177414 -6.34375l0 2.390625l1.84375 0l0 1.3125l-1.84375 0l0 6.109375q0 0.59375 0.234375 0.890625q0.25 0.296875 0.84375 0.296875q0.296875 0 0.8125 -0.109375l0 1.359375q-0.671875 0.1875 -1.296875 0.1875q-1.125 0 -1.703125 -0.6875q-0.578125 -0.6875 -0.578125 -1.9375l0 -6.109375l-1.796875 0l0 -1.3125l1.796875 0l0 -2.390625l1.6875 0zm8.578629 3.90625q-0.390625 -0.0625 -0.84375 -0.0625q-1.65625 0 -2.25 1.40625l0 7.0l-1.671875 0l0 -9.859375l1.640625 0l0.015625 1.140625q0.828125 -1.3125 2.359375 -1.3125q0.484375 0 0.75 0.125l0 1.5625zm7.6253815 7.375q-0.984375 1.15625 -2.890625 1.15625q-1.578125 0 -2.40625 -0.921875q-0.8125 -0.921875 -0.828125 -2.703125l0 -6.421875l1.6875 0l0 6.375q0 2.234375 1.828125 2.234375q1.921875 0 2.5625 -1.4375l0 -7.171875l1.6875 0l0 9.859375l-1.609375 0l-0.03125 -0.96875zm8.159622 -0.21875q0.890625 0 1.5625 -0.546875q0.6875 -0.546875 0.75 -1.375l1.59375 0q-0.046875 0.84375 -0.578125 1.609375q-0.53125 0.765625 -1.4375 1.234375q-0.890625 0.453125 -1.890625 0.453125q-2.015625 0 -3.203125 -1.34375q-1.1875 -1.34375 -1.1875 -3.6875l0 -0.28125q0 -1.4375 0.515625 -2.546875q0.53125 -1.125 1.515625 -1.734375q1.0 -0.625 2.34375 -0.625q1.65625 0 2.75 1.0q1.109375 0.984375 1.171875 2.5625l-1.59375 0q-0.0625 -0.953125 -0.71875 -1.5625q-0.65625 -0.625 -1.609375 -0.625q-1.28125 0 -2.0 0.921875q-0.703125 0.921875 -0.703125 2.671875l0 0.328125q0 1.703125 0.703125 2.625q0.703125 0.921875 2.015625 0.921875zm8.093506 -11.0625l0 2.390625l1.84375 0l0 1.3125l-1.84375 0l0 6.109375q0 0.59375 0.234375 0.890625q0.25 0.296875 0.84375 0.296875q0.296875 0 0.8125 -0.109375l0 1.359375q-0.671875 0.1875 -1.296875 0.1875q-1.125 0 -1.703125 -0.6875q-0.578125 -0.6875 -0.578125 -1.9375l0 -6.109375l-1.796875 0l0 -1.3125l1.796875 0l0 -2.390625l1.6875 0zm9.891129 11.28125q-0.984375 1.15625 -2.890625 1.15625q-1.578125 0 -2.40625 -0.921875q-0.8125 -0.921875 -0.828125 -2.703125l0 -6.421875l1.6875 0l0 6.375q0 2.234375 1.828125 2.234375q1.921875 0 2.5625 -1.4375l0 -7.171875l1.6875 0l0 9.859375l-1.609375 0l-0.03125 -0.96875zm8.972122 -7.375q-0.390625 -0.0625 -0.84375 -0.0625q-1.65625 0 -2.25 1.40625l0 7.0l-1.671875 0l0 -9.859375l1.640625 0l0.015625 1.140625q0.828125 -1.3125 2.359375 -1.3125q0.484375 0 0.75 0.125l0 1.5625zm5.4522095 8.53125q-2.0 0 -3.265625 -1.3125q-1.25 -1.328125 -1.25 -3.53125l0 -0.3125q0 -1.46875 0.5625 -2.609375q0.5625 -1.15625 1.5625 -1.796875q1.015625 -0.65625 2.1875 -0.65625q1.921875 0 2.984375 1.265625q1.0625 1.265625 1.0625 3.625l0 0.6875l-6.671875 0q0.03125 1.46875 0.84375 2.375q0.828125 0.890625 2.078125 0.890625q0.890625 0 1.515625 -0.359375q0.625 -0.375 1.078125 -0.96875l1.03125 0.796875q-1.234375 1.90625 -3.71875 1.90625zm-0.203125 -8.84375q-1.015625 0 -1.71875 0.75q-0.6875 0.734375 -0.84375 2.078125l4.9375 0l0 -0.125q-0.078125 -1.28125 -0.703125 -1.984375q-0.609375 -0.71875 -1.671875 -0.71875z" fill-rule="nonzero"/><path fill="#ffffff" d="m308.92047 140.18915l0 0c0 -3.970993 3.2191162 -7.1901245 7.1901245 -7.1901245l191.25757 0c1.9069214 0 3.7357788 0.75753784 5.0841675 2.1059418c1.3483887 1.3484039 2.105957 3.177246 2.105957 5.0841827l0 62.81662c0 3.970993 -3.2191467 7.1901093 -7.1901245 7.1901093l-191.25757 0c-3.9710083 0 -7.1901245 -3.2191162 -7.1901245 -7.1901093z" fill-rule="evenodd"/><path fill="#ffffff" d="m308.92047 226.1292l0 0c0 -3.970993 3.2191162 -7.1901093 7.1901245 -7.1901093l191.25757 0c1.9069214 0 3.7357788 0.7575226 5.0841675 2.1059265c1.3483887 1.3484192 2.105957 3.177246 2.105957 5.0841827l0 62.816635c0 3.9709778 -3.2191467 7.190094 -7.1901245 7.190094l-191.25757 0c-3.9710083 0 -7.1901245 -3.2191162 -7.1901245 -7.190094z" fill-rule="evenodd"/><path fill="#ffffff" d="m308.92047 311.70786l0 0c0 -3.9710083 3.2191162 -7.1901245 7.1901245 -7.1901245l191.25757 0c1.9069214 0 3.7357788 0.75753784 5.0841675 2.1059265c1.3483887 1.3484192 2.105957 3.177246 2.105957 5.084198l0 62.81662c0 3.9709778 -3.2191467 7.190094 -7.1901245 7.190094l-191.25757 0c-3.9710083 0 -7.1901245 -3.2191162 -7.1901245 -7.190094z" fill-rule="evenodd"/><path fill="#ffffff" d="m308.92047 397.64792l0 0c0 -3.9709778 3.2191162 -7.1901245 7.1901245 -7.1901245l191.25757 0c1.9069214 0 3.7357788 0.75753784 5.0841675 2.105957c1.3483887 1.3483887 2.105957 3.177246 2.105957 5.0841675l0 62.81662c0 3.9710083 -3.2191467 7.1901245 -7.1901245 7.1901245l-191.25757 0c-3.9710083 0 -7.1901245 -3.2191162 -7.1901245 -7.1901245z" fill-rule="evenodd"/><path fill="#ffffff" d="m522.0731 140.18915l0 0c0 -3.970993 3.2191162 -7.1901245 7.1901245 -7.1901245l191.25757 0c1.9069214 0 3.7357788 0.75753784 5.0841675 2.1059418c1.3484497 1.3484039 2.105957 3.177246 2.105957 5.0841827l0 62.81662c0 3.970993 -3.2191162 7.1901093 -7.1901245 7.1901093l-191.25757 0c-3.9710083 0 -7.1901245 -3.2191162 -7.1901245 -7.1901093z" fill-rule="evenodd"/><path fill="#ffffff" d="m522.0731 226.1292l0 0c0 -3.970993 3.2191162 -7.1901093 7.1901245 -7.1901093l191.25757 0c1.9069214 0 3.7357788 0.7575226 5.0841675 2.1059265c1.3484497 1.3484192 2.105957 3.177246 2.105957 5.0841827l0 62.816635c0 3.9709778 -3.2191162 7.190094 -7.1901245 7.190094l-191.25757 0c-3.9710083 0 -7.1901245 -3.2191162 -7.1901245 -7.190094z" fill-rule="evenodd"/><path fill="#ffffff" d="m522.0731 311.70786l0 0c0 -3.9710083 3.2191162 -7.1901245 7.1901245 -7.1901245l191.25757 0c1.9069214 0 3.7357788 0.75753784 5.0841675 2.1059265c1.3484497 1.3484192 2.105957 3.177246 2.105957 5.084198l0 62.81662c0 3.9709778 -3.2191162 7.190094 -7.1901245 7.190094l-191.25757 0c-3.9710083 0 -7.1901245 -3.2191162 -7.1901245 -7.190094z" fill-rule="evenodd"/><path fill="#ffffff" d="m522.0731 397.64792l0 0c0 -3.9709778 3.2191162 -7.1901245 7.1901245 -7.1901245l191.25757 0c1.9069214 0 3.7357788 0.75753784 5.0841675 2.105957c1.3484497 1.3483887 2.105957 3.177246 2.105957 5.0841675l0 62.81662c0 3.9710083 -3.2191162 7.1901245 -7.1901245 7.1901245l-191.25757 0c-3.9710083 0 -7.1901245 -3.2191162 -7.1901245 -7.1901245z" fill-rule="evenodd"/><path fill="#ffffff" d="m735.22577 140.18915l0 0c0 -3.970993 3.2191162 -7.1901245 7.1901245 -7.1901245l191.25757 0c1.9069214 0 3.7357788 0.75753784 5.0841675 2.1059418c1.3484497 1.3484039 2.105957 3.177246 2.105957 5.0841827l0 62.81662c0 3.970993 -3.2191162 7.1901093 -7.1901245 7.1901093l-191.25757 0c-3.9710083 0 -7.1901245 -3.2191162 -7.1901245 -7.1901093z" fill-rule="evenodd"/><path fill="#ffffff" d="m735.22577 226.1292l0 0c0 -3.970993 3.2191162 -7.1901093 7.1901245 -7.1901093l191.25757 0c1.9069214 0 3.7357788 0.7575226 5.0841675 2.1059265c1.3484497 1.3484192 2.105957 3.177246 2.105957 5.0841827l0 62.816635c0 3.9709778 -3.2191162 7.190094 -7.1901245 7.190094l-191.25757 0c-3.9710083 0 -7.1901245 -3.2191162 -7.1901245 -7.190094z" fill-rule="evenodd"/><path fill="#ffffff" d="m735.22577 311.70786l0 0c0 -3.9710083 3.2191162 -7.1901245 7.1901245 -7.1901245l191.25757 0c1.9069214 0 3.7357788 0.75753784 5.0841675 2.1059265c1.3484497 1.3484192 2.105957 3.177246 2.105957 5.084198l0 62.81662c0 3.9709778 -3.2191162 7.190094 -7.1901245 7.190094l-191.25757 0c-3.9710083 0 -7.1901245 -3.2191162 -7.1901245 -7.190094z" fill-rule="evenodd"/><path fill="#ffffff" d="m735.22577 397.64792l0 0c0 -3.9709778 3.2191162 -7.1901245 7.1901245 -7.1901245l191.25757 0c1.9069214 0 3.7357788 0.75753784 5.0841675 2.105957c1.3484497 1.3483887 2.105957 3.177246 2.105957 5.0841675l0 62.81662c0 3.9710083 -3.2191162 7.1901245 -7.1901245 7.1901245l-191.25757 0c-3.9710083 0 -7.1901245 -3.2191162 -7.1901245 -7.1901245z" fill-rule="evenodd"/><path fill="#000000" fill-opacity="0.0" d="m49.86029 75.33856l217.70078 0l0 29.763779l-217.70078 0z" fill-rule="evenodd"/><path fill="#ffffff" d="m120.972115 97.70045l0 -14.734375l7.1250076 0l-0.29688263 2.015625l-4.125 0l0 4.5l3.59375 0l0 2.03125l-3.59375 0l0 6.1875l-2.703125 0zm15.9077835 -14.734375l-0.28125 2.015625l-4.328125 0l0 4.234375l3.78125 0l0 2.0l-3.78125 0l0 4.4375l4.609375 0l0 2.046875l-7.3125 0l0 -14.734375l7.3125 0zm8.531998 14.734375l-0.71875 -3.453125l-3.796875 0l-0.703125 3.453125l-2.71875 0l3.71875 -14.734375l3.28125 0l3.6875 14.734375l-2.75 0zm-4.09375 -5.5l2.96875 0l-1.5 -7.171875l-1.46875 7.171875zm15.095963 -9.234375l-0.296875 2.125l-3.03125 0l0 12.609375l-2.703125 0l0 -12.609375l-3.15625 0l0 -2.125l9.1875 0zm10.415665 10.59375q0 1.9375 -1.203125 3.1875q-1.203125 1.25 -3.453125 1.25q-2.28125 0 -3.484375 -1.21875q-1.1875 -1.234375 -1.1875 -3.21875l0 -10.59375l2.71875 0l0 10.46875q0 1.234375 0.46875 1.84375q0.46875 0.609375 1.484375 0.609375q1.0 0 1.46875 -0.609375q0.46875 -0.609375 0.46875 -1.84375l0 -10.46875l2.71875 0l0 10.59375zm8.953247 4.140625l-2.59375 -5.953125l-0.265625 0l-1.046875 0l0 5.953125l-2.703125 0l0 -14.734375l3.46875 0q5.34375 0 5.34375 4.328125q0 1.34375 -0.609375 2.375q-0.59375 1.03125 -1.78125 1.5625l3.109375 6.46875l-2.921875 0zm-3.0 -7.90625q1.25 0 1.8125 -0.59375q0.5625 -0.609375 0.5625 -1.90625q0 -1.21875 -0.59375 -1.78125q-0.578125 -0.5625 -1.921875 -0.5625l-0.765625 0l0 4.84375l0.90625 0zm14.601837 -6.828125l-0.28125 2.015625l-4.328125 0l0 4.234375l3.78125 0l0 2.0l-3.78125 0l0 4.4375l4.609375 0l0 2.046875l-7.3125 0l0 -14.734375l7.3125 0zm5.4436646 -0.296875q1.28125 0 2.25 0.453125q0.984375 0.4375 1.8125 1.328125l-1.25 1.453125q-0.65625 -0.59375 -1.296875 -0.890625q-0.625 -0.296875 -1.328125 -0.296875q-0.8125 0 -1.28125 0.5q-0.46875 0.5 -0.46875 1.3125q0 0.8125 0.484375 1.328125q0.5 0.5 1.921875 1.0625q1.84375 0.734375 2.703125 1.75q0.859375 1.0 0.859375 2.828125q0 1.265625 -0.578125 2.296875q-0.5625 1.03125 -1.640625 1.625q-1.078125 0.59375 -2.515625 0.59375q-1.46875 0 -2.5625 -0.515625q-1.078125 -0.515625 -1.96875 -1.484375l1.359375 -1.484375q0.765625 0.671875 1.46875 1.046875q0.703125 0.359375 1.53125 0.359375q0.984375 0 1.53125 -0.609375q0.546875 -0.609375 0.546875 -1.65625q0 -0.921875 -0.484375 -1.5q-0.484375 -0.59375 -1.78125 -1.078125q-1.953125 -0.796875 -2.828125 -1.8125q-0.859375 -1.03125 -0.859375 -2.5625q0 -1.171875 0.5625 -2.078125q0.5625 -0.921875 1.5625 -1.4375q1.015625 -0.53125 2.25 -0.53125z" fill-rule="nonzero"/><path fill="#000000" fill-opacity="0.0" d="m329.12595 75.33834l165.92126 0l0 29.763779l-165.92126 0z" fill-rule="evenodd"/><path fill="#ffffff" d="m377.52066 69.96585l-0.296875 2.125l-3.03125 0l0 12.609375l-2.703125 0l0 -12.609375l-3.15625 0l0 -2.125l9.1875 0zm5.5725403 3.171875q0.484375 0 0.875 0.15625l-0.421875 2.515625q-0.4375 -0.109375 -0.796875 -0.109375q-0.8125 0 -1.28125 0.703125q-0.46875 0.703125 -0.71875 2.09375l0 6.203125l-2.625 0l0 -11.28125l2.28125 0l0.1875 1.953125q0.796875 -2.234375 2.5 -2.234375zm8.718018 8.828125q0 0.5625 0.140625 0.828125q0.15625 0.265625 0.5 0.4375l-0.53125 1.75q-0.875 -0.109375 -1.40625 -0.46875q-0.515625 -0.359375 -0.765625 -1.109375q-0.984375 1.609375 -2.75 1.609375q-1.40625 0 -2.25 -0.9375q-0.828125 -0.953125 -0.828125 -2.53125q0 -1.828125 1.140625 -2.78125q1.140625 -0.96875 3.3125 -0.96875l0.875 0l0 -0.796875q0 -1.0625 -0.375 -1.5q-0.359375 -0.4375 -1.203125 -0.4375q-1.0 0 -2.484375 0.5625l-0.609375 -1.71875q0.859375 -0.375 1.765625 -0.578125q0.921875 -0.203125 1.765625 -0.203125q3.703125 0 3.703125 3.75l0 5.09375zm-4.109375 1.15625q1.015625 0 1.546875 -1.40625l0 -2.375l-0.609375 0q-1.09375 0 -1.59375 0.5q-0.5 0.484375 -0.5 1.515625q0 0.875 0.296875 1.328125q0.296875 0.4375 0.859375 0.4375zm14.729889 -14.21875l0 15.796875l-2.328125 0l-0.125 -1.296875q-1.0 1.609375 -2.578125 1.609375q-1.75 0 -2.6875 -1.5625q-0.921875 -1.5625 -0.921875 -4.375q0 -1.796875 0.484375 -3.140625q0.484375 -1.359375 1.328125 -2.078125q0.859375 -0.734375 1.96875 -0.734375q1.359375 0 2.234375 1.125l0 -5.625l2.625 0.28125zm-4.28125 14.140625q0.484375 0 0.875 -0.34375q0.40625 -0.34375 0.78125 -0.984375l0 -5.484375q-0.671875 -1.15625 -1.546875 -1.15625q-1.734375 0 -1.734375 3.96875q0 2.15625 0.421875 3.078125q0.4375 0.921875 1.203125 0.921875zm9.344421 -9.625l0 11.28125l-2.625 0l0 -11.28125l2.625 0zm-1.328125 -5.625q0.703125 0 1.140625 0.453125q0.4375 0.4375 0.4375 1.140625q0 0.6875 -0.4375 1.140625q-0.4375 0.4375 -1.140625 0.4375q-0.703125 0 -1.140625 -0.4375q-0.4375 -0.453125 -0.4375 -1.140625q0 -0.703125 0.4375 -1.140625q0.4375 -0.453125 1.140625 -0.453125zm9.429779 16.390625q-1.046875 0.828125 -2.453125 0.828125q-1.46875 0 -2.25 -0.828125q-0.765625 -0.84375 -0.765625 -2.296875l0 -6.578125l-1.3125 0l0 -1.890625l1.3125 0l0 -2.5l2.625 -0.3125l0 2.8125l2.140625 0l-0.265625 1.890625l-1.875 0l0 6.578125q0 1.015625 0.875 1.015625q0.28125 0 0.484375 -0.0625q0.21875 -0.078125 0.5625 -0.28125l0.921875 1.625zm3.7141724 -10.765625l0 11.28125l-2.625 0l0 -11.28125l2.625 0zm-1.328125 -5.625q0.703125 0 1.140625 0.453125q0.4375 0.4375 0.4375 1.140625q0 0.6875 -0.4375 1.140625q-0.4375 0.4375 -1.140625 0.4375q-0.703125 0 -1.140625 -0.4375q-0.4375 -0.453125 -0.4375 -1.140625q0 -0.703125 0.4375 -1.140625q0.4375 -0.453125 1.140625 -0.453125zm7.757904 5.328125q2.140625 0 3.3125 1.5q1.1875 1.484375 1.1875 4.421875q0 2.8125 -1.1875 4.390625q-1.1875 1.578125 -3.3125 1.578125q-2.109375 0 -3.3125 -1.53125q-1.1875 -1.546875 -1.1875 -4.4375q0 -2.859375 1.1875 -4.390625q1.203125 -1.53125 3.3125 -1.53125zm0 1.984375q-0.90625 0 -1.34375 0.90625q-0.421875 0.90625 -0.421875 3.03125q0 2.15625 0.421875 3.0625q0.4375 0.90625 1.34375 0.90625q0.921875 0 1.34375 -0.90625q0.4375 -0.90625 0.4375 -3.0625q0 -2.15625 -0.4375 -3.046875q-0.421875 -0.890625 -1.34375 -0.890625zm11.716431 -1.984375q1.21875 0 1.921875 0.875q0.703125 0.875 0.703125 2.34375l0 8.359375l-2.625 0l0 -8.0625q0 -0.8125 -0.234375 -1.15625q-0.21875 -0.359375 -0.640625 -0.359375q-0.890625 0 -1.765625 1.6875l0 7.890625l-2.625 0l0 -11.28125l2.28125 0l0.1875 1.46875q0.578125 -0.890625 1.21875 -1.328125q0.65625 -0.4375 1.578125 -0.4375zm12.196381 8.84375q0 0.5625 0.140625 0.828125q0.15625 0.265625 0.5 0.4375l-0.53125 1.75q-0.875 -0.109375 -1.40625 -0.46875q-0.515625 -0.359375 -0.765625 -1.109375q-0.984375 1.609375 -2.75 1.609375q-1.40625 0 -2.25 -0.9375q-0.828125 -0.953125 -0.828125 -2.53125q0 -1.828125 1.140625 -2.78125q1.140625 -0.96875 3.3125 -0.96875l0.875 0l0 -0.796875q0 -1.0625 -0.375 -1.5q-0.359375 -0.4375 -1.203125 -0.4375q-1.0 0 -2.484375 0.5625l-0.609375 -1.71875q0.859375 -0.375 1.765625 -0.578125q0.921875 -0.203125 1.765625 -0.203125q3.703125 0 3.703125 3.75l0 5.09375zm-4.109375 1.15625q1.015625 0 1.546875 -1.40625l0 -2.375l-0.609375 0q-1.09375 0 -1.59375 0.5q-0.5 0.484375 -0.5 1.515625q0 0.875 0.296875 1.328125q0.296875 0.4375 0.859375 0.4375zm8.766541 1.890625q-1.15625 0 -1.828125 -0.703125q-0.671875 -0.71875 -0.671875 -1.90625l0 -13.5l2.625 -0.28125l0 13.671875q0 0.265625 0.125 0.4375q0.125 0.171875 0.390625 0.171875q0.140625 0 0.28125 -0.03125q0.140625 -0.046875 0.1875 -0.046875l0.5 1.796875q-0.71875 0.390625 -1.609375 0.390625z" fill-rule="nonzero"/><path fill="#ffffff" d="m366.61798 95.668976q2.609375 0 4.015625 1.90625q1.40625 1.890625 1.40625 5.75q0 3.8125 -1.40625 5.75q-1.40625 1.9375 -4.015625 1.9375q-2.578125 0 -4.0 -1.90625q-1.40625 -1.921875 -1.40625 -5.765625q0 -3.796875 1.40625 -5.734375q1.421875 -1.9375 4.0 -1.9375zm0 2.046875q-1.296875 0 -1.921875 1.296875q-0.625 1.296875 -0.625 4.328125q0 3.046875 0.640625 4.328125q0.640625 1.265625 1.90625 1.265625q1.328125 0 1.953125 -1.25q0.640625 -1.265625 0.640625 -4.359375q0 -3.03125 -0.640625 -4.3125q-0.640625 -1.296875 -1.953125 -1.296875zm12.358978 1.421875q0.484375 0 0.875 0.15625l-0.421875 2.515625q-0.4375 -0.109375 -0.796875 -0.109375q-0.8125 0 -1.28125 0.703125q-0.46875 0.703125 -0.71875 2.09375l0 6.203125l-2.625 0l0 -11.28125l2.28125 0l0.1875 1.953125q0.796875 -2.234375 2.5 -2.234375zm10.190033 0.859375q-0.453125 0.203125 -1.078125 0.296875q-0.625 0.078125 -1.5625 0.078125q0.890625 0.4375 1.328125 1.15625q0.4375 0.703125 0.4375 1.75q0 1.703125 -1.046875 2.75q-1.046875 1.046875 -2.828125 1.046875q-0.53125 0 -1.09375 -0.171875q-0.375 0.328125 -0.375 0.875q0 0.421875 0.234375 0.640625q0.234375 0.21875 0.875 0.21875l1.1875 0q1.703125 0 2.703125 0.890625q1.015625 0.875 1.015625 2.234375q0 1.625 -1.25 2.59375q-1.25 0.96875 -3.5625 0.96875q-2.421875 0 -3.390625 -0.890625q-0.96875 -0.890625 -0.96875 -2.625l2.3125 0q0 0.921875 0.421875 1.296875q0.4375 0.390625 1.65625 0.390625q1.171875 0 1.65625 -0.40625q0.5 -0.40625 0.5 -1.15625q0 -0.71875 -0.40625 -1.0625q-0.40625 -0.34375 -1.265625 -0.34375l-0.8125 0q-1.609375 0 -2.359375 -0.578125q-0.75 -0.578125 -0.75 -1.578125q0 -0.578125 0.3125 -1.09375q0.3125 -0.53125 0.84375 -0.921875q-0.875 -0.5625 -1.28125 -1.328125q-0.40625 -0.765625 -0.40625 -1.875q0 -1.859375 1.109375 -2.9375q1.109375 -1.078125 2.984375 -1.078125q1.390625 0 2.296875 -0.296875q0.90625 -0.296875 1.90625 -0.875l0.65625 2.03125zm-4.859375 0.890625q-0.75 0 -1.140625 0.53125q-0.375 0.53125 -0.375 1.6875q0 1.09375 0.375 1.6875q0.390625 0.578125 1.125 0.578125q0.734375 0 1.09375 -0.515625q0.375 -0.53125 0.375 -1.765625q0 -1.15625 -0.359375 -1.671875q-0.34375 -0.53125 -1.09375 -0.53125zm12.79306 7.078125q0 0.5625 0.140625 0.828125q0.15625 0.265625 0.5 0.4375l-0.53125 1.75q-0.875 -0.109375 -1.40625 -0.46875q-0.515625 -0.359375 -0.765625 -1.109375q-0.984375 1.609375 -2.75 1.609375q-1.40625 0 -2.25 -0.9375q-0.828125 -0.953125 -0.828125 -2.53125q0 -1.828125 1.140625 -2.78125q1.140625 -0.96875 3.3125 -0.96875l0.875 0l0 -0.796875q0 -1.0625 -0.375 -1.5q-0.359375 -0.4375 -1.203125 -0.4375q-1.0 0 -2.484375 0.5625l-0.609375 -1.71875q0.859375 -0.375 1.765625 -0.578125q0.921875 -0.203125 1.765625 -0.203125q3.703125 0 3.703125 3.75l0 5.09375zm-4.109375 1.15625q1.015625 0 1.546875 -1.40625l0 -2.375l-0.609375 0q-1.09375 0 -1.59375 0.5q-0.5 0.484375 -0.5 1.515625q0 0.875 0.296875 1.328125q0.296875 0.4375 0.859375 0.4375zm11.854889 -10.0q1.21875 0 1.921875 0.875q0.703125 0.875 0.703125 2.34375l0 8.359375l-2.625 0l0 -8.0625q0 -0.8125 -0.234375 -1.15625q-0.21875 -0.359375 -0.640625 -0.359375q-0.890625 0 -1.765625 1.6875l0 7.890625l-2.625 0l0 -11.28125l2.28125 0l0.1875 1.46875q0.578125 -0.890625 1.21875 -1.328125q0.65625 -0.4375 1.578125 -0.4375zm7.6182556 0.296875l0 11.28125l-2.625 0l0 -11.28125l2.625 0zm-1.328125 -5.625q0.703125 0 1.140625 0.453125q0.4375 0.4375 0.4375 1.140625q0 0.6875 -0.4375 1.140625q-0.4375 0.4375 -1.140625 0.4375q-0.703125 0 -1.140625 -0.4375q-0.4375 -0.453125 -0.4375 -1.140625q0 -0.703125 0.4375 -1.140625q0.4375 -0.453125 1.140625 -0.453125zm10.132904 5.625l0 1.890625l-4.5 7.328125l4.578125 0l-0.234375 2.0625l-7.15625 0l0 -1.890625l4.5 -7.328125l-4.125 0l0 -2.0625l6.9375 0zm8.655518 8.546875q0 0.5625 0.140625 0.828125q0.15625 0.265625 0.5 0.4375l-0.53125 1.75q-0.875 -0.109375 -1.40625 -0.46875q-0.515625 -0.359375 -0.765625 -1.109375q-0.984375 1.609375 -2.75 1.609375q-1.40625 0 -2.25 -0.9375q-0.828125 -0.953125 -0.828125 -2.53125q0 -1.828125 1.140625 -2.78125q1.140625 -0.96875 3.3125 -0.96875l0.875 0l0 -0.796875q0 -1.0625 -0.375 -1.5q-0.359375 -0.4375 -1.203125 -0.4375q-1.0 0 -2.484375 0.5625l-0.609375 -1.71875q0.859375 -0.375 1.765625 -0.578125q0.921875 -0.203125 1.765625 -0.203125q3.703125 0 3.703125 3.75l0 5.09375zm-4.109375 1.15625q1.015625 0 1.546875 -1.40625l0 -2.375l-0.609375 0q-1.09375 0 -1.59375 0.5q-0.5 0.484375 -0.5 1.515625q0 0.875 0.296875 1.328125q0.296875 0.4375 0.859375 0.4375zm12.261139 1.0625q-1.046875 0.828125 -2.453125 0.828125q-1.46875 0 -2.25 -0.828125q-0.765625 -0.84375 -0.765625 -2.296875l0 -6.578125l-1.3125 0l0 -1.890625l1.3125 0l0 -2.5l2.625 -0.3125l0 2.8125l2.140625 0l-0.265625 1.890625l-1.875 0l0 6.578125q0 1.015625 0.875 1.015625q0.28125 0 0.484375 -0.0625q0.21875 -0.078125 0.5625 -0.28125l0.921875 1.625zm3.7141724 -10.765625l0 11.28125l-2.625 0l0 -11.28125l2.625 0zm-1.328125 -5.625q0.703125 0 1.140625 0.453125q0.4375 0.4375 0.4375 1.140625q0 0.6875 -0.4375 1.140625q-0.4375 0.4375 -1.140625 0.4375q-0.703125 0 -1.140625 -0.4375q-0.4375 -0.453125 -0.4375 -1.140625q0 -0.703125 0.4375 -1.140625q0.4375 -0.453125 1.140625 -0.453125zm7.757904 5.328125q2.140625 0 3.3125 1.5q1.1875 1.484375 1.1875 4.421875q0 2.8125 -1.1875 4.390625q-1.1875 1.578125 -3.3125 1.578125q-2.109375 0 -3.3125 -1.53125q-1.1875 -1.546875 -1.1875 -4.4375q0 -2.859375 1.1875 -4.390625q1.203125 -1.53125 3.3125 -1.53125zm0 1.984375q-0.90625 0 -1.34375 0.90625q-0.421875 0.90625 -0.421875 3.03125q0 2.15625 0.421875 3.0625q0.4375 0.90625 1.34375 0.90625q0.921875 0 1.34375 -0.90625q0.4375 -0.90625 0.4375 -3.0625q0 -2.15625 -0.4375 -3.046875q-0.421875 -0.890625 -1.34375 -0.890625zm11.716461 -1.984375q1.21875 0 1.921875 0.875q0.703125 0.875 0.703125 2.34375l0 8.359375l-2.625 0l0 -8.0625q0 -0.8125 -0.234375 -1.15625q-0.21875 -0.359375 -0.640625 -0.359375q-0.890625 0 -1.765625 1.6875l0 7.890625l-2.625 0l0 -11.28125l2.28125 0l0.1875 1.46875q0.578125 -0.890625 1.21875 -1.328125q0.65625 -0.4375 1.578125 -0.4375z" fill-rule="nonzero"/><path fill="#000000" fill-opacity="0.0" d="m554.65247 75.33856l140.47247 0l0 29.763779l-140.47247 0z" fill-rule="evenodd"/><path fill="#ffffff" d="m612.42065 82.96607q1.859375 0 3.203125 0.5625q1.359375 0.5625 2.203125 2.171875q0.84375 1.609375 0.84375 4.5625q0 4.15625 -1.65625 5.796875q-1.65625 1.640625 -4.3125 1.640625l-3.5625 0l0 -14.734375l3.28125 0zm-0.578125 2.015625l0 10.6875l1.0 0q0.96875 0 1.609375 -0.4375q0.65625 -0.453125 1.03125 -1.640625q0.375 -1.203125 0.375 -3.328125q0 -2.1875 -0.40625 -3.328125q-0.390625 -1.15625 -1.046875 -1.546875q-0.640625 -0.40625 -1.578125 -0.40625l-0.984375 0zm15.252808 12.71875l-0.71875 -3.453125l-3.796875 0l-0.703125 3.453125l-2.71875 0l3.71875 -14.734375l3.28125 0l3.6875 14.734375l-2.75 0zm-4.09375 -5.5l2.96875 0l-1.5 -7.171875l-1.46875 7.171875zm12.746155 -9.53125q2.609375 0 4.015625 1.90625q1.40625 1.890625 1.40625 5.75q0 3.8125 -1.40625 5.75q-1.40625 1.9375 -4.015625 1.9375q-2.578125 0 -4.0 -1.90625q-1.40625 -1.921875 -1.40625 -5.765625q0 -3.796875 1.40625 -5.734375q1.421875 -1.9375 4.0 -1.9375zm0 2.046875q-1.296875 0 -1.921875 1.296875q-0.625 1.296875 -0.625 4.328125q0 3.046875 0.640625 4.328125q0.640625 1.265625 1.90625 1.265625q1.328125 0 1.953125 -1.25q0.640625 -1.265625 0.640625 -4.359375q0 -3.03125 -0.640625 -4.3125q-0.640625 -1.296875 -1.953125 -1.296875z" fill-rule="nonzero"/><path fill="#000000" fill-opacity="0.0" d="m767.4384 75.33856l141.19684 0l0 29.763779l-141.19684 0z" fill-rule="evenodd"/><path fill="#ffffff" d="m825.4408 82.96607q1.859375 0 3.203125 0.5625q1.359375 0.5625 2.203125 2.171875q0.84375 1.609375 0.84375 4.5625q0 4.15625 -1.65625 5.796875q-1.65625 1.640625 -4.3125 1.640625l-3.5625 0l0 -14.734375l3.28125 0zm-0.578125 2.015625l0 10.6875l1.0 0q0.96875 0 1.609375 -0.4375q0.65625 -0.453125 1.03125 -1.640625q0.375 -1.203125 0.375 -3.328125q0 -2.1875 -0.40625 -3.328125q-0.390625 -1.15625 -1.046875 -1.546875q-0.640625 -0.40625 -1.578125 -0.40625l-0.984375 0zm12.2317505 -2.015625q2.65625 0 4.046875 1.1875q1.40625 1.171875 1.40625 3.484375q0 2.453125 -1.375 3.671875q-1.375 1.203125 -3.890625 1.203125l-0.859375 0l0 5.1875l-2.703125 0l0 -14.734375l3.375 0zm0.03125 7.53125q1.390625 0 2.0 -0.640625q0.625 -0.640625 0.625 -2.203125q0 -1.40625 -0.625 -2.046875q-0.609375 -0.640625 -1.96875 -0.640625l-0.734375 0l0 5.53125l0.703125 0zm11.898254 -7.828125q2.609375 0 4.015625 1.90625q1.40625 1.890625 1.40625 5.75q0 3.8125 -1.40625 5.75q-1.40625 1.9375 -4.015625 1.9375q-2.578125 0 -4.0 -1.90625q-1.40625 -1.921875 -1.40625 -5.765625q0 -3.796875 1.40625 -5.734375q1.421875 -1.9375 4.0 -1.9375zm0 2.046875q-1.296875 0 -1.921875 1.296875q-0.625 1.296875 -0.625 4.328125q0 3.046875 0.640625 4.328125q0.640625 1.265625 1.90625 1.265625q1.328125 0 1.953125 -1.25q0.640625 -1.265625 0.640625 -4.359375q0 -3.03125 -0.640625 -4.3125q-0.640625 -1.296875 -1.953125 -1.296875z" fill-rule="nonzero"/><path fill="#ffbe2e" d="m404.73065 366.0438l-14.724274 -17.692596l0 0c-1.8405151 -2.2237244 -1.8405151 -5.807556 0 -8.020477l0 0c1.8405457 -2.2237244 4.8302917 -2.2237244 6.670807 0l8.089386 9.715271l22.02356 -26.177277l0 0c1.8495178 -2.2129211 4.839264 -2.1913452 6.670807 0.043182373l0 0c1.8315735 2.2237244 1.8135986 5.8183594 -0.03591919 8.020508l-28.694366 34.11139" fill-rule="evenodd"/><path fill="#ffbe2e" d="m617.9604 193.60251l-14.724243 -17.692596l0 0c-1.8405762 -2.2237244 -1.8405762 -5.8075714 0 -8.020508l0 0c1.8405151 -2.223709 4.830261 -2.223709 6.6707764 0l8.089355 9.715286l22.02356 -26.177277l0 0c1.8495483 -2.2129211 4.8392944 -2.19133 6.6708374 0.043182373l0 0c1.831543 2.2237244 1.8135986 5.8183746 -0.035888672 8.020493l-28.694397 34.11142" fill-rule="evenodd"/><path fill="#ec3d3d" d="m612.55896 323.30582c1.2073975 0 2.4159546 0.5476074 3.336975 1.6427002l9.079956 10.845062l9.079956 -10.845062c1.8330688 -2.1902466 4.8342285 -2.1902466 6.6672974 0c1.8330688 2.1901855 1.8330688 5.7653503 0 7.9663086l-9.078735 10.843658l9.078735 10.843658c1.8330688 2.190216 1.8330688 5.776123 0 7.9663086c-1.8330688 2.190216 -4.8342285 2.190216 -6.6672974 0l-9.079956 -10.845062l-9.079956 10.845062c-1.842041 2.190216 -4.8342285 2.190216 -6.6672974 0c-1.8330688 -2.1901855 -1.8330688 -5.7760925 0 -7.9663086l9.078796 -10.843658l-9.078796 -10.843658c-1.8330688 -2.2009583 -1.8330688 -5.776123 0 -7.9663086c0.91656494 -1.0950928 2.1228638 -1.6427002 3.3303223 -1.6427002z" fill-rule="evenodd"/><path fill="#ffbe2e" d="m830.04504 362.3006l-14.724243 -17.692596l0 0c-1.8405762 -2.2236938 -1.8405762 -5.807556 0 -8.020477l0 0c1.8405151 -2.2237244 4.830261 -2.2237244 6.6707764 0l8.0894165 9.715271l22.02356 -26.177277l0 0c1.8494873 -2.2129211 4.8392334 -2.1913452 6.6707764 0.043182373l0 0c1.831543 2.2237244 1.8135986 5.8183594 -0.035888672 8.020508l-28.694397 34.11139" fill-rule="evenodd"/><path fill="#ffbe2e" d="m830.04504 452.0016l-14.724243 -17.692596l0 0c-1.8405762 -2.2237244 -1.8405762 -5.8075867 0 -8.020508l0 0c1.8405151 -2.2236938 4.830261 -2.2236938 6.6707764 0l8.0894165 9.715271l22.02356 -26.177246l0 0c1.8494873 -2.2129211 4.8392334 -2.1913452 6.6707764 0.043182373l0 0c1.831543 2.2236938 1.8135986 5.8183594 -0.035888672 8.020477l-28.694397 34.11142" fill-rule="evenodd"/><path fill="#ffbe2e" d="m830.04504 193.87495l-14.724243 -17.692596l0 0c-1.8405762 -2.2237244 -1.8405762 -5.8075714 0 -8.020493l0 0c1.8405151 -2.2237244 4.830261 -2.2237244 6.6707764 0l8.0894165 9.715271l22.02356 -26.177277l0 0c1.8494873 -2.2129211 4.8392334 -2.19133 6.6707764 0.043182373l0 0c1.831543 2.2237244 1.8135986 5.8183746 -0.035888672 8.020493l-28.694397 34.11142" fill-rule="evenodd"/><path fill="#ec3d3d" d="m396.67767 149.99763c1.207428 0 2.415985 0.54759216 3.3370056 1.6426849l9.079956 10.845062l9.079926 -10.845062c1.8330688 -2.1902313 4.834259 -2.1902313 6.667328 0c1.8330688 2.1901855 1.8330688 5.7653503 0 7.9663086l-9.078735 10.843658l9.078735 10.843658c1.8330688 2.1902313 1.8330688 5.776123 0 7.9663086c-1.8330688 2.1902313 -4.834259 2.1902313 -6.667328 0l-9.079926 -10.845062l-9.079956 10.845062c-1.842041 2.1902313 -4.8342285 2.1902313 -6.6672974 0c-1.8330688 -2.1901855 -1.8330688 -5.7760773 0 -7.9663086l9.078766 -10.843658l-9.078766 -10.843658c-1.8330688 -2.2009583 -1.8330688 -5.776123 0 -7.9663086c0.9165344 -1.0950928 2.1228638 -1.6426849 3.3302917 -1.6426849z" fill-rule="evenodd"/><path fill="#ffbe2e" d="m618.10583 282.83856l-14.724304 -17.692596l0 0c-1.8405151 -2.2237244 -1.8405151 -5.8075867 0 -8.020508l0 0c1.8405762 -2.2237244 4.8303223 -2.2237244 6.6708374 0l8.089355 9.715271l22.02356 -26.177261l0 0c1.8495483 -2.2129211 4.8392944 -2.1913452 6.6708374 0.043167114l0 0c1.831543 2.2237244 1.8135986 5.8183746 -0.035949707 8.020508l-28.694336 34.11142" fill-rule="evenodd"/><path fill="#ec3d3d" d="m396.67767 240.14763c1.207428 0 2.415985 0.5476074 3.3370056 1.6427002l9.079956 10.845062l9.079926 -10.845062c1.8330688 -2.1902466 4.834259 -2.1902466 6.667328 0c1.8330688 2.1901703 1.8330688 5.7653503 0 7.9663086l-9.078735 10.843643l9.078735 10.843658c1.8330688 2.1902466 1.8330688 5.776123 0 7.9663086c-1.8330688 2.1902466 -4.834259 2.1902466 -6.667328 0l-9.079926 -10.845062l-9.079956 10.845062c-1.842041 2.1902466 -4.8342285 2.1902466 -6.6672974 0c-1.8330688 -2.1901855 -1.8330688 -5.776062 0 -7.9663086l9.078766 -10.843658l-9.078766 -10.843643c-1.8330688 -2.2009583 -1.8330688 -5.7761383 0 -7.9663086c0.9165344 -1.0950928 2.1228638 -1.6427002 3.3302917 -1.6427002z" fill-rule="evenodd"/><path fill="#ffbe2e" d="m830.04504 282.83972l-14.724243 -17.692596l0 0c-1.8405762 -2.2236938 -1.8405762 -5.807556 0 -8.020477l0 0c1.8405151 -2.2237244 4.830261 -2.2237244 6.6707764 0l8.0894165 9.715271l22.02356 -26.177277l0 0c1.8494873 -2.2129211 4.8392334 -2.19133 6.6707764 0.043182373l0 0c1.831543 2.2237244 1.8135986 5.8183746 -0.035888672 8.020493l-28.694397 34.111404" fill-rule="evenodd"/><path fill="#ffbe2e" d="m402.07535 449.47076l-14.724274 -17.692596l0 0c-1.8405457 -2.2237244 -1.8405457 -5.8075867 0 -8.020508l0 0c1.8405151 -2.2237244 4.830261 -2.2237244 6.670807 0l8.089355 9.715271l22.02356 -26.177277l0 0c1.8495178 -2.2129211 4.839264 -2.1913147 6.6708374 0.043182373l0 0c1.831543 2.2237244 1.8135986 5.8183594 -0.03591919 8.020508l-28.694366 34.11142" fill-rule="evenodd"/><path fill="#ec3d3d" d="m612.55896 405.9969c1.2073975 0 2.4159546 0.5476074 3.336975 1.6426697l9.079956 10.845062l9.079956 -10.845062c1.8330688 -2.190216 4.8342285 -2.190216 6.6672974 0c1.8330688 2.1901855 1.8330688 5.7653503 0 7.9663086l-9.078735 10.843658l9.078735 10.843658c1.8330688 2.1902466 1.8330688 5.776123 0 7.9663086c-1.8330688 2.1902466 -4.8342285 2.1902466 -6.6672974 0l-9.079956 -10.845062l-9.079956 10.845062c-1.842041 2.1902466 -4.8342285 2.1902466 -6.6672974 0c-1.8330688 -2.1901855 -1.8330688 -5.776062 0 -7.9663086l9.078796 -10.843658l-9.078796 -10.843658c-1.8330688 -2.2009583 -1.8330688 -5.776123 0 -7.9663086c0.91656494 -1.0950623 2.1228638 -1.6426697 3.3303223 -1.6426697z" fill-rule="evenodd"/></g></svg>