<svg height="416.42521pt" viewBox="0 0 416.42521 416.42521" width="416.42521pt" xmlns="http://www.w3.org/2000/svg">
    <style type="text/css"><![CDATA[
  .spanner-icon{fill: #FFBE2E;}
]]></style>
<g class="spanner-icon">
<path d="m148.164062 328.597656 161.269532-161.265625c28.082031 7.648438 58.125.347657 79.566406-19.339843 21.441406-19.683594 31.273438-48.996094 26.046875-77.628907-.691406-3.914062-3.503906-7.121093-7.296875-8.316406s-7.9375-.179687-10.75 2.628906l-37.796875 37.800781-45.253906-45.253906 37.800781-37.800781c2.808594-2.8125 3.824219-6.953125 2.628906-10.746094-1.195312-3.792969-4.402344-6.605469-8.316406-7.296875-28.632812-5.230468-57.945312 4.605469-77.628906 26.046875-19.6875 21.441407-26.988282 51.484375-19.339844 79.566407l-161.269531 161.269531c-32.113281-5.75-64.238281 10.015625-79.34375 38.933593-15.101563 28.917969-9.679688 64.292969 13.390625 87.359376 23.066406 23.070312 58.441406 28.492187 87.359375 13.386718 28.917969-15.101562 44.683593-47.230468 38.933593-79.34375zm-88.351562 28.015625c-8.332031-8.332031-8.332031-21.839843 0-30.171875 8.332031-8.332031 21.839844-8.332031 30.171875 0 8.328125 8.332032 8.328125 21.839844-.003906 30.171875-8.328125 8.328125-21.835938 8.328125-30.167969 0zm0 0"/>
</g>
</svg>