<?xml version="1.0" encoding="iso-8859-1"?>
<!-- Generator: Adobe Illustrator 19.0.0, SVG Export Plug-In . SVG Version: 6.00 Build 0)  -->
<svg version="1.1" id="Capa_1" xmlns="http://www.w3.org/2000/svg" xmlns:xlink="http://www.w3.org/1999/xlink" x="0px" y="0px"
	 viewBox="0 0 439.4 439.4" style="enable-background:new 0 0 439.4 439.4;" xml:space="preserve">
    <style type="text/css"><![CDATA[.bolts{fill: #FFBE2E;}]]></style>

<g class="bolts">
	<g>
		<g>
			<path d="M132.2,0.4L28.3,28.6L0,132.5l75.7,75.8l104-28.3l28.2-103.9L132.2,0.4z M163.4,163.7L81.7,186l-59.4-59.4l22.3-81.7
				l81.7-22.2l59.4,59.4L163.4,163.7z"/>
		</g>
	</g>
	<g>
		<g>
			<path d="M137.2,71C120,53.8,92.1,53.7,74.9,70.9c-17.2,17.2-17.3,45.1-0.1,62.3c8.3,8.3,19.5,12.9,31.3,12.8
				c24.2,0.1,43.9-19.4,44.1-43.6C150.3,90.6,145.6,79.3,137.2,71z M123.1,119.4v-0.2c-4.5,4.5-10.6,6.9-17,6.9
				c-13.1,0.2-24-10.3-24.2-23.5c-0.1-6.5,2.4-12.8,7-17.3c9.4-9.4,24.7-9.4,34.2,0c4.5,4.5,7.1,10.7,7.1,17.1
				C130.2,108.8,127.7,114.9,123.1,119.4z"/>
		</g>
	</g>
	<g>
		<g>
			<path d="M385.9,138H278.7l-53.5,93l53.5,93h107.2l53.5-93L385.9,138z M374.3,304h-84l-42-73l42-73h84l42,73L374.3,304z"/>
		</g>
	</g>
	<g>
		<g>
			<path d="M332.3,184.5c-24.4,0-44.2,19.7-44.2,44.1c0,24.4,19.7,44.2,44.1,44.2c24.4,0,44.2-19.7,44.2-44.1c0,0,0,0,0-0.1
				C376.4,204.3,356.7,184.5,332.3,184.5z M332.3,252.8c-13.3,0-24.2-10.8-24.2-24.1c0-13.3,10.8-24.2,24.1-24.2
				c13.3,0,24.2,10.8,24.2,24.1S345.6,252.8,332.3,252.8z"/>
		</g>
	</g>
	<g>
		<g>
			<path d="M162.7,252H55.5L2,345.5L55.5,439h107.2l53.5-93.5L162.7,252z M151.1,419h-84l-42-73.5l42-73.5h84l42,73.5L151.1,419z"/>
		</g>
	</g>
	<g>
		<g>
			<path d="M109.1,300.8c-24.4,0-44.1,19.7-44.2,44.1c0,24.4,19.7,44.1,44.1,44.2c24.4,0,44.1-19.7,44.2-44.1c0,0,0,0,0-0.1
				C153.2,320.6,133.4,300.9,109.1,300.8z M109.1,369.1c-13.3,0-24.1-10.8-24.2-24.1c-0.1-13.3,10.8-24.1,24.1-24.2
				c13.3,0,24.1,10.8,24.2,24.1C133.2,358.3,122.4,369.1,109.1,369.1z"/>
		</g>
	</g>
</g>
<g>
</g>
<g>
</g>
<g>
</g>
<g>
</g>
<g>
</g>
<g>
</g>
<g>
</g>
<g>
</g>
<g>
</g>
<g>
</g>
<g>
</g>
<g>
</g>
<g>
</g>
<g>
</g>
<g>
</g>
</svg>
