<svg xmlns="http://www.w3.org/2000/svg" xmlns:xlink="http://www.w3.org/1999/xlink" xmlns:lucid="lucid" width="2196.91" height="2172.75"><g transform="translate(1952.647564477562 -2269.0676759683697)" lucid:page-tab-id="0_0"><path d="M-1772.67 4291.42c-3.3 0-6-2.7-6-6V2324.3c0-3.32-2.7-6-6-6h-4.4c-3.3 0-4.13-1.94-1.84-4.33l19.77-20.58c2.3-2.4 6.02-2.4 8.3 0l19.8 20.57c2.28 2.38 1.46 4.32-1.86 4.32h-4.38c-3.3 0-6 2.68-6 6V4285.4c0 3.3-2.68 6-6 6z" stroke="#333" stroke-width="3" fill="#333"/><path d="M-1778.08 4274.5c0-3.3 2.68-6 6-6H189.04c3.32 0 6-2.68 6-6v-4.4c0-3.3 1.94-4.13 4.33-1.83l20.57 19.77c2.4 2.3 2.4 6.02 0 8.32l-20.57 19.77c-2.4 2.3-4.33 1.47-4.33-1.84v-4.4c0-3.32-2.68-6-6-6h-1961.12c-3.32 0-6-2.7-6-6z" stroke="#333" stroke-width="3" fill="#333"/><path d="M-785.76 4262v-10.08m0-10.08v-20.15m0-10.08v-20.15m0-10.07v-20.15m0-10.07v-20.15m0-10.08v-20.14m0-10.07v-20.15m0-10.07v-20.14m0-10.07v-20.16m0-10.07v-20.15m0-10.08v-20.14m0-10.08v-20.15m0-10.07v-20.15m0-10.07v-20.15m0-10.07v-20.15m0-10.07v-20.14m0-10.1v-20.14m0-10.07v-20.16m0-10.07v-20.15m0-10.07v-20.15m0-10.08v-20.14m0-10.08v-20.15m0-10.07v-20.15m0-10.07v-20.15m0-10.07v-20.14m0-10.1v-20.14m0-10.07v-20.16m0-10.07v-20.15m0-10.07v-20.15m0-10.08v-20.14m0-10.08v-20.15m0-10.07v-20.15m0-10.07v-20.15m0-10.06v-20.15m0-10.1v-20.13m0-10.08v-20.16m0-10.07v-20.15m0-10.07v-20.15m0-10.07v-20.15m0-10.08v-20.14m0-10.08v-20.15m0-10.07v-20.15m0-10.06v-20.15m0-10.08v-20.15m0-10.08v-20.15m0-10.08v-20.15m0-10.07v-20.15m0-10.07v-20.15m0-10.08v-20.14m0-10.08v-20.15m0-10.07v-20.15m0-10.06v-20.15m0-10.08v-20.15m0-10.08v-20.15m0-10.08v-20.15m0-10.07v-20.15m0-10.07v-20.15m0-10.07v-20.14m0-10.08v-20.14m0-10.08v-20.15m0-10.06v-20.15m0-10.08v-20.15m0-10.07v-20.15m0-10.08v-20.14m0-10.08v-10.07M-785.76 4261.96v1.03M-785.76 2327.8v-1.02M-1746.42 3296.52h10.05m10.04.02l20.1.02m10.04 0l20.1.03m10.05 0l20.1.02m10.04 0l20.1.03m10.03 0l20.1.03m10.04 0l20.1.03m10.04.03l20.1.02m10.05 0l20.1.03m10.04 0l20.08.03m10.05.02l20.1.02m10.04 0l20.1.03m10.04 0l20.1.03m10.05 0l20.1.03m10.04 0l20.08.03m10.05 0l20.1.03m10.04 0l20.1.02m10.04 0l20.1.03m10.05 0l20.1.04m10.03 0l20.1.02m10.04 0l20.1.03m10.04 0l20.1.03m10.04 0l20.1.03m10.04.02l20.1.02m10.04 0l20.1.03m10.04 0l20.1.03m10.04 0l20.1.03m10.04 0l20.1.03m10.04 0l20.1.03m10.04 0l20.1.03m10.04 0l20.1.03m10.04 0l20.1.03m10.04 0l20.1.02m10.04 0l20.1.03m10.04 0l20.1.03m10.04 0l20.1.03m10.04.02l20.1.02m10.03 0l20.1.03m10.03 0l20.1.03m10.04 0l20.1.03m10.04 0l20.1.03m10.05.02l20.1.02m10.04 0l20.08.03m10.05 0l20.1.03m10.04 0l20.1.03m10.04 0l20.1.02m10.05 0l20.1.03m10.04 0l20.08.03m10.05 0l20.1.03m10.04.02l20.1.02m10.04 0l20.1.03m10.05 0l20.1.03m10.04 0l20.08.04m10.05 0l20.1.03m10.04 0l20.1.03m10.03 0l20.1.03m10.04 0l20.1.03m10.04 0l20.1.03m10.04 0l20.1.02m10.04 0l20.1.03m10.04 0l20.1.03m10.04 0l20.1.03m10.04.02l20.1.02m10.04 0l20.1.04m10.04 0l10.05.02M-1746.4 3296.52h-1.02M182.48 3298.5h1.03" stroke="#5e5e5e" stroke-width="2" fill="none"/><path d="M-1010.28 4339.8c0-3.3 2.68-6 6-6h454.75c3.3 0 6 2.7 6 6v76.02c0 3.3-2.7 6-6 6h-454.75c-3.32 0-6-2.7-6-6z" fill="none"/><use xlink:href="#a" transform="matrix(1,0,0,1,-998.2836391171629,4345.808624775144) translate(91.35185185185185 43.16666666666667)"/><path d="M-1913.46 3507.73c-3.3 0-6-2.7-6-6v-422.98c0-3.3 2.7-6 6-6h76c3.33 0 6 2.7 6 6v422.98c0 3.3-2.67 6-6 6z" fill="none"/><use xlink:href="#b" transform="matrix(6.123233995736766e-17,-1,1,6.123233995736766e-17,-1907.4570444724004,3495.7279229544984) translate(0.018518518518476412 43.16666666666667)"/><path d="M70.16 4339.8c0-3.3 2.7-6 6-6h100.57c3.3 0 6 2.7 6 6v60.02c0 3.3-2.7 6-6 6H76.16c-3.3 0-6-2.7-6-6z" fill="none"/><use xlink:href="#c" transform="matrix(1,0,0,1,82.16469569031487,4345.808624775145) translate(0.22222222222222854 32.5)"/><path d="M-1738.88 4339.8c0-3.3 2.68-6 6-6h136.15c3.3 0 6 2.7 6 6v60.02c0 3.3-2.7 6-6 6h-136.15c-3.32 0-6-2.7-6-6z" fill="none"/><use xlink:href="#d" transform="matrix(1,0,0,1,-1726.8825330980278,4345.808624775145) translate(22.611111111111114 32.5)"/><path d="M-1930.82 4191.43c0-3.3 2.68-6 6-6h98.74c3.3 0 6 2.7 6 6v60c0 3.33-2.7 6-6 6h-98.74c-3.32 0-6-2.67-6-6z" fill="none"/><use xlink:href="#d" transform="matrix(1,0,0,1,-1918.8220800227944,4197.432098811452) translate(3.6111111111111143 32.5)"/><path d="M-1932.65 2352.65c0-3.32 2.7-6 6-6h100.57c3.3 0 6 2.68 6 6v60c0 3.32-2.7 6-6 6h-100.57c-3.3 0-6-2.68-6-6z" fill="none"/><use xlink:href="#c" transform="matrix(1,0,0,1,-1920.647564477562,2358.6472441965607) translate(0.22222222222222854 32.5)"/><path d="M-93.57 2810.3c0 127.6-104.45 231.05-233.3 231.05-128.85 0-233.3-103.45-233.3-231.06 0-127.62 104.45-231.07 233.3-231.07 128.85 0 233.3 103.45 233.3 231.06z" stroke="#e81313" stroke-width="10" fill-opacity="0"/><use xlink:href="#e" transform="matrix(1,0,0,1,-548.1756346545535,2591.2271388761533) translate(68.75378758549489 271.4672861014325)"/><path d="M-1042.04 2810.3c0 127.6-104.45 231.05-233.3 231.05-128.85 0-233.3-103.45-233.3-231.06 0-127.62 104.45-231.07 233.3-231.07 128.85 0 233.3 103.45 233.3 231.06z" stroke="#aacde9" stroke-width="10" fill-opacity="0"/><use xlink:href="#f" transform="matrix(1,0,0,1,-1496.648103166031,2591.2271388761533) translate(67.54588979223129 271.4672861014325)"/><path d="M-76.92 3783.5c0 127.62-104.46 231.06-233.3 231.06-128.86 0-233.3-103.44-233.3-231.06 0-127.6 104.44-231.06 233.3-231.06 128.84 0 233.3 103.45 233.3 231.06z" stroke="#b2b9ba" stroke-width="10" fill-opacity="0"/><use xlink:href="#g" transform="matrix(1,0,0,1,-531.5329681613882,3564.4433824397843) translate(37.587764851345966 180.38104872702746)"/><use xlink:href="#h" transform="matrix(1,0,0,1,-531.5329681613882,3564.4433824397843) translate(2.3684876074859917 266.6531782161524)"/><defs><path fill="#333" d="M76-208v77h127v40H76V0H24v-248h183v40H76" id="i"/><path fill="#333" d="M185-48c-13 30-37 53-82 52C43 2 14-33 14-96s30-98 90-98c62 0 83 45 84 108H66c0 31 8 55 39 56 18 0 30-7 34-22zm-45-69c5-46-57-63-70-21-2 6-4 13-4 21h74" id="j"/><path fill="#333" d="M133-34C117-15 103 5 69 4 32 3 11-16 11-54c-1-60 55-63 116-61 1-26-3-47-28-47-18 1-26 9-28 27l-52-2c7-38 36-58 82-57s74 22 75 68l1 82c-1 14 12 18 25 15v27c-30 8-71 5-69-32zm-48 3c29 0 43-24 42-57-32 0-66-3-65 30 0 17 8 27 23 27" id="k"/><path fill="#333" d="M137-138c1-29-70-34-71-4 15 46 118 7 119 86 1 83-164 76-172 9l43-7c4 19 20 25 44 25 33 8 57-30 24-41C81-84 22-81 20-136c-2-80 154-74 161-7" id="l"/><path fill="#333" d="M25-224v-37h50v37H25zM25 0v-190h50V0H25" id="m"/><path fill="#333" d="M135-194c52 0 70 43 70 98 0 56-19 99-73 100-30 1-46-15-58-35L72 0H24l1-261h50v104c11-23 29-37 60-37zM114-30c31 0 40-27 40-66 0-37-7-63-39-63s-41 28-41 65c0 36 8 64 40 64" id="n"/><path fill="#333" d="M25 0v-261h50V0H25" id="o"/><path fill="#333" d="M115-3C79 11 28 4 28-45v-112H4v-33h27l15-45h31v45h36v33H77v99c-1 23 16 31 38 25v30" id="p"/><path fill="#333" d="M123 10C108 53 80 86 19 72V37c35 8 53-11 59-39L3-190h52l48 148c12-52 28-100 44-148h51" id="q"/><g id="a"><use transform="matrix(0.14814814814814817,0,0,0.14814814814814817,0,0)" xlink:href="#i"/><use transform="matrix(0.14814814814814817,0,0,0.14814814814814817,32.44444444444445,0)" xlink:href="#j"/><use transform="matrix(0.14814814814814817,0,0,0.14814814814814817,62.07407407407408,0)" xlink:href="#k"/><use transform="matrix(0.14814814814814817,0,0,0.14814814814814817,91.70370370370371,0)" xlink:href="#l"/><use transform="matrix(0.14814814814814817,0,0,0.14814814814814817,121.33333333333334,0)" xlink:href="#m"/><use transform="matrix(0.14814814814814817,0,0,0.14814814814814817,136.14814814814818,0)" xlink:href="#n"/><use transform="matrix(0.14814814814814817,0,0,0.14814814814814817,168.59259259259264,0)" xlink:href="#m"/><use transform="matrix(0.14814814814814817,0,0,0.14814814814814817,183.40740740740742,0)" xlink:href="#o"/><use transform="matrix(0.14814814814814817,0,0,0.14814814814814817,198.22222222222226,0)" xlink:href="#m"/><use transform="matrix(0.14814814814814817,0,0,0.14814814814814817,213.03703703703707,0)" xlink:href="#p"/><use transform="matrix(0.14814814814814817,0,0,0.14814814814814817,230.66666666666669,0)" xlink:href="#q"/></g><path fill="#333" d="M24-248c120-7 223 5 221 122C244-46 201 0 124 0H24v-248zM76-40c74 7 117-18 117-86 0-67-45-88-117-82v168" id="r"/><path fill="#333" d="M190-63c-7 42-38 67-86 67-59 0-84-38-90-98-12-110 154-137 174-36l-49 2c-2-19-15-32-35-32-30 0-35 28-38 64-6 74 65 87 74 30" id="s"/><path fill="#333" d="M135-194c87-1 58 113 63 194h-50c-7-57 23-157-34-157-59 0-34 97-39 157H25l-1-190h47c2 12-1 28 3 38 12-26 28-41 61-42" id="t"/><path fill="#333" d="M135-150c-39-12-60 13-60 57V0H25l-1-190h47c2 13-1 29 3 40 6-28 27-53 61-41v41" id="u"/><path fill="#333" d="M12 0v-35l95-120H19v-35h142v35L67-36h103V0H12" id="v"/><path fill="#333" d="M110-194c64 0 96 36 96 99 0 64-35 99-97 99-61 0-95-36-95-99 0-62 34-99 96-99zm-1 164c35 0 45-28 45-65 0-40-10-65-43-65-34 0-45 26-45 65 0 36 10 65 43 65" id="w"/><g id="b"><use transform="matrix(0.14814814814814817,0,0,0.14814814814814817,0,0)" xlink:href="#r"/><use transform="matrix(0.14814814814814817,0,0,0.14814814814814817,38.370370370370374,0)" xlink:href="#j"/><use transform="matrix(0.14814814814814817,0,0,0.14814814814814817,68,0)" xlink:href="#s"/><use transform="matrix(0.14814814814814817,0,0,0.14814814814814817,97.62962962962962,0)" xlink:href="#j"/><use transform="matrix(0.14814814814814817,0,0,0.14814814814814817,127.25925925925925,0)" xlink:href="#t"/><use transform="matrix(0.14814814814814817,0,0,0.14814814814814817,159.70370370370372,0)" xlink:href="#p"/><use transform="matrix(0.14814814814814817,0,0,0.14814814814814817,177.33333333333334,0)" xlink:href="#u"/><use transform="matrix(0.14814814814814817,0,0,0.14814814814814817,198.0740740740741,0)" xlink:href="#k"/><use transform="matrix(0.14814814814814817,0,0,0.14814814814814817,227.70370370370378,0)" xlink:href="#o"/><use transform="matrix(0.14814814814814817,0,0,0.14814814814814817,242.51851851851856,0)" xlink:href="#m"/><use transform="matrix(0.14814814814814817,0,0,0.14814814814814817,257.33333333333337,0)" xlink:href="#v"/><use transform="matrix(0.14814814814814817,0,0,0.14814814814814817,284.00000000000006,0)" xlink:href="#k"/><use transform="matrix(0.14814814814814817,0,0,0.14814814814814817,313.6296296296297,0)" xlink:href="#p"/><use transform="matrix(0.14814814814814817,0,0,0.14814814814814817,331.2592592592593,0)" xlink:href="#m"/><use transform="matrix(0.14814814814814817,0,0,0.14814814814814817,346.07407407407413,0)" xlink:href="#w"/><use transform="matrix(0.14814814814814817,0,0,0.14814814814814817,378.5185185185186,0)" xlink:href="#t"/></g><path fill="#333" d="M186 0v-106H76V0H24v-248h52v99h110v-99h50V0h-50" id="x"/><path fill="#333" d="M195-6C206 82 75 100 31 46c-4-6-6-13-8-21l49-6c3 16 16 24 34 25 40 0 42-37 40-79-11 22-30 35-61 35-53 0-70-43-70-97 0-56 18-96 73-97 30 0 46 14 59 34l2-30h47zm-90-29c32 0 41-27 41-63 0-35-9-62-40-62-32 0-39 29-40 63 0 36 9 62 39 62" id="y"/><path fill="#333" d="M114-157C55-157 80-60 75 0H25v-261h50l-1 109c12-26 28-41 61-42 86-1 58 113 63 194h-50c-7-57 23-157-34-157" id="z"/><g id="c"><use transform="matrix(0.1111111111111111,0,0,0.1111111111111111,0,0)" xlink:href="#x"/><use transform="matrix(0.1111111111111111,0,0,0.1111111111111111,28.777777777777775,0)" xlink:href="#m"/><use transform="matrix(0.1111111111111111,0,0,0.1111111111111111,39.888888888888886,0)" xlink:href="#y"/><use transform="matrix(0.1111111111111111,0,0,0.1111111111111111,64.22222222222221,0)" xlink:href="#z"/></g><path fill="#333" d="M24 0v-248h52v208h133V0H24" id="A"/><path fill="#333" d="M231 0h-52l-39-155L100 0H48L-1-190h46L77-45c9-52 24-97 36-145h53l37 145 32-145h46" id="B"/><g id="d"><use transform="matrix(0.1111111111111111,0,0,0.1111111111111111,0,0)" xlink:href="#A"/><use transform="matrix(0.1111111111111111,0,0,0.1111111111111111,24.333333333333332,0)" xlink:href="#w"/><use transform="matrix(0.1111111111111111,0,0,0.1111111111111111,48.666666666666664,0)" xlink:href="#B"/></g><path fill="#333" d="M848-827c4-216-138-398-348-398H204v1095h296c203 6 348-189 348-398v-299zm130 299C987-254 769 0 500 0H74v-1355h426c267-9 478 255 478 528v299" id="C"/><path fill="#333" d="M985-938c0 247-271 428-529 421H204V0H72v-1355h384c256-7 529 172 529 417zm-130 0c0-191-192-287-399-287H204v578h252c200 4 399-104 399-291" id="D"/><path fill="#333" d="M540-1249c-205 0-353 174-353 382v377c-5 208 148 382 353 382s353-174 353-382v-377c5-208-148-382-353-382zm0-130c272 0 483 251 483 528v345c8 277-211 528-483 528S57-229 57-506v-345c-8-277 211-528 483-528" id="E"/><g id="e"><use transform="matrix(0.09291521486643439,0,0,0.09291521486643439,0,0)" xlink:href="#C"/><use transform="matrix(0.09291521486643439,0,0,0.09291521486643439,101.92799070847853,0)" xlink:href="#D"/><use transform="matrix(0.09291521486643439,0,0,0.09291521486643439,200.418118466899,0)" xlink:href="#E"/></g><path fill="#333" d="M695-649l-152-510-156 510h308zM888 0L732-517H348L192 0H57l406-1355h160L1029 0H888" id="F"/><g id="f"><use transform="matrix(0.09291521486643439,0,0,0.09291521486643439,0,0)" xlink:href="#C"/><use transform="matrix(0.09291521486643439,0,0,0.09291521486643439,101.92799070847853,0)" xlink:href="#F"/><use transform="matrix(0.09291521486643439,0,0,0.09291521486643439,202.83391405342627,0)" xlink:href="#E"/></g><path fill="#333" d="M558-1225V0H428v-1225H21v-130h954v130H558" id="G"/><path fill="#333" d="M550-827c-191 0-346 159-346 349V0H72v-957h132v174c85-116 198-174 339-174h204v174c-69-29-134-44-197-44" id="H"/><path fill="#333" d="M497-108c108 0 303-51 303-143v-220c-2 23-338 19-365 38-104 20-200 82-200 182 0 95 87 143 262 143zm28-871c161 0 405 100 405 248v579c0 27 16 41 48 44-1 21-3 64-5 129-72-4-122-33-151-87-82 59-188 88-318 88C233 22 97-70 97-253c0-145 124-253 248-288 70-20 368-9 427-58 17-9 27-25 29-46-1 7-1-13-1-60 0-84-168-147-260-147-166 0-269 58-309 174l-126-27c31-178 203-274 420-274" id="I"/><path fill="#333" d="M-2-478c0-256 249-501 505-501 147 0 261 65 343 196v-572h132V0H846v-174C761-43 645 22 498 22 243 22-2-223-2-478zm843 0c0-191-151-371-338-371S128-665 128-478s183 370 370 370c188 0 343-180 343-370" id="J"/><path fill="#333" d="M240-1205c-40 0-79-36-79-76s39-76 79-76c41 0 78 35 78 76s-37 76-78 76zM47-957h257V0H174v-827H47v-130" id="K"/><path fill="#333" d="M406 0C279 4 176-105 176-232v-595H26v-130c75 0 120-17 137-51 9-17 13-69 13-155h130v206h241v130H306v595c0 70 49 105 146 105 18 0 78-3 95-3V0H406" id="L"/><path fill="#333" d="M881-477c0-189-160-372-351-372-189 0-348 181-348 372s160 369 348 369 351-180 351-369zm-829-1c0-256 220-501 478-501 257 0 481 246 481 502S785 22 530 22C276 22 52-223 52-478" id="M"/><path fill="#333" d="M545-849c-196 0-341 171-341 371V0H74v-957h130v174c77-131 190-196 341-196 285 0 449 200 449 493V0H862v-478c2-219-106-371-317-371" id="N"/><path fill="#333" d="M86-1355h132V0H86v-1355" id="O"/><g id="g"><use transform="matrix(0.04046535154274153,0,0,0.04046535154274153,0,0)" xlink:href="#G"/><use transform="matrix(0.04046535154274153,0,0,0.04046535154274153,42.89327263530602,0)" xlink:href="#H"/><use transform="matrix(0.04046535154274153,0,0,0.04046535154274153,74.33485078401618,0)" xlink:href="#I"/><use transform="matrix(0.04046535154274153,0,0,0.04046535154274153,117.47091552857866,0)" xlink:href="#J"/><use transform="matrix(0.04046535154274153,0,0,0.04046535154274153,162.50885179564997,0)" xlink:href="#K"/><use transform="matrix(0.04046535154274153,0,0,0.04046535154274153,178.6949924127466,0)" xlink:href="#L"/><use transform="matrix(0.04046535154274153,0,0,0.04046535154274153,203.45978755690442,0)" xlink:href="#K"/><use transform="matrix(0.04046535154274153,0,0,0.04046535154274153,219.64592817400103,0)" xlink:href="#M"/><use transform="matrix(0.04046535154274153,0,0,0.04046535154274153,265.1694486595852,0)" xlink:href="#N"/><use transform="matrix(0.04046535154274153,0,0,0.04046535154274153,310.3692463328275,0)" xlink:href="#I"/><use transform="matrix(0.04046535154274153,0,0,0.04046535154274153,353.50531107739,0)" xlink:href="#O"/></g><path fill="#333" d="M177-478c0 192 146 370 333 370s324-179 324-370c0-193-136-371-324-371-187 0-333 180-333 371zm332 742c191 3 334-157 330-347v-91C756-43 647 22 510 22 246 22 47-209 47-478c0-259 208-501 463-501 140 0 250 67 329 201v-179h130v888c6 260-201 463-461 463C272 394 95 221 61 14L188-7c30 151 149 268 321 271" id="P"/><path fill="#333" d="M223-130h657V0H68v-167l626-660H69v-130h811v133" id="Q"/><g id="h"><use transform="matrix(0.04046535154274153,0,0,0.04046535154274153,0,0)" xlink:href="#E"/><use transform="matrix(0.04046535154274153,0,0,0.04046535154274153,45.80677794638341,0)" xlink:href="#H"/><use transform="matrix(0.04046535154274153,0,0,0.04046535154274153,77.89580171977744,0)" xlink:href="#P"/><use transform="matrix(0.04046535154274153,0,0,0.04046535154274153,122.40768841679312,0)" xlink:href="#I"/><use transform="matrix(0.04046535154274153,0,0,0.04046535154274153,165.5437531613556,0)" xlink:href="#N"/><use transform="matrix(0.04046535154274153,0,0,0.04046535154274153,210.74355083459787,0)" xlink:href="#K"/><use transform="matrix(0.04046535154274153,0,0,0.04046535154274153,226.92969145169448,0)" xlink:href="#Q"/><use transform="matrix(0.04046535154274153,0,0,0.04046535154274153,267.39504299443604,0)" xlink:href="#I"/><use transform="matrix(0.04046535154274153,0,0,0.04046535154274153,308.58877086494687,0)" xlink:href="#L"/><use transform="matrix(0.04046535154274153,0,0,0.04046535154274153,333.3535660091047,0)" xlink:href="#K"/><use transform="matrix(0.04046535154274153,0,0,0.04046535154274153,349.53970662620134,0)" xlink:href="#M"/><use transform="matrix(0.04046535154274153,0,0,0.04046535154274153,395.0632271117855,0)" xlink:href="#N"/></g></defs></g></svg>