<svg id="Capa_1" enable-background="new 0 0 512 512" height="512" viewBox="0 0 512 512" width="512" xmlns="http://www.w3.org/2000/svg">
  <style type="text/css"><![CDATA[.viral{fill: #FF9E04;}]]></style>
<g class="viral">
<path d="m187.69 341.541c4.615-7.064 7.31-15.491 7.31-24.541 0-24.813-20.187-45-45-45s-45 20.187-45 45c0 9.049 2.694 17.477 7.31 24.541-22.647 12.611-37.31 36.637-37.31 65.459 0 8.284 6.716 15 15 15h120c8.284 0 15-6.716 15-15 0-28.822-14.663-52.848-37.31-65.459zm-52.69-24.541c0-8.271 6.729-15 15-15s15 6.729 15 15-6.729 15-15 15-15-6.729-15-15zm-27.819 75c5.626-18.219 21.68-30 42.819-30s37.192 11.781 42.819 30z"/><path d="m467 391c-8.742 0-16.904 2.514-23.818 6.846l-35.379-30.22c2.641-6.615 3.728-13.875 2.95-21.33l24.455-12.526c8.056 7.575 18.888 12.23 30.792 12.23 24.813 0 45-20.187 45-45s-20.187-45-45-45c-27.062 0-48.293 23.916-44.572 51.123l-23.605 12.091c-7.64-7.648-18.009-12.568-29.505-13.155l-26.711-93.085c10.839-7.53 18.217-19.692 19.254-33.6l67.986-18.02c8.112 11.851 21.738 19.646 37.153 19.646 24.813 0 45-20.187 45-45s-20.187-45-45-45c-23.585 0-42.977 18.242-44.84 41.355l-68.165 18.068c-3.997-5.764-9.299-10.558-15.483-13.938l7.402-47.376c20.558-4.148 36.086-22.347 36.086-44.109 0-24.813-20.187-45-45-45s-45 20.187-45 45c0 17.316 9.837 32.368 24.21 39.89l-7.321 46.856c-20.953 3.832-36.889 22.211-36.889 44.254 0 23.689 18.402 43.146 41.66 44.863l26.903 93.754c-7.941 5.786-13.919 14.102-16.747 23.755l-24.498 1.167c-14.13-93.697-111.873-151.907-201.524-117.781l-10.194-18.779c15.562-10.806 22.613-29.929 18.023-48.034l64.414-42.942c7.519 5.647 16.857 8.997 26.963 8.997 24.813 0 45-20.187 45-45s-20.187-45-45-45c-29.162 0-50.85 27.543-43.622 56.054l-64.414 42.942c-3.607-2.708-7.636-4.881-11.964-6.417v-36.159c17.459-6.192 30-22.865 30-42.42 0-24.813-20.187-45-45-45s-45 20.187-45 45c0 19.555 12.541 36.228 30 42.42v36.16c-17.459 6.192-30 22.865-30 42.42 0 23.364 17.899 42.62 40.704 44.79l13.25 24.409c-42.006 26.612-69.954 73.501-69.954 126.801 0 82.71 67.29 150 150 150 80.195 0 145.89-63.259 149.812-142.498l24.662-1.174c10.432 24.906 40.212 35.068 63.574 21.878l36.424 31.112c-10.123 29.237 11.755 59.682 42.528 59.682 24.813 0 45-20.187 45-45s-20.187-45-45-45zm-1-105c8.271 0 15 6.729 15 15s-6.729 15-15 15-15-6.729-15-15 6.729-15 15-15zm-270-225c8.271 0 15 6.729 15 15s-6.729 15-15 15-15-6.729-15-15 6.729-15 15-15zm-135-31c8.271 0 15 6.729 15 15s-6.729 15-15 15-15-6.729-15-15 6.729-15 15-15zm-15 136c0-8.271 6.729-15 15-15s15 6.729 15 15-6.729 15-15 15-15-6.729-15-15zm420-45c8.271 0 15 6.729 15 15s-6.729 15-15 15-15-6.729-15-15 6.729-15 15-15zm-130-91c8.271 0 15 6.729 15 15s-6.729 15-15 15-15-6.729-15-15 6.729-15 15-15zm-35 146c0-8.271 6.729-15 15-15s15 6.729 15 15-6.729 15-15 15-15-6.729-15-15zm-151 306c-66.168 0-120-53.832-120-120s53.832-120 120-120 120 53.832 120 120-53.832 120-120 120zm201-131c0-8.271 6.729-15 15-15s15 6.729 15 15-6.729 15-15 15-15-6.729-15-15zm116 100c-8.271 0-15-6.729-15-15s6.729-15 15-15 15 6.729 15 15-6.729 15-15 15z"/>
</g>
</svg>
