<svg xmlns="http://www.w3.org/2000/svg" viewBox="0 0 512 512" width="512" height="512"><g fill="#ff9e04"><path d="M112 440h288a96 96 0 000-192h-34.997A95.973 95.973 0 00312 72H192a95.946 95.946 0 00-72 159.423V232h.512a96.758 96.758 0 0018.485 16H112a96 96 0 000 192zm-40-96a79.48 79.48 0 0110.763-40h21.978a95.964 95.964 0 00-7.4 56H73.61A80.055 80.055 0 0172 344zm56.044-128a80.056 80.056 0 01-9.344-16h22.791a95.589 95.589 0 007.396 16zm30.656-16h22.791a95.589 95.589 0 007.396 16h-20.843a80.056 80.056 0 01-9.344-16zm-6.7-32a79.481 79.481 0 0110.763-40h21.978a95.964 95.964 0 00-7.4 56H153.61a80.055 80.055 0 01-1.61-16zm154.973 235.886a96.371 96.371 0 009-13.41 95.688 95.688 0 0028.766 32.07 78.867 78.867 0 01-37.766-18.66zm0-119.772a78.866 78.866 0 0137.81-18.667 95.793 95.793 0 00-28.804 32.085 96.362 96.362 0 00-9.006-13.418zM136.868 422.546A79.65 79.65 0 01104.055 408h16.457a96.783 96.783 0 0016.356 14.546zM144.055 408h16.457a96.783 96.783 0 0016.356 14.546A79.65 79.65 0 01144.055 408zm-16.011-16a80.054 80.054 0 01-9.344-16h22.791a95.589 95.589 0 007.396 16zm9.297-32H113.61a79.877 79.877 0 019.153-56h21.978a95.964 95.964 0 00-7.4 56zm16.733-72H134.94a79.906 79.906 0 0141.927-22.546A96.805 96.805 0 00154.074 288zm69.981-56H240v-.577a96.792 96.792 0 0016.868 15.123A79.648 79.648 0 01224.055 232zm-16.011-16a80.056 80.056 0 01-9.344-16h22.791a95.589 95.589 0 007.396 16zm9.297-32H193.61a79.877 79.877 0 019.153-56h21.978a95.964 95.964 0 00-7.4 56zm16.733-72H214.94a79.906 79.906 0 0141.927-22.546A96.804 96.804 0 00234.074 112zm-40 0H174.94a79.906 79.906 0 0141.927-22.546A96.804 96.804 0 00194.074 112zm6.438 120a96.786 96.786 0 0016.356 14.546A79.648 79.648 0 01184.055 232zm-63.644 33.454A96.805 96.805 0 00114.074 288H94.94a79.906 79.906 0 0141.927-22.546zM101.491 376a95.589 95.589 0 007.396 16H88.044a80.054 80.054 0 01-9.344-16zm-32.604 16H48.044a80.054 80.054 0 01-9.344-16h22.79a95.589 95.589 0 007.396 16zm-4.832 16h16.457a96.783 96.783 0 0016.356 14.546A79.65 79.65 0 0164.055 408zM152 344a80 80 0 1180 80 80.09 80.09 0 01-80-80zm328 0a80.006 80.006 0 01-155.618 26.142 96.245 96.245 0 00-.002-52.29A80.008 80.008 0 01480 344zm-88-176a80 80 0 11-80-80 80.09 80.09 0 0180 80zM176.868 89.454A96.804 96.804 0 00154.074 112H134.94a79.906 79.906 0 0141.927-22.546zM122.763 128h21.978a95.964 95.964 0 00-7.4 56H113.61a79.877 79.877 0 019.153-56zm37.749 104a96.786 96.786 0 0016.356 14.546A79.648 79.648 0 01144.055 232zm-63.644 33.454A96.805 96.805 0 0074.074 288H54.94a79.906 79.906 0 0141.927-22.546zM42.763 304H64.74a95.964 95.964 0 00-7.4 56H33.61a79.877 79.877 0 019.153-56z"/><path d="M254.163 195.433l14.452-6.866A47.559 47.559 0 01264 168h-16a63.438 63.438 0 006.163 27.433zM312 232a64 64 0 000-128v16a48 48 0 11-34.287 81.592l-11.427 11.199A63.523 63.523 0 00312 232zM184 344h-16a63.438 63.438 0 006.163 27.433l14.452-6.866A47.559 47.559 0 01184 344zm48-64v16a48 48 0 11-34.287 81.592l-11.427 11.199A64 64 0 10232 280zm110.163 91.433l14.452-6.866A47.559 47.559 0 01352 344h-16a63.438 63.438 0 006.163 27.433zM400 408a64 64 0 000-128v16a48 48 0 11-34.287 81.592l-11.427 11.199A63.523 63.523 0 00400 408z"/></g></svg>