<svg xmlns="http://www.w3.org/2000/svg" xmlns:xlink="http://www.w3.org/1999/xlink" xmlns:lucid="lucid" width="1240" height="680"><g transform="translate(-20 -20)" lucid:page-tab-id="0_0"><path d="M0 0h1870.87v1322.83H0z" fill="#fff"/><path d="M960 46c0-3.3 2.7-6 6-6h268c3.3 0 6 2.7 6 6v628c0 3.3-2.7 6-6 6H966c-3.3 0-6-2.7-6-6z" fill="#fff"/><path d="M1025.56 40h59.55m29.8 0h59.54m29.78 0H1234l3.03.82 2.15 2.15.82 3.03v29.9m0 29.9v59.82m0 29.9v59.8m0 29.92v59.8m0 29.9v59.82m0 29.9v59.82m0 29.9v59.8m0 29.92V674l-.82 3.03-2.15 2.15-3.03.82h-29.78m-29.78 0h-59.55m-29.8 0h-59.54m-29.78 0H966l-3.03-.82-2.15-2.15L960 674v-29.9m0-29.9v-59.82m0-29.9v-59.8m0-29.92v-59.8m0-29.9v-59.82m0-29.9V195.5m0-29.9v-59.8m0-29.92V46l.82-3.03 2.15-2.15L966 40h29.78" stroke="#fcc438" stroke-width="3" fill="none"/><path d="M70 316.34c0-3.32 2.7-6 6-6h128c3.3 0 6 2.68 6 6v48c0 3.3-2.7 6-6 6H76c-3.3 0-6-2.7-6-6z" stroke="#5e5e5e" stroke-width="3" fill="#fff"/><use xlink:href="#a" transform="translate(89.194 345.085)"/><use xlink:href="#b" transform="translate(134.194 345.085)"/><path d="M345.2 283.94c2.65-2 6.95-2 9.6 0l70.4 52.8c2.65 1.98 2.65 5.2 0 7.2l-70.4 52.8c-2.65 1.98-6.95 1.98-9.6 0l-70.4-52.8c-2.65-2-2.65-5.22 0-7.2z" stroke="#5e5e5e" stroke-width="3" fill="#fff"/><use xlink:href="#c" transform="translate(307.033 332.273)"/><use xlink:href="#d" transform="translate(379.644 332.273)"/><use xlink:href="#e" transform="translate(315.644 356.273)"/><path d="M212.5 340.34h40.4" stroke="#5e5e5e" stroke-width="2" fill="none"/><path d="M212.53 341.34h-1.03v-2h1.03z" fill="#5e5e5e"/><path d="M268.15 340.34l-14.26 4.63v-9.27z" stroke="#5e5e5e" stroke-width="2" fill="#5e5e5e"/><path d="M489.56 334.47l-.93 3.4-2.53 2.54-3.4.94h-53.1v-2h52.82l2.65-.72 1.77-1.77.72-2.65V271h2zM530 181.34h-35.3l-2.65.7-1.78 1.8-.7 2.63v63.2h-2V186.2l.9-3.4 2.54-2.54 3.42-.92H530z" fill="#5e5e5e"/><path d="M429.64 341.34h-1.1l.18-.4-.28-1.6h1.2zm115.62-161L531 184.97v-9.27z" fill="#5e5e5e"/><path d="M548.5 180.34l-18.5 6v-12.02zM532 183.6l10.03-3.26-10.03-3.26z" fill="#5e5e5e"/><use xlink:href="#f" transform="translate(477.721 263.89)"/><path d="M550 156.34c0-3.32 2.7-6 6-6h148c3.3 0 6 2.68 6 6v48c0 3.3-2.7 6-6 6H556c-3.3 0-6-2.7-6-6z" stroke="#5e5e5e" stroke-width="3" fill="#fff"/><use xlink:href="#a" transform="translate(579.194 185.085)"/><use xlink:href="#b" transform="translate(624.194 185.085)"/><path d="M60 376.34c0-3.32 2.7-6 6-6h148c3.3 0 6 2.68 6 6v48c0 3.3-2.7 6-6 6H66c-3.3 0-6-2.7-6-6zM490 506c0-3.3 2.7-6 6-6h258c3.3 0 6 2.7 6 6v104.67c0 3.3-2.7 6-6 6H496c-3.3 0-6-2.7-6-6z" fill="none"/><use xlink:href="#g" transform="translate(508.309 529.253)"/><use xlink:href="#h" transform="translate(584.802 529.253)"/><use xlink:href="#i" transform="translate(610.926 529.253)"/><use xlink:href="#j" transform="translate(678.679 529.253)"/><use xlink:href="#k" transform="translate(573.691 550.587)"/><use xlink:href="#l" transform="translate(639.321 550.587)"/><use xlink:href="#m" transform="translate(539.938 571.92)"/><use xlink:href="#n" transform="translate(579.889 571.92)"/><use xlink:href="#o" transform="translate(616.877 571.92)"/><use xlink:href="#p" transform="translate(511.074 593.253)"/><use xlink:href="#q" transform="translate(593.444 593.253)"/><use xlink:href="#r" transform="translate(630.432 593.253)"/><use xlink:href="#s" transform="translate(667.42 593.253)"/><use xlink:href="#t" transform="translate(685.691 593.253)"/><path d="M550 457c0-3.3 2.7-6 6-6h148c3.3 0 6 2.7 6 6v48c0 3.32-2.7 6-6 6H556c-3.3 0-6-2.68-6-6z" stroke="#5e5e5e" stroke-width="3" fill="#fff"/><use xlink:href="#u" transform="translate(584.194 485.756)"/><use xlink:href="#b" transform="translate(619.194 485.756)"/><path d="M489.56 474.87l.7 2.65 1.8 1.77 2.63.7H530v2h-35.58l-3.4-.92-2.54-2.53-.92-3.4v-53.8h2zm-3.46-134.6l2.53 2.52.93 3.4V400h-2v-53.53l-.72-2.64-1.77-1.78-2.65-.7h-52.8v-2h53.07z" fill="#5e5e5e"/><path d="M429.64 341.34h-1.1l.18-.4-.28-1.6h1.2zM545.26 481L531 485.65v-9.27z" fill="#5e5e5e"/><path d="M548.5 481l-18.5 6.02V475zm-16.5 3.26l10.03-3.25-10.03-3.25z" fill="#5e5e5e"/><use xlink:href="#v" transform="translate(475.77 414.226)"/><path d="M845 123.66c2.76-1.83 7.24-1.83 10 0L935 177c2.76 1.85 2.76 4.83 0 6.66L855 237c-2.76 1.85-7.24 1.85-10 0l-80-53.34c-2.76-1.83-2.76-4.8 0-6.65z" stroke="#5e5e5e" stroke-width="3" fill="#fff"/><use xlink:href="#w" transform="translate(798.227 172.273)"/><use xlink:href="#x" transform="translate(834.227 172.273)"/><use xlink:href="#y" transform="translate(812.45 196.273)"/><path d="M712.5 180.34h30.58" stroke="#5e5e5e" stroke-width="2" fill="none"/><path d="M712.53 181.34h-1.03v-2h1.03z" fill="#5e5e5e"/><path d="M758.35 180.34l-14.27 4.63v-9.27z" stroke="#5e5e5e" stroke-width="2" fill="#5e5e5e"/><path d="M989.46 243.87l.7 2.64 1.8 1.8 2.63.7h25.4v2h-25.67l-3.42-.92-2.52-2.53-.92-3.42v-18.3h2zm-3.45-63.6l2.54 2.52.92 3.4v18.3h-2v-18.03l-.72-2.64-1.77-1.78-2.64-.7h-42.9v-2h43.16z" fill="#5e5e5e"/><path d="M939.44 181.34h-.9l-.24-2h1.14zm95.82 68.66l-14.26 4.64v-9.28z" fill="#5e5e5e"/><path d="M1038.5 250l-18.5 6v-12zm-16.5 3.26l10.03-3.26-10.03-3.26z" fill="#5e5e5e"/><use xlink:href="#f" transform="translate(977.625 218.723)"/><path d="M1040 226c0-3.3 2.7-6 6-6h148c3.3 0 6 2.7 6 6v48c0 3.3-2.7 6-6 6h-148c-3.3 0-6-2.7-6-6z" stroke="#5e5e5e" stroke-width="3" fill="#fff"/><use xlink:href="#a" transform="translate(1069.194 254.75)"/><use xlink:href="#b" transform="translate(1114.194 254.75)"/><path d="M989.46 174.47l-.92 3.4-2.53 2.54-3.4.94H939.4v-2h42.9l2.65-.72 1.77-1.77.72-2.65v-28.37h2zM1020 91h-25.4l-2.65.7-1.78 1.8-.7 2.63v28.37h-2V95.87l.9-3.42 2.54-2.53 3.43-.92H1020z" fill="#5e5e5e"/><path d="M939.44 181.34h-.9l-.24-2h1.14zM1035.26 90L1021 94.64v-9.28z" fill="#5e5e5e"/><path d="M1038.5 90l-18.5 6V84zm-16.5 3.26l10.03-3.26-10.03-3.26z" fill="#5e5e5e"/><use xlink:href="#v" transform="translate(975.674 138.723)"/><path d="M1040 66c0-3.3 2.7-6 6-6h148c3.3 0 6 2.7 6 6v48c0 3.3-2.7 6-6 6h-148c-3.3 0-6-2.7-6-6z" stroke="#5e5e5e" stroke-width="3" fill="#fff"/><use xlink:href="#z" transform="translate(1074.194 94.75)"/><use xlink:href="#b" transform="translate(1109.194 94.75)"/><path d="M845 424.33c2.76-1.83 7.24-1.83 10 0l80 53.35c2.76 1.84 2.76 4.82 0 6.65l-80 53.35c-2.76 1.84-7.24 1.84-10 0l-80-53.35c-2.76-1.83-2.76-4.8 0-6.65z" stroke="#5e5e5e" stroke-width="3" fill="#fff"/><use xlink:href="#w" transform="translate(798.227 472.943)"/><use xlink:href="#x" transform="translate(834.227 472.943)"/><use xlink:href="#y" transform="translate(812.45 496.943)"/><path d="M712.5 481h30.58" stroke="#5e5e5e" stroke-width="2" fill="none"/><path d="M712.53 482h-1.03v-2h1.03z" fill="#5e5e5e"/><path d="M758.35 481l-14.27 4.64v-9.27z" stroke="#5e5e5e" stroke-width="2" fill="#5e5e5e"/><path d="M960 646c0-3.3 2.7-6 6-6h268c3.3 0 6 2.7 6 6v28c0 3.3-2.7 6-6 6H966c-3.3 0-6-2.7-6-6z" fill="none"/><use xlink:href="#A" transform="translate(1008.148 664.653)"/><use xlink:href="#A" transform="translate(1013.704 664.653)"/><use xlink:href="#B" transform="translate(1135.062 664.653)"/><path d="M40 366c0-3.3 2.7-6 6-6h188c3.3 0 6 2.7 6 6v70c0 3.3-2.7 6-6 6H46c-3.3 0-6-2.7-6-6z" fill="none"/><use xlink:href="#C" transform="translate(72.889 394.972)"/><use xlink:href="#D" transform="translate(143.407 394.972)"/><use xlink:href="#E" transform="translate(193.284 394.972)"/><use xlink:href="#F" transform="translate(72.025 416.306)"/><use xlink:href="#G" transform="translate(136.568 416.306)"/><use xlink:href="#H" transform="translate(155.778 416.306)"/><path d="M530 216.34c0-3.32 2.7-6 6-6h198c3.3 0 6 2.68 6 6V236c0 3.3-2.7 6-6 6H536c-3.3 0-6-2.7-6-6z" fill="none"/><use xlink:href="#I" transform="translate(565.74 230.933)"/><use xlink:href="#J" transform="translate(611.617 230.933)"/><path d="M1000 126c0-3.3 2.7-6 6-6h208c3.3 0 6 2.7 6 6v70c0 3.3-2.7 6-6 6h-208c-3.3 0-6-2.7-6-6z" fill="none"/><use xlink:href="#K" transform="translate(1045.185 143.722)"/><use xlink:href="#L" transform="translate(1082.173 143.722)"/><use xlink:href="#M" transform="translate(1033.852 165.056)"/><use xlink:href="#r" transform="translate(1070.84 165.056)"/><use xlink:href="#s" transform="translate(1107.827 165.056)"/><use xlink:href="#N" transform="translate(1126.099 165.056)"/><use xlink:href="#O" transform="translate(1080.543 186.389)"/><path d="M1040 546c0-3.3 2.7-6 6-6h148c3.3 0 6 2.7 6 6v48c0 3.3-2.7 6-6 6h-148c-3.3 0-6-2.7-6-6z" stroke="#5e5e5e" stroke-width="3" fill="#fff"/><use xlink:href="#u" transform="translate(1074.194 574.75)"/><use xlink:href="#b" transform="translate(1109.194 574.75)"/><path d="M1040 366c0-3.3 2.7-6 6-6h148c3.3 0 6 2.7 6 6v48c0 3.3-2.7 6-6 6h-148c-3.3 0-6-2.7-6-6z" stroke="#5e5e5e" stroke-width="3" fill="#fff"/><use xlink:href="#P" transform="translate(1079.194 394.75)"/><use xlink:href="#b" transform="translate(1104.194 394.75)"/><path d="M1000 426c0-3.3 2.7-6 6-6h208c3.3 0 6 2.7 6 6v70c0 3.3-2.7 6-6 6h-208c-3.3 0-6-2.7-6-6z" fill="none"/><use xlink:href="#K" transform="translate(1045.185 443.722)"/><use xlink:href="#L" transform="translate(1082.173 443.722)"/><use xlink:href="#M" transform="translate(1033.852 465.056)"/><use xlink:href="#r" transform="translate(1070.84 465.056)"/><use xlink:href="#s" transform="translate(1107.827 465.056)"/><use xlink:href="#N" transform="translate(1126.099 465.056)"/><use xlink:href="#O" transform="translate(1080.543 486.389)"/><path d="M989.46 475.14l-.92 3.4-2.53 2.54-3.4.93H939.4v-2h42.9l2.65-.7 1.77-1.78.72-2.65v-28.7h2zM1020 391h-25.4l-2.65.7-1.78 1.8-.7 2.63v28.7h-2v-28.96l.9-3.42 2.54-2.53 3.43-.92H1020z" fill="#5e5e5e"/><path d="M939.44 482h-.9l-.24-2h1.14zm95.82-92l-14.26 4.64v-9.28z" fill="#5e5e5e"/><path d="M1038.5 390l-18.5 6v-12zm-16.5 3.26l10.03-3.26-10.03-3.26z" fill="#5e5e5e"/><use xlink:href="#v" transform="translate(975.669 439.058)"/><path d="M989.46 563.87l.7 2.64 1.8 1.8 2.63.7h25.4v2h-25.67l-3.42-.92-2.52-2.53-.92-3.42v-27.96h2zM986 480.93l2.54 2.53.92 3.4v27.98h-2v-27.7l-.72-2.64-1.77-1.78-2.64-.7h-42.9v-2h43.16z" fill="#5e5e5e"/><path d="M939.44 482h-.9l-.24-2h1.14zm95.82 88l-14.26 4.64v-9.28z" fill="#5e5e5e"/><path d="M1038.5 570l-18.5 6v-12zm-16.5 3.26l10.03-3.26-10.03-3.26z" fill="#5e5e5e"/><use xlink:href="#f" transform="translate(977.62 529.058)"/><path d="M1005 286.34c0-3.32 2.7-6 6-6h198c3.3 0 6 2.68 6 6V306c0 3.3-2.7 6-6 6h-198c-3.3 0-6-2.7-6-6z" fill="none"/><use xlink:href="#I" transform="translate(1040.74 300.933)"/><use xlink:href="#J" transform="translate(1086.617 300.933)"/><path d="M1015 606c0-3.3 2.7-6 6-6h198c3.3 0 6 2.7 6 6v19.66c0 3.32-2.7 6-6 6h-198c-3.3 0-6-2.68-6-6z" fill="none"/><use xlink:href="#I" transform="translate(1050.74 620.597)"/><use xlink:href="#J" transform="translate(1096.617 620.597)"/><defs><path fill="#333" d="M110-14l48 5v9H32v-9l48-5v-192l-48 17v-10l69-39h9v224" id="Q"/><path fill="#333" d="M90-239c59 0 76 52 76 120S152 4 89 4C31 4 14-51 14-119c0-67 17-120 76-120zM89-10c45-6 45-58 45-109 0-50 0-101-45-106-45 4-43 57-43 106 0 50-2 104 43 109" id="R"/><path fill="#333" d="M75-131c50 2 93 3 93-48 0-46-48-41-93-41v89zm0 115c55 4 111 6 111-51 0-53-58-48-111-48v99zm148-52C223 24 102-3 10 0v-9l31-5v-208l-31-4v-10c77 6 193-24 194 56 0 33-20 48-48 54 36 5 67 20 67 58" id="S"/><path fill="#333" d="M130-224c-62 0-78 43-78 106 0 64 16 108 78 108s78-45 78-108-16-106-78-106zm0 228C53 4 15-39 15-118c-1-80 37-120 115-120s115 42 115 120C245-39 207 4 130 4" id="T"/><path fill="#333" d="M111-226l-36 4v207c33-1 73 2 101-4l11-49h11l-3 68H10v-9l31-5v-208l-31-4v-10h101v10" id="U"/><path fill="#333" d="M55 0v-9l38-5v-207c-22 1-53 0-70 4l-5 37H7v-56h207v56h-12l-5-37-70-3v206l37 5v9H55" id="V"/><path fill="#333" d="M41-130c7 48 86 23 86 84 0 56-69 57-112 41v-40c20 0 9 29 31 31 35 19 77-26 41-50-27-18-72-13-72-59 0-50 58-52 100-41v36c-19 1-8-25-28-25-21-7-50-1-46 23" id="W"/><path fill="#333" d="M152 0h-7L59-203v189l32 5v9H10v-9l31-5v-208l-31-4v-10h72l76 180 84-180h68v10l-31 4v208l31 5v9h-96v-9l32-5v-189" id="X"/><path fill="#333" d="M84-170c49 0 66 33 63 87H46c-8 60 38 80 95 63v10C128-2 108 4 88 4 34 4 14-29 14-84c-1-54 22-86 70-86zm33 73c12-57-57-82-69-24-1 7-2 15-2 24h71" id="Y"/><path fill="#333" d="M126-118c4-37-42-32-68-25v131l24 4v8H8C5-13 21-9 28-12v-141c-7-3-23 1-20-12h48l1 13c22-15 77-30 92 2 32-22 104-36 104 29v109c8 3 24-2 21 12h-75v-8l25-4v-106c3-39-45-31-72-24 7 37 1 88 3 130l25 4v8h-78v-8l24-4v-106" id="Z"/><path fill="#333" d="M53-14c58 12 82-15 82-73 0-52-35-77-82-58v131zM89 4C64 4 42-2 24-9v-229l-24-4v-8h53l-1 94c48-33 114-4 114 69 0 57-23 91-77 91" id="aa"/><path fill="#333" d="M57-145c16-10 35-24 60-25v45c-19 1-8-30-40-17l-20 6v124l29 4v8H7v-8l21-4v-141c-8-3-24 2-21-12h48" id="ab"/><path fill="#333" d="M47-200c-23 0-25-39 0-38 13 0 18 7 20 19-1 11-8 19-20 19zM65-12l28 4v8H8v-8l28-4v-141l-24-4v-8h53v153" id="ac"/><path fill="#333" d="M75-17c87 13 134-18 134-103 0-78-51-106-134-100v203zm171-102C246 5 139 7 10 0v-9l31-5v-208l-31-4v-10h107c82 0 129 35 129 117" id="ad"/><path fill="#333" d="M75-108c48 3 76-12 76-58s-28-57-76-54v112zm111-58c-1 60-46 78-111 74v78l37 5v9H13v-9l28-5v-208l-31-4v-10c81 1 178-14 176 70" id="ae"/><path fill="#333" d="M-3 46V28h186v18H-3" id="af"/><path fill="#333" d="M19-231c61-19 146-3 123 76-8 29-32 42-62 48l-3 45H63l-4-58c33-4 57-15 54-56 6-47-42-58-77-39l-6 29H19v-45zM72-37c14 0 21 9 21 21S84 5 72 5 50-2 51-16c0-13 8-21 21-21" id="ag"/><path fill="#333" d="M203-218l-32-5v-13h84v13l-30 5V0h-21L59-189v171l32 5V0H7v-13l30-5v-200l-30-5v-13h81L203-85v-133" id="ah"/><path fill="#333" d="M90-170c54-1 76 32 76 87 1 56-23 87-77 87-53 0-75-32-75-87s23-86 76-87zM89-14c28-2 26-38 26-69s3-69-26-69c-27 0-24 39-24 69s-3 66 24 69" id="ai"/><path fill="#333" d="M81-9v9H4v-9l26-5 81-224h33l83 224 30 5v9h-99v-9l31-5-23-68H73L49-14zm38-203L78-98h82" id="aj"/><path fill="#333" d="M124-13C89 8 26 15 26-45v-108c-8-3-24 2-21-12h50v118c-3 37 42 32 69 25v-131l-25-4v-8h54v153c8 3 24-2 21 12h-48" id="ak"/><path fill="#333" d="M125-118c4-37-41-34-68-26v132l23 4v8H8C5-13 21-9 28-12v-141c-7-3-23 1-20-12h47l2 13c31-23 98-29 98 31v109c7 3 23-1 20 12h-72v-8l22-4v-106" id="al"/><path fill="#333" d="M141-152c28 39 5 97-54 97-9 0-20-2-27-3L49-35c29 22 130-14 124 52-4 45-38 57-88 61C21 83-8 26 45-2 33-6 22-15 21-31l28-31c-19-9-28-26-28-51-2-51 53-65 100-52l38-20 7 8zM85 64c35 0 61-11 61-42 0-35-57-17-89-21-9 8-16 19-17 34 0 25 19 29 45 29zM52-113c1 26 7 46 35 44 28-1 34-16 35-44 0-26-6-43-34-43s-36 17-36 43" id="am"/><path fill="#333" d="M54-38c-1 25 24 26 44 20v12C71 10 25 9 25-35v-115H4c-2-14 14-10 21-15l18-38h11v38h38v15H54v112" id="an"/><path fill="#333" d="M126-119c3-38-42-31-69-25v132l23 4v8H7v-8l21-4v-226l-24-4v-8h53l-1 98c31-22 99-31 99 31v109c7 3 23-1 20 12h-71v-8l22-4v-107" id="ao"/><path fill="#333" d="M15-236h35l-11 85H26" id="ap"/><path fill="#333" d="M32-163c41-10 102-14 102 39v112c8 3 24-2 21 12h-45l-4-17C83 13 3 13 13-46c-2-50 45-50 92-51 4-36-5-70-42-56-6 2-12 4-16 6-4 7 0 23-15 20v-36zM42-47c0 41 41 33 63 22v-59c-34 1-63-1-63 37" id="aq"/><path fill="#333" d="M45-84c0 64 52 80 104 63 1 25-30 25-55 25-56 0-80-32-80-88 0-76 62-98 131-80v46h-10c-5-15-4-31-23-35-47-10-67 21-67 69" id="ar"/><path fill="#333" d="M90-170c52 0 76 32 76 87 0 54-24 87-77 87-51 0-75-34-75-87 0-54 24-87 76-87zM89-10c39 0 46-35 46-73 0-39-7-73-46-73-39 1-44 34-44 73s6 72 44 73" id="as"/><path fill="#333" d="M77 4H58l167-243h19zm-7-243c39 0 57 24 57 64 0 41-16 65-58 65-41 0-57-24-57-65s17-64 58-64zm-1 117c26 0 30-24 30-53 0-28-3-51-30-51s-29 24-29 51c0 28 2 53 29 53zm162-3c39 0 57 24 57 64 0 42-17 66-58 66-40 0-57-25-57-66s17-64 58-64zM230-8c26 0 30-24 30-53 0-28-3-51-30-51s-29 24-29 51c0 28 3 53 29 53" id="at"/><path fill="#333" d="M45-37c13 0 21 8 21 21C67-2 57 4 45 5 33 4 23-2 24-16c0-13 8-21 21-21" id="au"/><path fill="#333" d="M65-12l28 4v8H7v-8l28-4v-226l-28-4v-8h58v238" id="av"/><path fill="#333" d="M161-154L85 37C75 66 49 86 8 75V39c18-2 6 24 29 21 30-4 38-32 47-58L21-153c-7-3-20 0-17-12h77v8l-26 4 45 116 43-116-26-4v-8h62v8" id="aw"/><path fill="#333" d="M13-81c0-71 46-101 114-85l-1-72-28-4v-8h57v238c8 3 24-2 21 12h-47l-2-12C80 23 13-1 13-81zm77-74c-37 1-44 33-45 74 0 38 9 66 45 66 14 0 27-3 36-7v-130c-10-1-24-3-36-3" id="ax"/><path fill="#333" d="M199-173c-1 36-21 56-49 65l64 94 26 5v9h-57l-66-103H75v89l35 5v9H13v-9l28-5v-208l-31-4v-10c80 4 190-20 189 63zM75-119c50 2 89-1 89-51 0-49-39-52-89-50v101" id="ay"/><path fill="#333" d="M133-108C87-80 6-93 12-164c4-49 26-74 76-74 64 1 77 52 77 120C165-26 111 22 21-2v-41h11C28-1 99-4 114-33c10-20 17-43 19-75zm0-12c-3-48 0-104-45-104-34 0-44 25-44 61 0 32 10 52 43 52 17 0 33-4 46-9" id="az"/><path fill="#333" d="M160-93v75l38 5V0H67v-13l38-5v-74L33-218l-27-5v-13h122v13l-32 5 54 98 52-98-29-5v-13h80v13l-25 5" id="aA"/><path fill="#333" d="M12-83c0-55 22-85 75-86 52-1 66 33 63 88H64c-1 37 6 64 44 63 14 0 28-4 39-6 3 28-28 25-55 27-57 4-80-31-80-86zm90-17c2-26 0-63-27-48-10 9-11 28-11 48h38" id="aB"/><path fill="#333" d="M102-142c-14-17-68-15-54 18 24 26 83 17 83 72 0 62-72 62-120 47v-45h12c4 23 16 37 43 37 35 0 39-37 9-46-31-9-65-19-64-61 0-52 59-55 108-45v43h-11" id="aC"/><path fill="#333" d="M10 0v-9l31-5v-208l-31-4v-10h95v10l-30 4v93h110v-93l-30-4v-10h94v10l-30 4v208l30 5v9h-94v-9l30-5v-99H75v99l30 5v9H10" id="aD"/><path fill="#333" d="M10-9l31-5v-208l-31-4v-10h177v57h-11l-6-38c-28-4-63-3-95-3v92h63l6-28h11v73h-11l-6-29H75v96l105-3 10-43h12l-3 62H10v-9" id="aE"/><path fill="#333" d="M156-12c7 3 23-1 20 12h-75v-8l22-4-38-58-45 58 23 4v8H3v-8l19-3 55-71-48-71c-7-3-23 1-20-12h75v8l-22 4 32 48 37-48-23-4v-8h59v8l-19 3-46 60" id="aF"/><path fill="#333" d="M103-236c-39-15-35 32-34 71h44v15H69v136l35 6v8H15v-8l25-6v-136H11v-9l29-7c-6-59 23-100 80-84v36c-15 2-12-14-17-22" id="aG"/><path fill="#333" d="M35-180H24v-56h146v14L65 0H42l103-209H41" id="aH"/><path fill="#333" d="M104-123c39 3 61 21 62 59C167 7 83 12 19-4l-2-50h12c2 29 16 43 51 43 38 0 54-19 54-55 2-43-34-49-75-50v-14c37 0 64-7 64-48 0-47-47-56-81-36l-6 29H24v-46c51-13 135-13 131 51-2 34-20 52-51 57" id="aI"/><g id="a"><use transform="scale(.05556)" xlink:href="#Q"/><use transform="translate(10) scale(.05556)" xlink:href="#R"/><use transform="translate(20) scale(.05556)" xlink:href="#R"/><use transform="translate(30) scale(.05556)" xlink:href="#R"/></g><g id="b"><use transform="scale(.05556)" xlink:href="#S"/><use transform="translate(13.333) scale(.05556)" xlink:href="#T"/><use transform="translate(27.722) scale(.05556)" xlink:href="#U"/><use transform="translate(38.056) scale(.05556)" xlink:href="#V"/><use transform="translate(48.833) scale(.05556)" xlink:href="#W"/></g><g id="c"><use transform="scale(.05556)" xlink:href="#X"/><use transform="translate(17.778) scale(.05556)" xlink:href="#Y"/><use transform="translate(26.611) scale(.05556)" xlink:href="#Z"/><use transform="translate(42.167) scale(.05556)" xlink:href="#aa"/><use transform="translate(52.167) scale(.05556)" xlink:href="#Y"/><use transform="translate(61) scale(.05556)" xlink:href="#ab"/></g><g id="d"><use transform="scale(.05556)" xlink:href="#ac"/><use transform="translate(5.556) scale(.05556)" xlink:href="#W"/></g><g id="e"><use transform="scale(.05556)" xlink:href="#ad"/><use transform="translate(14.389) scale(.05556)" xlink:href="#ae"/><use transform="translate(25.5) scale(.05556)" xlink:href="#T"/><use transform="translate(39.889) scale(.05556)" xlink:href="#af"/><use transform="translate(49.889) scale(.05556)" xlink:href="#aa"/><use transform="translate(59.889) scale(.05556)" xlink:href="#ag"/></g><g id="f"><use transform="scale(.04938)" xlink:href="#ah"/><use transform="translate(12.79) scale(.04938)" xlink:href="#ai"/></g><g id="g"><use transform="scale(.04938)" xlink:href="#aj"/><use transform="translate(12.79) scale(.04938)" xlink:href="#W"/><use transform="translate(19.704) scale(.04938)" xlink:href="#W"/><use transform="translate(26.617) scale(.04938)" xlink:href="#ak"/><use transform="translate(35.506) scale(.04938)" xlink:href="#Z"/><use transform="translate(49.333) scale(.04938)" xlink:href="#ac"/><use transform="translate(54.272) scale(.04938)" xlink:href="#al"/><use transform="translate(63.16) scale(.04938)" xlink:href="#am"/></g><g id="h"><use transform="scale(.04938)" xlink:href="#an"/><use transform="translate(4.938) scale(.04938)" xlink:href="#ao"/><use transform="translate(13.827) scale(.04938)" xlink:href="#Y"/></g><g id="i"><use transform="scale(.04938)" xlink:href="#ad"/><use transform="translate(12.79) scale(.04938)" xlink:href="#ae"/><use transform="translate(22.667) scale(.04938)" xlink:href="#T"/><use transform="translate(35.457) scale(.04938)" xlink:href="#af"/><use transform="translate(44.346) scale(.04938)" xlink:href="#aa"/><use transform="translate(53.235) scale(.04938)" xlink:href="#ap"/><use transform="translate(56.395) scale(.04938)" xlink:href="#W"/></g><g id="j"><use transform="scale(.04938)" xlink:href="#X"/><use transform="translate(15.802) scale(.04938)" xlink:href="#aq"/><use transform="translate(23.654) scale(.04938)" xlink:href="#al"/><use transform="translate(32.543) scale(.04938)" xlink:href="#aq"/><use transform="translate(40.395) scale(.04938)" xlink:href="#am"/><use transform="translate(49.284) scale(.04938)" xlink:href="#Y"/><use transform="translate(57.136) scale(.04938)" xlink:href="#ab"/></g><g id="k"><use transform="scale(.04938)" xlink:href="#ar"/><use transform="translate(7.852) scale(.04938)" xlink:href="#as"/><use transform="translate(16.74) scale(.04938)" xlink:href="#Z"/><use transform="translate(30.568) scale(.04938)" xlink:href="#Z"/><use transform="translate(44.395) scale(.04938)" xlink:href="#ac"/><use transform="translate(49.333) scale(.04938)" xlink:href="#an"/><use transform="translate(54.272) scale(.04938)" xlink:href="#W"/></g><g id="l"><use transform="scale(.04938)" xlink:href="#Q"/><use transform="translate(8.889) scale(.04938)" xlink:href="#R"/><use transform="translate(17.778) scale(.04938)" xlink:href="#at"/><use transform="translate(32.543) scale(.04938)" xlink:href="#au"/></g><g id="m"><use transform="scale(.04938)" xlink:href="#T"/><use transform="translate(12.79) scale(.04938)" xlink:href="#al"/><use transform="translate(21.679) scale(.04938)" xlink:href="#av"/><use transform="translate(26.617) scale(.04938)" xlink:href="#aw"/></g><g id="n"><use transform="scale(.04938)" xlink:href="#Q"/><use transform="translate(8.889) scale(.04938)" xlink:href="#R"/><use transform="translate(17.778) scale(.04938)" xlink:href="#at"/></g><g id="o"><use transform="scale(.04938)" xlink:href="#ax"/><use transform="translate(8.889) scale(.04938)" xlink:href="#ac"/><use transform="translate(13.827) scale(.04938)" xlink:href="#W"/><use transform="translate(20.74) scale(.04938)" xlink:href="#an"/><use transform="translate(25.679) scale(.04938)" xlink:href="#ab"/><use transform="translate(31.556) scale(.04938)" xlink:href="#ac"/><use transform="translate(36.494) scale(.04938)" xlink:href="#aa"/><use transform="translate(45.383) scale(.04938)" xlink:href="#ak"/><use transform="translate(54.272) scale(.04938)" xlink:href="#an"/><use transform="translate(59.21) scale(.04938)" xlink:href="#aq"/><use transform="translate(67.062) scale(.04938)" xlink:href="#aa"/><use transform="translate(75.95) scale(.04938)" xlink:href="#av"/><use transform="translate(80.889) scale(.04938)" xlink:href="#Y"/><use transform="translate(88.74) scale(.04938)" xlink:href="#au"/></g><g id="p"><use transform="scale(.04938)" xlink:href="#ay"/><use transform="translate(11.852) scale(.04938)" xlink:href="#Y"/><use transform="translate(19.704) scale(.04938)" xlink:href="#Z"/><use transform="translate(33.53) scale(.04938)" xlink:href="#aq"/><use transform="translate(41.383) scale(.04938)" xlink:href="#ac"/><use transform="translate(46.321) scale(.04938)" xlink:href="#al"/><use transform="translate(55.21) scale(.04938)" xlink:href="#ac"/><use transform="translate(60.148) scale(.04938)" xlink:href="#al"/><use transform="translate(69.037) scale(.04938)" xlink:href="#am"/></g><g id="q"><use transform="scale(.04938)" xlink:href="#az"/><use transform="translate(8.889) scale(.04938)" xlink:href="#R"/><use transform="translate(17.778) scale(.04938)" xlink:href="#at"/></g><g id="r"><use transform="scale(.04938)" xlink:href="#am"/><use transform="translate(8.889) scale(.04938)" xlink:href="#as"/><use transform="translate(17.778) scale(.04938)" xlink:href="#Y"/><use transform="translate(25.63) scale(.04938)" xlink:href="#W"/></g><g id="s"><use transform="scale(.04938)" xlink:href="#an"/><use transform="translate(4.938) scale(.04938)" xlink:href="#as"/></g><g id="t"><use transform="scale(.04938)" xlink:href="#ad"/><use transform="translate(12.79) scale(.04938)" xlink:href="#ae"/><use transform="translate(22.667) scale(.04938)" xlink:href="#T"/><use transform="translate(35.457) scale(.04938)" xlink:href="#af"/><use transform="translate(44.346) scale(.04938)" xlink:href="#aa"/></g><g id="u"><use transform="scale(.05556)" xlink:href="#Q"/><use transform="translate(10) scale(.05556)" xlink:href="#R"/><use transform="translate(20) scale(.05556)" xlink:href="#R"/></g><g id="v"><use transform="scale(.04938)" xlink:href="#aA"/><use transform="translate(10.815) scale(.04938)" xlink:href="#aB"/><use transform="translate(18.667) scale(.04938)" xlink:href="#aC"/></g><g id="w"><use transform="scale(.05556)" xlink:href="#aD"/><use transform="translate(14.389) scale(.05556)" xlink:href="#aq"/><use transform="translate(23.222) scale(.05556)" xlink:href="#W"/></g><g id="x"><use transform="scale(.05556)" xlink:href="#aE"/><use transform="translate(12.167) scale(.05556)" xlink:href="#aF"/><use transform="translate(22.167) scale(.05556)" xlink:href="#an"/><use transform="translate(27.722) scale(.05556)" xlink:href="#Y"/><use transform="translate(36.556) scale(.05556)" xlink:href="#ab"/><use transform="translate(43.167) scale(.05556)" xlink:href="#al"/><use transform="translate(53.167) scale(.05556)" xlink:href="#aq"/><use transform="translate(62) scale(.05556)" xlink:href="#av"/></g><g id="y"><use transform="scale(.05556)" xlink:href="#ay"/><use transform="translate(13.333) scale(.05556)" xlink:href="#Y"/><use transform="translate(22.167) scale(.05556)" xlink:href="#aG"/><use transform="translate(28.778) scale(.05556)" xlink:href="#Y"/><use transform="translate(37.611) scale(.05556)" xlink:href="#ab"/><use transform="translate(44.222) scale(.05556)" xlink:href="#ab"/><use transform="translate(50.833) scale(.05556)" xlink:href="#Y"/><use transform="translate(59.667) scale(.05556)" xlink:href="#ab"/><use transform="translate(66.278) scale(.05556)" xlink:href="#ag"/></g><g id="z"><use transform="scale(.05556)" xlink:href="#aH"/><use transform="translate(10) scale(.05556)" xlink:href="#R"/><use transform="translate(20) scale(.05556)" xlink:href="#R"/></g><g id="A"><use transform="rotate(.413) scale(.06173)" xlink:href="#ad"/><use transform="translate(15.988) scale(.06173)" xlink:href="#ac"/><use transform="translate(22.16) scale(.06173)" xlink:href="#W"/><use transform="translate(30.802) scale(.06173)" xlink:href="#an"/><use transform="translate(36.975) scale(.06173)" xlink:href="#ab"/><use transform="translate(44.321) scale(.06173)" xlink:href="#ac"/><use transform="translate(50.494) scale(.06173)" xlink:href="#aa"/><use transform="translate(61.605) scale(.06173)" xlink:href="#ak"/><use transform="translate(72.716) scale(.06173)" xlink:href="#an"/><use transform="translate(78.889) scale(.06173)" xlink:href="#aq"/><use transform="translate(88.704) scale(.06173)" xlink:href="#aa"/><use transform="translate(99.815) scale(.06173)" xlink:href="#av"/><use transform="translate(105.988) scale(.06173)" xlink:href="#Y"/></g><g id="B"><use transform="rotate(.413) scale(.06173)" xlink:href="#S"/><use transform="translate(14.815) scale(.06173)" xlink:href="#as"/><use transform="translate(25.926) scale(.06173)" xlink:href="#al"/><use transform="translate(37.037) scale(.06173)" xlink:href="#ak"/><use transform="translate(48.148) scale(.06173)" xlink:href="#W"/></g><g id="C"><use transform="scale(.04938)" xlink:href="#aj"/><use transform="translate(12.79) scale(.04938)" xlink:href="#W"/><use transform="translate(19.704) scale(.04938)" xlink:href="#W"/><use transform="translate(26.617) scale(.04938)" xlink:href="#ac"/><use transform="translate(31.556) scale(.04938)" xlink:href="#am"/><use transform="translate(40.444) scale(.04938)" xlink:href="#al"/><use transform="translate(49.333) scale(.04938)" xlink:href="#Y"/><use transform="translate(57.185) scale(.04938)" xlink:href="#ax"/></g><g id="D"><use transform="scale(.04938)" xlink:href="#S"/><use transform="translate(11.852) scale(.04938)" xlink:href="#as"/><use transform="translate(20.74) scale(.04938)" xlink:href="#al"/><use transform="translate(29.63) scale(.04938)" xlink:href="#ak"/><use transform="translate(38.519) scale(.04938)" xlink:href="#W"/></g><g id="E"><use transform="scale(.04938)" xlink:href="#an"/><use transform="translate(4.938) scale(.04938)" xlink:href="#as"/></g><g id="F"><use transform="scale(.04938)" xlink:href="#X"/><use transform="translate(15.802) scale(.04938)" xlink:href="#Y"/><use transform="translate(23.654) scale(.04938)" xlink:href="#Z"/><use transform="translate(37.481) scale(.04938)" xlink:href="#aa"/><use transform="translate(46.37) scale(.04938)" xlink:href="#Y"/><use transform="translate(54.222) scale(.04938)" xlink:href="#ab"/></g><g id="G"><use transform="scale(.04938)" xlink:href="#as"/><use transform="translate(8.889) scale(.04938)" xlink:href="#aG"/></g><g id="H"><use transform="scale(.04938)" xlink:href="#ad"/><use transform="translate(12.79) scale(.04938)" xlink:href="#ae"/><use transform="translate(22.667) scale(.04938)" xlink:href="#T"/><use transform="translate(35.457) scale(.04938)" xlink:href="#af"/><use transform="translate(44.346) scale(.04938)" xlink:href="#aq"/></g><g id="I"><use transform="scale(.04938)" xlink:href="#Q"/><use transform="translate(8.889) scale(.04938)" xlink:href="#R"/><use transform="translate(17.778) scale(.04938)" xlink:href="#R"/><use transform="translate(26.667) scale(.04938)" xlink:href="#at"/></g><g id="J"><use transform="scale(.04938)" xlink:href="#ad"/><use transform="translate(12.79) scale(.04938)" xlink:href="#ac"/><use transform="translate(17.728) scale(.04938)" xlink:href="#W"/><use transform="translate(24.642) scale(.04938)" xlink:href="#an"/><use transform="translate(29.58) scale(.04938)" xlink:href="#ab"/><use transform="translate(35.457) scale(.04938)" xlink:href="#ac"/><use transform="translate(40.395) scale(.04938)" xlink:href="#aa"/><use transform="translate(49.284) scale(.04938)" xlink:href="#ak"/><use transform="translate(58.173) scale(.04938)" xlink:href="#an"/><use transform="translate(63.111) scale(.04938)" xlink:href="#aq"/><use transform="translate(70.963) scale(.04938)" xlink:href="#aa"/><use transform="translate(79.852) scale(.04938)" xlink:href="#av"/><use transform="translate(84.79) scale(.04938)" xlink:href="#Y"/></g><g id="K"><use transform="scale(.04938)" xlink:href="#aH"/><use transform="translate(8.889) scale(.04938)" xlink:href="#R"/><use transform="translate(17.778) scale(.04938)" xlink:href="#at"/></g><g id="L"><use transform="scale(.04938)" xlink:href="#ad"/><use transform="translate(12.79) scale(.04938)" xlink:href="#ac"/><use transform="translate(17.728) scale(.04938)" xlink:href="#W"/><use transform="translate(24.642) scale(.04938)" xlink:href="#an"/><use transform="translate(29.58) scale(.04938)" xlink:href="#ab"/><use transform="translate(35.457) scale(.04938)" xlink:href="#ac"/><use transform="translate(40.395) scale(.04938)" xlink:href="#aa"/><use transform="translate(49.284) scale(.04938)" xlink:href="#ak"/><use transform="translate(58.173) scale(.04938)" xlink:href="#an"/><use transform="translate(63.111) scale(.04938)" xlink:href="#aq"/><use transform="translate(70.963) scale(.04938)" xlink:href="#aa"/><use transform="translate(79.852) scale(.04938)" xlink:href="#av"/><use transform="translate(84.79) scale(.04938)" xlink:href="#Y"/></g><g id="M"><use transform="scale(.04938)" xlink:href="#aI"/><use transform="translate(8.889) scale(.04938)" xlink:href="#R"/><use transform="translate(17.778) scale(.04938)" xlink:href="#at"/></g><g id="N"><use transform="scale(.04938)" xlink:href="#aE"/><use transform="translate(10.815) scale(.04938)" xlink:href="#aF"/><use transform="translate(19.704) scale(.04938)" xlink:href="#an"/><use transform="translate(24.642) scale(.04938)" xlink:href="#Y"/><use transform="translate(32.494) scale(.04938)" xlink:href="#ab"/><use transform="translate(38.37) scale(.04938)" xlink:href="#al"/><use transform="translate(47.26) scale(.04938)" xlink:href="#aq"/><use transform="translate(55.111) scale(.04938)" xlink:href="#av"/></g><g id="O"><use transform="scale(.04938)" xlink:href="#ay"/><use transform="translate(11.852) scale(.04938)" xlink:href="#Y"/><use transform="translate(19.704) scale(.04938)" xlink:href="#aG"/><use transform="translate(25.58) scale(.04938)" xlink:href="#Y"/><use transform="translate(33.432) scale(.04938)" xlink:href="#ab"/><use transform="translate(39.309) scale(.04938)" xlink:href="#ab"/><use transform="translate(45.185) scale(.04938)" xlink:href="#Y"/><use transform="translate(53.037) scale(.04938)" xlink:href="#ab"/></g><g id="P"><use transform="scale(.05556)" xlink:href="#aH"/><use transform="translate(10) scale(.05556)" xlink:href="#R"/></g></defs></g></svg>