<svg viewBox="0 0 960 540" fill="none" stroke-linecap="square" stroke-miterlimit="10" xmlns="http://www.w3.org/2000/svg"><clipPath id="a"><path d="M0 0h960v540H0V0z"/></clipPath><g clip-path="url(#a)"><path d="M0 0h960v540H0z"/><path fill="#999" d="M.003 62.005a6.79 6.79 0 016.79-6.791h277.159a6.791 6.791 0 016.79 6.791v59.331a6.79 6.79 0 01-6.79 6.791H6.794a6.791 6.791 0 01-6.791-6.79z" fill-rule="evenodd"/><path fill="#ec3d3d" d="M301.818 62.005c0-3.75 3.04-6.791 6.791-6.791H509.2a6.791 6.791 0 016.792 6.791v59.331a6.792 6.792 0 01-6.792 6.791H308.61a6.791 6.791 0 01-6.792-6.79zm222.003 0c0-3.75 3.04-6.791 6.791-6.791h200.591a6.791 6.791 0 016.791 6.791v59.331a6.79 6.79 0 01-6.79 6.791H530.611a6.791 6.791 0 01-6.79-6.79zm222.003 0c0-3.75 3.04-6.791 6.791-6.791h200.591a6.791 6.791 0 016.791 6.791v59.331a6.79 6.79 0 01-6.79 6.791H752.614a6.791 6.791 0 01-6.79-6.79z" fill-rule="evenodd"/><path fill="#efefef" d="M.003 143.717a7.49 7.49 0 017.49-7.49h275.76a7.49 7.49 0 017.49 7.49v65.43a7.49 7.49 0 01-7.49 7.49H7.494a7.49 7.49 0 01-7.49-7.49z" fill-rule="evenodd"/><path fill="#000" d="M20.854 183.352v-13.265h3.735q1.734 0 3.062.765 1.328.766 2.047 2.188.734 1.406.734 3.234v.844q0 1.875-.718 3.297-.72 1.406-2.063 2.172-1.344.75-3.14.765h-3.657zm1.735-11.828v10.391h1.843q2.032 0 3.157-1.25t1.125-3.578v-.781q0-2.25-1.063-3.5-1.062-1.266-3.016-1.282H22.59zM36.9 183.54q-2 0-3.266-1.313-1.25-1.328-1.25-3.53v-.313q0-1.469.563-2.61.562-1.156 1.562-1.797 1.016-.656 2.188-.656 1.921 0 2.984 1.266 1.062 1.265 1.062 3.625v.687h-6.671q.03 1.47.843 2.375.828.891 2.078.891.891 0 1.516-.36.625-.374 1.078-.968l1.031.797q-1.234 1.906-3.718 1.906zm-.203-8.844q-1.016 0-1.72.75-.687.735-.843 2.078h4.938v-.125q-.079-1.28-.704-1.984-.609-.719-1.671-.719zm9.962 7.469q.89 0 1.562-.547.688-.547.75-1.375h1.594q-.047.844-.578 1.61-.532.765-1.438 1.234-.89.453-1.89.453-2.016 0-3.204-1.344-1.187-1.344-1.187-3.687v-.282q0-1.437.516-2.546.53-1.125 1.515-1.735 1-.625 2.344-.625 1.656 0 2.75 1 1.11.985 1.172 2.563h-1.594q-.062-.953-.719-1.563-.656-.625-1.61-.625-1.28 0-2 .922-.702.922-.702 2.672v.328q0 1.703.703 2.625.703.922 2.016.922zm9.89 1.375q-2 0-3.266-1.313-1.25-1.328-1.25-3.53v-.313q0-1.469.563-2.61.562-1.156 1.562-1.797 1.016-.656 2.188-.656 1.922 0 2.984 1.266 1.063 1.265 1.063 3.625v.687h-6.672q.031 1.47.844 2.375.828.891 2.078.891.89 0 1.515-.36.625-.374 1.078-.968l1.032.797q-1.235 1.906-3.72 1.906zm-.203-8.844q-1.016 0-1.719.75-.687.735-.844 2.078h4.938v-.125q-.078-1.28-.703-1.984-.61-.719-1.672-.719zm7.602-1.203l.047 1.234q1.125-1.406 2.953-1.406 3.125 0 3.157 3.516v6.515h-1.688v-6.515q-.016-1.078-.5-1.578-.469-.516-1.484-.516-.813 0-1.438.438-.61.437-.969 1.156v7.015h-1.671v-9.859h1.593zm10.982-2.39v2.39h1.843v1.313H74.93v6.109q0 .594.234.89.25.297.844.297.297 0 .812-.109v1.36q-.672.187-1.297.187-1.125 0-1.703-.688-.578-.687-.578-1.937v-6.11h-1.797v-1.312h1.797v-2.39h1.688zm8.578 3.906q-.39-.063-.844-.063-1.656 0-2.25 1.406v7h-1.671v-9.859h1.64l.016 1.14q.828-1.312 2.36-1.312.484 0 .75.125v1.563zm7.261 8.343q-.14-.296-.234-1.03-1.172 1.218-2.813 1.218-1.453 0-2.39-.828-.922-.828-.922-2.094 0-1.531 1.156-2.375 1.172-.86 3.297-.86h1.64v-.78q0-.891-.53-1.407-.517-.531-1.548-.531-.906 0-1.515.469-.61.453-.61 1.093h-1.703q0-.734.516-1.421.531-.688 1.422-1.079.906-.406 1.984-.406 1.703 0 2.672.86.969.843 1 2.328v4.531q0 1.36.344 2.172v.14H90.77zm-2.797-1.28q.797 0 1.5-.407.719-.422 1.031-1.078v-2.016h-1.312q-3.11 0-3.11 1.813 0 .797.532 1.25.531.437 1.36.437zm8.695 1.28H94.98v-14h1.688v14zm4.527 0h-1.687v-9.859h1.687v9.86zm-1.828-12.468q0-.407.25-.688.25-.297.735-.297.5 0 .75.297.265.281.265.688 0 .406-.265.687-.25.266-.75.266-.485 0-.735-.266-.25-.281-.25-.687zm6.106 11.093h5.765v1.375h-7.828v-1.234l5.438-7.234h-5.344v-1.39h7.469v1.202l-5.5 7.281zm11.6 1.563q-2 0-3.265-1.313-1.25-1.328-1.25-3.53v-.313q0-1.469.562-2.61.563-1.156 1.563-1.797 1.015-.656 2.187-.656 1.922 0 2.984 1.266 1.063 1.265 1.063 3.625v.687h-6.672q.031 1.47.844 2.375.828.891 2.078.891.89 0 1.516-.36.625-.374 1.078-.968l1.03.797q-1.233 1.906-3.718 1.906zm-.203-8.844q-1.016 0-1.719.75-.687.735-.843 2.078h4.937v-.125q-.078-1.28-.703-1.984-.61-.719-1.672-.719zm5.587 3.64q0-2.265 1.078-3.64t2.813-1.375q1.734 0 2.75 1.172v-5.14h1.687v14h-1.547l-.094-1.063q-1 1.25-2.812 1.25-1.703 0-2.797-1.406-1.078-1.407-1.078-3.657v-.14zm1.687.204q0 1.672.688 2.625.703.937 1.922.937 1.61 0 2.344-1.437v-4.531q-.766-1.39-2.329-1.39-1.234 0-1.937.952-.688.953-.688 2.844zm19.953 4.812q-.14-.296-.234-1.03-1.172 1.218-2.813 1.218-1.453 0-2.39-.828-.922-.828-.922-2.094 0-1.531 1.156-2.375 1.172-.86 3.297-.86h1.64v-.78q0-.891-.531-1.407-.516-.531-1.547-.531-.906 0-1.515.469-.61.453-.61 1.093h-1.703q0-.734.516-1.421.53-.688 1.422-1.079.906-.406 1.984-.406 1.703 0 2.672.86.969.843 1 2.328v4.531q0 1.36.344 2.172v.14h-1.766zm-2.797-1.28q.797 0 1.5-.407.719-.422 1.031-1.078v-2.016h-1.312q-3.11 0-3.11 1.813 0 .797.532 1.25.53.437 1.359.437zm8.46-8.579l.047 1.234q1.125-1.406 2.954-1.406 3.125 0 3.156 3.516v6.515h-1.688v-6.515q-.015-1.078-.5-1.578-.468-.516-1.484-.516-.813 0-1.438.438-.609.437-.968 1.156v7.015h-1.672v-9.859h1.594zm8.279 4.844q0-2.266 1.078-3.64 1.078-1.376 2.812-1.376 1.735 0 2.75 1.172v-5.14h1.688v14h-1.547l-.094-1.063q-1 1.25-2.812 1.25-1.704 0-2.797-1.406-1.078-1.407-1.078-3.657v-.14zm1.687.203q0 1.672.688 2.625.703.937 1.921.937 1.61 0 2.344-1.437v-4.531q-.765-1.39-2.328-1.39-1.234 0-1.937.952-.688.953-.688 2.844zm22.932-7.016h-4.266v11.828h-1.734v-11.828h-4.25v-1.437h10.25v1.437zm5.792 3.485q-.39-.063-.844-.063-1.656 0-2.25 1.406v7h-1.672v-9.859h1.64l.016 1.14q.829-1.312 2.36-1.312.484 0 .75.125v1.563zm7.26 8.343q-.14-.296-.234-1.03-1.172 1.218-2.812 1.218-1.453 0-2.39-.828-.923-.828-.923-2.094 0-1.531 1.156-2.375 1.172-.86 3.297-.86h1.64v-.78q0-.891-.53-1.407-.516-.531-1.547-.531-.906 0-1.516.469-.61.453-.61 1.093h-1.702q0-.734.515-1.421.532-.688 1.422-1.079.906-.406 1.985-.406 1.703 0 2.671.86.97.843 1 2.328v4.531q0 1.36.344 2.172v.14h-1.765zm-2.796-1.28q.797 0 1.5-.407.718-.422 1.03-1.078v-2.016h-1.312q-3.109 0-3.109 1.813 0 .797.531 1.25.532.437 1.36.437zm8.46-8.579l.047 1.234q1.125-1.406 2.953-1.406 3.125 0 3.156 3.516v6.515h-1.687v-6.515q-.016-1.078-.5-1.578-.469-.516-1.484-.516-.813 0-1.438.438-.61.437-.969 1.156v7.015h-1.672v-9.859h1.594zm14.435 7.25q0-.687-.516-1.062t-1.797-.641q-1.281-.281-2.031-.656-.75-.39-1.11-.922-.359-.531-.359-1.266 0-1.203 1.016-2.031 1.03-.844 2.625-.844 1.672 0 2.718.86 1.047.859 1.047 2.218h-1.687q0-.703-.594-1.203-.594-.5-1.484-.5-.922 0-1.438.406-.515.391-.515 1.047 0 .61.484.922.484.313 1.734.594 1.266.281 2.047.672.781.39 1.156.937.391.547.391 1.344 0 1.328-1.062 2.125-1.047.797-2.735.797-1.187 0-2.11-.422-.905-.422-1.421-1.172t-.516-1.625h1.688q.047.844.672 1.344.64.5 1.687.5.953 0 1.531-.39.579-.391.579-1.032zm12.197-2.203q0 2.25-1.031 3.625-1.016 1.375-2.781 1.375-1.797 0-2.828-1.14v4.75h-1.672v-13.657h1.531l.078 1.094q1.031-1.266 2.86-1.266 1.78 0 2.812 1.344 1.031 1.328 1.031 3.719v.156zm-1.672-.203q0-1.656-.718-2.625-.703-.969-1.953-.969-1.532 0-2.297 1.36v4.703q.765 1.359 2.328 1.359 1.203 0 1.922-.953.718-.969.718-2.875zm9.905 5.015q-.14-.296-.235-1.03-1.172 1.218-2.812 1.218-1.453 0-2.39-.828-.923-.828-.923-2.094 0-1.531 1.157-2.375 1.171-.86 3.296-.86h1.641v-.78q0-.891-.531-1.407-.516-.531-1.547-.531-.906 0-1.516.469-.61.453-.61 1.093h-1.702q0-.734.515-1.421.532-.688 1.422-1.079.907-.406 1.985-.406 1.703 0 2.672.86.968.843 1 2.328v4.531q0 1.36.343 2.172v.14h-1.765zm-2.797-1.28q.797 0 1.5-.407.719-.422 1.031-1.078v-2.016h-1.312q-3.11 0-3.11 1.813 0 .797.531 1.25.532.437 1.36.437zm11.632-7.063q-.39-.063-.844-.063-1.656 0-2.25 1.406v7h-1.671v-9.859h1.64l.016 1.14q.828-1.312 2.36-1.312.484 0 .75.125v1.563zm5.452 8.531q-2 0-3.265-1.313-1.25-1.328-1.25-3.53v-.313q0-1.469.562-2.61.563-1.156 1.563-1.797 1.015-.656 2.187-.656 1.922 0 2.985 1.266 1.062 1.265 1.062 3.625v.687h-6.672q.032 1.47.844 2.375.828.891 2.078.891.89 0 1.516-.36.625-.374 1.078-.968l1.031.797q-1.234 1.906-3.719 1.906zm-.203-8.844q-1.015 0-1.718.75-.688.735-.844 2.078h4.937v-.125q-.078-1.28-.703-1.984-.61-.719-1.672-.719zm7.603-1.203l.047 1.234q1.125-1.406 2.953-1.406 3.125 0 3.156 3.516v6.515h-1.687v-6.515q-.016-1.078-.5-1.578-.47-.516-1.485-.516-.812 0-1.437.438-.61.437-.969 1.156v7.015h-1.672v-9.859h1.594zm10.981-2.39v2.39h1.844v1.313h-1.844v6.109q0 .594.234.89.25.297.844.297.297 0 .813-.109v1.36q-.672.187-1.297.187-1.125 0-1.703-.688-.578-.687-.578-1.937v-6.11h-1.797v-1.312h1.797v-2.39h1.687z"/><path fill="#efefef" d="M.003 233.226a7.49 7.49 0 017.49-7.49h275.76a7.49 7.49 0 017.49 7.49v65.43a7.49 7.49 0 01-7.49 7.49H7.494a7.49 7.49 0 01-7.49-7.49z" fill-rule="evenodd"/><path fill="#000" d="M65.857 271.127q-.672.953-1.875 1.437-1.203.485-2.813.485-1.625 0-2.89-.766-1.25-.766-1.938-2.156-.687-1.406-.703-3.266v-1.156q0-2.984 1.39-4.64 1.407-1.657 3.938-1.657 2.078 0 3.344 1.063 1.266 1.062 1.547 3.015h-1.75q-.485-2.625-3.125-2.625-1.766 0-2.672 1.235-.906 1.234-.906 3.562v1.094q0 2.234 1.015 3.547 1.016 1.312 2.766 1.312.984 0 1.719-.219.734-.218 1.218-.734v-2.984h-3.078v-1.422h4.813v4.875zm8.739.765q-.985 1.157-2.89 1.157-1.579 0-2.407-.922-.813-.922-.828-2.703v-6.422h1.687v6.375q0 2.234 1.828 2.234 1.922 0 2.563-1.437v-7.172h1.687v9.86h-1.609l-.031-.97zm10.284.97q-.14-.298-.234-1.032-1.172 1.219-2.812 1.219-1.454 0-2.391-.828-.922-.829-.922-2.094 0-1.531 1.156-2.375 1.172-.86 3.297-.86h1.64v-.78q0-.891-.53-1.407-.516-.531-1.547-.531-.907 0-1.516.468-.61.454-.61 1.094H78.71q0-.734.515-1.422.531-.687 1.422-1.078.906-.406 1.984-.406 1.704 0 2.672.86.97.843 1 2.327v4.532q0 1.36.344 2.172v.14H84.88zm-2.796-1.282q.796 0 1.5-.406.718-.422 1.03-1.078v-2.016h-1.312q-3.109 0-3.109 1.812 0 .797.531 1.25.531.438 1.36.438zm11.632-7.063q-.39-.062-.844-.062-1.656 0-2.25 1.406v7H88.95v-9.86h1.641l.016 1.141q.828-1.312 2.359-1.312.484 0 .75.125v1.562zm7.26 8.344q-.14-.297-.234-1.031-1.171 1.219-2.812 1.219-1.453 0-2.39-.828-.923-.829-.923-2.094 0-1.531 1.157-2.375 1.172-.86 3.297-.86h1.64v-.78q0-.891-.531-1.407-.516-.531-1.547-.531-.906 0-1.516.468-.609.454-.609 1.094h-1.703q0-.734.516-1.422.53-.687 1.421-1.078.907-.406 1.985-.406 1.703 0 2.672.86.968.843 1 2.327v4.532q0 1.36.343 2.172v.14h-1.765zm-2.796-1.281q.797 0 1.5-.406.719-.422 1.031-1.078v-2.016H99.4q-3.11 0-3.11 1.812 0 .797.532 1.25.53.438 1.359.438zm8.46-8.578l.047 1.234q1.125-1.406 2.953-1.406 3.125 0 3.157 3.516v6.515h-1.688v-6.515q-.016-1.079-.5-1.579-.469-.515-1.484-.515-.813 0-1.438.437-.61.438-.969 1.157v7.015h-1.671v-9.86h1.593zm10.982-2.39v2.39h1.843v1.312h-1.843v6.11q0 .593.234.89.25.297.844.297.297 0 .812-.11v1.36q-.672.188-1.297.188-1.125 0-1.703-.688-.578-.687-.578-1.937v-6.11h-1.797v-1.312h1.797v-2.39h1.688zm7.89 12.437q-2 0-3.265-1.313-1.25-1.328-1.25-3.531v-.313q0-1.468.563-2.609.562-1.156 1.562-1.797 1.016-.656 2.188-.656 1.921 0 2.984 1.266 1.062 1.265 1.062 3.625v.687h-6.671q.03 1.469.843 2.375.828.89 2.078.89.891 0 1.516-.359.625-.375 1.078-.968l1.031.796q-1.234 1.907-3.718 1.907zm-.202-8.844q-1.016 0-1.72.75-.687.734-.843 2.078h4.938v-.125q-.079-1.281-.704-1.984-.609-.719-1.671-.719zm10.087 8.844q-2 0-3.266-1.313-1.25-1.328-1.25-3.531v-.313q0-1.468.562-2.609.563-1.156 1.563-1.797 1.016-.656 2.187-.656 1.922 0 2.985 1.266 1.062 1.265 1.062 3.625v.687h-6.672q.032 1.469.844 2.375.828.89 2.078.89.89 0 1.516-.359.625-.375 1.078-.968l1.031.796q-1.234 1.907-3.718 1.907zm-.204-8.844q-1.015 0-1.718.75-.688.734-.844 2.078h4.937v-.125q-.078-1.281-.703-1.984-.61-.719-1.672-.719zm5.587 3.64q0-2.265 1.078-3.64 1.079-1.375 2.813-1.375 1.734 0 2.75 1.172v-5.14h1.687v14h-1.546l-.094-1.063q-1 1.25-2.813 1.25-1.703 0-2.797-1.407-1.078-1.406-1.078-3.656v-.14zm1.688.204q0 1.672.687 2.625.703.937 1.922.937 1.61 0 2.344-1.437v-4.532q-.766-1.39-2.328-1.39-1.235 0-1.938.953-.687.953-.687 2.844zm21.624-1.313h-5.75v4.688h6.688v1.437h-8.422v-13.265h8.328v1.437h-6.594v4.266h5.75v1.437zm6.15-.14l2.188-3.594h1.969l-3.219 4.875 3.328 4.984h-1.953l-2.281-3.687-2.281 3.687h-1.954l3.329-4.984-3.235-4.875h1.953l2.157 3.594zm9.846 6.453q-2 0-3.266-1.313-1.25-1.328-1.25-3.531v-.313q0-1.468.563-2.609.562-1.156 1.562-1.797 1.016-.656 2.188-.656 1.921 0 2.984 1.266 1.062 1.265 1.062 3.625v.687h-6.671q.03 1.469.843 2.375.828.89 2.078.89.891 0 1.516-.359.625-.375 1.078-.968l1.031.796q-1.234 1.907-3.718 1.907zm-.203-8.844q-1.016 0-1.72.75-.687.734-.843 2.078h4.938v-.125q-.079-1.281-.704-1.984-.609-.719-1.671-.719zm9.961 7.469q.891 0 1.563-.547.687-.547.75-1.375h1.594q-.047.844-.578 1.61-.532.765-1.438 1.234-.89.453-1.89.453-2.016 0-3.204-1.344-1.187-1.344-1.187-3.688v-.28q0-1.438.515-2.548.532-1.125 1.516-1.734 1-.625 2.344-.625 1.656 0 2.75 1 1.11.984 1.172 2.562h-1.594q-.063-.953-.719-1.562-.656-.625-1.61-.625-1.28 0-2 .922-.702.922-.702 2.672v.328q0 1.703.703 2.625.703.922 2.015.922zm11.89.218q-.984 1.157-2.89 1.157-1.578 0-2.406-.922-.813-.922-.828-2.703v-6.422h1.687v6.375q0 2.234 1.828 2.234 1.922 0 2.563-1.437v-7.172h1.687v9.86h-1.609l-.031-.97zm6.489-11.28v2.39h1.843v1.312h-1.843v6.11q0 .593.234.89.25.297.844.297.297 0 .812-.11v1.36q-.672.188-1.297.188-1.125 0-1.703-.688-.578-.687-.578-1.937v-6.11h-1.797v-1.312h1.797v-2.39h1.688zm5.64 12.25h-1.687v-9.86h1.688v9.86zm-1.827-12.47q0-.406.25-.687.25-.297.734-.297.5 0 .75.297.266.281.266.687 0 .407-.266.688-.25.266-.75.266-.484 0-.734-.266-.25-.281-.25-.688zm4.074 7.454q0-1.454.562-2.61.578-1.156 1.594-1.781t2.313-.625q2.015 0 3.25 1.39 1.25 1.391 1.25 3.704v.125q0 1.437-.547 2.578-.547 1.14-1.578 1.781-1.016.64-2.36.64-2 0-3.25-1.39-1.234-1.406-1.234-3.703v-.11zm1.687.203q0 1.64.766 2.64.766.985 2.031.985 1.297 0 2.047-1 .75-1.016.75-2.828 0-1.625-.766-2.625-.765-1.016-2.046-1.016-1.25 0-2.016 1-.766.984-.766 2.844zm11-5.047l.047 1.234q1.125-1.406 2.953-1.406 3.125 0 3.156 3.516v6.515h-1.688v-6.515q-.015-1.079-.5-1.579-.468-.515-1.484-.515-.812 0-1.437.437-.61.438-.97 1.157v7.015h-1.671v-9.86h1.594z"/><path fill="#efefef" d="M.003 322.358a7.49 7.49 0 017.49-7.49h275.76a7.49 7.49 0 017.49 7.49v65.43a7.49 7.49 0 01-7.49 7.49H7.494a7.49 7.49 0 01-7.49-7.49z" fill-rule="evenodd"/><path fill="#000" d="M88.35 356.634h-3.125v5.36h-1.75v-13.266h4.39q2.235 0 3.438 1.031 1.219 1.016 1.219 2.953 0 1.25-.672 2.172-.672.922-1.86 1.375l3.11 5.625v.11h-1.875l-2.875-5.36zm-3.125-1.437h2.687q1.313 0 2.078-.672.766-.672.766-1.813 0-1.218-.734-1.875-.735-.656-2.11-.672h-2.687v5.032zm13.565 6.984q-2 0-3.266-1.312-1.25-1.329-1.25-3.532v-.312q0-1.469.563-2.61.562-1.156 1.562-1.796 1.016-.657 2.188-.657 1.922 0 2.984 1.266 1.063 1.266 1.063 3.625v.687h-6.672q.031 1.47.844 2.375.828.891 2.078.891.89 0 1.515-.36.625-.374 1.079-.968l1.03.797q-1.234 1.906-3.718 1.906zm-.203-8.844q-1.016 0-1.719.75-.687.735-.844 2.078h4.938v-.125q-.078-1.28-.703-1.984-.61-.719-1.672-.719zm11.743 6.047q0-.687-.516-1.062-.515-.375-1.796-.641-1.282-.281-2.032-.656-.75-.39-1.109-.922-.36-.531-.36-1.266 0-1.203 1.016-2.031 1.031-.844 2.625-.844 1.672 0 2.719.86 1.047.859 1.047 2.218h-1.688q0-.703-.593-1.203-.594-.5-1.485-.5-.922 0-1.437.407-.516.39-.516 1.046 0 .61.484.922.485.313 1.735.594 1.265.281 2.047.672.781.39 1.156.937.39.547.39 1.344 0 1.328-1.062 2.125-1.047.797-2.734.797-1.188 0-2.11-.422-.906-.422-1.422-1.172-.515-.75-.515-1.625h1.687q.047.844.672 1.344.64.5 1.688.5.953 0 1.531-.39.578-.391.578-1.032zm9.964 1.64q-.985 1.157-2.891 1.157-1.578 0-2.406-.922-.813-.922-.828-2.703v-6.422h1.687v6.375q0 2.235 1.828 2.235 1.922 0 2.563-1.438v-7.172h1.687v9.86h-1.61l-.03-.97zm6.034.97h-1.687v-14h1.687v14zm4.98-12.25v2.39h1.844v1.313h-1.843v6.109q0 .594.234.89.25.298.844.298.297 0 .812-.11v1.36q-.672.187-1.297.187-1.125 0-1.703-.687-.578-.688-.578-1.938v-6.11h-1.797v-1.312h1.797v-2.39h1.688zm18.885 6.046q0 1.954-.656 3.407-.64 1.453-1.844 2.218-1.203.766-2.812.766-1.563 0-2.781-.766-1.204-.78-1.875-2.203-.672-1.422-.688-3.297v-.968q0-1.907.656-3.375.672-1.47 1.89-2.25 1.22-.782 2.782-.782 1.594 0 2.813.782 1.218.765 1.86 2.234.655 1.453.655 3.39v.844zm-1.734-.859q0-2.36-.953-3.61-.938-1.265-2.64-1.265-1.657 0-2.61 1.266-.953 1.25-.985 3.5v.968q0 2.282.954 3.594.968 1.313 2.656 1.313 1.687 0 2.61-1.235.937-1.234.968-3.547v-.984zm8.873-1.281q-.39-.063-.844-.063-1.656 0-2.25 1.407v7h-1.672v-9.86h1.641l.016 1.14q.828-1.312 2.359-1.312.484 0 .75.125v1.563zm3.375 8.344h-1.687v-9.86h1.687v9.86zm-1.828-12.47q0-.405.25-.687.25-.297.735-.297.5 0 .75.297.265.282.265.688 0 .406-.265.687-.25.266-.75.266-.485 0-.735-.266-.25-.281-.25-.687zm8.606 12.657q-2 0-3.266-1.312-1.25-1.329-1.25-3.532v-.312q0-1.469.563-2.61.562-1.156 1.562-1.796 1.016-.657 2.188-.657 1.922 0 2.984 1.266 1.063 1.266 1.063 3.625v.687h-6.672q.03 1.47.843 2.375.829.891 2.079.891.89 0 1.515-.36.625-.374 1.078-.968l1.032.797q-1.235 1.906-3.72 1.906zm-.203-8.844q-1.016 0-1.72.75-.687.735-.843 2.078h4.938v-.125q-.078-1.28-.703-1.984-.61-.719-1.672-.719zm7.602-1.203l.047 1.235q1.125-1.407 2.953-1.407 3.125 0 3.156 3.516v6.516h-1.687v-6.516q-.016-1.078-.5-1.578-.469-.516-1.484-.516-.813 0-1.438.438-.61.437-.969 1.156v7.016h-1.672v-9.86h1.594zm10.981-2.39v2.39h1.844v1.313h-1.844v6.109q0 .594.235.89.25.298.844.298.296 0 .812-.11v1.36q-.672.187-1.297.187-1.125 0-1.703-.687-.578-.688-.578-1.938v-6.11h-1.797v-1.312h1.797v-2.39h1.687zm7.892 12.437q-2 0-3.266-1.312-1.25-1.329-1.25-3.532v-.312q0-1.469.562-2.61.563-1.156 1.563-1.796 1.016-.657 2.187-.657 1.922 0 2.985 1.266 1.062 1.266 1.062 3.625v.687h-6.672q.032 1.47.844 2.375.828.891 2.078.891.891 0 1.516-.36.625-.374 1.078-.968l1.031.797q-1.234 1.906-3.718 1.906zm-.204-8.844q-1.015 0-1.718.75-.688.735-.844 2.078h4.937v-.125q-.078-1.28-.703-1.984-.609-.719-1.672-.719zm5.587 3.64q0-2.265 1.079-3.64 1.078-1.375 2.812-1.375 1.734 0 2.75 1.172v-5.14h1.688v14h-1.547l-.094-1.063q-1 1.25-2.813 1.25-1.703 0-2.796-1.406-1.079-1.406-1.079-3.656v-.141zm1.688.204q0 1.672.687 2.625.704.938 1.922.938 1.61 0 2.344-1.438v-4.531q-.766-1.39-2.328-1.39-1.234 0-1.938.952-.687.953-.687 2.844z"/><path fill="#efefef" d="M.003 411.867a7.49 7.49 0 017.49-7.49h275.76a7.49 7.49 0 017.49 7.49v65.43a7.49 7.49 0 01-7.49 7.49H7.494a7.49 7.49 0 01-7.49-7.49z" fill-rule="evenodd"/><path fill="#000" d="M74.805 449.174l3.78-10.937h1.923l-4.922 13.265h-1.547l-4.922-13.265h1.906l3.782 10.937zm10.89 2.516q-2 0-3.266-1.313-1.25-1.328-1.25-3.531v-.312q0-1.47.563-2.61.562-1.156 1.562-1.797 1.016-.656 2.188-.656 1.922 0 2.984 1.266 1.063 1.265 1.063 3.625v.687h-6.672q.031 1.469.844 2.375.828.89 2.078.89.89 0 1.515-.359.625-.375 1.079-.968l1.03.797q-1.234 1.906-3.718 1.906zm-.203-8.844q-1.016 0-1.719.75-.687.734-.844 2.078h4.938v-.125q-.078-1.281-.703-1.984-.61-.719-1.672-.719zm10.774.313q-.39-.063-.843-.063-1.657 0-2.25 1.406v7H91.5v-9.86h1.64l.016 1.142q.828-1.313 2.36-1.313.484 0 .75.125v1.563zm7.282 5.734q0-.688-.516-1.063-.515-.375-1.796-.64-1.282-.281-2.032-.656-.75-.391-1.11-.922-.358-.532-.358-1.266 0-1.203 1.015-2.031 1.031-.844 2.625-.844 1.672 0 2.719.86 1.047.859 1.047 2.218h-1.688q0-.703-.593-1.203-.594-.5-1.485-.5-.922 0-1.437.406-.516.39-.516 1.047 0 .61.484.922.485.313 1.735.594 1.265.281 2.047.672.78.39 1.156.937.39.547.39 1.344 0 1.328-1.062 2.125-1.047.797-2.734.797-1.188 0-2.11-.422-.906-.422-1.422-1.172-.515-.75-.515-1.625h1.687q.047.844.672 1.344.64.5 1.688.5.953 0 1.53-.39.579-.391.579-1.032zm9.963 2.61q-.14-.298-.234-1.032-1.172 1.219-2.812 1.219-1.454 0-2.391-.828-.922-.828-.922-2.094 0-1.531 1.156-2.375 1.172-.86 3.297-.86h1.64v-.78q0-.891-.53-1.407-.516-.531-1.547-.531-.907 0-1.516.469-.61.453-.61 1.093h-1.702q0-.734.515-1.422.531-.687 1.422-1.078.906-.406 1.984-.406 1.704 0 2.672.86.969.843 1 2.328v4.53q0 1.36.344 2.173v.14h-1.766zm-2.796-1.282q.796 0 1.5-.406.718-.422 1.03-1.078v-2.016h-1.312q-3.11 0-3.11 1.813 0 .796.532 1.25.531.437 1.36.437zm9.148-10.969v2.39h1.843v1.313h-1.843v6.11q0 .594.234.89.25.297.844.297.297 0 .812-.11v1.36q-.672.188-1.297.188-1.125 0-1.703-.688-.578-.687-.578-1.937v-6.11h-1.797v-1.312h1.797v-2.39h1.688zm5.64 12.25h-1.687v-9.86h1.688v9.86zm-1.827-12.468q0-.407.25-.688.25-.297.734-.297.5 0 .75.297.266.281.266.688 0 .406-.266.687-.25.266-.75.266-.484 0-.734-.266-.25-.281-.25-.687zm6.355 12.468h-1.687v-14h1.687v14zm6.777.188q-2 0-3.265-1.313-1.25-1.328-1.25-3.531v-.312q0-1.47.562-2.61.563-1.156 1.563-1.797 1.015-.656 2.187-.656 1.922 0 2.985 1.266 1.062 1.265 1.062 3.625v.687h-6.672q.032 1.469.844 2.375.828.89 2.078.89.89 0 1.516-.359.625-.375 1.078-.968l1.031.797q-1.234 1.906-3.719 1.906zm-.203-8.844q-1.015 0-1.718.75-.688.734-.844 2.078h4.937v-.125q-.078-1.281-.703-1.984-.61-.719-1.672-.719zm14.8 2.75q-2.25-.656-3.282-1.594-1.03-.937-1.03-2.328 0-1.562 1.25-2.594 1.265-1.03 3.265-1.03 1.36 0 2.437.53 1.078.532 1.656 1.47.594.921.594 2.03h-1.765q0-1.203-.766-1.89-.766-.688-2.156-.688-1.297 0-2.016.563-.719.562-.719 1.578 0 .812.688 1.375.687.562 2.328 1.031 1.656.453 2.594 1.016.937.562 1.375 1.312.453.75.453 1.75 0 1.61-1.25 2.594-1.25.969-3.36.969-1.375 0-2.562-.516-1.172-.531-1.813-1.437-.64-.922-.64-2.078h1.75q0 1.203.89 1.906.891.687 2.375.687 1.375 0 2.11-.562.75-.563.75-1.531 0-.985-.688-1.516-.687-.531-2.468-1.047zm9.177-6.344v2.39h1.844v1.313h-1.844v6.11q0 .594.234.89.25.297.844.297.297 0 .813-.11v1.36q-.672.188-1.297.188-1.125 0-1.703-.688-.579-.687-.579-1.937v-6.11h-1.796v-1.312h1.796v-2.39h1.688zm8.579 3.907q-.391-.063-.844-.063-1.656 0-2.25 1.406v7h-1.672v-9.86h1.64l.016 1.142q.828-1.313 2.36-1.313.484 0 .75.125v1.563zm7.625 7.375q-.984 1.156-2.89 1.156-1.579 0-2.407-.922-.812-.922-.828-2.703v-6.422h1.687v6.375q0 2.234 1.829 2.234 1.921 0 2.562-1.437v-7.172h1.688v9.86h-1.61l-.031-.97zm8.16-.22q.89 0 1.562-.546.688-.547.75-1.375h1.594q-.047.844-.578 1.61-.532.765-1.438 1.234-.89.453-1.89.453-2.016 0-3.204-1.344-1.187-1.344-1.187-3.687v-.282q0-1.437.516-2.547.53-1.125 1.515-1.734 1-.625 2.344-.625 1.656 0 2.75 1 1.11.984 1.172 2.563h-1.594q-.062-.954-.719-1.563-.656-.625-1.609-.625-1.281 0-2 .922-.703.922-.703 2.672v.328q0 1.703.703 2.625.703.922 2.016.922zm8.093-11.062v2.39h1.844v1.313h-1.844v6.11q0 .594.234.89.25.297.844.297.297 0 .813-.11v1.36q-.672.188-1.297.188-1.125 0-1.703-.688-.578-.687-.578-1.937v-6.11h-1.797v-1.312h1.797v-2.39h1.687zm9.891 11.282q-.984 1.156-2.89 1.156-1.579 0-2.407-.922-.812-.922-.828-2.703v-6.422h1.688v6.375q0 2.234 1.828 2.234 1.922 0 2.562-1.437v-7.172h1.688v9.86h-1.61l-.03-.97zm8.972-7.375q-.39-.063-.843-.063-1.657 0-2.25 1.406v7h-1.672v-9.86h1.64l.016 1.142q.828-1.313 2.36-1.313.484 0 .75.125v1.563zm5.453 8.53q-2 0-3.266-1.312-1.25-1.328-1.25-3.531v-.312q0-1.47.562-2.61.563-1.156 1.563-1.797 1.016-.656 2.187-.656 1.922 0 2.985 1.266 1.062 1.265 1.062 3.625v.687h-6.672q.032 1.469.844 2.375.828.89 2.078.89.89 0 1.516-.359.625-.375 1.078-.968l1.031.797q-1.234 1.906-3.718 1.906zm-.204-8.843q-1.015 0-1.718.75-.688.734-.844 2.078h4.937v-.125q-.078-1.281-.703-1.984-.61-.719-1.672-.719z"/><path fill="#efefef" d="M301.819 143.717a7.49 7.49 0 017.489-7.49h199.195a7.49 7.49 0 017.489 7.49v65.43a7.49 7.49 0 01-7.49 7.49H309.309a7.49 7.49 0 01-7.49-7.49zm0 89.509a7.49 7.49 0 017.489-7.49h199.195a7.49 7.49 0 017.489 7.49v65.43a7.49 7.49 0 01-7.49 7.49H309.309a7.49 7.49 0 01-7.49-7.49zm0 89.132a7.49 7.49 0 017.489-7.49h199.195a7.49 7.49 0 017.489 7.49v65.43a7.49 7.49 0 01-7.49 7.49H309.309a7.49 7.49 0 01-7.49-7.49zm0 89.509a7.49 7.49 0 017.489-7.49h199.195a7.49 7.49 0 017.489 7.49v65.43a7.49 7.49 0 01-7.49 7.49H309.309a7.49 7.49 0 01-7.49-7.49zm222.003-268.15a7.49 7.49 0 017.489-7.49h199.194a7.49 7.49 0 017.49 7.49v65.43a7.49 7.49 0 01-7.49 7.49H531.311a7.49 7.49 0 01-7.49-7.49zm0 89.509a7.49 7.49 0 017.489-7.49h199.194a7.49 7.49 0 017.49 7.49v65.43a7.49 7.49 0 01-7.49 7.49H531.311a7.49 7.49 0 01-7.49-7.49zm0 89.132a7.49 7.49 0 017.489-7.49h199.194a7.49 7.49 0 017.49 7.49v65.43a7.49 7.49 0 01-7.49 7.49H531.311a7.49 7.49 0 01-7.49-7.49zm0 89.509a7.49 7.49 0 017.489-7.49h199.194a7.49 7.49 0 017.49 7.49v65.43a7.49 7.49 0 01-7.49 7.49H531.311a7.49 7.49 0 01-7.49-7.49zm222.002-268.15a7.49 7.49 0 017.49-7.49h199.194a7.49 7.49 0 017.49 7.49v65.43a7.49 7.49 0 01-7.49 7.49H753.314a7.49 7.49 0 01-7.49-7.49zm0 89.509a7.49 7.49 0 017.49-7.49h199.194a7.49 7.49 0 017.49 7.49v65.43a7.49 7.49 0 01-7.49 7.49H753.314a7.49 7.49 0 01-7.49-7.49zm0 89.132a7.49 7.49 0 017.49-7.49h199.194a7.49 7.49 0 017.49 7.49v65.43a7.49 7.49 0 01-7.49 7.49H753.314a7.49 7.49 0 01-7.49-7.49zm0 89.509a7.49 7.49 0 017.49-7.49h199.194a7.49 7.49 0 017.49 7.49v65.43a7.49 7.49 0 01-7.49 7.49H753.314a7.49 7.49 0 01-7.49-7.49z" fill-rule="evenodd"/><path d="M32.002 76.173h226.74v30.992H32.002z"/><path fill="#fff" d="M107.634 99.149V84.415h7.125l-.297 2.015h-4.125v4.5h3.593v2.031h-3.593v6.188h-2.703zm15.907-14.734l-.28 2.015h-4.329v4.235h3.781v2h-3.781v4.437h4.61v2.047h-7.313V84.415h7.312zm8.532 14.734l-.718-3.453h-3.797l-.703 3.453h-2.72l3.72-14.734h3.28l3.688 14.734h-2.75zm-4.093-5.5h2.968l-1.5-7.172-1.468 7.172zm15.096-9.234l-.297 2.125h-3.032v12.609h-2.703v-12.61h-3.156v-2.124h9.188zm10.415 10.593q0 1.938-1.203 3.188-1.203 1.25-3.453 1.25-2.281 0-3.484-1.219-1.188-1.234-1.188-3.219V84.415h2.719v10.468q0 1.235.469 1.844.468.61 1.484.61 1 0 1.469-.61.469-.61.469-1.844V84.415h2.718v10.593zm8.954 4.141l-2.594-5.953h-1.313v5.953h-2.703V84.415h3.469q5.344 0 5.344 4.328 0 1.343-.61 2.375-.593 1.031-1.781 1.562l3.11 6.469h-2.922zm-3-7.906q1.25 0 1.812-.594.563-.61.563-1.906 0-1.219-.594-1.782-.578-.562-1.922-.562h-.766v4.844h.907zm14.601-6.828l-.28 2.015h-4.329v4.235h3.781v2h-3.781v4.437h4.61v2.047h-7.313V84.415h7.312zm5.444-.297q1.281 0 2.25.453.984.437 1.813 1.328l-1.25 1.453q-.657-.594-1.297-.89-.625-.297-1.328-.297-.813 0-1.282.5-.468.5-.468 1.312 0 .813.484 1.328.5.5 1.922 1.063 1.844.734 2.703 1.75.86 1 .86 2.828 0 1.265-.579 2.297-.562 1.031-1.64 1.625-1.079.593-2.516.593-1.469 0-2.563-.515-1.078-.516-1.968-1.485l1.359-1.484q.766.672 1.469 1.047.703.36 1.531.36.984 0 1.531-.61.547-.61.547-1.656 0-.922-.484-1.5-.485-.594-1.781-1.078-1.954-.797-2.829-1.813-.859-1.031-.859-2.562 0-1.172.563-2.079.562-.921 1.562-1.437 1.016-.531 2.25-.531z"/><path d="M322.863 76.173h172.819v30.992H322.863z"/><path fill="#fff" d="M374.707 71.414l-.297 2.125h-3.032v12.61h-2.703v-12.61h-3.156v-2.125h9.188zm5.572 3.172q.485 0 .875.157l-.422 2.515q-.437-.11-.797-.11-.812 0-1.28.704-.47.703-.72 2.094v6.203h-2.625V74.868h2.282l.187 1.953q.797-2.235 2.5-2.235zm8.718 8.828q0 .563.14.829.157.265.5.437l-.53 1.75q-.875-.11-1.407-.469-.515-.36-.765-1.11-.985 1.61-2.75 1.61-1.407 0-2.25-.937-.828-.953-.828-2.531 0-1.829 1.14-2.782 1.14-.968 3.313-.968h.875v-.797q0-1.063-.375-1.5-.36-.438-1.203-.438-1 0-2.485.563l-.61-1.72q.86-.374 1.766-.577.922-.203 1.766-.203 3.703 0 3.703 3.75v5.093zm-4.11 1.157q1.016 0 1.548-1.407V80.79h-.61q-1.093 0-1.593.5-.5.485-.5 1.516 0 .875.296 1.328.297.438.86.438zm14.73-14.22V86.15h-2.327l-.125-1.297q-1 1.61-2.579 1.61-1.75 0-2.687-1.563-.922-1.563-.922-4.375 0-1.797.484-3.14.485-1.36 1.329-2.079.859-.734 1.968-.734 1.36 0 2.235 1.125V70.07l2.625.28zm-4.28 14.142q.484 0 .874-.344.407-.344.782-.985V77.68q-.672-1.156-1.547-1.156-1.735 0-1.735 3.969 0 2.156.422 3.078.438.922 1.203.922zm9.344-9.625v11.28h-2.625v-11.28h2.625zm-1.328-5.625q.703 0 1.14.453.438.437.438 1.14 0 .688-.438 1.14-.437.438-1.14.438-.703 0-1.14-.437-.438-.453-.438-1.14 0-.704.437-1.141.438-.453 1.14-.453zm9.43 16.39q-1.047.828-2.454.828-1.468 0-2.25-.828-.765-.844-.765-2.297v-6.578H406v-1.89h1.313v-2.5l2.625-.313v2.813h2.14l-.265 1.89h-1.875v6.578q0 1.016.875 1.016.281 0 .484-.063.219-.078.563-.28l.921 1.624zm3.714-10.765v11.28h-2.625v-11.28h2.625zm-1.328-5.625q.703 0 1.14.453.438.437.438 1.14 0 .688-.438 1.14-.437.438-1.14.438-.704 0-1.141-.437-.438-.453-.438-1.14 0-.704.438-1.141.437-.453 1.14-.453zm7.757 5.328q2.141 0 3.313 1.5 1.187 1.484 1.187 4.422 0 2.812-1.187 4.39-1.188 1.578-3.313 1.578-2.109 0-3.312-1.531-1.188-1.547-1.188-4.437 0-2.86 1.188-4.391 1.203-1.531 3.312-1.531zm0 1.984q-.906 0-1.343.906-.422.907-.422 3.032 0 2.156.422 3.062.437.906 1.343.906.922 0 1.344-.906.438-.906.438-3.062 0-2.157-.438-3.047-.422-.891-1.344-.891zm11.717-1.984q1.219 0 1.922.875.703.875.703 2.343v8.36h-2.625v-8.063q0-.812-.234-1.156-.22-.36-.641-.36-.89 0-1.766 1.688v7.89h-2.625v-11.28h2.282l.187 1.468q.578-.89 1.219-1.328.656-.437 1.578-.437zm12.196 8.843q0 .563.14.829.157.265.5.437l-.53 1.75q-.875-.11-1.407-.469-.515-.36-.765-1.11-.985 1.61-2.75 1.61-1.407 0-2.25-.937-.828-.953-.828-2.531 0-1.829 1.14-2.782 1.14-.968 3.313-.968h.875v-.797q0-1.063-.375-1.5-.36-.438-1.203-.438-1 0-2.485.563l-.61-1.72q.86-.374 1.766-.577.922-.203 1.766-.203 3.703 0 3.703 3.75v5.093zm-4.11 1.157q1.016 0 1.548-1.407V80.79h-.61q-1.093 0-1.593.5-.5.485-.5 1.516 0 .875.296 1.328.297.438.86.438zm8.767 1.89q-1.156 0-1.828-.703-.672-.719-.672-1.906v-13.5l2.625-.281v13.672q0 .265.125.437t.391.172q.14 0 .281-.031.14-.047.188-.047l.5 1.797q-.719.39-1.61.39zm-87.692 10.657q2.61 0 4.016 1.906 1.406 1.89 1.406 5.75 0 3.812-1.406 5.75-1.407 1.937-4.016 1.937-2.578 0-4-1.906-1.406-1.922-1.406-5.766 0-3.796 1.406-5.734 1.422-1.937 4-1.937zm0 2.046q-1.297 0-1.922 1.297t-.625 4.328q0 3.047.64 4.329.641 1.265 1.907 1.265 1.328 0 1.953-1.25.64-1.265.64-4.36 0-3.03-.64-4.312-.64-1.297-1.953-1.297zm12.359 1.422q.484 0 .875.157l-.422 2.515q-.438-.11-.797-.11-.812 0-1.281.704-.469.703-.719 2.094v6.203h-2.625v-11.281h2.281l.188 1.953q.797-2.235 2.5-2.235zm10.19.86q-.453.203-1.078.297-.625.078-1.563.078.89.437 1.328 1.156.438.703.438 1.75 0 1.703-1.047 2.75t-2.828 1.047q-.531 0-1.094-.172-.375.328-.375.875 0 .422.235.64.234.22.875.22h1.187q1.703 0 2.703.89 1.016.875 1.016 2.234 0 1.625-1.25 2.594-1.25.969-3.563.969-2.422 0-3.39-.89-.97-.891-.97-2.626h2.313q0 .922.422 1.297.438.39 1.657.39 1.171 0 1.656-.406.5-.406.5-1.156 0-.719-.406-1.062-.407-.344-1.266-.344h-.813q-1.609 0-2.359-.578t-.75-1.578q0-.578.313-1.094.312-.531.843-.922-.875-.562-1.28-1.328-.407-.766-.407-1.875 0-1.86 1.11-2.938 1.109-1.078 2.984-1.078 1.39 0 2.296-.297.907-.296 1.907-.875l.656 2.032zm-4.86.89q-.75 0-1.14.532-.375.53-.375 1.687 0 1.094.375 1.688.39.578 1.125.578.734 0 1.094-.516.375-.531.375-1.766 0-1.156-.36-1.671-.343-.532-1.093-.532zm12.794 7.078q0 .563.14.829.156.265.5.437l-.531 1.75q-.875-.11-1.406-.469-.516-.36-.766-1.11-.984 1.61-2.75 1.61-1.406 0-2.25-.937-.828-.953-.828-2.531 0-1.829 1.14-2.782 1.141-.968 3.313-.968h.875v-.797q0-1.063-.375-1.5-.36-.438-1.203-.438-1 0-2.484.563l-.61-1.72q.86-.374 1.766-.577.922-.203 1.765-.203 3.704 0 3.704 3.75v5.093zm-4.11 1.157q1.016 0 1.547-1.407v-2.375h-.61q-1.093 0-1.593.5-.5.485-.5 1.516 0 .875.297 1.328.297.438.86.438zm11.855-10q1.219 0 1.922.875.703.875.703 2.343v8.36h-2.625v-8.063q0-.812-.234-1.156-.219-.36-.64-.36-.891 0-1.766 1.688v7.89h-2.625v-11.28h2.28l.188 1.468q.578-.89 1.219-1.328.656-.437 1.578-.437zm7.618.297v11.28h-2.625v-11.28h2.625zm-1.328-5.625q.703 0 1.14.453.438.437.438 1.14 0 .688-.437 1.14-.438.438-1.14.438-.704 0-1.141-.437-.438-.453-.438-1.14 0-.704.438-1.141.437-.453 1.14-.453zm10.133 5.625v1.89l-4.5 7.328h4.578l-.234 2.063h-7.156v-1.89l4.5-7.329h-4.125v-2.062h6.937zm8.656 8.546q0 .563.14.829.157.265.5.437l-.53 1.75q-.876-.11-1.407-.469-.516-.36-.766-1.11-.984 1.61-2.75 1.61-1.406 0-2.25-.937-.828-.953-.828-2.531 0-1.829 1.14-2.782 1.141-.968 3.313-.968h.875v-.797q0-1.063-.375-1.5-.36-.438-1.203-.438-1 0-2.484.563l-.61-1.72q.86-.374 1.766-.577.922-.203 1.766-.203 3.703 0 3.703 3.75v5.093zm-4.11 1.157q1.016 0 1.547-1.407v-2.375h-.61q-1.093 0-1.593.5-.5.485-.5 1.516 0 .875.297 1.328.297.438.86.438zm12.261 1.062q-1.046.828-2.453.828-1.468 0-2.25-.828-.765-.844-.765-2.297v-6.578h-1.313v-1.89h1.313v-2.5l2.625-.313v2.813h2.14l-.265 1.89h-1.875v6.578q0 1.016.875 1.016.28 0 .484-.063.219-.078.563-.28l.921 1.624zm3.715-10.765v11.28h-2.625v-11.28h2.625zm-1.329-5.625q.704 0 1.141.453.438.437.438 1.14 0 .688-.438 1.14-.437.438-1.14.438-.704 0-1.141-.437-.438-.453-.438-1.14 0-.704.438-1.141.437-.453 1.14-.453zm7.758 5.328q2.141 0 3.313 1.5 1.187 1.484 1.187 4.422 0 2.812-1.187 4.39-1.188 1.578-3.313 1.578-2.109 0-3.312-1.531-1.188-1.547-1.188-4.437 0-2.86 1.188-4.391 1.203-1.531 3.312-1.531zm0 1.984q-.906 0-1.343.906-.422.907-.422 3.032 0 2.156.422 3.062.437.906 1.343.906.922 0 1.344-.906.438-.906.438-3.062 0-2.157-.438-3.047-.422-.891-1.344-.891zm11.717-1.984q1.219 0 1.922.875.703.875.703 2.343v8.36h-2.625v-8.063q0-.812-.235-1.156-.218-.36-.64-.36-.89 0-1.766 1.688v7.89h-2.625v-11.28h2.281l.188 1.468q.578-.89 1.219-1.328.656-.437 1.578-.437z"/><path d="M557.754 76.173h146.299v30.992h-146.3z"/><path fill="#fff" d="M618.435 84.415q1.86 0 3.203.562 1.36.563 2.203 2.172.844 1.61.844 4.562 0 4.157-1.656 5.797-1.656 1.641-4.313 1.641h-3.562V84.415h3.281zm-.578 2.015v10.688h1q.969 0 1.61-.438.656-.453 1.03-1.64.376-1.204.376-3.329 0-2.187-.407-3.328-.39-1.156-1.046-1.547-.641-.406-1.579-.406h-.984zm15.253 12.72l-.719-3.453h-3.797l-.703 3.453h-2.719l3.72-14.734h3.28l3.688 14.734h-2.75zm-4.094-5.5h2.969l-1.5-7.172-1.469 7.172zm12.746-9.531q2.61 0 4.016 1.906 1.406 1.89 1.406 5.75 0 3.812-1.406 5.75-1.406 1.937-4.016 1.937-2.578 0-4-1.906-1.406-1.922-1.406-5.765 0-3.797 1.406-5.735 1.422-1.937 4-1.937zm0 2.047q-1.297 0-1.922 1.296-.625 1.297-.625 4.329 0 3.046.641 4.328.64 1.265 1.906 1.265 1.328 0 1.953-1.25.641-1.265.641-4.359 0-3.031-.64-4.313-.641-1.296-1.954-1.296z"/><path d="M779.375 76.173H926.43v30.992H779.375z"/><path fill="#fff" d="M840.306 84.415q1.86 0 3.203.562 1.36.563 2.203 2.172.844 1.61.844 4.562 0 4.157-1.656 5.797-1.656 1.641-4.313 1.641h-3.562V84.415h3.281zm-.578 2.015v10.688h1q.969 0 1.61-.438.656-.453 1.03-1.64.375-1.204.375-3.329 0-2.187-.406-3.328-.39-1.156-1.047-1.547-.64-.406-1.578-.406h-.984zm12.232-2.015q2.656 0 4.047 1.187 1.406 1.172 1.406 3.484 0 2.454-1.375 3.672-1.375 1.203-3.89 1.203h-.86v5.188h-2.703V84.415h3.375zm.03 7.53q1.392 0 2-.64.626-.64.626-2.203 0-1.406-.625-2.047-.61-.64-1.969-.64h-.734v5.53h.703zm11.9-7.827q2.609 0 4.015 1.906 1.406 1.89 1.406 5.75 0 3.812-1.406 5.75-1.406 1.937-4.016 1.937-2.578 0-4-1.906-1.406-1.922-1.406-5.765 0-3.797 1.406-5.735 1.422-1.937 4-1.937zm0 2.047q-1.298 0-1.923 1.296-.625 1.297-.625 4.329 0 3.046.64 4.328.642 1.265 1.907 1.265 1.328 0 1.953-1.25.64-1.265.64-4.359 0-3.031-.64-4.313-.64-1.296-1.953-1.296z"/><path fill="#ffbe2e" d="M401.607 378.95l-15.336-18.427c-1.917-2.316-1.917-6.05 0-8.354 1.917-2.316 5.031-2.316 6.948 0l8.425 10.119 22.938-27.265c1.926-2.304 5.04-2.282 6.948.045 1.907 2.316 1.889 6.06-.038 8.354l-29.885 35.528M623.69 199.348l-15.336-18.427c-1.917-2.316-1.917-6.05 0-8.354 1.917-2.316 5.031-2.316 6.948 0l8.425 10.119 22.938-27.265c1.926-2.304 5.04-2.282 6.948.045 1.908 2.316 1.889 6.06-.038 8.354l-29.885 35.528" fill-rule="evenodd"/><path fill="#ec3d3d" d="M618.063 334.437c1.257 0 2.516.571 3.475 1.714l9.454 11.312 9.454-11.312c1.91-2.285 5.034-2.285 6.943 0 1.908 2.284 1.908 6.013 0 8.31l-9.453 11.31 9.453 11.311c1.908 2.285 1.908 6.025 0 8.31-1.909 2.285-5.034 2.285-6.943 0l-9.454-11.312-9.454 11.312c-1.918 2.285-5.034 2.285-6.943 0-1.908-2.285-1.908-6.025 0-8.31l9.454-11.31-9.454-11.312c-1.908-2.296-1.908-6.025 0-8.31.955-1.142 2.21-1.713 3.468-1.713z" fill-rule="evenodd"/><path fill="#ffbe2e" d="M844.58 375.051l-15.335-18.427c-1.917-2.316-1.917-6.049 0-8.354 1.917-2.316 5.03-2.316 6.948 0l8.425 10.12 22.938-27.265c1.926-2.305 5.04-2.283 6.947.045 1.908 2.316 1.89 6.06-.037 8.353l-29.886 35.528m0 93.426l-15.335-18.427c-1.917-2.316-1.917-6.049 0-8.354 1.917-2.316 5.03-2.316 6.948 0l8.425 10.119 22.938-27.264c1.926-2.305 5.04-2.283 6.947.045 1.908 2.316 1.89 6.06-.037 8.353l-29.886 35.528m0-268.845l-15.335-18.428c-1.917-2.316-1.917-6.048 0-8.353 1.917-2.316 5.03-2.316 6.948 0l8.425 10.119 22.938-27.265c1.926-2.305 5.04-2.282 6.947.045 1.908 2.316 1.89 6.06-.037 8.354l-29.886 35.528" fill-rule="evenodd"/><path fill="#ec3d3d" d="M393.218 153.932c1.257 0 2.516.571 3.475 1.714l9.454 11.312 9.455-11.312c1.908-2.285 5.033-2.285 6.942 0 1.909 2.284 1.909 6.014 0 8.31l-9.453 11.31 9.453 11.312c1.909 2.284 1.909 6.025 0 8.31-1.909 2.284-5.034 2.284-6.942 0l-9.455-11.313-9.454 11.312c-1.918 2.285-5.034 2.285-6.942 0-1.909-2.284-1.909-6.025 0-8.31l9.453-11.31-9.453-11.312c-1.909-2.295-1.909-6.025 0-8.31.954-1.142 2.21-1.713 3.467-1.713z" fill-rule="evenodd"/><path fill="#ffbe2e" d="M623.841 292.29l-15.335-18.428c-1.917-2.316-1.917-6.049 0-8.353 1.917-2.316 5.03-2.316 6.948 0l8.425 10.118 22.938-27.264c1.926-2.305 5.04-2.282 6.947.045 1.908 2.316 1.89 6.06-.037 8.354l-29.886 35.528" fill-rule="evenodd"/><path fill="#ec3d3d" d="M393.218 247.826c1.257 0 2.516.57 3.475 1.713l9.454 11.313 9.455-11.313c1.908-2.284 5.033-2.284 6.942 0 1.909 2.285 1.909 6.014 0 8.31l-9.453 11.311 9.453 11.311c1.909 2.285 1.909 6.025 0 8.31-1.909 2.284-5.034 2.284-6.942 0l-9.455-11.313-9.454 11.313c-1.918 2.284-5.034 2.284-6.942 0-1.909-2.285-1.909-6.025 0-8.31l9.453-11.311-9.453-11.311c-1.909-2.296-1.909-6.025 0-8.31.954-1.142 2.21-1.713 3.467-1.713z" fill-rule="evenodd"/><path fill="#ffbe2e" d="M844.58 292.29l-15.335-18.427c-1.917-2.316-1.917-6.048 0-8.353 1.917-2.316 5.03-2.316 6.948 0l8.425 10.119 22.938-27.265c1.926-2.305 5.04-2.282 6.947.045 1.908 2.316 1.89 6.06-.037 8.354L844.58 292.29M398.841 465.841l-15.335-18.427c-1.917-2.316-1.917-6.049 0-8.354 1.917-2.316 5.03-2.316 6.947 0l8.426 10.119 22.937-27.264c1.927-2.305 5.04-2.283 6.948.045 1.908 2.316 1.889 6.06-.037 8.353l-29.886 35.528" fill-rule="evenodd"/><path fill="#ec3d3d" d="M618.063 420.562c1.257 0 2.516.571 3.475 1.713l9.454 11.313 9.454-11.313c1.91-2.284 5.034-2.284 6.943 0 1.908 2.285 1.908 6.014 0 8.31l-9.453 11.311 9.453 11.311c1.908 2.285 1.908 6.025 0 8.31-1.909 2.285-5.034 2.285-6.943 0l-9.454-11.313-9.454 11.313c-1.918 2.285-5.034 2.285-6.943 0-1.908-2.285-1.908-6.025 0-8.31l9.454-11.31-9.454-11.312c-1.908-2.296-1.908-6.025 0-8.31.955-1.142 2.21-1.713 3.468-1.713z" fill-rule="evenodd"/></g></svg>