<svg xmlns="http://www.w3.org/2000/svg" viewBox="0 0 409.6 409.6"><path d="M170.665 0h-153.6C7.685 0 0 7.685 0 17.065V204.8c0 9.385 7.685 17.065 17.065 17.065h153.6c9.385 0 17.07-7.68 17.07-17.065V17.065c0-9.38-7.685-17.065-17.07-17.065zm221.87 187.735h-153.6c-9.385 0-17.07 7.68-17.07 17.065v187.735c0 9.38 7.685 17.065 17.07 17.065h153.6c9.38 0 17.065-7.685 17.065-17.065V204.8c0-9.385-7.685-17.065-17.065-17.065zM170.665 256h-153.6C7.685 256 0 263.685 0 273.065v119.47c0 9.38 7.685 17.065 17.065 17.065h153.6c9.385 0 17.07-7.685 17.07-17.065v-119.47c0-9.38-7.685-17.065-17.07-17.065zM392.535 0h-153.6c-9.385 0-17.07 7.685-17.07 17.065v119.47c0 9.38 7.685 17.065 17.07 17.065h153.6c9.38 0 17.065-7.685 17.065-17.065V17.065C409.6 7.685 401.915 0 392.535 0z" fill="#ff9e04"/></svg>