<svg viewBox="0 0 960 540" fill="none" stroke-linecap="square" stroke-miterlimit="10" xmlns="http://www.w3.org/2000/svg"><clipPath id="a"><path d="M0 0h960v540H0V0z"/></clipPath><g clip-path="url(#a)"><path d="M0 0h960v540H0z"/><path fill="#999" d="M19.136 61.736a6.521 6.521 0 016.522-6.52h266.107a6.521 6.521 0 016.521 6.52v56.974a6.521 6.521 0 01-6.521 6.52H25.658a6.521 6.521 0 01-6.522-6.52z" fill-rule="evenodd"/><path fill="#ec3d3d" d="M308.92 61.736a6.521 6.521 0 016.521-6.52h192.596a6.521 6.521 0 016.52 6.52v56.974a6.521 6.521 0 01-6.52 6.52H315.44a6.521 6.521 0 01-6.52-6.52zm213.153 0a6.521 6.521 0 016.521-6.52h192.595a6.521 6.521 0 016.522 6.52v56.974a6.521 6.521 0 01-6.522 6.52H528.594a6.521 6.521 0 01-6.521-6.52zm213.152 0a6.521 6.521 0 016.522-6.52h192.595a6.521 6.521 0 016.521 6.52v56.974a6.521 6.521 0 01-6.521 6.52H741.747a6.521 6.521 0 01-6.522-6.52z" fill-rule="evenodd"/><path fill="#fff" d="M19.137 140.19a7.19 7.19 0 017.19-7.191h264.77a7.19 7.19 0 017.19 7.19v62.817a7.19 7.19 0 01-7.19 7.19H26.326a7.19 7.19 0 01-7.19-7.19z" fill-rule="evenodd"/><path fill="#000" d="M34.193 178.517v-13.265h3.734q1.734 0 3.063.765 1.328.766 2.046 2.188.735 1.406.735 3.234v.844q0 1.875-.719 3.297-.719 1.406-2.062 2.172-1.344.75-3.141.765h-3.656zm1.734-11.828v10.391h1.844q2.031 0 3.156-1.25t1.125-3.578v-.781q0-2.25-1.062-3.5-1.063-1.266-3.016-1.282h-2.047zm14.312 12.016q-2 0-3.265-1.313-1.25-1.328-1.25-3.53v-.313q0-1.469.562-2.61.563-1.156 1.563-1.797 1.015-.656 2.187-.656 1.922 0 2.985 1.266 1.062 1.265 1.062 3.625v.687h-6.672q.031 1.47.844 2.375.828.891 2.078.891.89 0 1.516-.36.625-.374 1.078-.968l1.031.797q-1.234 1.906-3.719 1.906zm-.203-8.844q-1.015 0-1.719.75-.687.735-.843 2.078h4.937v-.125q-.078-1.28-.703-1.984-.61-.719-1.672-.719zm9.962 7.469q.89 0 1.563-.547.687-.547.75-1.375h1.593q-.047.844-.578 1.61-.531.765-1.437 1.234-.89.453-1.89.453-2.017 0-3.204-1.344-1.188-1.344-1.188-3.687v-.282q0-1.437.516-2.546.531-1.125 1.516-1.735 1-.625 2.343-.625 1.657 0 2.75 1 1.11.985 1.172 2.563h-1.593q-.063-.953-.72-1.563-.655-.625-1.609-.625-1.28 0-2 .922-.703.922-.703 2.672v.328q0 1.703.703 2.625.704.922 2.016.922zm9.89 1.375q-2 0-3.265-1.313-1.25-1.328-1.25-3.53v-.313q0-1.469.562-2.61.563-1.156 1.563-1.797 1.015-.656 2.187-.656 1.922 0 2.985 1.266 1.062 1.265 1.062 3.625v.687H67.06q.032 1.47.844 2.375.828.891 2.078.891.89 0 1.516-.36.625-.374 1.078-.968l1.031.797q-1.234 1.906-3.719 1.906zm-.203-8.844q-1.015 0-1.718.75-.688.735-.844 2.078h4.937v-.125q-.078-1.28-.703-1.984-.61-.719-1.672-.719zm7.603-1.203l.047 1.234q1.125-1.406 2.953-1.406 3.125 0 3.156 3.516v6.515h-1.687v-6.515q-.016-1.078-.5-1.578-.47-.516-1.485-.516-.812 0-1.437.438-.61.437-.969 1.156v7.015h-1.672v-9.859h1.594zm10.981-2.39v2.39h1.844v1.313h-1.844v6.109q0 .594.235.89.25.297.843.297.297 0 .813-.109v1.36q-.672.187-1.297.187-1.125 0-1.703-.688-.578-.687-.578-1.937v-6.11h-1.797v-1.312h1.797v-2.39h1.687zm8.579 3.906q-.39-.063-.844-.063-1.656 0-2.25 1.406v7h-1.672v-9.859h1.64l.016 1.14q.829-1.312 2.36-1.312.484 0 .75.125v1.563zm7.26 8.343q-.14-.296-.234-1.03-1.172 1.218-2.812 1.218-1.453 0-2.39-.828-.923-.828-.923-2.094 0-1.531 1.156-2.375 1.172-.86 3.297-.86h1.64v-.78q0-.891-.53-1.407-.516-.531-1.547-.531-.906 0-1.516.469-.61.453-.61 1.093h-1.702q0-.734.515-1.421.532-.688 1.422-1.079.906-.406 1.985-.406 1.703 0 2.671.86.97.843 1 2.328v4.531q0 1.36.344 2.172v.14h-1.765zm-2.796-1.28q.797 0 1.5-.407.718-.422 1.03-1.078v-2.016h-1.312q-3.109 0-3.109 1.813 0 .797.531 1.25.532.437 1.36.437zm8.695 1.28h-1.688v-14h1.688v14zm4.527 0h-1.688v-9.859h1.688v9.86zm-1.828-12.468q0-.407.25-.688.25-.297.734-.297.5 0 .75.297.266.281.266.688 0 .406-.266.687-.25.266-.75.266-.484 0-.734-.266-.25-.281-.25-.687zm6.105 11.093h5.766v1.375h-7.828v-1.234l5.437-7.234h-5.343v-1.39h7.468v1.202l-5.5 7.281zm11.6 1.563q-2 0-3.265-1.313-1.25-1.328-1.25-3.53v-.313q0-1.469.563-2.61.562-1.156 1.562-1.797 1.016-.656 2.188-.656 1.921 0 2.984 1.266 1.062 1.265 1.062 3.625v.687h-6.671q.03 1.47.843 2.375.828.891 2.078.891.891 0 1.516-.36.625-.374 1.078-.968l1.031.797q-1.234 1.906-3.718 1.906zm-.202-8.844q-1.016 0-1.72.75-.687.735-.843 2.078h4.938v-.125q-.079-1.28-.704-1.984-.609-.719-1.671-.719zm5.587 3.64q0-2.265 1.078-3.64t2.812-1.375q1.735 0 2.75 1.172v-5.14h1.688v14h-1.547l-.094-1.063q-1 1.25-2.812 1.25-1.704 0-2.797-1.406-1.078-1.407-1.078-3.657v-.14zm1.687.204q0 1.672.688 2.625.703.937 1.921.937 1.61 0 2.344-1.437v-4.531q-.765-1.39-2.328-1.39-1.234 0-1.937.952-.688.953-.688 2.844zm19.952 4.812q-.14-.296-.234-1.03-1.172 1.218-2.812 1.218-1.454 0-2.391-.828-.922-.828-.922-2.094 0-1.531 1.156-2.375 1.172-.86 3.297-.86h1.64v-.78q0-.891-.53-1.407-.516-.531-1.547-.531-.907 0-1.516.469-.61.453-.61 1.093h-1.702q0-.734.515-1.421.531-.688 1.422-1.079.906-.406 1.984-.406 1.704 0 2.672.86.97.843 1 2.328v4.531q0 1.36.344 2.172v.14h-1.766zm-2.796-1.28q.796 0 1.5-.407.718-.422 1.03-1.078v-2.016h-1.312q-3.109 0-3.109 1.813 0 .797.531 1.25.531.437 1.36.437zm8.46-8.579l.047 1.234q1.125-1.406 2.953-1.406 3.125 0 3.156 3.516v6.515h-1.687v-6.515q-.016-1.078-.5-1.578-.469-.516-1.485-.516-.812 0-1.437.438-.61.437-.969 1.156v7.015h-1.672v-9.859h1.594zm8.278 4.844q0-2.266 1.078-3.64 1.078-1.376 2.813-1.376 1.734 0 2.75 1.172v-5.14h1.687v14h-1.547l-.093-1.063q-1 1.25-2.813 1.25-1.703 0-2.797-1.406-1.078-1.407-1.078-3.657v-.14zm1.688.203q0 1.672.687 2.625.703.937 1.922.937 1.61 0 2.344-1.437v-4.531q-.766-1.39-2.328-1.39-1.235 0-1.938.952-.687.953-.687 2.844zm22.931-7.016h-4.265v11.828h-1.735V166.69h-4.25v-1.437h10.25v1.437zm5.792 3.485q-.39-.063-.843-.063-1.657 0-2.25 1.406v7h-1.672v-9.859h1.64l.016 1.14q.828-1.312 2.36-1.312.484 0 .75.125v1.563zm7.261 8.343q-.14-.296-.234-1.03-1.172 1.218-2.813 1.218-1.453 0-2.39-.828-.922-.828-.922-2.094 0-1.531 1.156-2.375 1.172-.86 3.297-.86h1.64v-.78q0-.891-.53-1.407-.516-.531-1.548-.531-.906 0-1.515.469-.61.453-.61 1.093h-1.703q0-.734.516-1.421.531-.688 1.422-1.079.906-.406 1.984-.406 1.703 0 2.672.86.969.843 1 2.328v4.531q0 1.36.344 2.172v.14h-1.766zm-2.797-1.28q.797 0 1.5-.407.719-.422 1.032-1.078v-2.016h-1.313q-3.11 0-3.11 1.813 0 .797.532 1.25.531.437 1.36.437zm8.46-8.579l.048 1.234q1.125-1.406 2.953-1.406 3.125 0 3.156 3.516v6.515h-1.688v-6.515q-.015-1.078-.5-1.578-.468-.516-1.484-.516-.812 0-1.437.438-.61.437-.97 1.156v7.015h-1.671v-9.859h1.594zm14.435 7.25q0-.687-.516-1.062-.515-.375-1.796-.641-1.282-.281-2.032-.656-.75-.39-1.109-.922-.36-.531-.36-1.266 0-1.203 1.016-2.031 1.031-.844 2.625-.844 1.672 0 2.719.86 1.047.859 1.047 2.218h-1.688q0-.703-.593-1.203-.594-.5-1.485-.5-.922 0-1.437.406-.516.391-.516 1.047 0 .61.484.922.485.313 1.735.594 1.265.281 2.047.672.781.39 1.156.937.39.547.39 1.344 0 1.328-1.062 2.125-1.047.797-2.734.797-1.188 0-2.11-.422-.906-.422-1.422-1.172-.515-.75-.515-1.625h1.687q.047.844.672 1.344.64.5 1.688.5.953 0 1.531-.39.578-.391.578-1.032zm12.198-2.203q0 2.25-1.031 3.625-1.016 1.375-2.782 1.375-1.797 0-2.828-1.14v4.75h-1.672v-13.657h1.532l.078 1.094q1.031-1.266 2.86-1.266 1.78 0 2.812 1.344 1.03 1.328 1.03 3.719v.156zm-1.672-.203q0-1.656-.719-2.625-.703-.969-1.953-.969-1.531 0-2.297 1.36v4.703q.766 1.359 2.328 1.359 1.203 0 1.922-.953.719-.969.719-2.875zm9.904 5.015q-.14-.296-.234-1.03-1.172 1.218-2.813 1.218-1.453 0-2.39-.828-.922-.828-.922-2.094 0-1.531 1.156-2.375 1.172-.86 3.297-.86h1.64v-.78q0-.891-.53-1.407-.516-.531-1.547-.531-.907 0-1.516.469-.61.453-.61 1.093h-1.703q0-.734.516-1.421.531-.688 1.422-1.079.906-.406 1.984-.406 1.703 0 2.672.86.969.843 1 2.328v4.531q0 1.36.344 2.172v.14h-1.766zm-2.797-1.28q.797 0 1.5-.407.72-.422 1.032-1.078v-2.016h-1.313q-3.11 0-3.11 1.813 0 .797.532 1.25.531.437 1.36.437zm11.633-7.063q-.39-.063-.844-.063-1.656 0-2.25 1.406v7h-1.672v-9.859h1.64l.016 1.14q.829-1.312 2.36-1.312.484 0 .75.125v1.563zm5.452 8.531q-2 0-3.266-1.313-1.25-1.328-1.25-3.53v-.313q0-1.469.563-2.61.562-1.156 1.562-1.797 1.016-.656 2.188-.656 1.922 0 2.984 1.266 1.063 1.265 1.063 3.625v.687h-6.672q.031 1.47.844 2.375.828.891 2.078.891.89 0 1.515-.36.625-.374 1.078-.968l1.032.797q-1.235 1.906-3.719 1.906zm-.203-8.844q-1.016 0-1.719.75-.687.735-.844 2.078h4.938v-.125q-.078-1.28-.703-1.984-.61-.719-1.672-.719zm7.602-1.203l.047 1.234q1.125-1.406 2.953-1.406 3.125 0 3.157 3.516v6.515h-1.688v-6.515q-.015-1.078-.5-1.578-.469-.516-1.484-.516-.813 0-1.438.438-.61.437-.968 1.156v7.015h-1.672v-9.859h1.593zm10.982-2.39v2.39h1.843v1.313h-1.843v6.109q0 .594.234.89.25.297.844.297.297 0 .812-.109v1.36q-.672.187-1.297.187-1.125 0-1.703-.688-.578-.687-.578-1.937v-6.11h-1.797v-1.312h1.797v-2.39h1.688z"/><path fill="#fff" d="M19.137 226.13a7.19 7.19 0 017.19-7.19h264.77a7.19 7.19 0 017.19 7.19v62.816a7.19 7.19 0 01-7.19 7.19H26.326a7.19 7.19 0 01-7.19-7.19z" fill-rule="evenodd"/><path fill="#000" d="M79.195 262.723q-.671.953-1.875 1.438-1.203.484-2.812.484-1.625 0-2.89-.766-1.25-.765-1.938-2.156-.688-1.406-.703-3.265V257.3q0-2.984 1.39-4.64 1.407-1.657 3.938-1.657 2.078 0 3.344 1.063 1.265 1.062 1.546 3.015h-1.75q-.484-2.625-3.125-2.625-1.765 0-2.671 1.235-.907 1.234-.907 3.562v1.094q0 2.235 1.016 3.547 1.016 1.313 2.766 1.313.984 0 1.718-.22.735-.218 1.22-.734v-2.984h-3.08v-1.422h4.813v4.875zm8.74.766q-.985 1.156-2.891 1.156-1.578 0-2.406-.922-.813-.922-.829-2.703v-6.422h1.688v6.375q0 2.235 1.828 2.235 1.922 0 2.563-1.438v-7.172h1.687v9.86h-1.61l-.03-.97zm10.284.969q-.14-.297-.234-1.032-1.172 1.219-2.813 1.219-1.453 0-2.39-.828-.922-.828-.922-2.094 0-1.531 1.156-2.375 1.172-.86 3.297-.86h1.64v-.78q0-.891-.53-1.407-.516-.531-1.548-.531-.906 0-1.515.469-.61.453-.61 1.094h-1.703q0-.735.516-1.422.531-.688 1.422-1.079.906-.406 1.984-.406 1.703 0 2.672.86.969.843 1 2.328v4.531q0 1.36.344 2.172v.14h-1.766zm-2.797-1.282q.797 0 1.5-.406.719-.422 1.031-1.078v-2.016h-1.312q-3.11 0-3.11 1.813 0 .797.532 1.25.531.437 1.36.437zm11.633-7.062q-.391-.063-.844-.063-1.656 0-2.25 1.407v7h-1.672v-9.86h1.64l.016 1.14q.828-1.312 2.36-1.312.484 0 .75.125v1.563zm7.26 8.344q-.14-.297-.234-1.032-1.172 1.219-2.813 1.219-1.453 0-2.39-.828-.922-.828-.922-2.094 0-1.531 1.156-2.375 1.172-.86 3.297-.86h1.64v-.78q0-.891-.53-1.407-.516-.531-1.547-.531-.907 0-1.516.469-.61.453-.61 1.094h-1.703q0-.735.516-1.422.531-.688 1.422-1.079.906-.406 1.984-.406 1.703 0 2.672.86.969.843 1 2.328v4.531q0 1.36.344 2.172v.14h-1.766zm-2.797-1.282q.797 0 1.5-.406.72-.422 1.032-1.078v-2.016h-1.313q-3.11 0-3.11 1.813 0 .797.532 1.25.531.437 1.36.437zm8.46-8.578l.048 1.234q1.125-1.406 2.953-1.406 3.125 0 3.156 3.516v6.516h-1.687v-6.516q-.016-1.078-.5-1.578-.47-.516-1.485-.516-.812 0-1.437.438-.61.437-.969 1.156v7.016h-1.672v-9.86h1.594zm10.982-2.39v2.39h1.844v1.313h-1.844v6.109q0 .594.235.89.25.298.843.298.297 0 .813-.11v1.36q-.672.187-1.297.187-1.125 0-1.703-.687-.578-.688-.578-1.938v-6.11h-1.797v-1.312h1.797v-2.39h1.687zm7.891 12.437q-2 0-3.265-1.312-1.25-1.329-1.25-3.532v-.312q0-1.469.562-2.61.563-1.156 1.563-1.797 1.015-.656 2.187-.656 1.922 0 2.985 1.266 1.062 1.266 1.062 3.625v.687h-6.672q.031 1.47.844 2.375.828.891 2.078.891.89 0 1.516-.36.625-.374 1.078-.968l1.031.797q-1.234 1.906-3.719 1.906zm-.203-8.844q-1.015 0-1.719.75-.687.735-.843 2.078h4.937v-.125q-.078-1.28-.703-1.984-.61-.719-1.672-.719zm10.087 8.844q-2 0-3.266-1.312-1.25-1.329-1.25-3.532v-.312q0-1.469.563-2.61.562-1.156 1.562-1.797 1.016-.656 2.188-.656 1.922 0 2.984 1.266 1.063 1.266 1.063 3.625v.687h-6.672q.031 1.47.844 2.375.828.891 2.078.891.89 0 1.515-.36.625-.374 1.079-.968l1.03.797q-1.234 1.906-3.718 1.906zm-.203-8.844q-1.016 0-1.719.75-.687.735-.844 2.078h4.938v-.125q-.078-1.28-.703-1.984-.61-.719-1.672-.719zm5.587 3.64q0-2.265 1.078-3.64t2.813-1.375q1.734 0 2.75 1.172v-5.14h1.687v14H160.9l-.094-1.063q-1 1.25-2.812 1.25-1.703 0-2.797-1.406-1.078-1.406-1.078-3.656v-.141zm1.687.204q0 1.672.688 2.625.703.938 1.922.938 1.61 0 2.344-1.438v-4.531q-.766-1.39-2.329-1.39-1.234 0-1.937.952-.688.953-.688 2.844zm21.625-1.312h-5.75v4.687h6.687v1.438h-8.422v-13.266h8.329v1.437h-6.594v4.266h5.75v1.438zm6.15-.141l2.188-3.594h1.968l-3.218 4.875 3.328 4.985h-1.953l-2.282-3.688-2.28 3.688h-1.954l3.328-4.985-3.234-4.875h1.953l2.156 3.594zm9.845 6.453q-2 0-3.265-1.312-1.25-1.329-1.25-3.532v-.312q0-1.469.562-2.61.563-1.156 1.563-1.797 1.015-.656 2.187-.656 1.922 0 2.984 1.266 1.063 1.266 1.063 3.625v.687h-6.672q.031 1.47.844 2.375.828.891 2.078.891.89 0 1.516-.36.625-.374 1.078-.968l1.031.797q-1.234 1.906-3.719 1.906zm-.203-8.844q-1.016 0-1.719.75-.687.735-.843 2.078h4.937v-.125q-.078-1.28-.703-1.984-.61-.719-1.672-.719zm9.962 7.469q.89 0 1.562-.547.688-.547.75-1.375h1.594q-.047.844-.578 1.61-.531.765-1.437 1.234-.891.453-1.891.453-2.016 0-3.203-1.344-1.188-1.343-1.188-3.687v-.281q0-1.438.516-2.547.531-1.125 1.516-1.735 1-.625 2.343-.625 1.657 0 2.75 1 1.11.985 1.172 2.563h-1.594q-.062-.953-.718-1.563-.657-.625-1.61-.625-1.28 0-2 .922-.703.922-.703 2.672v.328q0 1.703.703 2.625.703.922 2.016.922zm11.89.219q-.984 1.156-2.89 1.156-1.578 0-2.406-.922-.813-.922-.829-2.703v-6.422h1.688v6.375q0 2.235 1.828 2.235 1.922 0 2.563-1.438v-7.172h1.687v9.86h-1.61l-.03-.97zm6.488-11.281v2.39h1.844v1.313h-1.844v6.109q0 .594.235.89.25.298.843.298.297 0 .813-.11v1.36q-.672.187-1.297.187-1.125 0-1.703-.687-.578-.688-.578-1.938v-6.11h-1.797v-1.312h1.797v-2.39h1.687zm5.641 12.25h-1.687v-9.86h1.687v9.86zm-1.828-12.47q0-.405.25-.687.25-.297.735-.297.5 0 .75.297.265.282.265.688 0 .406-.265.687-.25.266-.75.266-.485 0-.735-.266-.25-.281-.25-.687zm4.074 7.454q0-1.453.563-2.61.578-1.156 1.594-1.78 1.015-.626 2.312-.626 2.016 0 3.25 1.39 1.25 1.392 1.25 3.704v.125q0 1.438-.547 2.578t-1.578 1.781q-1.015.641-2.36.641-2 0-3.25-1.39-1.234-1.407-1.234-3.704v-.11zm1.688.203q0 1.64.766 2.64.765.985 2.03.985 1.298 0 2.048-1 .75-1.016.75-2.828 0-1.625-.766-2.625-.766-1.016-2.047-1.016-1.25 0-2.015 1-.766.985-.766 2.844zm11-5.047l.046 1.235q1.125-1.407 2.953-1.407 3.125 0 3.156 3.516v6.516h-1.687v-6.516q-.016-1.078-.5-1.578-.469-.516-1.484-.516-.813 0-1.438.438-.61.437-.969 1.156v7.016h-1.672v-9.86h1.594z"/><path fill="#fff" d="M19.137 311.708a7.19 7.19 0 017.19-7.19h264.77a7.19 7.19 0 017.19 7.19v62.816a7.19 7.19 0 01-7.19 7.19H26.326a7.19 7.19 0 01-7.19-7.19z" fill-rule="evenodd"/><path fill="#000" d="M101.688 344.677h-3.125v5.36h-1.75V336.77h4.391q2.234 0 3.438 1.03 1.218 1.016 1.218 2.954 0 1.25-.672 2.172-.671.922-1.859 1.375l3.11 5.625v.11h-1.876l-2.875-5.36zm-3.125-1.438h2.688q1.312 0 2.078-.672.766-.671.766-1.812 0-1.219-.735-1.875-.734-.656-2.11-.672h-2.687v5.031zm13.566 6.985q-2 0-3.266-1.313-1.25-1.328-1.25-3.531v-.313q0-1.468.563-2.609.562-1.156 1.562-1.797 1.016-.656 2.188-.656 1.921 0 2.984 1.266 1.062 1.265 1.062 3.625v.687h-6.671q.03 1.469.843 2.375.828.89 2.078.89.891 0 1.516-.359.625-.375 1.078-.968l1.031.796q-1.234 1.907-3.718 1.907zm-.203-8.844q-1.016 0-1.72.75-.687.734-.843 2.078h4.938v-.125q-.079-1.281-.704-1.984-.609-.72-1.671-.72zm11.743 6.047q0-.688-.516-1.063t-1.797-.64q-1.281-.282-2.031-.657-.75-.39-1.11-.921-.359-.532-.359-1.266 0-1.203 1.016-2.031 1.031-.844 2.625-.844 1.672 0 2.719.86 1.046.859 1.046 2.218h-1.687q0-.703-.594-1.203-.594-.5-1.484-.5-.922 0-1.438.406-.515.39-.515 1.047 0 .61.484.922.484.312 1.734.594 1.266.28 2.047.672.782.39 1.157.937.39.547.39 1.344 0 1.328-1.062 2.125-1.047.797-2.735.797-1.187 0-2.109-.422-.906-.422-1.422-1.172-.516-.75-.516-1.625h1.688q.047.844.672 1.344.64.5 1.687.5.953 0 1.532-.39.578-.392.578-1.032zm9.963 1.64q-.984 1.157-2.89 1.157-1.579 0-2.407-.922-.812-.922-.828-2.703v-6.422h1.688v6.375q0 2.234 1.828 2.234 1.922 0 2.562-1.437v-7.172h1.688v9.86h-1.61l-.03-.97zm6.035.97h-1.688v-14h1.688v14zm4.98-12.25v2.39h1.844v1.312h-1.844v6.11q0 .593.235.89.25.297.843.297.297 0 .813-.11v1.36q-.672.188-1.297.188-1.125 0-1.703-.688-.578-.687-.578-1.937v-6.11h-1.797v-1.312h1.797v-2.39h1.687zm18.885 6.046q0 1.953-.656 3.406-.641 1.453-1.844 2.22-1.203.765-2.813.765-1.562 0-2.78-.766-1.204-.781-1.876-2.203-.672-1.422-.687-3.297v-.969q0-1.906.656-3.375.672-1.468 1.89-2.25 1.22-.78 2.782-.78 1.594 0 2.812.78 1.219.766 1.86 2.235.656 1.453.656 3.39v.844zm-1.734-.86q0-2.359-.954-3.609-.937-1.265-2.64-1.265-1.656 0-2.61 1.265-.953 1.25-.984 3.5v.97q0 2.28.953 3.593.969 1.312 2.656 1.312 1.688 0 2.61-1.234.937-1.234.969-3.547v-.984zm8.873-1.28q-.391-.063-.844-.063-1.656 0-2.25 1.406v7h-1.672v-9.86h1.64l.016 1.141q.828-1.312 2.36-1.312.484 0 .75.125v1.562zm3.375 8.343h-1.688v-9.86h1.688v9.86zm-1.828-12.469q0-.406.25-.687.25-.297.734-.297.5 0 .75.297.266.281.266.687 0 .407-.266.688-.25.266-.75.266-.484 0-.734-.266-.25-.281-.25-.688zm8.605 12.657q-2 0-3.265-1.313-1.25-1.328-1.25-3.531v-.313q0-1.468.562-2.609.563-1.156 1.563-1.797 1.015-.656 2.187-.656 1.922 0 2.985 1.266 1.062 1.265 1.062 3.625v.687h-6.672q.031 1.469.844 2.375.828.89 2.078.89.89 0 1.516-.359.625-.375 1.078-.968l1.031.796q-1.234 1.907-3.719 1.907zm-.203-8.844q-1.015 0-1.719.75-.687.734-.843 2.078h4.937v-.125q-.078-1.281-.703-1.984-.61-.72-1.672-.72zm7.603-1.203l.047 1.234q1.125-1.406 2.953-1.406 3.125 0 3.156 3.516v6.515h-1.687v-6.515q-.016-1.079-.5-1.579-.47-.515-1.485-.515-.812 0-1.437.437-.61.438-.97 1.157v7.015h-1.671v-9.86h1.594zm10.981-2.39v2.39h1.844v1.312h-1.844v6.11q0 .593.234.89.25.297.844.297.297 0 .813-.11v1.36q-.672.188-1.297.188-1.125 0-1.703-.688-.578-.687-.578-1.937v-6.11h-1.797v-1.312h1.797v-2.39h1.687zm7.891 12.437q-2 0-3.265-1.313-1.25-1.328-1.25-3.531v-.313q0-1.468.562-2.609.563-1.156 1.563-1.797 1.015-.656 2.187-.656 1.922 0 2.984 1.266 1.063 1.265 1.063 3.625v.687h-6.672q.031 1.469.844 2.375.828.89 2.078.89.89 0 1.516-.359.625-.375 1.078-.968l1.03.796q-1.233 1.907-3.718 1.907zm-.203-8.844q-1.016 0-1.719.75-.687.734-.843 2.078h4.937v-.125q-.078-1.281-.703-1.984-.61-.72-1.672-.72zm5.587 3.64q0-2.265 1.078-3.64t2.813-1.375q1.734 0 2.75 1.172v-5.14h1.687v14h-1.547l-.094-1.063q-1 1.25-2.812 1.25-1.703 0-2.797-1.407-1.078-1.406-1.078-3.656v-.14zm1.687.204q0 1.672.688 2.625.703.937 1.922.937 1.61 0 2.344-1.437v-4.532q-.766-1.39-2.329-1.39-1.234 0-1.937.953-.688.953-.688 2.844z"/><path fill="#fff" d="M19.137 397.648a7.19 7.19 0 017.19-7.19h264.77a7.19 7.19 0 017.19 7.19v62.817a7.19 7.19 0 01-7.19 7.19H26.326a7.19 7.19 0 01-7.19-7.19z" fill-rule="evenodd"/><path fill="#000" d="M88.143 433.648l3.781-10.937h1.922l-4.922 13.265h-1.546l-4.922-13.265h1.906l3.781 10.937zm10.89 2.516q-2 0-3.265-1.313-1.25-1.328-1.25-3.531v-.313q0-1.468.563-2.609.562-1.156 1.562-1.797 1.016-.656 2.188-.656 1.921 0 2.984 1.266 1.062 1.265 1.062 3.625v.687h-6.671q.03 1.469.843 2.375.828.89 2.078.89.891 0 1.516-.359.625-.375 1.078-.968l1.031.796q-1.234 1.907-3.718 1.907zm-.202-8.844q-1.016 0-1.72.75-.687.734-.843 2.078h4.938v-.125q-.079-1.281-.704-1.984-.609-.719-1.671-.719zm10.774.312q-.39-.062-.844-.062-1.656 0-2.25 1.406v7h-1.672v-9.86h1.641l.016 1.141q.828-1.312 2.359-1.312.484 0 .75.125v1.562zm7.282 5.735q0-.688-.516-1.063t-1.797-.64q-1.281-.282-2.031-.657-.75-.39-1.11-.921-.359-.532-.359-1.266 0-1.203 1.016-2.031 1.031-.844 2.625-.844 1.672 0 2.718.86 1.047.859 1.047 2.218h-1.687q0-.703-.594-1.203-.594-.5-1.484-.5-.922 0-1.438.406-.515.39-.515 1.047 0 .61.484.922.484.312 1.734.594 1.266.281 2.047.672.781.39 1.156.937.391.547.391 1.344 0 1.328-1.062 2.125-1.047.797-2.735.797-1.187 0-2.11-.422-.905-.422-1.421-1.172t-.516-1.625h1.688q.047.844.672 1.344.64.5 1.687.5.953 0 1.531-.39.579-.392.579-1.032zm9.963 2.61q-.14-.298-.234-1.032-1.172 1.219-2.813 1.219-1.453 0-2.39-.828-.922-.829-.922-2.094 0-1.531 1.156-2.375 1.172-.86 3.297-.86h1.64v-.78q0-.891-.53-1.407-.517-.531-1.548-.531-.906 0-1.515.468-.61.454-.61 1.094h-1.703q0-.734.516-1.422.531-.687 1.422-1.078.906-.406 1.984-.406 1.703 0 2.672.86.969.843 1 2.327v4.532q0 1.36.344 2.172v.14h-1.766zm-2.797-1.282q.797 0 1.5-.406.719-.422 1.031-1.078v-2.016h-1.312q-3.11 0-3.11 1.812 0 .797.532 1.25.531.438 1.36.438zm9.148-10.969v2.39h1.844v1.313H133.2v6.11q0 .593.234.89.25.297.844.297.297 0 .813-.11v1.36q-.672.188-1.297.188-1.125 0-1.703-.688-.578-.687-.578-1.937v-6.11h-1.797v-1.312h1.797v-2.39h1.687zm5.641 12.25h-1.687v-9.86h1.687v9.86zm-1.828-12.469q0-.406.25-.687.25-.297.734-.297.5 0 .75.297.266.281.266.687 0 .407-.266.688-.25.266-.75.266-.484 0-.734-.266-.25-.281-.25-.688zm6.356 12.47h-1.688v-14h1.688v14zm6.777.187q-2 0-3.266-1.313-1.25-1.328-1.25-3.531v-.313q0-1.468.563-2.609.562-1.156 1.562-1.797 1.016-.656 2.188-.656 1.922 0 2.984 1.266 1.063 1.265 1.063 3.625v.687h-6.672q.031 1.469.844 2.375.828.89 2.078.89.89 0 1.515-.359.625-.375 1.079-.968l1.03.796q-1.234 1.907-3.718 1.907zm-.203-8.844q-1.016 0-1.719.75-.687.734-.844 2.078h4.938v-.125q-.078-1.281-.703-1.984-.61-.719-1.672-.719zm14.8 2.75q-2.25-.656-3.282-1.594-1.031-.937-1.031-2.328 0-1.562 1.25-2.594 1.265-1.03 3.265-1.03 1.36 0 2.438.53 1.078.532 1.656 1.47.594.921.594 2.03h-1.766q0-1.203-.765-1.89-.766-.688-2.157-.688-1.297 0-2.015.563-.72.562-.72 1.578 0 .812.688 1.375.688.562 2.329 1.031 1.656.453 2.593 1.016.938.562 1.375 1.312.453.75.453 1.75 0 1.61-1.25 2.594-1.25.969-3.359.969-1.375 0-2.562-.516-1.172-.531-1.813-1.437-.64-.922-.64-2.079h1.75q0 1.204.89 1.907.89.687 2.375.687 1.375 0 2.11-.562.75-.563.75-1.532 0-.984-.688-1.515-.688-.531-2.469-1.047zm9.177-6.344v2.39h1.843v1.313h-1.843v6.11q0 .593.234.89.25.297.844.297.297 0 .812-.11v1.36q-.672.188-1.297.188-1.125 0-1.703-.688-.578-.687-.578-1.937v-6.11h-1.797v-1.312h1.797v-2.39h1.688zm8.578 3.906q-.39-.062-.844-.062-1.656 0-2.25 1.406v7h-1.671v-9.86h1.64l.016 1.141q.828-1.312 2.36-1.312.484 0 .75.125v1.562zm7.626 7.375q-.985 1.157-2.891 1.157-1.578 0-2.406-.922-.813-.922-.828-2.703v-6.422h1.687v6.375q0 2.234 1.828 2.234 1.922 0 2.563-1.437v-7.172h1.687v9.86h-1.61l-.03-.97zm8.16-.218q.89 0 1.562-.547.687-.547.75-1.375h1.593q-.046.844-.578 1.61-.53.765-1.437 1.234-.89.453-1.89.453-2.016 0-3.204-1.344-1.187-1.344-1.187-3.688v-.28q0-1.438.515-2.548.531-1.125 1.516-1.734 1-.625 2.344-.625 1.656 0 2.75 1 1.109.984 1.171 2.562h-1.593q-.063-.953-.72-1.562-.655-.625-1.608-.625-1.282 0-2 .922-.704.922-.704 2.672v.328q0 1.703.704 2.625.703.922 2.015.922zm8.093-11.063v2.39h1.843v1.313h-1.843v6.11q0 .593.234.89.25.297.844.297.297 0 .812-.11v1.36q-.672.188-1.297.188-1.125 0-1.703-.688-.578-.687-.578-1.937v-6.11h-1.797v-1.312h1.797v-2.39h1.688zm9.89 11.281q-.984 1.157-2.89 1.157-1.578 0-2.406-.922-.813-.922-.828-2.703v-6.422h1.687v6.375q0 2.234 1.828 2.234 1.922 0 2.563-1.437v-7.172h1.687v9.86H216.3l-.031-.97zm8.973-7.375q-.39-.062-.844-.062-1.656 0-2.25 1.406v7h-1.672v-9.86h1.64l.017 1.141q.828-1.312 2.359-1.312.484 0 .75.125v1.562zm5.452 8.532q-2 0-3.265-1.313-1.25-1.328-1.25-3.531v-.313q0-1.468.562-2.609.563-1.156 1.563-1.797 1.015-.656 2.187-.656 1.922 0 2.984 1.266 1.063 1.265 1.063 3.625v.687h-6.672q.031 1.469.844 2.375.828.89 2.078.89.89 0 1.516-.359.625-.375 1.078-.968l1.03.796q-1.233 1.907-3.718 1.907zm-.203-8.844q-1.016 0-1.719.75-.687.734-.843 2.078h4.937v-.125q-.078-1.281-.703-1.984-.61-.719-1.672-.719z"/><path fill="#fff" d="M308.92 140.19a7.19 7.19 0 017.19-7.191h191.258a7.19 7.19 0 017.19 7.19v62.817a7.19 7.19 0 01-7.19 7.19H316.111a7.19 7.19 0 01-7.19-7.19zm0 85.94a7.19 7.19 0 017.19-7.19h191.258a7.19 7.19 0 017.19 7.19v62.816a7.19 7.19 0 01-7.19 7.19H316.111a7.19 7.19 0 01-7.19-7.19zm0 85.578a7.19 7.19 0 017.19-7.19h191.258a7.19 7.19 0 017.19 7.19v62.816a7.19 7.19 0 01-7.19 7.19H316.111a7.19 7.19 0 01-7.19-7.19zm0 85.94a7.19 7.19 0 017.19-7.19h191.258a7.19 7.19 0 017.19 7.19v62.817a7.19 7.19 0 01-7.19 7.19H316.111a7.19 7.19 0 01-7.19-7.19zM522.073 140.19a7.19 7.19 0 017.19-7.191h191.258a7.19 7.19 0 017.19 7.19v62.817a7.19 7.19 0 01-7.19 7.19H529.263a7.19 7.19 0 01-7.19-7.19zm0 85.94a7.19 7.19 0 017.19-7.19h191.258a7.19 7.19 0 017.19 7.19v62.816a7.19 7.19 0 01-7.19 7.19H529.263a7.19 7.19 0 01-7.19-7.19zm0 85.578a7.19 7.19 0 017.19-7.19h191.258a7.19 7.19 0 017.19 7.19v62.816a7.19 7.19 0 01-7.19 7.19H529.263a7.19 7.19 0 01-7.19-7.19zm0 85.94a7.19 7.19 0 017.19-7.19h191.258a7.19 7.19 0 017.19 7.19v62.817a7.19 7.19 0 01-7.19 7.19H529.263a7.19 7.19 0 01-7.19-7.19zM735.226 140.19a7.19 7.19 0 017.19-7.191h191.257a7.19 7.19 0 017.19 7.19v62.817a7.19 7.19 0 01-7.19 7.19H742.416a7.19 7.19 0 01-7.19-7.19zm0 85.94a7.19 7.19 0 017.19-7.19h191.257a7.19 7.19 0 017.19 7.19v62.816a7.19 7.19 0 01-7.19 7.19H742.416a7.19 7.19 0 01-7.19-7.19zm0 85.578a7.19 7.19 0 017.19-7.19h191.257a7.19 7.19 0 017.19 7.19v62.816a7.19 7.19 0 01-7.19 7.19H742.416a7.19 7.19 0 01-7.19-7.19zm0 85.94a7.19 7.19 0 017.19-7.19h191.257a7.19 7.19 0 017.19 7.19v62.817a7.19 7.19 0 01-7.19 7.19H742.416a7.19 7.19 0 01-7.19-7.19z" fill-rule="evenodd"/><path d="M49.86 75.339h217.701v29.763h-217.7z"/><path fill="#fff" d="M120.972 97.7V82.966h7.125l-.297 2.016h-4.125v4.5h3.594v2.031h-3.594V97.7h-2.703zm15.908-14.734l-.281 2.016h-4.328v4.234h3.78v2h-3.78v4.438h4.609V97.7h-7.313V82.966h7.313zm8.532 14.734l-.719-3.453h-3.797l-.703 3.453h-2.719l3.72-14.734h3.28l3.688 14.734h-2.75zm-4.094-5.5h2.969l-1.5-7.171-1.469 7.171zm15.096-9.234l-.297 2.125h-3.031v12.61h-2.703V85.09h-3.156v-2.125h9.187zM166.83 93.56q0 1.937-1.203 3.187-1.203 1.25-3.453 1.25-2.282 0-3.485-1.218-1.187-1.235-1.187-3.22V82.967h2.718v10.469q0 1.234.47 1.844.468.609 1.484.609 1 0 1.468-.61.469-.609.469-1.843v-10.47h2.719V93.56zm8.953 4.14l-2.594-5.953h-1.312V97.7h-2.703V82.966h3.468q5.344 0 5.344 4.328 0 1.344-.61 2.375-.593 1.031-1.78 1.563l3.109 6.468h-2.922zm-3-7.906q1.25 0 1.813-.594.562-.609.562-1.906 0-1.219-.594-1.781-.578-.563-1.922-.563h-.765v4.844h.906zm14.602-6.828l-.281 2.016h-4.329v4.234h3.782v2h-3.782v4.438h4.61V97.7h-7.313V82.966h7.313zm5.444-.297q1.28 0 2.25.453.984.438 1.812 1.328l-1.25 1.454q-.656-.594-1.297-.891-.625-.297-1.328-.297-.812 0-1.281.5-.469.5-.469 1.313 0 .812.484 1.328.5.5 1.922 1.062 1.844.735 2.703 1.75.86 1 .86 2.828 0 1.266-.578 2.297-.563 1.031-1.641 1.625-1.078.594-2.516.594-1.468 0-2.562-.516-1.078-.515-1.969-1.484l1.36-1.484q.765.671 1.468 1.046.703.36 1.532.36.984 0 1.53-.61.548-.609.548-1.656 0-.922-.485-1.5-.484-.594-1.781-1.078-1.953-.797-2.828-1.812-.86-1.032-.86-2.563 0-1.172.563-2.078.563-.922 1.563-1.438 1.015-.53 2.25-.53z"/><path d="M329.126 75.338h165.921v29.764H329.126z"/><path fill="#fff" d="M377.52 69.966l-.296 2.125h-3.031V84.7h-2.704V72.09h-3.156v-2.125h9.188zm5.573 3.172q.485 0 .875.156l-.422 2.516q-.437-.11-.797-.11-.812 0-1.28.703-.47.703-.72 2.094V84.7h-2.625V73.42h2.282l.187 1.953q.797-2.234 2.5-2.234zm8.718 8.828q0 .562.14.828.157.266.5.437l-.53 1.75q-.875-.109-1.407-.468-.515-.36-.765-1.11-.985 1.61-2.75 1.61-1.407 0-2.25-.938-.828-.953-.828-2.531 0-1.828 1.14-2.781 1.14-.969 3.313-.969h.875v-.797q0-1.062-.375-1.5-.36-.437-1.203-.437-1 0-2.485.562l-.61-1.719q.86-.375 1.766-.578.922-.203 1.766-.203 3.703 0 3.703 3.75v5.094zm-4.11 1.156q1.016 0 1.548-1.406V79.34h-.61q-1.093 0-1.593.5-.5.484-.5 1.515 0 .875.296 1.329.297.437.86.437zm14.73-14.219V84.7h-2.327l-.125-1.297q-1 1.61-2.579 1.61-1.75 0-2.687-1.563-.922-1.562-.922-4.375 0-1.797.484-3.14.485-1.36 1.329-2.079.859-.734 1.968-.734 1.36 0 2.235 1.125v-5.625l2.625.281zm-4.28 14.141q.484 0 .874-.344.407-.344.782-.984V76.23q-.672-1.156-1.547-1.156-1.735 0-1.735 3.969 0 2.156.422 3.078.438.922 1.203.922zm9.344-9.625V84.7h-2.625V73.42h2.625zm-1.328-5.625q.703 0 1.14.453.438.438.438 1.14 0 .688-.438 1.141-.437.438-1.14.438-.703 0-1.14-.438-.438-.453-.438-1.14 0-.703.437-1.14.438-.454 1.14-.454zm9.43 16.39q-1.047.829-2.454.829-1.468 0-2.25-.828-.765-.844-.765-2.297V75.31h-1.313v-1.891h1.313v-2.5l2.625-.313v2.813h2.14l-.265 1.89h-1.875v6.579q0 1.015.875 1.015.281 0 .484-.062.219-.078.563-.281l.922 1.625zm3.714-10.765V84.7h-2.625V73.42h2.625zm-1.328-5.625q.703 0 1.14.453.438.438.438 1.14 0 .688-.438 1.141-.437.438-1.14.438-.704 0-1.141-.438-.438-.453-.438-1.14 0-.703.438-1.14.437-.454 1.14-.454zm7.758 5.328q2.14 0 3.312 1.5 1.188 1.484 1.188 4.422 0 2.812-1.188 4.39-1.187 1.579-3.312 1.579-2.11 0-3.313-1.532-1.187-1.546-1.187-4.437 0-2.86 1.187-4.39 1.203-1.532 3.313-1.532zm0 1.984q-.907 0-1.344.907-.422.906-.422 3.031 0 2.156.422 3.062.437.907 1.344.907.921 0 1.343-.907.438-.906.438-3.062 0-2.156-.438-3.047-.422-.89-1.343-.89zm11.716-1.984q1.219 0 1.922.875.703.875.703 2.344v8.36h-2.625v-8.063q0-.813-.234-1.157-.22-.359-.641-.359-.89 0-1.766 1.688v7.89h-2.625V73.42h2.282l.187 1.469q.578-.89 1.219-1.328.656-.438 1.578-.438zm12.196 8.844q0 .562.14.828.157.266.5.437l-.53 1.75q-.875-.109-1.407-.468-.515-.36-.765-1.11-.985 1.61-2.75 1.61-1.406 0-2.25-.938-.828-.953-.828-2.531 0-1.828 1.14-2.781 1.14-.969 3.313-.969h.875v-.797q0-1.062-.375-1.5-.36-.437-1.203-.437-1 0-2.485.562l-.61-1.719q.86-.375 1.767-.578.921-.203 1.765-.203 3.703 0 3.703 3.75v5.094zm-4.11 1.156q1.017 0 1.548-1.406V79.34h-.61q-1.093 0-1.593.5-.5.484-.5 1.515 0 .875.297 1.329.296.437.859.437zm8.767 1.89q-1.156 0-1.828-.702-.672-.72-.672-1.907v-13.5l2.625-.28v13.671q0 .266.125.437.125.172.391.172.14 0 .281-.03.141-.048.188-.048l.5 1.797q-.719.39-1.61.39zm-87.692 10.657q2.61 0 4.016 1.906 1.406 1.89 1.406 5.75 0 3.813-1.406 5.75-1.407 1.938-4.016 1.938-2.578 0-4-1.907-1.406-1.921-1.406-5.765 0-3.797 1.406-5.735 1.422-1.937 4-1.937zm0 2.047q-1.297 0-1.922 1.297t-.625 4.328q0 3.047.64 4.328.641 1.266 1.907 1.266 1.328 0 1.953-1.25.64-1.266.64-4.36 0-3.031-.64-4.312-.64-1.297-1.953-1.297zm12.359 1.422q.484 0 .875.156l-.422 2.516q-.437-.11-.797-.11-.812 0-1.281.703-.469.703-.719 2.094v6.203h-2.625V99.42h2.281l.188 1.953q.797-2.234 2.5-2.234zm10.19.86q-.453.202-1.078.296-.625.078-1.563.078.891.438 1.328 1.156.438.703.438 1.75 0 1.703-1.047 2.75t-2.828 1.047q-.531 0-1.094-.172-.375.328-.375.875 0 .422.235.641.234.219.875.219h1.187q1.703 0 2.703.89 1.016.875 1.016 2.235 0 1.625-1.25 2.593-1.25.97-3.563.97-2.422 0-3.39-.891-.969-.891-.969-2.625h2.312q0 .921.422 1.296.438.391 1.657.391 1.171 0 1.656-.406.5-.406.5-1.156 0-.72-.406-1.063-.407-.344-1.266-.344h-.813q-1.609 0-2.359-.578t-.75-1.578q0-.578.313-1.094.312-.53.843-.922-.875-.562-1.28-1.328-.407-.765-.407-1.875 0-1.859 1.11-2.937 1.109-1.078 2.984-1.078 1.39 0 2.296-.297.907-.297 1.907-.875l.656 2.031zm-4.86.89q-.75 0-1.14.531-.375.531-.375 1.687 0 1.094.375 1.688.39.578 1.125.578.734 0 1.094-.516.375-.53.375-1.765 0-1.156-.36-1.672-.343-.531-1.093-.531zm12.794 7.078q0 .562.14.828.157.266.5.437l-.53 1.75q-.876-.109-1.407-.468-.516-.36-.766-1.11-.984 1.61-2.75 1.61-1.406 0-2.25-.938-.828-.953-.828-2.531 0-1.828 1.14-2.781 1.141-.969 3.313-.969h.875v-.797q0-1.062-.375-1.5-.36-.437-1.203-.437-1 0-2.484.562l-.61-1.719q.86-.375 1.766-.578.922-.203 1.766-.203 3.703 0 3.703 3.75v5.094zm-4.11 1.156q1.016 0 1.547-1.406v-2.375h-.61q-1.093 0-1.593.5-.5.484-.5 1.515 0 .875.297 1.329.297.437.86.437zm11.855-10q1.219 0 1.922.875.703.875.703 2.344v8.36h-2.625v-8.063q0-.813-.234-1.157-.219-.359-.64-.359-.891 0-1.766 1.688v7.89h-2.625V99.42h2.28l.188 1.469q.578-.89 1.22-1.328.655-.438 1.577-.438zm7.618.297V110.7h-2.625V99.42h2.625zm-1.328-5.625q.703 0 1.14.453.438.438.438 1.14 0 .688-.437 1.141-.438.438-1.14.438-.704 0-1.141-.438-.438-.453-.438-1.14 0-.703.438-1.14.437-.454 1.14-.454zm10.133 5.625v1.89l-4.5 7.329h4.578l-.234 2.062h-7.156v-1.89l4.5-7.329h-4.125V99.42h6.937zm8.656 8.547q0 .562.14.828.157.266.5.437l-.53 1.75q-.876-.109-1.407-.468-.516-.36-.766-1.11-.984 1.61-2.75 1.61-1.406 0-2.25-.938-.828-.953-.828-2.531 0-1.828 1.14-2.781 1.141-.969 3.313-.969h.875v-.797q0-1.062-.375-1.5-.36-.437-1.203-.437-1 0-2.484.562l-.61-1.719q.86-.375 1.766-.578.922-.203 1.766-.203 3.703 0 3.703 3.75v5.094zm-4.11 1.156q1.016 0 1.547-1.406v-2.375h-.61q-1.093 0-1.593.5-.5.484-.5 1.515 0 .875.297 1.329.297.437.86.437zm12.262 1.063q-1.047.828-2.454.828-1.468 0-2.25-.828-.765-.844-.765-2.297v-6.578h-1.313v-1.891h1.313v-2.5l2.625-.313v2.813h2.14l-.265 1.89h-1.875v6.579q0 1.015.875 1.015.281 0 .484-.062.219-.078.563-.281l.922 1.625zm3.714-10.766V110.7h-2.625V99.42h2.625zm-1.328-5.625q.703 0 1.14.453.438.438.438 1.14 0 .688-.438 1.141-.437.438-1.14.438-.704 0-1.141-.438-.438-.453-.438-1.14 0-.703.438-1.14.437-.454 1.14-.454zm7.757 5.328q2.141 0 3.313 1.5 1.187 1.484 1.187 4.422 0 2.812-1.187 4.39-1.188 1.579-3.313 1.579-2.109 0-3.312-1.532-1.188-1.546-1.188-4.437 0-2.86 1.188-4.39 1.203-1.532 3.312-1.532zm0 1.984q-.906 0-1.343.907-.422.906-.422 3.031 0 2.156.422 3.062.437.907 1.343.907.922 0 1.344-.907.438-.906.438-3.062 0-2.156-.438-3.047-.422-.89-1.344-.89zm11.717-1.984q1.219 0 1.922.875.703.875.703 2.344v8.36h-2.625v-8.063q0-.813-.234-1.157-.22-.359-.641-.359-.89 0-1.766 1.688v7.89h-2.625V99.42h2.282l.187 1.469q.578-.89 1.219-1.328.656-.438 1.578-.438z"/><path d="M554.652 75.339h140.473v29.763H554.652z"/><path fill="#fff" d="M612.42 82.966q1.86 0 3.204.563 1.36.562 2.203 2.171.844 1.61.844 4.563 0 4.156-1.657 5.797-1.656 1.64-4.312 1.64h-3.563V82.966h3.282zm-.577 2.016v10.687h1q.968 0 1.609-.437.656-.453 1.031-1.64.375-1.204.375-3.33 0-2.187-.406-3.327-.39-1.156-1.047-1.547-.64-.406-1.578-.406h-.984zM627.095 97.7l-.718-3.453h-3.797l-.703 3.453h-2.72l3.72-14.734h3.28l3.688 14.734h-2.75zm-4.093-5.5h2.968l-1.5-7.171-1.468 7.171zm12.746-9.53q2.61 0 4.015 1.905 1.407 1.891 1.407 5.75 0 3.813-1.407 5.75-1.406 1.938-4.015 1.938-2.578 0-4-1.906-1.407-1.922-1.407-5.766 0-3.797 1.407-5.734 1.422-1.938 4-1.938zm0 2.046q-1.297 0-1.922 1.297t-.625 4.328q0 3.047.64 4.328.641 1.266 1.907 1.266 1.328 0 1.953-1.25.64-1.266.64-4.36 0-3.03-.64-4.312-.64-1.297-1.953-1.297z"/><path d="M767.438 75.339h141.197v29.763H767.438z"/><path fill="#fff" d="M825.44 82.966q1.86 0 3.204.563 1.36.562 2.203 2.171.844 1.61.844 4.563 0 4.156-1.656 5.797-1.657 1.64-4.313 1.64h-3.562V82.966h3.28zm-.577 2.016v10.687h1q.968 0 1.609-.437.656-.453 1.031-1.64.375-1.204.375-3.33 0-2.187-.406-3.327-.39-1.156-1.047-1.547-.64-.406-1.578-.406h-.984zm12.231-2.016q2.657 0 4.047 1.188 1.407 1.171 1.407 3.484 0 2.453-1.375 3.672-1.375 1.203-3.891 1.203h-.86V97.7h-2.703V82.966h3.375zm.032 7.531q1.39 0 2-.64.625-.64.625-2.203 0-1.407-.625-2.047-.61-.64-1.97-.64h-.733v5.53h.703zm11.898-7.828q2.61 0 4.016 1.906 1.406 1.891 1.406 5.75 0 3.813-1.406 5.75-1.407 1.938-4.016 1.938-2.578 0-4-1.906-1.406-1.922-1.406-5.766 0-3.797 1.406-5.734 1.422-1.938 4-1.938zm0 2.047q-1.297 0-1.922 1.297t-.625 4.328q0 3.047.64 4.328.641 1.266 1.907 1.266 1.328 0 1.953-1.25.64-1.266.64-4.36 0-3.03-.64-4.312-.64-1.297-1.953-1.297z"/><path fill="#ffbe2e" d="M404.73 366.044l-14.724-17.693c-1.84-2.224-1.84-5.807 0-8.02 1.84-2.224 4.83-2.224 6.671 0l8.09 9.715 22.023-26.177c1.85-2.213 4.84-2.192 6.67.043 1.833 2.224 1.815 5.818-.035 8.02l-28.694 34.112M617.96 193.603l-14.724-17.693c-1.84-2.224-1.84-5.808 0-8.02 1.84-2.224 4.83-2.224 6.67 0l8.09 9.715 22.024-26.178c1.85-2.213 4.84-2.19 6.67.044 1.832 2.223 1.814 5.818-.035 8.02l-28.695 34.112" fill-rule="evenodd"/><path fill="#ec3d3d" d="M612.559 323.306c1.207 0 2.416.547 3.337 1.643l9.08 10.845 9.08-10.845c1.833-2.19 4.834-2.19 6.667 0 1.833 2.19 1.833 5.765 0 7.966l-9.079 10.843 9.08 10.844c1.832 2.19 1.832 5.776 0 7.966-1.834 2.19-4.835 2.19-6.668 0l-9.08-10.845-9.08 10.845c-1.842 2.19-4.834 2.19-6.667 0-1.833-2.19-1.833-5.776 0-7.966l9.078-10.844-9.078-10.843c-1.833-2.201-1.833-5.776 0-7.966.916-1.096 2.123-1.643 3.33-1.643z" fill-rule="evenodd"/><path fill="#ffbe2e" d="M830.045 362.3l-14.724-17.692c-1.84-2.224-1.84-5.808 0-8.02 1.84-2.224 4.83-2.224 6.67 0l8.09 9.715 22.024-26.177c1.849-2.213 4.839-2.192 6.67.043 1.832 2.223 1.814 5.818-.036 8.02l-28.694 34.112m0 89.701l-14.724-17.693c-1.84-2.224-1.84-5.808 0-8.02 1.84-2.224 4.83-2.224 6.67 0l8.09 9.715 22.024-26.177c1.849-2.213 4.839-2.192 6.67.043 1.832 2.223 1.814 5.818-.036 8.02l-28.694 34.112m0-258.127l-14.724-17.693c-1.84-2.223-1.84-5.807 0-8.02 1.84-2.224 4.83-2.224 6.67 0l8.09 9.715 22.024-26.177c1.849-2.213 4.839-2.191 6.67.043 1.832 2.224 1.814 5.818-.036 8.02l-28.694 34.112" fill-rule="evenodd"/><path fill="#ec3d3d" d="M396.678 149.998c1.207 0 2.416.547 3.337 1.642l9.08 10.845 9.08-10.845c1.833-2.19 4.834-2.19 6.667 0 1.833 2.19 1.833 5.766 0 7.967l-9.079 10.843 9.079 10.844c1.833 2.19 1.833 5.776 0 7.966-1.833 2.19-4.834 2.19-6.667 0l-9.08-10.845-9.08 10.845c-1.842 2.19-4.835 2.19-6.668 0-1.833-2.19-1.833-5.776 0-7.966l9.08-10.844-9.08-10.843c-1.833-2.201-1.833-5.776 0-7.967.917-1.095 2.123-1.642 3.33-1.642z" fill-rule="evenodd"/><path fill="#ffbe2e" d="M618.106 282.839l-14.724-17.693c-1.841-2.224-1.841-5.808 0-8.02 1.84-2.224 4.83-2.224 6.67 0l8.09 9.715 22.023-26.178c1.85-2.212 4.84-2.19 6.671.044 1.832 2.223 1.814 5.818-.036 8.02l-28.694 34.112" fill-rule="evenodd"/><path fill="#ec3d3d" d="M396.678 240.148c1.207 0 2.416.547 3.337 1.642l9.08 10.845 9.08-10.845c1.833-2.19 4.834-2.19 6.667 0 1.833 2.19 1.833 5.766 0 7.967l-9.079 10.843 9.079 10.844c1.833 2.19 1.833 5.776 0 7.966-1.833 2.19-4.834 2.19-6.667 0l-9.08-10.845-9.08 10.845c-1.842 2.19-4.835 2.19-6.668 0-1.833-2.19-1.833-5.776 0-7.966l9.08-10.844-9.08-10.843c-1.833-2.201-1.833-5.776 0-7.967.917-1.095 2.123-1.642 3.33-1.642z" fill-rule="evenodd"/><path fill="#ffbe2e" d="M830.045 282.84l-14.724-17.693c-1.84-2.224-1.84-5.807 0-8.02 1.84-2.224 4.83-2.224 6.67 0l8.09 9.715 22.024-26.177c1.849-2.213 4.839-2.192 6.67.043 1.832 2.224 1.814 5.818-.036 8.02l-28.694 34.112m-427.97 166.63l-14.724-17.692c-1.84-2.224-1.84-5.807 0-8.02 1.84-2.224 4.83-2.224 6.67 0l8.09 9.715 22.024-26.177c1.85-2.213 4.84-2.192 6.67.043 1.832 2.224 1.814 5.818-.035 8.02l-28.695 34.112" fill-rule="evenodd"/><path fill="#ec3d3d" d="M612.559 405.997c1.207 0 2.416.548 3.337 1.643l9.08 10.845 9.08-10.845c1.833-2.19 4.834-2.19 6.667 0 1.833 2.19 1.833 5.765 0 7.966l-9.079 10.844 9.08 10.843c1.832 2.19 1.832 5.776 0 7.967-1.834 2.19-4.835 2.19-6.668 0l-9.08-10.846-9.08 10.846c-1.842 2.19-4.834 2.19-6.667 0-1.833-2.19-1.833-5.777 0-7.967l9.078-10.843-9.078-10.844c-1.833-2.201-1.833-5.776 0-7.966.916-1.095 2.123-1.643 3.33-1.643z" fill-rule="evenodd"/></g></svg>