<svg xmlns="http://www.w3.org/2000/svg" xmlns:xlink="http://www.w3.org/1999/xlink" xmlns:lucid="lucid" width="1040" height="780"><g transform="translate(-20 -25.333)" lucid:page-tab-id="0_0"><path d="M0 0h1870.87v1322.83H0z" fill="#fff"/><path d="M440 51.33c0-3.3 2.7-6 6-6h168c3.3 0 6 2.7 6 6v68c0 3.32-2.7 6-6 6H446c-3.3 0-6-2.68-6-6z" stroke="#5e5e5e" stroke-width="3" fill="#fff"/><use xlink:href="#a" transform="translate(480.154 89.111)"/><path d="M860 491.33c0-3.3 2.7-6 6-6h168c3.3 0 6 2.7 6 6v68c0 3.32-2.7 6-6 6H866c-3.3 0-6-2.68-6-6z" stroke="#5e5e5e" stroke-width="3" fill="#fff"/><use xlink:href="#b" transform="translate(903.24 529.111)"/><path d="M440 251.33c0-3.3 2.7-6 6-6h168c3.3 0 6 2.7 6 6v68c0 3.32-2.7 6-6 6H446c-3.3 0-6-2.68-6-6z" stroke="#5e5e5e" stroke-width="3" fill="#fff"/><use xlink:href="#c" transform="translate(491.883 289.111)"/><path d="M80 491.33c0-3.3 2.7-6 6-6h168c3.3 0 6 2.7 6 6v68c0 3.32-2.7 6-6 6H86c-3.3 0-6-2.68-6-6z" stroke="#5e5e5e" stroke-width="3" fill="#fff"/><use xlink:href="#d" transform="translate(115.525 529.111)"/><use xlink:href="#e" transform="translate(144.414 529.111)"/><path d="M80 711.33c0-3.3 2.7-6 6-6h168c3.3 0 6 2.7 6 6v68c0 3.32-2.7 6-6 6H86c-3.3 0-6-2.68-6-6z" stroke="#5e5e5e" stroke-width="3" fill="#fff"/><use xlink:href="#f" transform="translate(103.519 749.111)"/><path d="M530 127.83v97.5" stroke="#5e5e5e" stroke-width="2" fill="none"/><path d="M531 127.86h-2v-1.03h2z" fill="#5e5e5e"/><path d="M530 240.6l-4.64-14.27h9.28z" stroke="#5e5e5e" stroke-width="2" fill="#5e5e5e"/><path d="M622.5 285.33h349.55c3.3 0 6 2.7 6 6v174" stroke="#5e5e5e" stroke-width="2" fill="none"/><path d="M622.53 286.33h-1.03v-2h1.03z" fill="#5e5e5e"/><path d="M978.05 480.6l-4.64-14.27h9.28z" stroke="#5e5e5e" stroke-width="2" fill="#5e5e5e"/><path d="M380 142c0-3.3 2.7-6 6-6h148c3.3 0 6 2.7 6 6v70c0 3.3-2.7 6-6 6H386c-3.3 0-6-2.7-6-6z" fill="none"/><use xlink:href="#g" transform="translate(402.917 157)"/><use xlink:href="#h" transform="translate(433.417 157)"/><use xlink:href="#i" transform="translate(478.306 157)"/><use xlink:href="#j" transform="translate(411 181)"/><use xlink:href="#k" transform="translate(458.111 181)"/><use xlink:href="#l" transform="translate(432.833 205)"/><path d="M440 491.33c0-3.3 2.7-6 6-6h168c3.3 0 6 2.7 6 6v68c0 3.32-2.7 6-6 6H446c-3.3 0-6-2.68-6-6z" stroke="#5e5e5e" stroke-width="3" fill="#fff"/><use xlink:href="#m" transform="translate(480.185 529.111)"/><path d="M530 327.83v137.5" stroke="#5e5e5e" stroke-width="2" fill="none"/><path d="M531 327.86h-2v-1.03h2z" fill="#5e5e5e"/><path d="M530 480.6l-4.64-14.27h9.28z" stroke="#5e5e5e" stroke-width="2" fill="#5e5e5e"/><path d="M170 567.83v117.5" stroke="#5e5e5e" stroke-width="2" fill="none"/><path d="M171 567.86h-2v-1.03h2z" fill="#5e5e5e"/><path d="M170 700.6l-4.64-14.27h9.28z" stroke="#5e5e5e" stroke-width="2" fill="#5e5e5e"/><path d="M437.5 525.33H280" stroke="#5e5e5e" stroke-width="2" fill="none"/><path d="M438.5 526.33h-1.03v-2h1.03z" fill="#5e5e5e"/><path d="M264.74 525.33L279 520.7v9.27z" stroke="#5e5e5e" stroke-width="2" fill="#5e5e5e"/><path d="M622.5 85.33h349.55c3.3 0 6 2.7 6 6v374" stroke="#5e5e5e" stroke-width="2" fill="none"/><path d="M622.53 86.33h-1.03v-2h1.03z" fill="#5e5e5e"/><path d="M978.05 480.6l-4.64-14.27h9.28z" stroke="#5e5e5e" stroke-width="2" fill="#5e5e5e"/><path d="M622.5 525.33H840" stroke="#5e5e5e" stroke-width="2" fill="none"/><path d="M622.53 526.33h-1.03v-2h1.03z" fill="#5e5e5e"/><path d="M855.26 525.33L841 529.97v-9.27z" stroke="#5e5e5e" stroke-width="2" fill="#5e5e5e"/><path d="M437.5 285.33H176c-3.3 0-6 2.7-6 6v174" stroke="#5e5e5e" stroke-width="2" fill="none"/><path d="M438.5 286.33h-1.03v-2h1.03z" fill="#5e5e5e"/><path d="M170 480.6l-4.64-14.27h9.28z" stroke="#5e5e5e" stroke-width="2" fill="#5e5e5e"/><path d="M860 339.33c0-3.3 2.7-6 6-6h148c3.3 0 6 2.7 6 6v78c0 3.32-2.7 6-6 6H866c-3.3 0-6-2.68-6-6z" fill="none"/><use xlink:href="#n" transform="translate(908.417 381.833)"/><path d="M40 330c0-3.3 2.7-6 6-6h128c3.3 0 6 2.7 6 6v94c0 3.3-2.7 6-6 6H46c-3.3 0-6-2.7-6-6z" fill="none"/><use xlink:href="#o" transform="translate(73.639 369)"/><use xlink:href="#p" transform="translate(137.528 369)"/><use xlink:href="#q" transform="translate(62.861 393)"/><path d="M360 339.33c0-3.3 2.7-6 6-6h148c3.3 0 6 2.7 6 6v94c0 3.32-2.7 6-6 6H366c-3.3 0-6-2.68-6-6z" fill="none"/><use xlink:href="#r" transform="translate(396.444 357.333)"/><use xlink:href="#s" transform="translate(468 357.333)"/><use xlink:href="#t" transform="translate(369.639 381.333)"/><use xlink:href="#h" transform="translate(434.472 381.333)"/><use xlink:href="#u" transform="translate(479.361 381.333)"/><use xlink:href="#v" transform="translate(380.167 405.333)"/><use xlink:href="#w" transform="translate(384.889 429.333)"/><use xlink:href="#l" transform="translate(440.778 429.333)"/><path d="M55 600.33c0-3.3 2.7-6 6-6h98c3.3 0 6 2.7 6 6v70c0 3.32-2.7 6-6 6H61c-3.3 0-6-2.68-6-6z" fill="none"/><use xlink:href="#x" transform="translate(62.861 615.333)"/><use xlink:href="#y" transform="translate(78.472 639.333)"/><use xlink:href="#z" transform="translate(77.833 663.333)"/><path d="M660 531.33c0-3.3 2.7-6 6-6h148c3.3 0 6 2.7 6 6v70c0 3.32-2.7 6-6 6H666c-3.3 0-6-2.68-6-6z" fill="none"/><use xlink:href="#A" transform="translate(683.472 546.333)"/><use xlink:href="#B" transform="translate(705.083 570.333)"/><use xlink:href="#C" transform="translate(697.917 594.333)"/><path d="M280 531.33c0-3.3 2.7-6 6-6h148c3.3 0 6 2.7 6 6v70c0 3.32-2.7 6-6 6H286c-3.3 0-6-2.68-6-6z" fill="none"/><use xlink:href="#D" transform="translate(303.472 546.333)"/><use xlink:href="#E" transform="translate(325.083 570.333)"/><use xlink:href="#F" transform="translate(310.972 594.333)"/><use xlink:href="#G" transform="translate(336.972 594.333)"/><defs><path fill="#333" d="M52-115c0 93 80 130 150 87l7-35h11l-1 55c-23 7-52 12-83 12C60 4 19-37 15-115c-5-113 97-141 201-114l1 51h-12l-5-30c-15-9-39-16-62-16-66 0-86 41-86 109" id="H"/><path fill="#333" d="M199-173c-1 36-21 56-49 65l64 94 26 5v9h-57l-66-103H75v89l35 5v9H13v-9l28-5v-208l-31-4v-10c80 4 190-20 189 63zM75-119c50 2 89-1 89-51 0-49-39-52-89-50v101" id="I"/><path fill="#333" d="M10-9l31-5v-208l-31-4v-10h177v57h-11l-6-38c-28-4-63-3-95-3v92h63l6-28h11v73h-11l-6-29H75v96l105-3 10-43h12l-3 62H10v-9" id="J"/><path fill="#333" d="M81-9v9H4v-9l26-5 81-224h33l83 224 30 5v9h-99v-9l31-5-23-68H73L49-14zm38-203L78-98h82" id="K"/><path fill="#333" d="M55 0v-9l38-5v-207c-22 1-53 0-70 4l-5 37H7v-56h207v56h-12l-5-37-70-3v206l37 5v9H55" id="L"/><path fill="#333" d="M75-17c87 13 134-18 134-103 0-78-51-106-134-100v203zm171-102C246 5 139 7 10 0v-9l31-5v-208l-31-4v-10h107c82 0 129 35 129 117" id="M"/><path fill="#333" d="M56-14l29 5v9H8v-9l26-5 80-107-68-101-27-4v-10h97v10l-30 4 49 73 55-73-29-4v-10h77v10l-26 4-66 88 81 120 26 5v9h-97v-9l30-5-62-91" id="N"/><path fill="#333" d="M75-108c48 3 76-12 76-58s-28-57-76-54v112zm111-58c-1 60-46 78-111 74v78l37 5v9H13v-9l28-5v-208l-31-4v-10c81 1 178-14 176 70" id="O"/><path fill="#333" d="M77-14l30 5v9H13v-9l30-5v-208l-30-4v-10h94v10l-30 4v208" id="P"/><path fill="#333" d="M75-106v92l39 5v9H13v-9l28-5v-208l-31-4v-10h177v57h-11l-6-38c-28-4-63-3-95-3v98h69l5-28h11v73h-11l-5-29H75" id="Q"/><path fill="#333" d="M111-226l-36 4v207c33-1 73 2 101-4l11-49h11l-3 68H10v-9l31-5v-208l-31-4v-10h101v10" id="R"/><path fill="#333" d="M203-222l-32-4v-10h81v10l-31 4V0h-17L59-212v198l32 5v9H10v-9l31-5v-208l-31-4v-10h72L203-61v-161" id="S"/><path fill="#333" d="M130-224c-62 0-78 43-78 106 0 64 16 108 78 108s78-45 78-108-16-106-78-106zm0 228C53 4 15-39 15-118c-1-80 37-120 115-120s115 42 115 120C245-39 207 4 130 4" id="T"/><path fill="#333" d="M152 0h-7L59-203v189l32 5v9H10v-9l31-5v-208l-31-4v-10h72l76 180 84-180h68v10l-31 4v208l31 5v9h-96v-9l32-5v-189" id="U"/><path fill="#333" d="M65-12l28 4v8H7v-8l28-4v-226l-28-4v-8h58v238" id="V"/><path fill="#333" d="M41-130c7 48 86 23 86 84 0 56-69 57-112 41v-40c20 0 9 29 31 31 35 19 77-26 41-50-27-18-72-13-72-59 0-50 58-52 100-41v36c-19 1-8-25-28-25-21-7-50-1-46 23" id="W"/><path fill="#333" d="M84-170c49 0 66 33 63 87H46c-8 60 38 80 95 63v10C128-2 108 4 88 4 34 4 14-29 14-84c-1-54 22-86 70-86zm33 73c12-57-57-82-69-24-1 7-2 15-2 24h71" id="X"/><path fill="#333" d="M32-163c41-10 102-14 102 39v112c8 3 24-2 21 12h-45l-4-17C83 13 3 13 13-46c-2-50 45-50 92-51 4-36-5-70-42-56-6 2-12 4-16 6-4 7 0 23-15 20v-36zM42-47c0 41 41 33 63 22v-59c-34 1-63-1-63 37" id="Y"/><path fill="#333" d="M54-38c-1 25 24 26 44 20v12C71 10 25 9 25-35v-115H4c-2-14 14-10 21-15l18-38h11v38h38v15H54v112" id="Z"/><path fill="#333" d="M103-236c-39-15-35 32-34 71h44v15H69v136l35 6v8H15v-8l25-6v-136H11v-9l29-7c-6-59 23-100 80-84v36c-15 2-12-14-17-22" id="aa"/><path fill="#333" d="M47-200c-23 0-25-39 0-38 13 0 18 7 20 19-1 11-8 19-20 19zM65-12l28 4v8H8v-8l28-4v-141l-24-4v-8h53v153" id="ab"/><path fill="#333" d="M13-81c0-71 46-101 114-85l-1-72-28-4v-8h57v238c8 3 24-2 21 12h-47l-2-12C80 23 13-1 13-81zm77-74c-37 1-44 33-45 74 0 38 9 66 45 66 14 0 27-3 36-7v-130c-10-1-24-3-36-3" id="ac"/><path fill="#333" d="M53-14c58 12 82-15 82-73 0-52-35-77-82-58v131zM89 4C64 4 42-2 24-9v-229l-24-4v-8h53l-1 94c48-33 114-4 114 69 0 57-23 91-77 91" id="ad"/><path fill="#333" d="M90-170c52 0 76 32 76 87 0 54-24 87-77 87-51 0-75-34-75-87 0-54 24-87 76-87zM89-10c39 0 46-35 46-73 0-39-7-73-46-73-39 1-44 34-44 73s6 72 44 73" id="ae"/><path fill="#333" d="M57-145c16-10 35-24 60-25v45c-19 1-8-30-40-17l-20 6v124l29 4v8H7v-8l21-4v-141c-8-3-24 2-21-12h48" id="af"/><path fill="#333" d="M156-12c7 3 23-1 20 12h-75v-8l22-4-38-58-45 58 23 4v8H3v-8l19-3 55-71-48-71c-7-3-23 1-20-12h75v8l-22 4 32 48 37-48-23-4v-8h59v8l-19 3-46 60" id="ag"/><path fill="#333" d="M166-85c3 67-44 102-111 85l1 64 29 4v9H6v-9l21-4v-217c-7-3-22 1-19-12h46l1 9c11-8 26-14 45-14 47 2 64 36 66 85zM56-13c53 14 83-14 78-72 7-53-33-79-78-60v132" id="ah"/><path fill="#333" d="M161-154L85 37C75 66 49 86 8 75V39c18-2 6 24 29 21 30-4 38-32 47-58L21-153c-7-3-20 0-17-12h77v8l-26 4 45 116 43-116-26-4v-8h62v8" id="ai"/><path fill="#333" d="M10 0v-9l31-5v-208l-31-4v-10h95v10l-30 4v93h110v-93l-30-4v-10h94v10l-30 4v208l30 5v9h-94v-9l30-5v-99H75v99l30 5v9H10" id="aj"/><path fill="#333" d="M75-131c50 2 93 3 93-48 0-46-48-41-93-41v89zm0 115c55 4 111 6 111-51 0-53-58-48-111-48v99zm148-52C223 24 102-3 10 0v-9l31-5v-208l-31-4v-10c77 6 193-24 194 56 0 33-20 48-48 54 36 5 67 20 67 58" id="ak"/><path fill="#333" d="M124-13C89 8 26 15 26-45v-108c-8-3-24 2-21-12h50v118c-3 37 42 32 69 25v-131l-25-4v-8h54v153c8 3 24-2 21 12h-48" id="al"/><path fill="#333" d="M141-152c28 39 5 97-54 97-9 0-20-2-27-3L49-35c29 22 130-14 124 52-4 45-38 57-88 61C21 83-8 26 45-2 33-6 22-15 21-31l28-31c-19-9-28-26-28-51-2-51 53-65 100-52l38-20 7 8zM85 64c35 0 61-11 61-42 0-35-57-17-89-21-9 8-16 19-17 34 0 25 19 29 45 29zM52-113c1 26 7 46 35 44 28-1 34-16 35-44 0-26-6-43-34-43s-36 17-36 43" id="am"/><path fill="#333" d="M126-119c3-38-42-31-69-25v132l23 4v8H7v-8l21-4v-226l-24-4v-8h53l-1 98c31-22 99-31 99 31v109c7 3 23-1 20 12h-71v-8l22-4v-107" id="an"/><path fill="#333" d="M52-115c0 90 69 126 140 93v-67l-30-5v-9h87v9l-23 5v77c-27 8-56 16-90 16C59 2 15-37 15-115c-1-82 41-123 122-123 31 0 59 4 83 10v51h-12l-5-29c-15-12-38-18-65-18-66-1-86 42-86 109" id="ao"/><path fill="#333" d="M240-154L185 4h-14l-41-109L90 4H77L20-153c-7-3-23 1-20-12h79v8l-27 4L91-41l40-108h14l40 109 38-113-28-4v-8h63v8" id="ap"/><path fill="#333" d="M125-118c4-37-41-34-68-26v132l23 4v8H8C5-13 21-9 28-12v-141c-7-3-23 1-20-12h47l2 13c31-23 98-29 98 31v109c7 3 23-1 20 12h-72v-8l22-4v-106" id="aq"/><path fill="#333" d="M108-235c-52 28-62 95-58 178 3 56 21 97 58 119v15C7 49-17-153 67-223c12-10 25-19 41-27v15" id="ar"/><path fill="#333" d="M13-71v-27h94v27H13" id="as"/><path fill="#333" d="M12-250C113-222 137-19 52 49 40 59 28 69 12 77V62C56 37 70-16 70-87c0-70-13-123-58-148v-15" id="at"/><path fill="#333" d="M45-84c0 64 52 80 104 63 1 25-30 25-55 25-56 0-80-32-80-88 0-76 62-98 131-80v46h-10c-5-15-4-31-23-35-47-10-67 21-67 69" id="au"/><path fill="#333" d="M126-118c4-37-42-32-68-25v131l24 4v8H8C5-13 21-9 28-12v-141c-7-3-23 1-20-12h48l1 13c22-15 77-30 92 2 32-22 104-36 104 29v109c8 3 24-2 21 12h-75v-8l25-4v-106c3-39-45-31-72-24 7 37 1 88 3 130l25 4v8h-78v-8l24-4v-106" id="av"/><g id="a"><use transform="rotate(.413) scale(.06173)" xlink:href="#H"/><use transform="translate(14.815) scale(.06173)" xlink:href="#I"/><use transform="translate(29.63) scale(.06173)" xlink:href="#J"/><use transform="translate(43.148) scale(.06173)" xlink:href="#K"/><use transform="translate(56.667) scale(.06173)" xlink:href="#L"/><use transform="translate(70.185) scale(.06173)" xlink:href="#J"/><use transform="translate(83.704) scale(.06173)" xlink:href="#M"/></g><g id="b"><use transform="rotate(.413) scale(.06173)" xlink:href="#J"/><use transform="translate(13.519) scale(.06173)" xlink:href="#N"/><use transform="translate(29.506) scale(.06173)" xlink:href="#O"/><use transform="translate(41.852) scale(.06173)" xlink:href="#P"/><use transform="translate(49.198) scale(.06173)" xlink:href="#I"/><use transform="translate(64.012) scale(.06173)" xlink:href="#J"/><use transform="translate(77.53) scale(.06173)" xlink:href="#M"/></g><g id="c"><use transform="rotate(.413) scale(.06173)" xlink:href="#Q"/><use transform="translate(12.346) scale(.06173)" xlink:href="#P"/><use transform="translate(19.691) scale(.06173)" xlink:href="#R"/><use transform="translate(33.21) scale(.06173)" xlink:href="#R"/><use transform="translate(46.728) scale(.06173)" xlink:href="#J"/><use transform="translate(60.247) scale(.06173)" xlink:href="#M"/></g><g id="d"><use transform="rotate(.413) scale(.06173)" xlink:href="#P"/><use transform="translate(7.346) scale(.06173)" xlink:href="#S"/></g><g id="e"><use transform="rotate(.413) scale(.06173)" xlink:href="#J"/><use transform="translate(13.519) scale(.06173)" xlink:href="#Q"/><use transform="translate(25.864) scale(.06173)" xlink:href="#Q"/><use transform="translate(38.21) scale(.06173)" xlink:href="#J"/><use transform="translate(51.728) scale(.06173)" xlink:href="#H"/><use transform="translate(66.543) scale(.06173)" xlink:href="#L"/></g><g id="f"><use transform="rotate(.413) scale(.06173)" xlink:href="#H"/><use transform="translate(14.815) scale(.06173)" xlink:href="#T"/><use transform="translate(30.802) scale(.06173)" xlink:href="#U"/><use transform="translate(50.556) scale(.06173)" xlink:href="#O"/><use transform="translate(62.901) scale(.06173)" xlink:href="#R"/><use transform="translate(76.42) scale(.06173)" xlink:href="#J"/><use transform="translate(89.938) scale(.06173)" xlink:href="#L"/><use transform="translate(103.457) scale(.06173)" xlink:href="#J"/><use transform="translate(116.975) scale(.06173)" xlink:href="#M"/></g><g id="g"><use transform="scale(.05556)" xlink:href="#K"/><use transform="translate(14.389) scale(.05556)" xlink:href="#V"/><use transform="translate(19.944) scale(.05556)" xlink:href="#V"/></g><g id="h"><use transform="scale(.05556)" xlink:href="#M"/><use transform="translate(14.389) scale(.05556)" xlink:href="#O"/><use transform="translate(25.5) scale(.05556)" xlink:href="#T"/></g><g id="i"><use transform="scale(.05556)" xlink:href="#W"/><use transform="translate(7.778) scale(.05556)" xlink:href="#X"/><use transform="translate(16.611) scale(.05556)" xlink:href="#Y"/><use transform="translate(25.444) scale(.05556)" xlink:href="#Z"/><use transform="translate(31) scale(.05556)" xlink:href="#W"/></g><g id="j"><use transform="scale(.05556)" xlink:href="#aa"/><use transform="translate(6.611) scale(.05556)" xlink:href="#ab"/><use transform="translate(12.167) scale(.05556)" xlink:href="#V"/><use transform="translate(17.722) scale(.05556)" xlink:href="#V"/><use transform="translate(23.278) scale(.05556)" xlink:href="#X"/><use transform="translate(32.111) scale(.05556)" xlink:href="#ac"/></g><g id="k"><use transform="scale(.05556)" xlink:href="#ad"/><use transform="translate(10) scale(.05556)" xlink:href="#X"/><use transform="translate(18.833) scale(.05556)" xlink:href="#aa"/><use transform="translate(25.444) scale(.05556)" xlink:href="#ae"/><use transform="translate(35.444) scale(.05556)" xlink:href="#af"/><use transform="translate(42.056) scale(.05556)" xlink:href="#X"/></g><g id="l"><use transform="scale(.05556)" xlink:href="#J"/><use transform="translate(12.167) scale(.05556)" xlink:href="#ag"/><use transform="translate(22.167) scale(.05556)" xlink:href="#ah"/><use transform="translate(32.167) scale(.05556)" xlink:href="#ab"/><use transform="translate(37.722) scale(.05556)" xlink:href="#af"/><use transform="translate(44.333) scale(.05556)" xlink:href="#ai"/></g><g id="m"><use transform="rotate(.413) scale(.06173)" xlink:href="#H"/><use transform="translate(14.815) scale(.06173)" xlink:href="#aj"/><use transform="translate(30.802) scale(.06173)" xlink:href="#K"/><use transform="translate(46.79) scale(.06173)" xlink:href="#P"/><use transform="translate(54.136) scale(.06173)" xlink:href="#S"/><use transform="translate(70.123) scale(.06173)" xlink:href="#J"/><use transform="translate(83.642) scale(.06173)" xlink:href="#M"/></g><g id="n"><use transform="scale(.05556)" xlink:href="#J"/><use transform="translate(12.167) scale(.05556)" xlink:href="#ag"/><use transform="translate(22.167) scale(.05556)" xlink:href="#ah"/><use transform="translate(32.167) scale(.05556)" xlink:href="#ab"/><use transform="translate(37.722) scale(.05556)" xlink:href="#af"/><use transform="translate(44.333) scale(.05556)" xlink:href="#X"/><use transform="translate(53.167) scale(.05556)" xlink:href="#ac"/></g><g id="o"><use transform="scale(.05556)" xlink:href="#ak"/><use transform="translate(13.333) scale(.05556)" xlink:href="#ae"/><use transform="translate(23.333) scale(.05556)" xlink:href="#al"/><use transform="translate(33.333) scale(.05556)" xlink:href="#am"/><use transform="translate(43.333) scale(.05556)" xlink:href="#an"/><use transform="translate(53.333) scale(.05556)" xlink:href="#Z"/></g><g id="q"><use transform="scale(.05556)" xlink:href="#ao"/><use transform="translate(14.389) scale(.05556)" xlink:href="#af"/><use transform="translate(21) scale(.05556)" xlink:href="#ae"/><use transform="translate(31) scale(.05556)" xlink:href="#ap"/><use transform="translate(45.389) scale(.05556)" xlink:href="#Z"/><use transform="translate(50.944) scale(.05556)" xlink:href="#an"/><use transform="translate(60.944) scale(.05556)" xlink:href="#ak"/><use transform="translate(74.278) scale(.05556)" xlink:href="#ae"/><use transform="translate(84.278) scale(.05556)" xlink:href="#ag"/></g><g id="r"><use transform="scale(.05556)" xlink:href="#H"/><use transform="translate(13.333) scale(.05556)" xlink:href="#an"/><use transform="translate(23.333) scale(.05556)" xlink:href="#Y"/><use transform="translate(32.167) scale(.05556)" xlink:href="#ab"/><use transform="translate(37.722) scale(.05556)" xlink:href="#aq"/><use transform="translate(47.722) scale(.05556)" xlink:href="#X"/><use transform="translate(56.556) scale(.05556)" xlink:href="#ac"/></g><g id="s"><use transform="scale(.05556)" xlink:href="#Z"/><use transform="translate(5.556) scale(.05556)" xlink:href="#ae"/></g><g id="t"><use transform="scale(.05556)" xlink:href="#Y"/><use transform="translate(8.833) scale(.05556)" xlink:href="#aq"/><use transform="translate(18.833) scale(.05556)" xlink:href="#ae"/><use transform="translate(28.833) scale(.05556)" xlink:href="#Z"/><use transform="translate(34.389) scale(.05556)" xlink:href="#an"/><use transform="translate(44.389) scale(.05556)" xlink:href="#X"/><use transform="translate(53.222) scale(.05556)" xlink:href="#af"/></g><g id="u"><use transform="scale(.05556)" xlink:href="#ar"/><use transform="translate(6.611) scale(.05556)" xlink:href="#Z"/><use transform="translate(12.167) scale(.05556)" xlink:href="#an"/><use transform="translate(22.167) scale(.05556)" xlink:href="#X"/></g><g id="v"><use transform="scale(.05556)" xlink:href="#H"/><use transform="translate(13.333) scale(.05556)" xlink:href="#an"/><use transform="translate(23.333) scale(.05556)" xlink:href="#Y"/><use transform="translate(32.167) scale(.05556)" xlink:href="#ab"/><use transform="translate(37.722) scale(.05556)" xlink:href="#aq"/><use transform="translate(47.722) scale(.05556)" xlink:href="#X"/><use transform="translate(56.556) scale(.05556)" xlink:href="#ac"/><use transform="translate(66.556) scale(.05556)" xlink:href="#as"/><use transform="translate(73.167) scale(.05556)" xlink:href="#M"/><use transform="translate(87.556) scale(.05556)" xlink:href="#O"/><use transform="translate(98.667) scale(.05556)" xlink:href="#T"/><use transform="translate(113.056) scale(.05556)" xlink:href="#at"/></g><g id="w"><use transform="scale(.05556)" xlink:href="#ad"/><use transform="translate(10) scale(.05556)" xlink:href="#X"/><use transform="translate(18.833) scale(.05556)" xlink:href="#aa"/><use transform="translate(25.444) scale(.05556)" xlink:href="#ae"/><use transform="translate(35.444) scale(.05556)" xlink:href="#af"/><use transform="translate(42.056) scale(.05556)" xlink:href="#X"/></g><g id="x"><use transform="scale(.05556)" xlink:href="#ao"/><use transform="translate(14.389) scale(.05556)" xlink:href="#af"/><use transform="translate(21) scale(.05556)" xlink:href="#ae"/><use transform="translate(31) scale(.05556)" xlink:href="#ap"/><use transform="translate(45.389) scale(.05556)" xlink:href="#Z"/><use transform="translate(50.944) scale(.05556)" xlink:href="#an"/><use transform="translate(60.944) scale(.05556)" xlink:href="#ak"/><use transform="translate(74.278) scale(.05556)" xlink:href="#ae"/><use transform="translate(84.278) scale(.05556)" xlink:href="#ag"/></g><g id="y"><use transform="scale(.05556)" xlink:href="#af"/><use transform="translate(6.611) scale(.05556)" xlink:href="#X"/><use transform="translate(15.444) scale(.05556)" xlink:href="#ap"/><use transform="translate(29.833) scale(.05556)" xlink:href="#Y"/><use transform="translate(38.667) scale(.05556)" xlink:href="#af"/><use transform="translate(45.278) scale(.05556)" xlink:href="#ac"/><use transform="translate(55.278) scale(.05556)" xlink:href="#W"/></g><g id="z"><use transform="scale(.05556)" xlink:href="#aa"/><use transform="translate(6.611) scale(.05556)" xlink:href="#ab"/><use transform="translate(12.167) scale(.05556)" xlink:href="#aq"/><use transform="translate(22.167) scale(.05556)" xlink:href="#ab"/><use transform="translate(27.722) scale(.05556)" xlink:href="#W"/><use transform="translate(35.5) scale(.05556)" xlink:href="#an"/><use transform="translate(45.5) scale(.05556)" xlink:href="#X"/><use transform="translate(54.333) scale(.05556)" xlink:href="#ac"/></g><g id="A"><use transform="scale(.05556)" xlink:href="#H"/><use transform="translate(13.333) scale(.05556)" xlink:href="#an"/><use transform="translate(23.333) scale(.05556)" xlink:href="#Y"/><use transform="translate(32.167) scale(.05556)" xlink:href="#ab"/><use transform="translate(37.722) scale(.05556)" xlink:href="#aq"/><use transform="translate(47.722) scale(.05556)" xlink:href="#X"/><use transform="translate(56.556) scale(.05556)" xlink:href="#ac"/><use transform="translate(66.556) scale(.05556)" xlink:href="#as"/><use transform="translate(73.167) scale(.05556)" xlink:href="#M"/><use transform="translate(87.556) scale(.05556)" xlink:href="#O"/><use transform="translate(98.667) scale(.05556)" xlink:href="#T"/></g><g id="B"><use transform="scale(.05556)" xlink:href="#ad"/><use transform="translate(10) scale(.05556)" xlink:href="#X"/><use transform="translate(18.833) scale(.05556)" xlink:href="#au"/><use transform="translate(27.667) scale(.05556)" xlink:href="#ae"/><use transform="translate(37.667) scale(.05556)" xlink:href="#av"/><use transform="translate(53.222) scale(.05556)" xlink:href="#X"/><use transform="translate(62.056) scale(.05556)" xlink:href="#W"/></g><g id="C"><use transform="scale(.05556)" xlink:href="#J"/><use transform="translate(12.167) scale(.05556)" xlink:href="#N"/><use transform="translate(26.556) scale(.05556)" xlink:href="#O"/><use transform="translate(37.667) scale(.05556)" xlink:href="#P"/><use transform="translate(44.278) scale(.05556)" xlink:href="#I"/><use transform="translate(57.611) scale(.05556)" xlink:href="#J"/><use transform="translate(69.778) scale(.05556)" xlink:href="#M"/></g><g id="D"><use transform="scale(.05556)" xlink:href="#H"/><use transform="translate(13.333) scale(.05556)" xlink:href="#an"/><use transform="translate(23.333) scale(.05556)" xlink:href="#Y"/><use transform="translate(32.167) scale(.05556)" xlink:href="#ab"/><use transform="translate(37.722) scale(.05556)" xlink:href="#aq"/><use transform="translate(47.722) scale(.05556)" xlink:href="#X"/><use transform="translate(56.556) scale(.05556)" xlink:href="#ac"/><use transform="translate(66.556) scale(.05556)" xlink:href="#as"/><use transform="translate(73.167) scale(.05556)" xlink:href="#M"/><use transform="translate(87.556) scale(.05556)" xlink:href="#O"/><use transform="translate(98.667) scale(.05556)" xlink:href="#T"/></g><g id="E"><use transform="scale(.05556)" xlink:href="#ad"/><use transform="translate(10) scale(.05556)" xlink:href="#X"/><use transform="translate(18.833) scale(.05556)" xlink:href="#au"/><use transform="translate(27.667) scale(.05556)" xlink:href="#ae"/><use transform="translate(37.667) scale(.05556)" xlink:href="#av"/><use transform="translate(53.222) scale(.05556)" xlink:href="#X"/><use transform="translate(62.056) scale(.05556)" xlink:href="#W"/></g><g id="F"><use transform="scale(.05556)" xlink:href="#P"/><use transform="translate(6.611) scale(.05556)" xlink:href="#S"/></g><g id="G"><use transform="scale(.05556)" xlink:href="#J"/><use transform="translate(12.167) scale(.05556)" xlink:href="#Q"/><use transform="translate(23.278) scale(.05556)" xlink:href="#Q"/><use transform="translate(34.389) scale(.05556)" xlink:href="#J"/><use transform="translate(46.556) scale(.05556)" xlink:href="#H"/><use transform="translate(59.889) scale(.05556)" xlink:href="#L"/></g><use transform="scale(.05556)" xlink:href="#Y" id="p"/></defs></g></svg>