<svg height="512" viewBox="0 0 512 512" width="512" xmlns="http://www.w3.org/2000/svg"><g fill="#ffbe2e"><path d="M187.69 341.541A44.725 44.725 0 00195 317c0-24.813-20.187-45-45-45s-45 20.187-45 45a44.72 44.72 0 007.31 24.541C89.663 354.152 75 378.178 75 407c0 8.284 6.716 15 15 15h120c8.284 0 15-6.716 15-15 0-28.822-14.663-52.848-37.31-65.459zM135 317c0-8.271 6.729-15 15-15s15 6.729 15 15-6.729 15-15 15-15-6.729-15-15zm-27.819 75c5.626-18.219 21.68-30 42.819-30s37.192 11.781 42.819 30z"/><path d="M467 391a44.716 44.716 0 00-23.818 6.846l-35.379-30.22a44.786 44.786 0 002.95-21.33l24.455-12.526C443.264 341.345 454.096 346 466 346c24.813 0 45-20.187 45-45s-20.187-45-45-45c-27.062 0-48.293 23.916-44.572 51.123l-23.605 12.091c-7.64-7.648-18.009-12.568-29.505-13.155l-26.711-93.085c10.839-7.53 18.217-19.692 19.254-33.6l67.986-18.02C436.959 173.205 450.585 181 466 181c24.813 0 45-20.187 45-45s-20.187-45-45-45c-23.585 0-42.977 18.242-44.84 41.355l-68.165 18.068a45.324 45.324 0 00-15.483-13.938l7.402-47.376C365.472 84.961 381 66.762 381 45c0-24.813-20.187-45-45-45s-45 20.187-45 45c0 17.316 9.837 32.368 24.21 39.89l-7.321 46.856C286.936 135.578 271 153.957 271 176c0 23.689 18.402 43.146 41.66 44.863l26.903 93.754c-7.941 5.786-13.919 14.102-16.747 23.755l-24.498 1.167c-14.13-93.697-111.873-151.907-201.524-117.781L86.6 202.979c15.562-10.806 22.613-29.929 18.023-48.034l64.414-42.942A44.756 44.756 0 00196 121c24.813 0 45-20.187 45-45s-20.187-45-45-45c-29.162 0-50.85 27.543-43.622 56.054l-64.414 42.942A44.984 44.984 0 0076 123.579V87.42c17.459-6.192 30-22.865 30-42.42 0-24.813-20.187-45-45-45S16 20.187 16 45c0 19.555 12.541 36.228 30 42.42v36.16c-17.459 6.192-30 22.865-30 42.42 0 23.364 17.899 42.62 40.704 44.79l13.25 24.409C27.948 261.811 0 308.7 0 362c0 82.71 67.29 150 150 150 80.195 0 145.89-63.259 149.812-142.498l24.662-1.174c10.432 24.906 40.212 35.068 63.574 21.878l36.424 31.112C414.349 450.555 436.227 481 467 481c24.813 0 45-20.187 45-45s-20.187-45-45-45zm-1-105c8.271 0 15 6.729 15 15s-6.729 15-15 15-15-6.729-15-15 6.729-15 15-15zM196 61c8.271 0 15 6.729 15 15s-6.729 15-15 15-15-6.729-15-15 6.729-15 15-15zM61 30c8.271 0 15 6.729 15 15s-6.729 15-15 15-15-6.729-15-15 6.729-15 15-15zM46 166c0-8.271 6.729-15 15-15s15 6.729 15 15-6.729 15-15 15-15-6.729-15-15zm420-45c8.271 0 15 6.729 15 15s-6.729 15-15 15-15-6.729-15-15 6.729-15 15-15zM336 30c8.271 0 15 6.729 15 15s-6.729 15-15 15-15-6.729-15-15 6.729-15 15-15zm-35 146c0-8.271 6.729-15 15-15s15 6.729 15 15-6.729 15-15 15-15-6.729-15-15zM150 482c-66.168 0-120-53.832-120-120s53.832-120 120-120 120 53.832 120 120-53.832 120-120 120zm201-131c0-8.271 6.729-15 15-15s15 6.729 15 15-6.729 15-15 15-15-6.729-15-15zm116 100c-8.271 0-15-6.729-15-15s6.729-15 15-15 15 6.729 15 15-6.729 15-15 15z"/></g></svg>