<svg xmlns="http://www.w3.org/2000/svg" viewBox="0 0 257.832 257.832"><g fill="#ffbe2e"><path d="M62.288 89.305a6 6 0 004.582-9.87A41.027 41.027 0 0157.213 53c0-22.608 18.393-41 41-41s41 18.392 41 41c0 6.308-1.392 12.354-4.137 17.974a5.998 5.998 0 002.757 8.024 5.995 5.995 0 008.024-2.757c3.554-7.274 5.355-15.093 5.355-23.241 0-29.225-23.775-53-53-53s-53 23.775-53 53c0 12.5 4.435 24.637 12.487 34.175a5.991 5.991 0 004.589 2.13z"/><path d="M211.134 141.765c-3.866-22.86-20.326-25.967-27.416-26.223a6.072 6.072 0 01-4.912-2.824c-5.367-8.456-12.645-10.681-18.813-10.681-2.824-.001-5.414.465-7.485 1.013a7.231 7.231 0 01-1.839.239c-2.178 0-4.277-.994-5.588-2.811-5.28-7.315-12.171-9.293-18.078-9.293-1.58 0-3.09.142-4.479.36a7.004 7.004 0 01-1.1.087c-3.78 0-6.969-3.07-6.974-6.987l-.05-42.287c-.014-10.927-8.209-16.387-16.404-16.387-8.211 0-16.422 5.479-16.408 16.427l.108 90.106a6.952 6.952 0 01-4.265 6.428c-32.541 13.602 7.643 74.619 14.84 85.076a6.979 6.979 0 011.211 3.438l1.759 23.661c.274 3.65 3.316 6.724 6.977 6.724h.009l78.623-.349c3.509-.005 6.471-2.732 6.928-6.211l3.202-24.453a7.193 7.193 0 011.074-2.927c21.012-32.478 22.663-60.937 19.08-82.126z"/></g></svg>