<svg xmlns="http://www.w3.org/2000/svg" viewBox="0 0 439.4 439.4"><g fill="#ffbe2e"><path d="M132.2.4L28.3 28.6 0 132.5l75.7 75.8 104-28.3 28.2-103.9L132.2.4zm31.2 163.3L81.7 186l-59.4-59.4 22.3-81.7 81.7-22.2 59.4 59.4-22.3 81.6z"/><path d="M137.2 71c-17.2-17.2-45.1-17.3-62.3-.1-17.2 17.2-17.3 45.1-.1 62.3 8.3 8.3 19.5 12.9 31.3 12.8 24.2.1 43.9-19.4 44.1-43.6.1-11.8-4.6-23.1-13-31.4zm-14.1 48.4v-.2c-4.5 4.5-10.6 6.9-17 6.9-13.1.2-24-10.3-24.2-23.5-.1-6.5 2.4-12.8 7-17.3 9.4-9.4 24.7-9.4 34.2 0 4.5 4.5 7.1 10.7 7.1 17.1 0 6.4-2.5 12.5-7.1 17zM385.9 138H278.7l-53.5 93 53.5 93h107.2l53.5-93-53.5-93zm-11.6 166h-84l-42-73 42-73h84l42 73-42 73z"/><path d="M332.3 184.5c-24.4 0-44.2 19.7-44.2 44.1 0 24.4 19.7 44.2 44.1 44.2 24.4 0 44.2-19.7 44.2-44.1v-.1c0-24.3-19.7-44.1-44.1-44.1zm0 68.3c-13.3 0-24.2-10.8-24.2-24.1s10.8-24.2 24.1-24.2 24.2 10.8 24.2 24.1-10.8 24.2-24.1 24.2zm-169.6-.8H55.5L2 345.5 55.5 439h107.2l53.5-93.5-53.5-93.5zm-11.6 167h-84l-42-73.5 42-73.5h84l42 73.5-42 73.5z"/><path d="M109.1 300.8c-24.4 0-44.1 19.7-44.2 44.1 0 24.4 19.7 44.1 44.1 44.2 24.4 0 44.1-19.7 44.2-44.1v-.1c0-24.3-19.8-44-44.1-44.1zm0 68.3c-13.3 0-24.1-10.8-24.2-24.1-.1-13.3 10.8-24.1 24.1-24.2 13.3 0 24.1 10.8 24.2 24.1 0 13.4-10.8 24.2-24.1 24.2z"/></g></svg>