<svg xmlns="http://www.w3.org/2000/svg" viewBox="0 0 512.002 512.002"><g fill="#ffbe2e"><path d="M189.543 293c-15.99 0-29 13.009-29 29s13.009 29 29 29c15.99 0 29-13.009 29-29s-13.01-29-29-29zm0 38c-4.963 0-9-4.038-9-9s4.037-9 9-9 9 4.038 9 9-4.037 9-9 9zm132.916-38c-15.99 0-29 13.009-29 29s13.009 29 29 29c15.99 0 29-13.009 29-29s-13.01-29-29-29zm0 38c-4.963 0-9-4.038-9-9s4.037-9 9-9 9 4.038 9 9-4.037 9-9 9zM287.501 80h-64c-5.522 0-10 4.477-10 10s4.477 10 10 10h64c5.522 0 10-4.477 10-10s-4.478-10-10-10zM204.22 213.28a10.101 10.101 0 00-7.07-2.92c-2.64 0-5.21 1.06-7.08 2.92-1.859 1.87-2.93 4.45-2.93 7.08s1.07 5.2 2.93 7.07a10.1 10.1 0 007.08 2.93c2.62 0 5.2-1.07 7.07-2.93 1.86-1.87 2.92-4.44 2.92-7.07s-1.059-5.21-2.92-7.08zm304.85 263.79c-1.859-1.86-4.439-2.92-7.069-2.92s-5.21 1.06-7.07 2.92a10.1 10.1 0 00-2.93 7.08c0 2.63 1.069 5.2 2.93 7.07 1.86 1.86 4.44 2.93 7.07 2.93s5.21-1.07 7.069-2.93a10.077 10.077 0 002.931-7.07 10.1 10.1 0 00-2.931-7.08z"/><path d="M485.373 453.377l-97.418-97.418C401.588 341.831 410 322.632 410 301.495v-182.99C410 75.217 374.783 40 331.495 40H266V10c0-5.523-4.478-10-10-10s-10 4.477-10 10v30h-65.495C137.217 40 102 75.217 102 118.505v182.989c0 21.137 8.412 40.336 22.045 54.464L2.929 477.075c-3.905 3.905-3.905 10.237 0 14.142 1.953 1.953 4.512 2.929 7.071 2.929s5.119-.977 7.071-2.929l122.661-122.66a78.254 78.254 0 009.379 4.872l-56.045 82.9-.024.036L65.976 496.4c-3.094 4.575-1.892 10.792 2.684 13.885a9.95 9.95 0 005.592 1.717 9.991 9.991 0 008.293-4.4l24.11-35.663h298.691l24.11 35.663a9.988 9.988 0 008.293 4.4 9.95 9.95 0 005.592-1.717c4.575-3.093 5.777-9.31 2.684-13.885l-27.066-40.035-.024-.036-56.045-82.9a78.254 78.254 0 009.379-4.872l98.962 98.963c1.953 1.953 4.512 2.929 7.071 2.929s5.118-.976 7.071-2.929c3.905-3.905 3.905-10.237 0-14.143zM122.001 118.505c0-32.259 26.245-58.505 58.504-58.505h150.99C363.755 60 390 86.246 390 118.505V120H122.001v-1.495zM390 140v124H245.143l124-124H390zm-267.999 0h141.357l-40.179 40.179c-3.905 3.905-3.905 10.237 0 14.143 1.953 1.953 4.512 2.929 7.071 2.929s5.118-.976 7.071-2.929L291.643 140h49.215L218.929 261.929a9.983 9.983 0 00-1.578 2.071h-95.35V140zm269.823 311.938H120.176l13.521-20h244.606l13.521 20zm-27.042-40H147.219l22.136-32.743c3.645.521 7.364.806 11.15.806h150.99c3.786 0 7.506-.285 11.15-.806l22.137 32.743zM331.496 360h-150.99c-32.26 0-58.505-26.246-58.505-58.505V284h268v17.495c0 32.26-26.245 58.505-58.505 58.505z"/></g></svg>