<svg height="555.234" viewBox="0 0 416.425 416.425" width="555.234" xmlns="http://www.w3.org/2000/svg"><path d="M148.164 328.598l161.27-161.266A84.722 84.722 0 00389 147.992a84.725 84.725 0 0026.047-77.629A10.666 10.666 0 00397 64.676l-37.797 37.8-45.254-45.253 37.801-37.801a10.666 10.666 0 00-5.688-18.043 84.715 84.715 0 00-77.628 26.047 84.722 84.722 0 00-19.34 79.566l-161.27 161.27c-32.113-5.75-64.238 10.015-79.344 38.933-15.101 28.918-9.68 64.293 13.391 87.36 23.066 23.07 58.441 28.492 87.36 13.386 28.917-15.101 44.683-47.23 38.933-79.343zm-88.351 28.015c-8.333-8.332-8.333-21.84 0-30.172 8.332-8.332 21.84-8.332 30.171 0 8.329 8.332 8.329 21.84-.004 30.172-8.328 8.328-21.835 8.328-30.168 0zm0 0" fill="#ffbe2e"/></svg>