<svg height="512" viewBox="0 0 512 512" width="512" xmlns="http://www.w3.org/2000/svg"><path d="M61 392c-33.091 0-61 26.909-61 60 0 32.446 26.884 58.96 61 59.971L211 512v-30h-44.941c-46.06 0-47.115-46.996-48.486-49.995C109.12 408.069 86.386 392 61 392zm391 0c-25.386 0-49.12 16.069-57.572 40.005-1.371 2.999-2.426 49.995-48.486 49.995H301v30h151c33.091 0 60-26.909 60-60s-26.909-60-60-60zM121 279.5V392h30v-30h32.371l-27.22-108.86zM391 392V279.5l-35.151-26.36L328.629 362H361v30zm-90 0h-90v2.578c0 30.908 12.539 61.172 34.395 83.027L256 488.211l10.605-10.605C288.461 455.75 301 425.486 301 394.578zM256 0l-10.605 10.605C221.931 34.063 204.227 61.033 192.354 90h127.291c-11.873-28.967-29.577-55.937-53.04-79.395zm-73.682 234.104L214.296 362h83.408l31.978-127.896c9.551-38.188 8.928-78.251-.201-114.104H182.52c-9.13 35.854-9.752 75.916-.202 114.104z" fill="#ffbe2e"/></svg>