<svg xmlns="http://www.w3.org/2000/svg" viewBox="0 0 753.5 124.31"><defs><linearGradient id="a" x1="40.28" y1="45.17" x2="70.47" y2="143.92" gradientUnits="userSpaceOnUse"><stop offset=".39" stop-color="#ff9373"/><stop offset=".51" stop-color="#fe8f73"/><stop offset=".62" stop-color="#fb8373"/><stop offset=".73" stop-color="#f77073"/><stop offset=".83" stop-color="#f15472"/><stop offset=".94" stop-color="#e93172"/><stop offset="1" stop-color="#e41a72"/></linearGradient><linearGradient id="b" x1="138.69" y1="62.19" x2="11.99" y2="62.19" gradientUnits="userSpaceOnUse"><stop offset=".09" stop-color="#ff9373"/><stop offset=".15" stop-color="#fd8a73"/><stop offset=".55" stop-color="#f04e72"/><stop offset=".85" stop-color="#e72872"/><stop offset="1" stop-color="#e41a72"/></linearGradient><linearGradient id="c" x1="139.06" y1="62.15" x2="88.07" y2="62.15" gradientUnits="userSpaceOnUse"><stop offset="0" stop-color="#ff9373"/><stop offset="1" stop-color="#e41a72"/></linearGradient></defs><g data-name="Layer 2"><g data-name="Layer 1"><path d="M197.32 38.84l-15.84 48.84h17.17l2.29-9.32h13.18l2.22 9.32H234l-16-48.84zm6.25 28.79l2-8 1.93-8.29h.22l2 8.29 1.89 8zm71.67-5.11a10.63 10.63 0 00-2.11-5.92 14.83 14.83 0 00-6.33-4.77 27.76 27.76 0 00-11.1-1.89 24.31 24.31 0 00-10.76 2.26 16.64 16.64 0 00-7.18 6.55 20.08 20.08 0 00-2.55 10.43 20.09 20.09 0 002.55 10.44 16.45 16.45 0 007.36 6.55 26.88 26.88 0 0011.47 2.25 26.44 26.44 0 009.73-1.62 16.25 16.25 0 006.4-4.26 8.87 8.87 0 002.37-5.73l-15.24-4.74a9 9 0 01-.48 2.66 3.79 3.79 0 01-1.08 1.67 2.66 2.66 0 01-1.77.55 4.22 4.22 0 01-2.15-.55 3.76 3.76 0 01-1.51-2.18 15.48 15.48 0 01-.56-4.81 22.42 22.42 0 01.41-4.85 4.1 4.1 0 011.29-2.44 3.87 3.87 0 012.4-.71 2.69 2.69 0 012.41 1.37 7.7 7.7 0 01.7 4.33zm42.4 13.03V64.08a12.54 12.54 0 00-4.77-10.33q-4.77-3.81-14.1-3.81-9 0-13.87 3.56a12.8 12.8 0 00-5.44 9.84l14.35 2.07a5.37 5.37 0 011.11-3.48 3.61 3.61 0 012.67-1 3 3 0 012.37.93 4 4 0 01.81 2.7V66l-11.69 2.41a14.65 14.65 0 00-7.51 3.59 9.8 9.8 0 00.59 13.8c2.1 1.73 5.09 2.59 9 2.59a15.58 15.58 0 006.55-1.33 12 12 0 004.66-3.59 10.08 10.08 0 00.7-1 7.36 7.36 0 002.71 3.64c2.14 1.56 5 2.33 8.69 2.33a14.92 14.92 0 006.59-1.33l.74-8.73a2.88 2.88 0 01-1.26.22c-1.93-.02-2.9-1.03-2.9-3.05zm-17.28 1.63a3 3 0 01-1.07 1.14 3.1 3.1 0 01-3.55-.33 2.56 2.56 0 01-.74-1.92 3.31 3.31 0 01.66-2.15 4 4 0 012.22-1.18l2.89-.7v3.29a3.83 3.83 0 01-.41 1.85zm45.77.07a2.59 2.59 0 01-2.37-1 6.2 6.2 0 01-.66-3.25V35.88h-17v39.67q0 7 3 9.91t9.84 3a21 21 0 005.14-.66 11.91 11.91 0 004-1.7l.73-9.18c-.39.1-.8.19-1.22.26a8.79 8.79 0 01-1.46.07zm44.92-1.7V64.08a12.54 12.54 0 00-4.77-10.33q-4.78-3.81-14.1-3.81-9 0-13.88 3.56a12.86 12.86 0 00-5.44 9.84l14.36 2.07a5.37 5.37 0 011.11-3.48A3.6 3.6 0 01371 61a3 3 0 012.37.93 4 4 0 01.82 2.7V66l-11.7 2.41A14.73 14.73 0 00355 72a9.82 9.82 0 00.59 13.8q3.15 2.6 9 2.59a15.62 15.62 0 006.55-1.33 12.1 12.1 0 004.66-3.59 8.62 8.62 0 00.69-1 7.37 7.37 0 002.71 3.64c2.15 1.56 5 2.33 8.69 2.33a14.89 14.89 0 006.59-1.33l.74-8.73a2.82 2.82 0 01-1.26.22q-2.96-.02-2.91-3.05zm-17.28 1.63a3 3 0 01-1.07 1.14 3.11 3.11 0 01-3.56-.33 2.6 2.6 0 01-.74-1.92 3.25 3.25 0 01.67-2.15 3.91 3.91 0 012.22-1.18l2.89-.7v3.29a3.83 3.83 0 01-.41 1.85zm78.03-20.2l.3 10.06h-.15l-2.66-5.92-11.7-22.28h-18.64v48.85h14.94V69.56l-.29-10.07h.15l2.66 5.99 11.69 22.21h18.65V38.84H451.8v18.14zm53.1-4.78a23.13 23.13 0 00-10.62-2.26 24.33 24.33 0 00-10.77 2.26 16.6 16.6 0 00-7.18 6.59 20.11 20.11 0 00-2.55 10.39 20.6 20.6 0 002.48 10.4 16 16 0 007.25 6.59 26.6 26.6 0 0011.43 2.25 24.83 24.83 0 0011.92-2.81 11.85 11.85 0 006.43-8l-13.68-3.7a4 4 0 01-1.49 2.37 4.89 4.89 0 01-2.95.81 6.44 6.44 0 01-3-.59 3.69 3.69 0 01-1.66-2.22 8.9 8.9 0 01-.39-1.85h23.51a17.9 17.9 0 00.26-2c.07-.81.11-1.64.11-2.48a18.75 18.75 0 00-2.33-9.47 16 16 0 00-6.77-6.28zm-13.14 9.73a4.17 4.17 0 012.59-.74 2.94 2.94 0 013 1.93 11.14 11.14 0 01.63 3h-7.9a12.69 12.69 0 01.28-1.66 4.45 4.45 0 011.4-2.53zM547 77a13.17 13.17 0 01-2.59.22 4.64 4.64 0 01-3.37-1.07 4.94 4.94 0 01-1.04-3.56V62.15h9.32V50.68H540V38.1l-17 4.74v7.84h-5.7v11.47h5.7v13.1a14.34 14.34 0 001.8 7.75 10.23 10.23 0 005.33 4.18 25.4 25.4 0 008.69 1.29 29.58 29.58 0 006-.66 15.25 15.25 0 005-1.85l-.74-9.62A7.62 7.62 0 01547 77zm53.69-.93l-5.33-25.38h-16.72l-5.33 25.38-4.22-25.38h-17.61l10.06 37h21.17L587 69.48l4.29 18.21h21.16l10.07-37h-17.61l-4.22 25.38zm55.17-23.87a27.05 27.05 0 00-21.65 0 16.82 16.82 0 00-7.21 6.55 19.8 19.8 0 00-2.59 10.43 19.84 19.84 0 002.59 10.4 16.72 16.72 0 007.25 6.59 27.17 27.17 0 0021.65 0 16.85 16.85 0 007.21-6.59 19.84 19.84 0 002.59-10.4 19.8 19.8 0 00-2.59-10.43 16.94 16.94 0 00-7.25-6.55zm-7.7 21.8a4.39 4.39 0 01-1.16 2.29 2.91 2.91 0 01-2 .66 3 3 0 01-1.92-.66 4.26 4.26 0 01-1.21-2.29 21.4 21.4 0 01-.41-4.78 22 22 0 01.41-4.81 4.08 4.08 0 011.22-2.41 3.1 3.1 0 011.92-.63 3 3 0 012 .63 4.2 4.2 0 011.19 2.33 22 22 0 01.41 4.81 21.4 21.4 0 01-.45 4.86zm50.28-24.06a9.27 9.27 0 00-7 2.71 16.52 16.52 0 00-3.89 7.28l-.37-9.25h-15.31v37h17V69.92a5.81 5.81 0 01.93-3.4 5.87 5.87 0 012.55-2 9.66 9.66 0 013.85-.71 16.62 16.62 0 012.8.19 9.06 9.06 0 011.92.52l1.41-13.69a4.67 4.67 0 00-1.26-.59 8.55 8.55 0 00-2.63-.3zM735 87.69h18.5l-14-22.48 13.18-14.52H734.4l-10.8 13.07V35.88h-17.02v51.81h17.02v-7.18l4.75-5.78L735 87.69z" fill="#2d2d2d"/><path d="M99.25 92.37a73.3 73.3 0 00-20.92-2.93A71 71 0 0045 97.66l6.65-11.26 5.9-10 15.93-27.16 15 25L63.78 33 37.19 78.33l-26.59 46h19.23a66.78 66.78 0 0143.57-16.81c17.62-.07 33.55 6.33 45 16.79z" fill="url(#a)"/><path d="M64.25.07L32.12 54.52 0 109l5.3 7.34 5.3 8 26.59-46L63.78 33l24.65 41.26a78.7 78.7 0 00-10.61-.68 76.74 76.74 0 00-20.27 2.78l-5.9 10L45 97.66a71 71 0 0133.29-8.22 73.3 73.3 0 0120.92 2.93l19.11 31.94h20.33z" fill="url(#b)"/><path fill="url(#c)" d="M64.25.07l74.44 124.24 9.43-15.9L82.94 0 64.25.07z"/></g></g></svg>