<svg xmlns="http://www.w3.org/2000/svg" viewBox="0 0 4845.47 4280.19"><g data-name="Layer 2"><path d="M4804.11 1986.63L3748.27 155.79A309.27 309.27 0 003480.52 1L1367 0a309.26 309.26 0 00-267.9 154.5L41.51 1984.31a309.26 309.26 0 00-.15 309.26l1055.85 1830.84A309.23 309.23 0 001365 4279.16l2113.48 1a309.24 309.24 0 00267.9-154.5L4804 2295.89a309.26 309.26 0 00.11-309.26zM3348.2 3435.33a309.24 309.24 0 01-267.9 154.5l-1316.54-.64A309.23 309.23 0 011496 3434.43L838.29 2294a309.26 309.26 0 01.15-309.25l658.83-1139.89a309.26 309.26 0 01267.9-154.5l1316.54.64a309.28 309.28 0 01267.75 154.76l548 950.16H2669.1c-197.57 0-357.73 154.09-357.73 344.18 0 190.08 160.16 344.17 357.73 344.17h1228.82z" fill="#fff" data-name="Layer 1"/></g></svg>