<svg width="116" height="134" viewBox="0 0 116 134" fill="none" xmlns="http://www.w3.org/2000/svg"><path d="M73.06 49.22c.05-1.11.07-2.26.07-3.46a53.002 53.002 0 00-1.09-10.19 95.555 95.555 0 00-5.21-16.8A138.467 138.467 0 0057.52 0a139.401 139.401 0 00-9.3 18.75A96.408 96.408 0 0043 35.55a52.993 52.993 0 00-1.09 10.2c0 1.2 0 2.35.07 3.46a30.74 30.74 0 00-1.46 52.14V84.23l17-9.84 17 9.84v17.12a30.74 30.74 0 00-1.49-52.13h.03z" fill="#FFBE2E"/><path d="M71.52 19.73a90.425 90.425 0 014.92 17.72 42.5 42.5 0 11-37.82 0 90.33 90.33 0 014.9-17.73 57.52 57.52 0 1028 0v.01z" fill="#FFBE2E"/></svg>