<svg height="646pt" viewBox="-20 -53 646.668 646" width="646pt" xmlns="http://www.w3.org/2000/svg"><g fill="#ff9e04"><path d="M568.813 381.21H538.32v-23.085c-.023-21.117-17.132-38.227-38.25-38.25H315.602V196.996c52.296-6.59 90.46-52.703 87.16-105.305-3.297-52.609-46.93-93.586-99.637-93.586s-96.336 40.977-99.637 93.586c-3.304 52.602 34.86 98.715 87.157 105.305v122.879H106.184c-21.118.023-38.23 17.133-38.254 38.25v23.086H37.438C16.77 381.238.023 397.98 0 418.652v81.285c.023 20.668 16.77 37.415 37.438 37.438h83.714c20.664-.023 37.414-16.77 37.438-37.438v-81.285c-.024-20.672-16.774-37.414-37.438-37.441H92.891v-23.086c.007-7.34 5.949-13.281 13.293-13.293h184.46v36.379H261.27c-20.665.027-37.415 16.777-37.442 37.441v81.29c.027 20.663 16.777 37.413 37.442 37.437h83.714c20.664-.024 37.414-16.774 37.438-37.438v-81.289c-.024-20.672-16.774-37.414-37.438-37.441h-29.382v-36.383H500.07c7.336.008 13.282 5.957 13.293 13.293v23.086h-28.265c-20.664.023-37.414 16.773-37.438 37.438v81.292c.024 20.665 16.774 37.415 37.438 37.438h83.715c20.664-.023 37.414-16.773 37.437-37.438v-81.285c-.023-20.672-16.773-37.414-37.437-37.441zM228.245 97.966c0-41.352 33.524-74.88 74.879-74.88 41.352 0 74.875 33.528 74.875 74.88 0 41.351-33.523 74.875-74.875 74.875-41.355 0-74.879-33.524-74.879-74.875zm-94.613 320.687v81.285c-.012 6.887-5.594 12.47-12.48 12.481H37.437c-6.887-.012-12.47-5.594-12.481-12.48v-81.286c.012-6.89 5.594-12.476 12.48-12.48h83.715c6.887.004 12.47 5.59 12.48 12.48zm223.828 0v81.285c-.008 6.887-5.59 12.47-12.477 12.481H261.27c-6.891-.012-12.473-5.594-12.48-12.48v-81.286c.007-6.89 5.589-12.476 12.48-12.48h83.714c6.887.004 12.47 5.59 12.477 12.48zm223.832 81.285c-.012 6.887-5.594 12.47-12.48 12.481h-83.715c-6.887-.012-12.47-5.594-12.48-12.48v-81.286c.01-6.89 5.593-12.476 12.48-12.48h83.715c6.886.004 12.468 5.59 12.48 12.48zm0 0"/><path d="M38.531 464.098l24.114 23.554c3.882 3.785 10.074 3.785 13.953 0l43.457-42.43c3.945-3.85 4.023-10.171.172-14.117-3.856-3.949-10.172-4.02-14.122-.171l-36.48 35.62-17.148-16.738a9.967 9.967 0 00-9.672-2.59 9.975 9.975 0 00-7.055 7.102 9.988 9.988 0 002.66 9.652zm223.829 0l24.12 23.554a9.984 9.984 0 0013.954 0l43.457-42.43a9.976 9.976 0 00.164-14.117c-3.848-3.949-10.168-4.02-14.118-.171l-36.48 35.62-17.148-16.738c-3.946-3.851-10.262-3.777-14.118.164-3.851 3.95-3.773 10.266.168 14.118zm291.413-33.164l-36.488 35.62-17.148-16.738c-3.946-3.851-10.266-3.777-14.117.164a9.983 9.983 0 00.171 14.118l24.122 23.554a9.98 9.98 0 0013.949 0l43.46-42.43c3.977-3.82 4.102-10.14.286-14.117-3.817-3.976-10.14-4.105-14.117-.289l-.121.118zm0 0"/></g></svg>