<svg width="34" height="40" viewBox="0 0 34 40" fill="none" xmlns="http://www.w3.org/2000/svg"><path fill-rule="evenodd" clip-rule="evenodd" d="M15 0h4.692v13.414c4.105 1.017 7.148 4.725 7.148 9.144a9.378 9.378 0 01-1.874 5.64l-2.73-3.151a5.42 5.42 0 10-9.915-.644L9.5 27.66A9.376 9.376 0 018 22.558c0-4.366 2.97-8.038 7-9.106V0z" fill="url(#paint0_linear)"/><path fill-rule="evenodd" clip-rule="evenodd" d="M23.73 11.477A12.993 12.993 0 0130 22.602c0 7.18-5.82 13-13 13s-13-5.82-13-13a13 13 0 016.962-11.516L8.29 8C3.325 10.968 0 16.397 0 22.602c0 9.389 7.611 17 17 17s17-7.611 17-17c0-5.923-3.03-11.139-7.623-14.182l-2.648 3.057z" fill="url(#paint1_linear)"/><defs><linearGradient id="paint0_linear" x1="23.485" y1="22.992" x2="12.223" y2="4.223" gradientUnits="userSpaceOnUse"><stop stop-color="#66FCF1"/><stop offset="1" stop-color="#45A29E" stop-opacity="0"/></linearGradient><linearGradient id="paint1_linear" x1="3.091" y1="20.118" x2="46.67" y2="21.12" gradientUnits="userSpaceOnUse"><stop stop-color="#66FCF1"/><stop offset="1" stop-color="#45A29E" stop-opacity="0"/></linearGradient></defs></svg>