<svg width="116" height="134" viewBox="0 0 116 134" fill="none" xmlns="http://www.w3.org/2000/svg"><path d="M73.04 49.72c0-1.11.07-2.26.07-3.46a53.01 53.01 0 00-1.09-10.19 95.547 95.547 0 00-5.21-16.8A138.467 138.467 0 0057.5.5a139.403 139.403 0 00-9.3 18.75 96.408 96.408 0 00-5.22 16.8 53 53 0 00-1.09 10.2c0 1.2 0 2.35.07 3.46a30.741 30.741 0 00-1.49 52.13V84.73l17-9.84 17 9.84v17.12a30.74 30.74 0 00-1.49-52.13h.06z" fill="#000"/><path d="M71.5 20.23a90.432 90.432 0 014.92 17.72 42.5 42.5 0 11-37.82 0 90.33 90.33 0 014.92-17.73 57.52 57.52 0 1028 0l-.02.01z" fill="#000"/></svg>