<svg width="117" height="134" viewBox="0 0 117 134" fill="none" xmlns="http://www.w3.org/2000/svg"><path d="M74.04 49.72c.05-1.11.07-2.26.07-3.46a52.994 52.994 0 00-1.09-10.19 95.547 95.547 0 00-5.21-16.8A138.479 138.479 0 0058.5.5a139.402 139.402 0 00-9.3 18.75 96.417 96.417 0 00-5.22 16.8 53 53 0 00-1.09 10.2c0 1.2 0 2.35.07 3.46a30.741 30.741 0 00-1.46 52.14V84.73l17-9.84 17 9.84v17.12a30.74 30.74 0 00-1.49-52.13h.03z" fill="#AD074F"/><path d="M72.5 20.23a90.432 90.432 0 014.92 17.72 42.5 42.5 0 11-37.82 0 90.332 90.332 0 014.9-17.73 57.52 57.52 0 1028 0v.01z" fill="#AD074F"/></svg>