<svg height="512" viewBox="0 0 64 64" width="512" xmlns="http://www.w3.org/2000/svg"><g fill="#ff9e04"><path d="M33.991 40.995c.106 0 .213-.002.32-.006 4.957-.174 8.848-4.349 8.673-9.306-.174-4.957-4.331-8.812-9.306-8.673-4.957.175-8.848 4.35-8.673 9.306.171 4.85 4.171 8.679 8.986 8.679zm-4.883-8c.126.628.372 1.216.724 1.748l-1.441 1.441a6.956 6.956 0 01-1.319-3.188h2.036zm9.774-1.99a4.922 4.922 0 00-.723-1.748l1.436-1.436a6.943 6.943 0 011.323 3.183h-2.036zm-7.081-1.05a2.98 2.98 0 012.089-.953c.036-.002.072-.002.108-.002.761 0 1.482.284 2.043.805.586.546.924 1.288.952 2.089s-.257 1.564-.804 2.151a2.978 2.978 0 01-2.089.952 3.06 3.06 0 01-2.151-.804 2.978 2.978 0 01-.952-2.089 2.977 2.977 0 01.804-2.149zm-.561 6.207a4.933 4.933 0 001.75.732v2.025a6.943 6.943 0 01-3.187-1.32zm3.75.725a4.906 4.906 0 001.748-.724l1.437 1.437a6.95 6.95 0 01-3.185 1.322zm1.758-9.047A4.926 4.926 0 0035 27.119v-2.034a6.959 6.959 0 013.18 1.322zM33 27.112a4.916 4.916 0 00-1.748.724l-1.437-1.437A6.937 6.937 0 0133 25.078zm6.59 9.076l-1.435-1.435a4.925 4.925 0 00.724-1.748h2.034a6.965 6.965 0 01-1.323 3.183zM28.4 27.812l1.435 1.435a4.925 4.925 0 00-.724 1.748h-2.034a6.976 6.976 0 011.323-3.183z"/><circle cx="33.995" cy="32" r="1"/><path d="M58 1H12C9.243 1 7 3.243 7 6v23H3c-1.103 0-2 .897-2 2 0 2.206 1.794 4 4 4h2v23c0 2.757 2.243 5 5 5h46c2.757 0 5-2.243 5-5V6c0-2.757-2.243-5-5-5zM3 31h8.13l.289-.497c.688-1.185 2.002-1.739 3.348-1.409a2.98 2.98 0 012.148 2.173c.219.941.019 1.864-.563 2.596A2.989 2.989 0 0114 35c-1.068 0-2.033-.562-2.581-1.503L11.13 33H5c-1.103 0-2-.897-2-2zm55 30H12c-1.654 0-3-1.346-3-3V35h1.021A5.005 5.005 0 0014 37a4.973 4.973 0 003.917-1.893 5.022 5.022 0 00.945-4.293 4.956 4.956 0 00-3.621-3.662c-1.996-.489-4.023.249-5.222 1.848H9V6c0-1.654 1.346-3 3-3h46c1.654 0 3 1.346 3 3v7h-2V7c0-1.103-.897-2-2-2H13c-1.103 0-2 .897-2 2v18h9c.552 0 1 .449 1 1v12a1 1 0 01-1 1h-9v18c0 1.103.897 2 2 2h44c1.103 0 2-.897 2-2v-6h2v7c0 1.654-1.346 3-3 3zM20 23h-7v-2h31c.552 0 1 .449 1 1v20a1 1 0 01-1 1H13v-2h7c1.654 0 3-1.346 3-3V26c0-1.654-1.346-3-3-3zm-7 22h31c1.654 0 3-1.346 3-3V22c0-1.654-1.346-3-3-3H13V7h44v6h-2v4h-4v6h4v4h2v10h-2v4h-4v6h4v4h2v6H13zm42-24h-2v-2h2zm0 24h-2v-2h2zm2 4v-4h4v4zm0-6v-4h4v4zm2-6V27h2v10zm-2-12v-4h4v4zm0-6v-4h4v4z"/><circle cx="42" cy="24" r="1"/><circle cx="42" cy="40" r="1"/><circle cx="26" cy="24" r="1"/><circle cx="26" cy="40" r="1"/><path d="M23 9h2v2h-2zm4 0h2v2h-2zM15 9h2v2h-2zm4 0h2v2h-2zm26 44h2v2h-2zm4 0h2v2h-2zm4 0h2v2h-2zm-12 0h2v2h-2z"/></g></svg>